<svg width="2456" height="692" xmlns="http://www.w3.org/2000/svg" xmlns:xlink="http://www.w3.org/1999/xlink" xml:space="preserve" overflow="hidden"><g transform="translate(-809 -1068)"><path d="M809.5 1068.5 3264.5 1068.5 3264.5 1759.5 3263.43 1759.5 3263.32 1758.09C3262.9 1758.21 3262.48 1758.34 3262.06 1758.47L3261.9 1758.15 3261.64 1758.45 3261.22 1758.26C3258.75 1758.05 3258.39 1758.06 3257.86 1757.38L3257.29 1757.66C3256.34 1757.07 3255.6 1757.2 3254.8 1756.59L3254.38 1756.95C3254.08 1756.96 3254.14 1756.73 3253.84 1756.74 3253.52 1756.76 3253.79 1756.95 3253.51 1756.99 3253.22 1757.04 3252.81 1756.9 3252.52 1756.94 3252 1756.59 3252.02 1756.62 3251.55 1756.26 3248.95 1757.05 3248.37 1755.83 3246.69 1755.71 3245.87 1755.07 3245.91 1755.08 3245.56 1754.08 3245.22 1754.87 3245.36 1754.86 3244.62 1755.63 3244.31 1755.44 3244 1755.26 3243.69 1755.07L3243.3 1755.38C3242.46 1755.22 3241.7 1755.03 3240.96 1754.84 3238.96 1754.3 3238.88 1754.32 3238.79 1754.26L3237.8 1754.18C3236.34 1752.18 3236.27 1752 3236.18 1751.81L3235.87 1752.19 3235.36 1751.66 3234.68 1751.85C3234.45 1751.68 3233.15 1750.7 3232.59 1749.64L3232.32 1749.87 3231.88 1749.51C3231.69 1749.69 3231.5 1749.88 3231.31 1750.07 3230.66 1749.28 3229.32 1748.55 3228.58 1747.77 3226.46 1745.52 3224.69 1743.24 3222.76 1740.98 3219.95 1737.66 3216.17 1735.55 3215.37 1733.24 3214.71 1733.89 3214.64 1733.86 3213.66 1734.47L3212.97 1734.29C3212.51 1734.16 3212.06 1734.03 3211.6 1733.9L3210.19 1733.94 3209.7 1734.14C3209.4 1733.96 3209.11 1733.78 3208.81 1733.6L3208.28 1733.85 3207.89 1733.6 3207.64 1733.83 3207.17 1733.62 3206.8 1733.9 3206.6 1733.54 3206.16 1733.93 3205.62 1733.43C3205.36 1734.07 3205.32 1734.05 3204.27 1735.77L3203.81 1735.45C3202.04 1736.99 3204.09 1737.95 3198.21 1737.65 3196.51 1736.17 3190.7 1735.31 3190.46 1734.9 3190.36 1734.7 3190.64 1734.5 3190.46 1734.3L3190 1734.62C3189.24 1733.81 3188.78 1733.88 3187.68 1733.11 3187.1 1733.66 3186.96 1733.63 3186.51 1734.2 3185.26 1733.65 3180.1 1730.34 3179.33 1730.13 3178.47 1728.57 3179.07 1728.54 3176.51 1727.11 3174.75 1728.44 3174.69 1728.43 3174.53 1728.67L3174.16 1728.35C3173.56 1729 3173.53 1728.98 3173.49 1729.04L3172.96 1728.66C3172.8 1728.91 3172.64 1729.15 3172.49 1729.4 3172.18 1728.52 3172.18 1728.52 3172.18 1728.52 3172.04 1728.49 3171.84 1728.49 3171.12 1729.06L3170.59 1728.61C3170.49 1728.73 3170.6 1729.14 3169.68 1728.76 3169.32 1729.94 3168.38 1731.38 3167.89 1734.1 3166.76 1730.52 3164.97 1728.72 3164.75 1728.31 3163.64 1730.15 3163.76 1730.15 3163.56 1730.3L3162.86 1729.91C3161.59 1729.88 3161.65 1730.01 3161.6 1729.98 3160.73 1729.55 3159.97 1728.46 3159.88 1728.32 3159.49 1728.7 3159.37 1728.67 3158.75 1729.01 3157.85 1728.15 3156.66 1724.28 3154.7 1717.34 3153.81 1719.26 3153.92 1719.24 3152.01 1721.08 3149.94 1723.07 3150.27 1723.07 3148.45 1725.06 3148.01 1724.72 3148.13 1724.73 3147.64 1724.38 3141.58 1733.66 3139.89 1734.01 3137.21 1733.72 3136.27 1734.03 3136.22 1734 3135.25 1734.31 3133.4 1732.91 3133.15 1732.93 3132.58 1731.46 3131.88 1729.65 3131.36 1727.83 3130.77 1726.01 3129.33 1729.05 3129.34 1730.33 3127.15 1732.2 3126.09 1731.97 3126.16 1731.98 3125.42 1731.65 3123.34 1732.5 3121.65 1731.33 3121.6 1731.3L3120.93 1731.65C3120.17 1731.41 3118.97 1731.29 3118.09 1731.08 3114.68 1730.26 3116.01 1730.05 3113 1724.87 3110.92 1725.37 3110.98 1725.43 3110.46 1725.39 3109.32 1725.31 3109.78 1725.18 3106.02 1716.85 3104.84 1719.32 3105.25 1724.55 3101.77 1726.15 3101.55 1725.89 3101.33 1725.83 3100.82 1724.9L3100.65 1725.11C3100.5 1724.8 3100.35 1724.49 3100.2 1724.18 3099.65 1724.38 3099.66 1724.19 3099.34 1723.96 3099.12 1724.25 3098.9 1724.53 3098.69 1724.82L3098.51 1724.43C3098.37 1724.75 3098.23 1725.07 3098.1 1725.39 3097.33 1725.17 3097.05 1725.19 3096.55 1725.45L3095.45 1724.86C3093.23 1719.62 3093.3 1719.62 3093.04 1719.17L3092.86 1719.92C3091.53 1715.73 3091.36 1715.64 3090.72 1715.31 3089.03 1719.28 3083.9 1723.28 3079.44 1729.52L3079.19 1729.25C3078.7 1729.8 3078.22 1730.35 3077.74 1730.9 3076.1 1728.76 3076.56 1728.75 3074.62 1726.63L3074.43 1726.86 3073.77 1726.48C3072.93 1727.23 3072.94 1727.23 3072.86 1727.29 3072.51 1727.13 3071.19 1726.54 3069.81 1725.17 3066.5 1721.86 3067.21 1721.84 3066.89 1721.55 3062.98 1722.4 3066.29 1720.96 3064.52 1719.68L3064.22 1719.92C3064.18 1719.86 3063.86 1719.39 3063.47 1719.23 3061.93 1720.1 3061.53 1720.2 3060.96 1721.84 3060.51 1721.78 3060.22 1721.77 3059.03 1718.85 3058.33 1720.42 3058.33 1720.39 3057.77 1721.95 3057.7 1721.81 3053.77 1711.8 3053.72 1711.62L3053.61 1711.96C3052.93 1709.78 3052.95 1709.8 3052.63 1707.6L3052.29 1708.37C3052.12 1707.96 3051.95 1707.55 3051.78 1707.13 3049.97 1709.9 3050.07 1716.64 3048.78 1715.46 3046.8 1727.12 3043.12 1735.32 3042.36 1737.04 3042.09 1736.32 3037.44 1721.68 3037.39 1721.39 3036.86 1722.64 3032.65 1740.09 3026.6 1739.23 3025.76 1738.25 3025.29 1738.32 3023.59 1737.44 3021.67 1738.74 3015.77 1737.78 3015.03 1737.34 3014.26 1737.81 3012.28 1737.52 3012.07 1737.48 3006.57 1736.65 3003.88 1736 3003.24 1735.85 3003.01 1736 3002.78 1736.16 3002.54 1736.32 3001.05 1736.42 3000.69 1736.44 3000.27 1736.02 2999.79 1736.5 2998.95 1736.46 2997.91 1736.07 2995.65 1736.6 2992.33 1734.38 2991.43 1734.29 2990.84 1734.23 2990.14 1734.86 2990.08 1734.92L2989.88 1734.43C2989.23 1735.08 2987.13 1734.51 2986.33 1735.07L2985.96 1734.77C2985.34 1734.91 2985.96 1735.16 2985.26 1735.05 2984.1 1734.85 2983.95 1734.65 2983.06 1734.92 2981.65 1734.01 2981.34 1734.01 2981.15 1734.07 2980.92 1734.15 2980.97 1734.27 2980.7 1734.34L2980.05 1733.85C2979.81 1734.18 2979.59 1734.13 2979.04 1734.43 2978.7 1734.17 2972.81 1720.7 2971.24 1715.01 2970.84 1715.87 2970.92 1715.85 2970.54 1716.32L2970.32 1715.79 2969.86 1717.2C2969.6 1717.32 2968.55 1717.08 2968.34 1717.21 2967.32 1717.81 2966.48 1720.14 2966.38 1720.4 2966.16 1720.13 2965.93 1719.86 2965.71 1719.59 2965.53 1720.02 2965.34 1720.45 2965.16 1720.89 2964.86 1720.33 2964.4 1720.39 2963.99 1719.84 2963.57 1720.85 2963.52 1720.85 2963.49 1720.94 2963.02 1720.18 2963.14 1720.2 2962.92 1719.43 2962.34 1720.28 2962.41 1720.28 2962.35 1720.35 2961.1 1714.96 2960.75 1714.16 2960.53 1713.62 2960.35 1713.8 2960.19 1713.96 2959.65 1715.89 2959.59 1715.66 2958.8 1712.77 2958.44 1713.06 2956.86 1714.31 2956.63 1715.66 2955.74 1716.96 2955.62 1716.88 2954.83 1716.36 2954.05 1715.97L2953.81 1716.38C2950.14 1710.15 2950.72 1710.14 2950.37 1709.6 2949.98 1709.86 2949.6 1710.12 2949.21 1710.39L2948.97 1710.16C2948.5 1711.09 2948.38 1711.06 2947.87 1711.98L2947.17 1711.52C2946.94 1711.67 2946.72 1711.83 2946.5 1711.98L2946.18 1711.73 2945.77 1711.95C2945.61 1711.64 2944.06 1708.7 2943.81 1708.1 2943.15 1708.72 2943.86 1708.75 2939.64 1716.08 2939.45 1716.42 2939.05 1716.75 2938.92 1717.08L2938.66 1716.81C2936.43 1723.68 2937.02 1725.24 2935.06 1727.66 2934.91 1727.29 2935.73 1726.72 2934.5 1726.54 2933.46 1726.4 2934.04 1727.17 2933.86 1727.49L2933.58 1727.03 2933.21 1727.25C2930.4 1723.94 2931.24 1720.88 2929.24 1716.33 2923.23 1723.77 2929.23 1723.95 2924.44 1731.45 2924.06 1730.67 2923.66 1730.71 2923.25 1729.94 2922.57 1731.31 2923.01 1731.3 2921.86 1732.63L2921.5 1732.33C2920.69 1733.47 2919.36 1736.94 2918.49 1737.53L2917.89 1736.94C2917.75 1737.02 2915.94 1738.04 2914.2 1737.31 2914.11 1737.46 2913.32 1738.85 2912.22 1739.09 2912 1739.14 2911.71 1738.77 2909.02 1739.11 2908.39 1737.79 2908.12 1737.82 2907.48 1736.51 2906.74 1737.42 2905.89 1735.21 2905.85 1735.09 2904.97 1736.5 2904.91 1736.48 2904.69 1737.1L2904.33 1736.46C2904.18 1736.75 2904.03 1737.04 2903.88 1737.32L2903.51 1736.32C2903.49 1736.36 2903.11 1737.03 2902.23 1736.66 2901.96 1737.11 2901.91 1737.09 2901.63 1737.56 2900.97 1737.03 2900.89 1737.06 2900.32 1736.52L2900.02 1737.39C2897.97 1736.76 2897.9 1736.78 2897.81 1736.71 2897.66 1736.94 2897.53 1737.18 2897.39 1737.41 2897.07 1737.17 2896.75 1736.93 2896.43 1736.68 2896.1 1736.88 2895.92 1737.3 2894.32 1736.77L2893.94 1737.04 2893.46 1736.61C2893.26 1736.82 2893.06 1737.03 2892.85 1737.24 2891.53 1736.83 2891.4 1737.41 2891.2 1737.55 2889.52 1736.77 2887.74 1737.35 2887.45 1736.98 2886.85 1736.23 2887.5 1735.46 2885.7 1736.06L2885.22 1735.78 2884.56 1735.94C2882.57 1734.9 2883.32 1734.86 2883.05 1733.7 2882.99 1733.84 2881.51 1737.5 2879.37 1735.12L2878.84 1735.69C2878.35 1734.91 2878.51 1734.91 2877.02 1734.23 2875.63 1734.21 2875.45 1734.11 2874.68 1734.41 2874.46 1733.6 2874.38 1733.62 2874.11 1732.79L2873.77 1733.17C2873.6 1732.74 2873.43 1732.32 2873.26 1731.9L2872.97 1732.19 2872.74 1731.96C2871.91 1733.1 2872.36 1733.11 2871.34 1734.25 2871.21 1734.01 2871.08 1733.77 2870.95 1733.53 2870.17 1734.08 2870.03 1733.45 2869.73 1732.65 2869.62 1732.82 2869.99 1733.02 2869.64 1733.16 2869.22 1733.34 2868.71 1732.78 2868.68 1732.74L2868.39 1732.96C2868.09 1732.76 2867.8 1732.56 2867.5 1732.36 2866.57 1732.78 2867.06 1732.98 2866.96 1732.94 2866.59 1732.79 2866.1 1732.65 2865.94 1732.47L2865.55 1732.83C2864.81 1732.25 2864.39 1732.31 2863.98 1731.72L2863.28 1732.38C2862.75 1731.69 2861.56 1731.04 2861.03 1730.34 2860.09 1729.1 2859.84 1727.83 2858.89 1726.59 2858.78 1726.44 2858.07 1726.37 2857.89 1726.23 2857.48 1725.92 2857.63 1725.57 2857.16 1725.26 2857.01 1725.16 2856.53 1725.08 2856.14 1725.1L2855.59 1724.83C2854.85 1725.07 2854.88 1725.07 2853.77 1725.12 2853.52 1724.95 2853.27 1724.77 2853.02 1724.6L2852.61 1724.97C2850.7 1723.01 2846.81 1719.83 2845.64 1709.92 2844.84 1714.45 2845.05 1714.44 2844.19 1716.62 2844.01 1717.08 2843.34 1717.52 2843.19 1717.99L2842.86 1717.5C2842.76 1717.64 2842.03 1718.59 2841.68 1719.2L2841.67 1719.2C2841.49 1719.01 2840.88 1718.4 2840.04 1716.8 2838.68 1718.3 2839.23 1720.28 2838.57 1718.73 2838.04 1720.1 2837.68 1720.06 2837.03 1721.43 2836.84 1721.17 2836.66 1720.91 2836.47 1720.65 2835.8 1721.23 2835.88 1721.21 2835.56 1721.82L2835.34 1721.37 2834.98 1722.39 2834.73 1722.05 2834.34 1722.5 2833.86 1722.1C2832.79 1725.21 2830.28 1727.1 2829.74 1728.24L2829.46 1728.01C2829.14 1728.39 2829.09 1728.37 2828.84 1728.75L2828.71 1728.54C2825.94 1731.54 2826.25 1731.54 2825.16 1734.63L2824.03 1733.69C2822.99 1734.44 2824.32 1735.37 2822.6 1734.71 2822.41 1734.96 2822.21 1735.21 2822.02 1735.47L2821.47 1735.07 2820.15 1736.04C2819.5 1736.09 2818.76 1736.01 2818.11 1736.06 2817.66 1736.1 2817.46 1736.26 2817.01 1736.29 2816.76 1736.31 2816.49 1736.26 2816.29 1736.21L2815.54 1736.17C2812.89 1738.59 2813.12 1738.85 2812.7 1738.67 2812.33 1738.52 2812.47 1738.3 2812.07 1738.15L2811.61 1738.38C2811.47 1738.04 2811.32 1737.69 2811.18 1737.35 2810.92 1738.04 2811.07 1738.03 2810.37 1738.69L2809.93 1738.28 2809.66 1738.52 2809.34 1738.26C2808.78 1738.87 2808.47 1738.85 2808.34 1738.81 2807.83 1738.68 2807.43 1738.53 2807.07 1738.36L2805.84 1738.84C2805.09 1738.79 2804.52 1738.6 2803.77 1738.56 2803.46 1738.54 2803.09 1738.96 2803.06 1739 2802.8 1738.62 2802.86 1738.61 2801.75 1738.35 2801.35 1738.63 2800.97 1738.81 2800.89 1738.84L2800.12 1738.47C2798.79 1739.03 2798.76 1738.45 2798.71 1738.38 2798.25 1739.24 2797.04 1739.05 2795.44 1739.41 2795.01 1739.06 2794.59 1738.72 2794.16 1738.37 2792.97 1739.24 2792.78 1739.36 2792.64 1739.44 2791.49 1737.73 2791.45 1737.76 2790.98 1736 2790.93 1736.07 2790.93 1736.07 2790.48 1737.12L2789.3 1734.16C2789.11 1734.06 2788.28 1734.21 2788.09 1734.11 2787.58 1733.84 2787.72 1733.51 2787.49 1733.21 2786.25 1731.59 2784.36 1730.01 2783.68 1728.37L2783.35 1728.59C2782.17 1728.39 2781.86 1728.48 2781.57 1728.86 2780.87 1726.83 2780.84 1726.86 2780.32 1724.81L2780.15 1725.05C2779.64 1722.56 2779.63 1722.57 2779.23 1720.06 2778.75 1721.43 2778.9 1721.42 2777.54 1722.73 2777.28 1722.53 2775.93 1720.75 2775.8 1720.58 2774.36 1720.41 2774.67 1720.33 2773.86 1719.96L2773.36 1720.18C2772.88 1719.84 2772.68 1719.84 2771.92 1715.63 2771.49 1717.36 2771.49 1717.35 2771 1719.1L2770.72 1718.87C2769.86 1719.77 2769.28 1720.82 2769.18 1720.99L2768.55 1720.49C2768.3 1720.93 2768.05 1721.36 2767.8 1721.8 2767.62 1721.56 2767.43 1721.32 2767.26 1721.08L2767.1 1721.27C2765.65 1715.53 2766.02 1715.52 2765.54 1715.04 2764.61 1717.86 2764.72 1717.84 2764.63 1718.09 2764.21 1716.7 2764.34 1716.72 2764.09 1715.71 2763.77 1716.42 2764.12 1717.15 2763.32 1717.83 2763.01 1718.09 2762.68 1717.31 2762.51 1717.04 2762.45 1717.12 2762.03 1717.66 2761.66 1718.02L2760.51 1717.16C2760.03 1718.42 2761.49 1718.77 2758.28 1718.97 2757.65 1717.47 2757.27 1717.5 2756.75 1716.7 2754.82 1717.48 2755.43 1717.53 2754.41 1718.43 2754.1 1718.23 2753.79 1718.03 2753.48 1717.83 2752.94 1718.52 2751.74 1719.15 2751.06 1719.82 2750.39 1720.48 2750.16 1721.17 2749.41 1721.82L2748.84 1721.57C2748.01 1722.88 2747.33 1722.81 2745.03 1723.56 2742.99 1724.22 2742.83 1724.2 2742.05 1725.04 2740.21 1724.7 2736.72 1726.27 2736.41 1726.41L2734.37 1726.08C2733.18 1727.97 2733.29 1727.97 2733.08 1728.12 2733.05 1728.11 2732.45 1727.8 2732.31 1728 2731.75 1728.79 2731.68 1729.61 2731.02 1730.4 2730.97 1730.47 2730.43 1730.36 2730.28 1730.41 2729.08 1730.87 2728.49 1731.65 2728.4 1731.77 2727.91 1732.41 2727.66 1733.07 2727.03 1733.71 2726.58 1733.24 2726.18 1733.29 2725.84 1732.8 2725.04 1734.07 2724.21 1734 2723.17 1735.25 2723.13 1735.16 2722.76 1734.43 2722.33 1734.18 2722.2 1734.41 2722.08 1734.64 2721.96 1734.86L2721.57 1734.51C2721.46 1734.65 2720.91 1735.44 2720.52 1736.28 2719.83 1735.83 2719.8 1735.8 2719.75 1735.75L2719.43 1735.96C2719.37 1735.75 2719.23 1735.76 2718.57 1733.33 2718.1 1733.77 2718.27 1733.76 2718.05 1734.42 2717.53 1734.05 2717.53 1734.07 2717.28 1733.67 2716.69 1735.28 2715.91 1735.23 2715.34 1736.59 2714.78 1736.26 2714.86 1736.27 2714.66 1735.92 2714.28 1736.49 2713.86 1737.65 2713.8 1737.8L2713.7 1737.52 2713.58 1737.69 2713.52 1737.44C2712.74 1738.75 2712.59 1738.73 2712.12 1740.04 2711.22 1739.07 2711.11 1739.09 2710.51 1738.1L2710.38 1738.36 2709.74 1737.81C2706.83 1741.88 2706.09 1741.83 2704.81 1745.98 2704.65 1745.35 2704.6 1745.37 2704.43 1744.75 2703.8 1746.67 2703.24 1746.64 2701.71 1750.28 2701.58 1749.97 2701.45 1749.66 2701.32 1749.34L2700.47 1750.3 2698.37 1749.07C2695.29 1750.92 2695.99 1751.12 2693.54 1751.35 2689.25 1751.75 2688.17 1751.99 2686.17 1750.88L2685.17 1751.42 2683.84 1749.88C2683.58 1750.04 2684.17 1750.19 2680.68 1751.32 2679.7 1751.58 2680.34 1751.68 2679.36 1751.96 2678.62 1752.16 2678.76 1751.87 2676.48 1750.11L2675.02 1751.23 2674.07 1751.74 2672.99 1750.73 2670.87 1751.7C2670.52 1751.81 2669.68 1751.57 2669.33 1751.67 2668.81 1751.82 2669.16 1752.09 2668.89 1752.28 2667.66 1753.17 2667.23 1753.07 2664.97 1753.78L2662.3 1753.18C2660.68 1753.18 2659.06 1753.19 2657.44 1753.19 2656.8 1753.29 2656.58 1753.54 2655.94 1753.64 2655.29 1753.75 2654.44 1753.74 2653.73 1753.82 2648.38 1754.45 2648.46 1754.48 2647.96 1754.5L2645.27 1753.65C2644.03 1753.9 2643.15 1754.26 2641.91 1754.51 2641.45 1754.6 2640.85 1754.66 2640.27 1754.66 2639.02 1754.66 2637.8 1754.46 2636.56 1754.51 2634.74 1754.58 2633.13 1754.86 2631.37 1755 2630.87 1755.04 2627.07 1755.35 2624.94 1754.95 2618.39 1755.16 2622.35 1754.02 2621.41 1752.25 2620.9 1751.3 2619.93 1750.36 2619.48 1749.41 2619.26 1749.63 2619.04 1749.85 2618.82 1750.07 2618.62 1749.68 2617.78 1749.74 2614.83 1745.28 2613.58 1743.38 2612.57 1741.48 2611.5 1739.57L2611.2 1739.85C2609.84 1738.38 2610.3 1738.38 2609.96 1736.88L2609.6 1737.38C2609.02 1735.13 2598.5 1712.11 2597.99 1711.71 2597.74 1711.78 2597.36 1711.89 2596.4 1712.91 2595.13 1711.63 2595.67 1711.46 2594.12 1711.39 2593.18 1711.35 2593.04 1711.82 2593.02 1711.86 2592.93 1712.16 2593.15 1712.46 2592.89 1712.74 2592.44 1712.14 2592.51 1712.17 2592.16 1711.55 2592.1 1711.75 2591.99 1711.96 2591.69 1712.14 2591.57 1712.22 2591.74 1711.97 2591.63 1711.89 2591.03 1712.36 2591.99 1712.37 2591.52 1712.85 2590.85 1713.52 2590.08 1712.06 2590.04 1711.99 2588.93 1713.29 2589.2 1713.28 2588.78 1714.61L2588.58 1714.33 2588.21 1715.31C2587.26 1713.6 2586.76 1713.65 2585.91 1711.95L2585.5 1712.42C2583.07 1710.01 2582.04 1710.09 2581.03 1707.6L2580.75 1707.81C2579.76 1705.03 2579.78 1705.04 2577.95 1702.31 2577.92 1702.38 2577.34 1703.77 2576.93 1703.22 2576.73 1702.95 2576.71 1702.67 2576.57 1702.39L2576.38 1702.57C2575.14 1700.38 2575.42 1700.38 2573.65 1698.22 2573.37 1698.91 2573.4 1698.89 2572.83 1699.6L2572.43 1698.79C2571.95 1699.28 2571.44 1700.07 2571.36 1700.19 2570.95 1699.24 2571.25 1699.24 2570.19 1698.32 2569.8 1697.99 2569.37 1698.85 2569.34 1698.9 2568.79 1697.89 2569.23 1697.88 2568.15 1696.9 2567.57 1698.74 2566.58 1703.58 2566.57 1703.65 2566.53 1703.47 2566.49 1703.28 2566.45 1703.09 2565.36 1705.58 2565.39 1705.57 2564.08 1708.06 2563.96 1707.74 2563.08 1705.41 2561.33 1704.06 2561.28 1704.13 2560.83 1704.82 2560.42 1704.95 2560.17 1705.03 2559.71 1704.96 2559.29 1703.67 2558.59 1705.3 2553.59 1712.57 2550.11 1715.4 2549.67 1715.76 2545.44 1712.94 2545.4 1712.9 2544.99 1712.41 2546.07 1712.38 2542.64 1706.66 2542.07 1708.24 2541.45 1708.2 2540.81 1709.78L2540.42 1708.98C2540.28 1709.2 2540.14 1709.43 2540.01 1709.66L2539.86 1709.4C2537.81 1712.53 2536.01 1717.08 2533.37 1722.31L2533.22 1721.99 2530.17 1725.58C2529.83 1725.47 2528.63 1725.53 2527.83 1724.8 2527.67 1725.02 2527.69 1725.25 2527.34 1725.45 2527 1725.64 2526.11 1725.74 2525.83 1725.94 2524.35 1727.01 2523.61 1728.16 2522.13 1729.24 2521.88 1729.03 2521.02 1728.9 2520.77 1728.68 2520.66 1728.6 2521.27 1728.53 2521.18 1728.44 2521.08 1728.35 2520.53 1728.37 2520.36 1728.29 2518.34 1727.43 2520.55 1727.24 2518.53 1726.36 2515.21 1726.44 2517.18 1725.01 2515.1 1722.47 2513.98 1723.44 2514.11 1723.42 2513.61 1724.41 2513.39 1724.04 2513.47 1724.05 2512.87 1723.73 2508.02 1728.98 2508.06 1728.98 2507.89 1729.05 2507.05 1729.37 2506 1728.71 2505.92 1728.66L2505.61 1728.87C2504.82 1727.87 2504.51 1727.92 2503.5 1726.94 2503.28 1727.63 2503.23 1727.61 2503 1728.31L2500.18 1727.98C2497.02 1727.38 2497.44 1727.23 2497.11 1727.22 2496.85 1727.21 2496.61 1727.4 2496.47 1727.34 2495.89 1727.1 2495.73 1726.81 2495.42 1726.54 2495.09 1726.81 2494.77 1727.07 2494.43 1727.34 2493.82 1727.13 2493.78 1727.15 2492.88 1727.01 2492.8 1726.88 2491.9 1725.59 2489.76 1725.67 2488.91 1725.3 2488.93 1725.32 2488.49 1724.92L2488.03 1725.22C2487.28 1724.89 2487.1 1724.95 2486.49 1724.57 2484.9 1725.22 2484.59 1724.55 2484.49 1724.42 2484.45 1724.46 2484.01 1724.84 2483.39 1724.84 2482.13 1724.84 2478.58 1721.27 2478.3 1720.54L2477.74 1720.74 2477.36 1720.3 2477.13 1720.62C2476.43 1719.45 2476.3 1719.48 2475.26 1718.36 2474.65 1719.11 2474.59 1719.07 2474.05 1719.83 2473.71 1719.13 2473.78 1719.15 2473.1 1718.46 2472.83 1718.91 2473 1718.91 2472.16 1719.31 2471.25 1719.74 2471.87 1719.17 2471.47 1718.69 2471.17 1719.02 2471.4 1719.44 2470.5 1719.68 2469.99 1719.81 2469.98 1719.32 2469.81 1719.13L2469.48 1719.64C2469.21 1719.26 2468.94 1718.89 2468.67 1718.51L2468.3 1719.26C2468.29 1719.25 2468.3 1719.26 2465.4 1717.62L2465.18 1717.85 2464.75 1717.51 2464.3 1717.8C2463.75 1717.48 2459.62 1715.09 2458.63 1713.63L2458.36 1713.93C2458.17 1713.45 2456.7 1709.58 2455.41 1708.01 2455.31 1707.88 2453.57 1707.84 2452.31 1706.49 2452.05 1706.75 2451.8 1707.01 2451.54 1707.27L2451.1 1706.88C2449.4 1709.51 2450.67 1709.55 2448.07 1712.14L2447.2 1711.72C2445.63 1713.67 2444.59 1713.6 2442.38 1717.73L2442.11 1717.22C2441.38 1718.28 2441.54 1718.65 2440.94 1719.72L2440.35 1719.32C2439.61 1720.62 2439.52 1720.6 2438.72 1721.89L2438.27 1721.28C2435.9 1724.53 2435.39 1725.92 2435.24 1726.32 2434.99 1725.97 2434.75 1725.62 2434.51 1725.27L2434.21 1725.69C2433.76 1725.14 2433.75 1725.15 2433.09 1724.61 2432.36 1725.02 2432.36 1724.99 2431.61 1725.4 2431.17 1724.59 2430.73 1723.76 2429.86 1722.97 2429.77 1722.89 2429.32 1723.05 2429.06 1723.08L2428.74 1722.71 2428.6 1723.03 2427.83 1722.63 2427.32 1723.11C2426.75 1722.78 2426.43 1722.59 2425.43 1718.63 2424.91 1719.95 2424.87 1719.93 2424.61 1721.28 2424.42 1720.93 2424.24 1720.59 2424.06 1720.25 2423.9 1720.58 2423.74 1720.9 2423.58 1721.23 2423.47 1720.92 2422.51 1720.97 2420.85 1717.43 2419.58 1719.15 2419.25 1719.12 2419.14 1719.27 2418.39 1718.77 2418.21 1718.8 2417.82 1718.27L2417.63 1718.6C2416.14 1717.07 2416.44 1714.87 2415.8 1715.57 2415.61 1715.11 2415.43 1714.66 2415.24 1714.2 2414.7 1714.66 2414.12 1714.52 2413.44 1714.72 2412.5 1715.36 2413.24 1715.57 2413.08 1715.52 2411.64 1715.11 2411.76 1715.1 2411.16 1714.55 2410.31 1714.7 2410.33 1714.56 2410.03 1714.32L2409.58 1715.08C2408.31 1713.49 2408.41 1713.51 2407.22 1711.89 2406.43 1712.63 2406.4 1712.61 2406.34 1712.67L2405.91 1712.15C2405.59 1712.54 2405.64 1712.52 2405.25 1712.89 2404.83 1712.42 2404.84 1712.44 2404.35 1711.95 2404.28 1711.99 2403.7 1712.27 2402.69 1712.22 2401.28 1710.04 2400.45 1707.85 2399.47 1705.65 2398.48 1703.46 2397.8 1701.26 2396.8 1699.06 2396.77 1698.99 2396.8 1699.24 2396.56 1699.28L2396.44 1698.98C2396.17 1699.7 2396.23 1699.68 2395.74 1700.4 2395.6 1700.22 2395.46 1700.05 2395.31 1699.88 2394.59 1700.5 2393.59 1701.36 2391.02 1707.94 2389.51 1705.99 2388.36 1706.1 2386.75 1704.17 2386.54 1704.38 2386.34 1704.59 2386.13 1704.79L2385.6 1704.22 2385.13 1704.54 2384.69 1704.3C2383.45 1704.5 2383.43 1704.92 2382.87 1704.59 2382.77 1704.69 2382.76 1704.67 2381.46 1705.93L2381.16 1705.66C2379.32 1706.53 2378.4 1706.41 2377.84 1707.41L2377.49 1707.09C2377.21 1707.28 2376.93 1707.46 2376.66 1707.64 2376.2 1707.52 2376.08 1707.56 2375.88 1707.73L2375.52 1707.4C2375.38 1707.57 2371.5 1710.87 2371.34 1710.95L2370.9 1710.68C2370.49 1711.22 2370.51 1711.2 2370.24 1711.73L2369.39 1711.32C2369.22 1711.63 2369.05 1711.95 2368.88 1712.26L2368.59 1711.93C2364.79 1716.1 2368 1716.69 2364.03 1720.47 2358.66 1719.55 2360.94 1719.16 2359.62 1717.37 2359.48 1717.18 2358.57 1715.95 2357.42 1715.14 2357.08 1715.55 2357.53 1716.05 2354.78 1715.66 2351.59 1713.05 2353.5 1710.9 2351.1 1706.71 2350.8 1707.91 2351.16 1707.92 2349.53 1709.02 2349.32 1708.72 2348.74 1707.55 2348.47 1707.13L2348.09 1707.38C2347.93 1706.96 2347.78 1706.55 2347.63 1706.13 2347.02 1706.84 2347.2 1706.82 2346.91 1707.66 2346.37 1707.21 2346.39 1707.23 2345.85 1706.78L2345.38 1707.02C2344.94 1706.24 2344.92 1706.27 2344.52 1705.48L2344.18 1705.75C2343.71 1705.18 2343.14 1704.37 2343.06 1704.25L2342.56 1704.54C2342.5 1704.25 2342.44 1703.95 2342.38 1703.65 2342.36 1703.72 2342.18 1704.19 2341.6 1704.46 2339.49 1699.77 2340.87 1699.76 2339.03 1695.07 2335.9 1702.77 2338.11 1704.99 2334.78 1708.23 2334.18 1707.97 2334.2 1707.59 2334.03 1707.91 2333.63 1708.67 2333.26 1709.43 2333.01 1710.2L2332.74 1709.96C2331 1712.21 2328.69 1714.32 2324.36 1718.29L2323.4 1717.85C2321.3 1719.29 2319.7 1720.78 2317.61 1722.22 2317.53 1722.27 2317.08 1722.21 2316.96 1722.27 2315.79 1722.79 2314.6 1723.32 2313.84 1723.89 2313.48 1723.72 2313.12 1723.55 2312.75 1723.38 2312.58 1723.57 2312.42 1723.75 2312.25 1723.94 2311.62 1723.57 2311.67 1723.59 2311.39 1723.2L2311 1723.9 2310.46 1723.66C2310.18 1723.7 2310.61 1723.87 2310.33 1723.91 2310.08 1723.95 2309.9 1723.8 2309.63 1723.78 2309.63 1723.78 2309.17 1724.09 2309.12 1724.12 2308.99 1723.84 2308.85 1723.56 2308.72 1723.28 2308.5 1723.61 2308.53 1723.6 2307.95 1724.88 2307.92 1724.8 2307.27 1722.98 2306.93 1723.99 2306.73 1724.62 2306.76 1725.25 2306.56 1725.87 2304.82 1726.53 2304.62 1726.49 2303.92 1727.28L2303.1 1727.27C2302.49 1727.97 2302.52 1727.96 2302.46 1728.02 2302.32 1727.95 2302.14 1727.86 2301.85 1727.85 2301.35 1727.82 2300.85 1727.95 2300.35 1727.92 2299.3 1727.69 2299.64 1727.25 2298.69 1727.55 2297.08 1727.23 2296.88 1726.9 2295.58 1727.31 2295.32 1727.39 2295.14 1727.54 2294.75 1727.54 2293.56 1727.39 2292.04 1727.17 2291.54 1727.36 2289.77 1727.13 2287.68 1721.47 2287.49 1720.95 2283.41 1709.92 2282.22 1709.98 2278.38 1698.95 2277.52 1704.12 2275.83 1704.07 2274.65 1710.19L2274.22 1709.45C2273.68 1710.2 2273.5 1710.56 2273.45 1710.66 2271.41 1706.97 2271.25 1701.49 2269.5 1695.41 2265.13 1703.06 2266.37 1703.15 2265.04 1703.72 2263.2 1699 2263.31 1699 2263.01 1698.83 2262.46 1698.51 2262.54 1699.02 2257.46 1710.51L2257.2 1710.17C2256.55 1710.72 2256.72 1710.71 2256.4 1711.3L2256.15 1710.24C2256.14 1710.28 2255.84 1711.14 2255.37 1710.68 2254.39 1713.86 2254.67 1713.84 2254.01 1717.05L2253.92 1716.66C2253.25 1723.23 2252.78 1723.2 2251.08 1728.12L2250.93 1727.44C2250.89 1727.59 2250.85 1727.74 2250.81 1727.9 2250.81 1727.9 2250.32 1726.27 2250.27 1726.12L2250.06 1727.13 2249.93 1726.79C2249.62 1728 2249.52 1727.97 2248.31 1730.46L2248.04 1730.25C2247.86 1730.69 2247.69 1731.13 2247.52 1731.57 2247.39 1731.34 2247.27 1731.11 2247.15 1730.87 2245.79 1732.43 2246.76 1732.45 2245.65 1734.03 2245.29 1734.55 2244.47 1735.03 2244.14 1735.55 2243.93 1735.36 2243.73 1735.16 2243.52 1734.97 2242.05 1739.05 2239.64 1740.69 2238.95 1741.16L2238.91 1741.16 2238.05 1741.04C2237.18 1739.89 2237.48 1739.87 2235.44 1738.83L2234.98 1739.03 2233.74 1738.87 2232.98 1738.33 2231.88 1738.31 2231.31 1738.88C2230.39 1738.57 2230.5 1738.59 2229.89 1738.23 2229.34 1738.62 2229.3 1738.58 2228.51 1738.92 2221.27 1739.7 2220.66 1738.93 2218.98 1736.88L2218.46 1737.22 2218.08 1736.96 2217.34 1737.29C2215.68 1737.26 2215.73 1737.33 2214.1 1737.24 2213.96 1737.38 2212.84 1738.55 2211.6 1738.95 2210.15 1739.42 2209.14 1738.67 2207.62 1739.12L2191.32 1739.01C2189.88 1738.51 2189.86 1737.8 2188.67 1737.26 2188.45 1737.16 2187.82 1737.22 2187.39 1737.21 2186.93 1737.2 2186.36 1737.27 2186.01 1737.19 2185.5 1737.31 2185 1737.43 2184.49 1737.54 2179.31 1737.26 2182.48 1735.9 2178.74 1735.97 2174.46 1736.05 2174.25 1736.01 2171.56 1735.12 2170.06 1734.64 2170.25 1734.35 2168.04 1734.58L2167.06 1734.37C2160.93 1734.51 2161.38 1733.91 2160.82 1732.26 2159.91 1734.79 2161.5 1734.9 2158.8 1736.01L2158.4 1735.69C2155.94 1736.81 2157.47 1735.24 2154.5 1733.18 2151.56 1736.05 2153.33 1737.22 2151.21 1739.45L2150.94 1739.18C2150.76 1739.45 2150.58 1739.72 2150.4 1739.98 2150.36 1739.92 2150.09 1739.44 2149.66 1739.19 2148.59 1740.46 2148.91 1740.65 2148.62 1741.2 2148.46 1740.93 2148.3 1740.66 2148.15 1740.39 2147.96 1740.85 2147.77 1741.31 2147.58 1741.77 2147.53 1741.73 2146.9 1741.12 2146.58 1741.23 2146.08 1741.39 2146.1 1741.63 2145.96 1741.84 2145.79 1741.57 2146.11 1741.14 2145.15 1741.04 2144.68 1740.99 2144.34 1742.36 2144.3 1742.47L2143.78 1742.24 2143.46 1743 2143.3 1742.67C2143.1 1743.13 2142.62 1743.08 2142.38 1743.54 2141.81 1743.26 2141.29 1742.02 2141.24 1741.88 2141.02 1742.81 2141.02 1742.78 2140.75 1743.71 2140.6 1743.22 2140.46 1742.74 2140.31 1742.26 2140.11 1742.98 2139.96 1743.09 2139.88 1743.16L2139.79 1742.94 2139.37 1743.48C2138.48 1740.34 2138.9 1740.36 2138.16 1737.23L2137.99 1737.86 2137.83 1737.25C2137.18 1742.57 2136.39 1742.55 2136.4 1743.01 2136.43 1743.72 2137.03 1744.42 2137 1745.12 2136.97 1745.96 2136.73 1744.92 2135.82 1744.14 2135.31 1744.56 2134.8 1744.99 2134.29 1745.41L2133.46 1744.45 2132.79 1744.63C2131.74 1744.06 2130.96 1743.25 2130.34 1743.98L2130.14 1742.99C2129.4 1744.79 2129.62 1744.78 2128.72 1746.59 2128.61 1746.44 2127.92 1745.59 2127.35 1744.81 2126.24 1745.12 2126.13 1745.52 2125.43 1747.41L2125.28 1747.19C2124.84 1747.41 2124.92 1747.68 2124.76 1747.93 2124.46 1748.39 2124.23 1748.86 2123.89 1749.33 2123.85 1749.29 2123.07 1749.16 2122 1742.58 2121.9 1743.23 2121.79 1743.88 2121.69 1744.53L2121.48 1743.9C2121.28 1745.23 2121.03 1746.52 2120.98 1746.75L2120.86 1746.22C2120.75 1747.36 2120.76 1747.35 2120.44 1748.47 2120.29 1747.1 2120.24 1747.13 2120.09 1745.74 2119.95 1746.52 2119.82 1747.29 2119.68 1748.07L2119.59 1747.44C2119.36 1748.96 2119.51 1748.95 2118.99 1750.46L2118.95 1750.44 2118.21 1749.98 2117.96 1750.23 2117.67 1749.21 2117.4 1749.92C2116.9 1749.46 2115.93 1749.49 2114.7 1743.68 2114.4 1744.6 2114.24 1744.58 2113.89 1745.49 2113.83 1745.1 2114.2 1744.72 2114.14 1744.33 2114.13 1744.29 2113.73 1744.39 2113.71 1744.35 2113.45 1743.71 2113.48 1743.06 2113.38 1742.41L2113.22 1742.78C2112.77 1740.64 2112.77 1740.66 2112.09 1738.54L2112.05 1738.81C2111.65 1736.87 2111.62 1736.88 2111.59 1736.71L2111.43 1737.12C2111.3 1736.71 2111.18 1736.3 2111.05 1735.9L2110.6 1736.22C2110.49 1736.01 2110.72 1735.76 2110.26 1735.58 2110.03 1735.49 2109.84 1735.76 2109.65 1735.86L2109.26 1735.5C2109.08 1735.8 2108.9 1736.09 2108.72 1736.39 2108.21 1735.8 2107.88 1735.85 2107.47 1735.26L2107.15 1735.46C2106.23 1734.43 2106.81 1734.42 2105.87 1733.4 2105.69 1733.8 2105.52 1734.2 2105.33 1734.6 2103.67 1729.79 2104.6 1727.77 2097.58 1716.76 2096.76 1717.96 2096.89 1717.94 2096.29 1718.43 2096.03 1718.19 2095.77 1717.94 2095.51 1717.7 2095.05 1719.39 2095.19 1719.38 2094.63 1721.07L2093.59 1720.04C2090.9 1721.83 2091.59 1724.26 2090.07 1722.38L2089.6 1722.63C2089.47 1722.37 2089.35 1722.08 2088.76 1721.86 2088.56 1721.79 2088.01 1722.09 2087.89 1722 2087.33 1721.6 2087.36 1721.15 2087.17 1720.73L2086.83 1721.37C2085.92 1719.9 2085.69 1719.93 2085.06 1718.43 2082.19 1718.47 2083.18 1718.83 2081.85 1720.38L2080.54 1718.85C2079.69 1720.99 2079.47 1723.14 2078.62 1725.27 2078.4 1725.82 2077.61 1726.34 2077.34 1726.89 2076.91 1724.66 2076.87 1724.66 2076.84 1724.47 2076.42 1727.32 2077.19 1727.34 2074.65 1730.1 2074.09 1729.31 2074.14 1729.34 2073.86 1729.08 2073.05 1729.93 2073.03 1729.91 2072.65 1730.77L2072.41 1730.39C2071.7 1731.49 2071.25 1731.89 2071.1 1732.02L2070.12 1731.74C2069.58 1732.12 2069.54 1732.1 2069.02 1732.47L2068.2 1732.58C2067.28 1731.77 2067.29 1731.79 2067.22 1731.72 2066.59 1732.39 2064.81 1733.35 2064.67 1733.47 2063.96 1733.28 2063.71 1733.24 2063.28 1733.47L2062.9 1733.24C2061.98 1734.07 2063.62 1734.7 2060.51 1734.47 2060.37 1734.26 2060.27 1734.1 2059.44 1731.83 2058.59 1734.06 2058.06 1734.02 2057.03 1735.11L2056.41 1734.54C2056.21 1734.72 2055.99 1734.91 2055.79 1735.09L2055.78 1735.12C2055.15 1734.68 2055.3 1734.69 2054.66 1734.23L2054.46 1734.65 2053.89 1734.13C2052.8 1735.39 2051.58 1735.31 2051.19 1735.77 2051.01 1735.76 2050.81 1735.65 2049.9 1735.95L2049.61 1735.71 2049.23 1736.26C2048.72 1735.78 2048.73 1735.8 2048.38 1735.29 2048.32 1735.34 2047.78 1735.87 2047.17 1735.89 2047.04 1735.89 2047.06 1735.88 2046.01 1735.38 2045.62 1735.77 2045.39 1735.73 2045.09 1736.14 2044.83 1735.54 2044.58 1734.94 2044.33 1734.34L2043.55 1734.65C2042.04 1732.14 2041.97 1732.15 2041.06 1729.61 2040.48 1731.84 2041.02 1731.84 2039.53 1734.02 2038.24 1733.25 2038.78 1733.22 2038.25 1731.88 2038.08 1732.19 2037.91 1732.5 2037.75 1732.81L2036.31 1731.07C2035.52 1732.02 2033.27 1733.17 2030.52 1738.06 2029.81 1737.28 2029.36 1737.02 2029.21 1736.94L2028.77 1737.82 2028.03 1737.66C2027.8 1738.1 2026.8 1738.62 2026.36 1740.83L2025.75 1739.87C2025.57 1740.36 2025.5 1740.34 2025.28 1740.82 2024.96 1740.38 2024.9 1740.4 2024.55 1739.96 2023.94 1740.88 2023.05 1741.68 2022.89 1741.83 2022.42 1741.05 2022.46 1741.08 2022.42 1741.01 2022.28 1741.12 2021.89 1741.41 2021.35 1742.38L2020.76 1742.14C2020.22 1742.66 2020.27 1742.65 2020.03 1743.2L2019.73 1742.85C2019.24 1744.47 2018.96 1744.73 2018.78 1744.89 2018.65 1744.58 2018.51 1744.27 2018.38 1743.96 2018.16 1744.17 2017.95 1744.38 2017.74 1744.59 2017.55 1744.26 2017.37 1743.93 2017.19 1743.59 2016.93 1743.8 2016.67 1744.02 2016.42 1744.23L2016.19 1743.91C2015.8 1744.06 2015.59 1744.14 2014.47 1746.13 2014.32 1745.88 2014.16 1745.64 2014.01 1745.39 2013.66 1745.77 2013.47 1745.73 2012.79 1746.08L2012.67 1745.79C2011.85 1747.6 2011.46 1747.56 2010.86 1749.38L2009.84 1749.2 2009.32 1748.05 2009.01 1748.45C2008.46 1747.69 2008.33 1747.72 2007.82 1746.97 2007.59 1747.21 2007.37 1747.45 2007.13 1747.7 2006.64 1746.98 2006.29 1746.47 2005.09 1738.67L2004.88 1738.89 2004.38 1737.08 2004.01 1740.97 2003.51 1737.24C2003.1 1739.69 2003.03 1739.66 2002.3 1742.69L2001.72 1741.2 2000.64 1744.52C1999.46 1742.27 1999.88 1739.43 1999.14 1741.68L1998.6 1740.09C1998.02 1743.32 1997.83 1743.3 1996.77 1746.52L1996.23 1746.02 1995.77 1746.65C1995.64 1746.66 1993.06 1747.19 1991 1746.49 1986.87 1747.22 1989.37 1746 1988.38 1744.69 1985.09 1746.36 1981.81 1748.04 1978.52 1749.71 1978.28 1749.49 1976.85 1748.17 1975.35 1746.97L1975.08 1747.37C1974.17 1745.86 1972.53 1745.24 1972.41 1745.1 1970.66 1743.12 1968.74 1741.14 1967.78 1739.12L1967.33 1739.58C1966.83 1738.47 1966.72 1738.49 1966.29 1737.37 1966.05 1737.62 1965.9 1737.98 1965.88 1738.03L1965.79 1737.79C1964.52 1739.67 1964.66 1739.69 1964.32 1739.73 1964.11 1739.75 1964.6 1739.66 1963.98 1738.99L1963.78 1739.24C1963.31 1738.4 1963.1 1737.95 1963.05 1737.84 1962.58 1738.67 1962.71 1738.66 1962.46 1739.19 1962.41 1739.08 1962.08 1738.3 1961.55 1737.81L1961.33 1738.19C1961.19 1737.85 1961.06 1737.51 1960.92 1737.16 1960.4 1738.63 1960.2 1738.77 1960 1738.9 1959.51 1737.52 1959.47 1737.54 1958.98 1736.17 1958.52 1736.9 1958.46 1736.87 1958.22 1737.63L1957.92 1737.55 1957.68 1738.41C1957.52 1737.98 1957.37 1737.55 1957.21 1737.12L1956.53 1738.24C1956.33 1737.3 1956.24 1737.33 1955.89 1736.4L1955.47 1737.03 1955.17 1736.55 1954.86 1737.04C1952.13 1734.39 1952.19 1734.41 1951.91 1734.18 1951.17 1735.32 1951.15 1735.3 1951.1 1735.4L1950.91 1734.71C1950.72 1735.11 1950.69 1735.08 1950.47 1735.48L1950.15 1734.62C1949.94 1735.45 1949.7 1736.28 1949.06 1737.1 1948.97 1737.22 1948.58 1736.89 1948.45 1736.78 1946.58 1739.35 1943.29 1735.55 1943.16 1735.39L1942.8 1735.84C1940.24 1734.44 1941.47 1734.24 1940.99 1734.26 1939.87 1734.31 1940.39 1734.45 1940.04 1735.28 1938.49 1733.39 1937.92 1732.14 1936.29 1725.05L1936.25 1725.29C1935.83 1723.86 1935.77 1723.88 1935.58 1722.45L1935.41 1722.89C1935.21 1722 1933.97 1716.59 1933.29 1711.77L1933.09 1712.26 1932.86 1711.46C1932.75 1711.96 1932.64 1712.46 1932.52 1712.97 1932.12 1711.03 1932.13 1711.04 1931.54 1709.12 1931.27 1709.77 1931.43 1709.76 1930.78 1710.39 1930.23 1707.65 1930.24 1707.64 1928.9 1706.78L1928.51 1707.17 1928.09 1706.87C1926.8 1708.03 1927.37 1708.04 1926.48 1709.25L1925.85 1708.78C1924.63 1709.57 1923.9 1710.05 1921.49 1714.99 1920.5 1717.01 1919.23 1719.78 1917.54 1723.62L1917.46 1723.4C1917.05 1724.8 1916.24 1725.17 1915.54 1726.22 1913.05 1725.01 1913.94 1722.89 1912.37 1718.34L1912.21 1718.83C1912.08 1718.42 1911.26 1715.85 1910.39 1713.75L1909.88 1715.06C1909.43 1711.54 1909.39 1711.56 1908.9 1710.94 1906.8 1715.04 1907.42 1715.04 1905.25 1719.13 1901.59 1710.17 1901.94 1710.17 1901.58 1709.39L1901.53 1709.61 1901.28 1709.4 1900.77 1709.77C1900.2 1709.27 1899.05 1708.81 1898.71 1708.29 1898.12 1707.38 1898.27 1706.45 1898.03 1705.53 1897.3 1707.95 1897.55 1707.93 1896.96 1710.37 1896.71 1710.1 1896.46 1709.83 1896.21 1709.55 1893.51 1712.43 1891.2 1723.54 1890.19 1719.69L1890.11 1719.98 1889.97 1719.37 1889.77 1720.15C1889.44 1718.87 1889.31 1718.65 1889.23 1718.52L1889.15 1718.92C1886.93 1712.9 1887.97 1712.91 1885.88 1706.9 1885.69 1707.37 1884.13 1711.15 1883.66 1712.87 1883.41 1712.44 1883.33 1712.47 1883.13 1712.06 1882.06 1712.61 1880.57 1723.14 1880.43 1724.1L1880.31 1723.57C1879.49 1727.12 1878.57 1728 1878.18 1728.37L1877.74 1727.78 1877.48 1728.3 1877.18 1727.92C1876.59 1731.39 1876.86 1731.38 1875.59 1734.82L1875.31 1734.44C1873.59 1736.39 1874.48 1733.89 1872.16 1732 1872.13 1732.01 1871.59 1732.3 1871.44 1732.09 1869.8 1729.89 1870.51 1729.87 1869.01 1727.66 1868.64 1728.17 1868.39 1728.14 1868.22 1728.67 1867.4 1725.2 1867.08 1725.24 1866.21 1721.75L1865.97 1722.37C1865.19 1719.51 1864.74 1719.54 1864.24 1715.98L1864 1716.33C1859.98 1705.24 1861.02 1705.22 1860.44 1704.26 1860.4 1704.18 1859.94 1704.39 1859.67 1704.36 1859.42 1704.33 1859.49 1704.22 1859.39 1704.15 1855.39 1712.83 1856.47 1712.87 1855.89 1713.61 1855.73 1713.82 1852.83 1715.08 1852.22 1718.07L1852.02 1717.72C1851.94 1717.96 1851.06 1720.95 1850.98 1721.24L1850.92 1721.24C1850.86 1721.03 1850.79 1720.82 1850.73 1720.61L1850.53 1721.97 1850.4 1721.54C1850.38 1721.7 1850.29 1722.57 1850.07 1723.58L1849.99 1722.95C1849.66 1724.74 1849.32 1724.72 1849.08 1726.51 1848.97 1725.82 1848.87 1725.12 1848.76 1724.43 1848.33 1726.3 1848.11 1726.27 1847.81 1728.14 1847.67 1727.6 1847.53 1727.05 1847.39 1726.5 1847.2 1727.31 1847.21 1727.3 1846.92 1728.09 1846.85 1727.38 1846.78 1726.68 1846.7 1725.97 1846.65 1726.11 1846.58 1726.24 1846.54 1726.38 1846.46 1726.68 1846.43 1726.99 1846.34 1727.29 1846.08 1724.8 1845.95 1724.31 1845.89 1724.06 1845.66 1725.82 1845.62 1725.8 1845.26 1727.56 1845.1 1725.94 1845.05 1725.96 1844.86 1724.77 1844.33 1728.82 1844.46 1728.81 1843.92 1730.13L1843.72 1729.76 1843.6 1729.97 1843.43 1729.68 1843.17 1731.46C1843.07 1730.91 1843.05 1730.93 1842.64 1729.56 1842.35 1730.11 1842.32 1730.09 1842.15 1730.65L1841.93 1729.04 1841.8 1729.34 1841.72 1729.05C1841.1 1729.49 1841.36 1729.48 1841.3 1729.51L1841.01 1729.24C1840.99 1729.3 1840.15 1732.39 1840.07 1732.66 1840.01 1732.45 1840.01 1732.47 1839.36 1730.88 1838.96 1734.16 1839.14 1734.14 1838.26 1737.39 1837.96 1736.41 1837.91 1736.43 1837.69 1735.46 1836.91 1742.83 1835.95 1742.82 1835.56 1742.95L1835.11 1742.61C1833.63 1743.56 1833.71 1743.57 1833.53 1743.64 1833.22 1743.4 1832.5 1743.22 1832.07 1743 1831.65 1742.79 1831.11 1742.59 1830.96 1742.35 1829.41 1739.99 1829.86 1739.99 1825.98 1726.41L1825.72 1726.96 1825.51 1726.68C1825.32 1726.78 1825.49 1726.92 1825.3 1727.02 1825.21 1727.07 1825.22 1726.81 1825.17 1726.86 1825.05 1726.99 1825.19 1727.13 1825.07 1727.26 1824.58 1725.84 1824.41 1725.87 1824.16 1724.43 1823.77 1725.74 1823.67 1725.72 1823.26 1727.04L1823.18 1726.82 1823.07 1727.2C1822.3 1721.75 1822.6 1721.77 1821.85 1716.31L1821.81 1716.69 1821.45 1715.31C1821.35 1716.21 1821.25 1717.12 1821.14 1718.02 1821.03 1717.52 1820.92 1717.03 1820.81 1716.53L1820.66 1717.29C1820.33 1714.68 1820.58 1714.7 1819.94 1712.1L1819.85 1712.53C1819.77 1712.05 1819.69 1711.58 1819.6 1711.11 1819.35 1711.6 1819.57 1713.11 1818.35 1716.22 1817.06 1713.4 1817.65 1713.4 1816.38 1711.75L1816.31 1711.99C1816.08 1711.8 1815.93 1711.49 1815.91 1711.44L1815.84 1711.68C1814.3 1708.76 1814.13 1705.31 1813.95 1703.81 1813.48 1707.86 1813.61 1707.84 1813.04 1711.87 1812.88 1711.52 1812.93 1711.53 1812.74 1710.05L1812.7 1710.28 1812.58 1709.97 1812.54 1710.25 1812.41 1709.66C1812.15 1710.24 1808.53 1719.16 1807.39 1720.37 1805.22 1717.36 1805.76 1717.34 1805.51 1717.08 1805.28 1716.85 1804.78 1716.9 1801.43 1714.27 1801.23 1714.25 1800.2 1714.17 1799.63 1713.76 1799.21 1713.47 1796.76 1705.96 1796 1704.75 1795.37 1705.65 1795.37 1705.63 1795.03 1706.56L1794.82 1706.05 1794.64 1706.28 1794.5 1705.87 1794.33 1706.4C1793.2 1703.43 1793.64 1703.44 1792.95 1700.45 1792.92 1700.74 1792.48 1705.74 1792.13 1707.45 1792.03 1706.78 1791.94 1706.1 1791.84 1705.42 1791.58 1707.73 1791.59 1707.72 1791.55 1707.92L1791.42 1707.5C1791.35 1708.26 1791.28 1709.01 1791.21 1709.77L1791.17 1709.45C1790.37 1716.96 1789.67 1716.95 1788.78 1717.33 1785.67 1716.33 1786.22 1710.41 1781.84 1703.76 1781.09 1704.18 1781.04 1704.67 1780.72 1705.12 1779.78 1706.51 1779.11 1707.9 1778.08 1709.28L1777.35 1709.33 1776.9 1709.69 1776.07 1709.6C1774.03 1711.55 1774.01 1711.52 1773.86 1711.69L1773.51 1711.37C1772.4 1713.69 1772.22 1713.67 1771.18 1715.97 1770.28 1715.15 1772.46 1715.07 1766.65 1705.32 1766.19 1704.54 1765.56 1703.77 1764.75 1703.02 1764.53 1702.82 1762.69 1702.85 1761.43 1705.47 1761.07 1704.08 1761.33 1704.09 1760.41 1702.72 1760.19 1703.99 1761.17 1704.02 1759.55 1705.22L1759.04 1704.8C1758.54 1705.72 1757.89 1705.65 1757.17 1706.55 1754.94 1706.11 1756.15 1705.95 1755.61 1704.93L1753.34 1706.77C1750.5 1703.55 1750.56 1703.57 1750.27 1703.29L1746.92 1707.59C1746.63 1707.41 1745.47 1707.43 1745.18 1707.25 1744.33 1706.74 1744.07 1706.17 1743.66 1705.62 1742.77 1704.41 1742.36 1703.16 1741.29 1701.96 1739.91 1703.87 1740.12 1703.85 1738.81 1705.77 1738.54 1704.53 1738.54 1704.55 1738.36 1703.3L1738.21 1703.91 1738 1703.2C1736.91 1706.59 1736.45 1710.07 1736.38 1710.67L1736.16 1710.28 1735.88 1710.78 1735.65 1710.01 1735.52 1710.48C1735.33 1709.73 1735.34 1709.75 1735.27 1709.58 1734.28 1715.93 1734.88 1715.91 1733.43 1722.26 1732.42 1720.5 1732.53 1715.85 1731.98 1714.74 1731.59 1716.59 1731.61 1716.57 1731.35 1718.43 1731.12 1717.49 1731.16 1717.52 1730.94 1716.59L1730.81 1717.03C1730.69 1716.84 1730.57 1716.65 1730.46 1716.46L1730.22 1717.03 1729.96 1716.19 1729.76 1716.68C1729.46 1715.85 1729.48 1715.87 1729.08 1715.05 1728.25 1716.89 1728.62 1716.89 1726.43 1719.83L1725.84 1715.82C1725.49 1715.81 1724.6 1716.48 1723.96 1715.74L1722.5 1717.32C1719.08 1715.29 1719.18 1715.04 1718.95 1715.22 1718.82 1714.9 1718.81 1714.91 1718.21 1713.66L1717.78 1714.5 1716.72 1711.73 1712.98 1714.22C1711.73 1712.98 1712.88 1711.39 1711.36 1712.62 1711.18 1712.76 1711.19 1712.92 1710.99 1713.07 1710.38 1712.81 1710.19 1712.41 1709.14 1712.3 1708.57 1712.25 1707.92 1713.24 1707.86 1713.33 1706.89 1712.37 1706.9 1712.39 1706.17 1711.4L1705.37 1711.53 1703.97 1710.18 1703.33 1710.33C1699.98 1706.52 1699.49 1706.56 1696.87 1702.69 1696.35 1703.9 1696.87 1703.92 1695.06 1705.04L1694.87 1704.42C1694.63 1705.63 1694.43 1705.61 1693.59 1706.79L1693.39 1705.72C1693.24 1706.49 1693.08 1707.26 1692.93 1708.03L1692.72 1707.68C1692.06 1709.57 1691.76 1709.54 1691.42 1711.47L1691.21 1710.02C1690.99 1711.4 1691.01 1711.38 1690.74 1712.74 1690.68 1712.61 1690.6 1712.48 1690.57 1712.35 1690.48 1711.97 1690.47 1711.6 1690.36 1711.22 1690.26 1711.29 1690.01 1711.76 1689.99 1711.81L1689.56 1710.26C1689.47 1710.37 1689.41 1710.46 1689.17 1711.67L1689.05 1710.9 1688.85 1712.21C1688.48 1710.37 1688.44 1710.39 1688.25 1708.54 1688.01 1710.44 1687.91 1710.42 1687.74 1712.32L1687.54 1711.68C1686.21 1715.45 1687.13 1715.45 1685.86 1719.05 1685.78 1718.7 1685.7 1718.35 1685.62 1717.99L1685.39 1718.44C1685.31 1718.09 1684.65 1716.28 1684.33 1714.74 1683.06 1718.91 1683 1718.9 1682.92 1719.27 1682.47 1717.6 1682.31 1717.63 1681.87 1715.97 1681.15 1717.22 1681.49 1717.27 1680.97 1719.18 1680.84 1718.92 1680.72 1718.65 1680.6 1718.39 1680.33 1720.18 1680.33 1720.16 1680.08 1721.95L1679.85 1721.61 1679.55 1721.96 1679.32 1721.41C1679.06 1721.9 1678.81 1722.38 1678.55 1722.87L1678.08 1722.56C1678.01 1722.64 1677.67 1722.62 1677 1723.85L1676.01 1723.48C1675.18 1724.09 1675.84 1724.54 1671.32 1726.68 1669.43 1725.89 1670.26 1725.64 1670.06 1725.7 1669.1 1725.99 1668.48 1726.63 1668.4 1726.72L1667.62 1726.22 1667.1 1726.67C1666.34 1726.56 1665.65 1726.16 1664.97 1726.74 1664.9 1726.65 1664.92 1726.47 1664.59 1726.49 1664.19 1726.51 1664.46 1726.78 1664.05 1726.79 1663.7 1726.81 1664.13 1726.47 1663.82 1726.52 1663.15 1726.84 1663.67 1726.87 1662.1 1728.43 1660.11 1726.72 1659.93 1726.23 1659.85 1726.03 1657.82 1726.85 1658.51 1725.78 1657.2 1724.18 1656.6 1724.99 1656.47 1724.95 1655.83 1725.75 1655.5 1725.28 1655.17 1724.8 1654.84 1724.32 1654.47 1725.42 1653.83 1726.44 1653.71 1726.63 1652.64 1726.28 1651.23 1724.62 1649.56 1724.19L1648.79 1724.44C1648.46 1724.13 1647.9 1723.83 1647.23 1723.56 1646.96 1723.45 1646.29 1723.44 1646.05 1723.32 1645.55 1723.07 1645.5 1722.77 1645.1 1722.51 1645.02 1722.45 1644.35 1722 1643.28 1721.97 1637.21 1721.77 1635.81 1722.19 1632.43 1720.46 1629.77 1719.8 1630.47 1719.69 1628.78 1718.83 1625.58 1718.94 1625.68 1718.77 1623.9 1718.39 1623.78 1718.37 1623.88 1718.43 1623.48 1718.9 1620.68 1716.4 1624.29 1715.56 1619.7 1712.86 1619.42 1713.36 1619.14 1713.87 1618.85 1714.37L1618.45 1713.71 1618 1714C1617.32 1713.09 1617.55 1713.1 1617.28 1712.04 1616.88 1714.77 1616.44 1714.74 1615.49 1717.45 1615.35 1717.26 1615.2 1717.07 1615.06 1716.88 1613.69 1720.39 1615.28 1723.4 1612.23 1727.4 1611.91 1727.18 1612.11 1727.18 1611.76 1726.97 1611.04 1728.03 1610.94 1728.01 1610.28 1729.06 1610.12 1728.78 1609.96 1728.5 1609.79 1728.21 1609.47 1728.61 1609.34 1728.58 1609.19 1728.97L1608.85 1728.63C1607.81 1730.72 1606.47 1730.65 1606.01 1733.13 1605.2 1732.36 1604.93 1732.36 1604.02 1724.98L1603.9 1725.71C1602.77 1723.06 1603.79 1723.07 1602.35 1718.96 1601.29 1721.06 1601.66 1721.05 1601.23 1723.17 1600.86 1721.55 1600.8 1721.57 1600.36 1719.97 1599.87 1722.48 1600 1722.64 1599.46 1723 1599.06 1722.19 1598.5 1721.96 1598.17 1721.01L1598.05 1721.43C1596.14 1712.58 1595.11 1702.31 1594.8 1700.7 1594.08 1702.23 1594.29 1702.22 1594.11 1703.78 1594.01 1703.47 1593.91 1703.16 1593.81 1702.85 1593.14 1705.01 1590.51 1704.83 1590.61 1705.66 1590.67 1706.12 1591.23 1706.57 1591.12 1707.02 1590.95 1706.76 1590.78 1706.5 1590.61 1706.25 1590.27 1707.82 1590.91 1707.83 1589.22 1709.32 1588.73 1709.16 1588.61 1709.19 1588.08 1709.34 1586.77 1708.7 1587.29 1708.68 1586.87 1707.96 1586.34 1709.13 1586.04 1709.22 1585.91 1709.13 1585.03 1708.53 1584.46 1707.89 1583.71 1707.28L1582.99 1708.81C1581.88 1707.86 1582.29 1707.85 1582.18 1707.4 1582.08 1707.82 1582.13 1708.23 1581.88 1708.64 1581.85 1708.69 1581.59 1708.51 1581.49 1708.55 1580.76 1708.84 1581.07 1708.87 1580.22 1710.91L1579.99 1710.61C1579.23 1712.29 1578.63 1713.99 1578.52 1714.28L1578.4 1713.99C1578.2 1714.57 1576.57 1719.37 1576.73 1721.27 1576.88 1722.98 1577.46 1723.03 1576.97 1723.09 1576.42 1723.15 1575.17 1722.93 1574.55 1724.03L1574.18 1723.51 1574.09 1723.77C1573.97 1723.18 1573.9 1723.2 1573.76 1722.62L1573.68 1722.93 1573.59 1722.64C1573.22 1724.39 1573.09 1724.37 1572.88 1725.2 1572.68 1724.63 1572.5 1724.07 1572.31 1723.51L1572.15 1723.8C1571.78 1723.12 1571.47 1721.85 1571.43 1721.68 1571.33 1722.04 1571.24 1722.41 1571.14 1722.78 1570.44 1721.89 1570.61 1721.91 1570.36 1720.99L1570.01 1721.61 1569.86 1721.23C1569.33 1723.78 1569.87 1723.79 1568.88 1725.42L1568.51 1724.95 1568.24 1725.3C1568.19 1725.22 1567.21 1723.58 1566.11 1724.43 1565.11 1724.14 1563.48 1721.96 1562.91 1723.5L1562.77 1723.07C1562.57 1723.83 1562.57 1723.81 1562.41 1724.56 1562.24 1723.95 1562.07 1723.33 1561.9 1722.71L1561.58 1722.98C1561.26 1722.56 1559.93 1718.76 1559.81 1718.39L1559.59 1718.99C1559.43 1718.75 1559.45 1718.51 1559.29 1718.27 1559.26 1718.22 1559.23 1718.46 1559.21 1718.41 1559.09 1718.16 1559.13 1717.91 1559.02 1717.66 1558.5 1721.27 1558.59 1721.51 1558.29 1722.85L1558.13 1722.28C1556.8 1725.4 1557.3 1725.39 1556.26 1728.52 1556.01 1728.26 1555.2 1728.37 1555.11 1728.39 1554.73 1728.44 1554.44 1728.72 1554.22 1728.63 1553.59 1728.35 1553.13 1726.93 1553.09 1726.78 1552.69 1727.8 1551.67 1728.34 1551.44 1728.46 1551.33 1728.52 1550.7 1728.57 1550.21 1727.75L1549.8 1728.17 1549.48 1727.94C1548.81 1729.59 1547.7 1729.75 1547.59 1729.82 1546.62 1728.13 1547.16 1728.12 1546.83 1728 1546.49 1727.88 1545.64 1727.89 1545.46 1727.75 1544.11 1726.62 1543.7 1725.43 1542.38 1724.3 1542.15 1724.48 1541.88 1725.07 1541.85 1725.14 1541.79 1724.97 1540.86 1722.67 1539.67 1723.11 1539.52 1722.86 1539.36 1722.61 1539.21 1722.36L1538.77 1722.87C1538.22 1721.71 1538.91 1721.71 1538.68 1721.63 1538.21 1721.47 1536.57 1721.79 1536.42 1721.82 1535.71 1721.22 1533.49 1720.8 1532.77 1720.2 1531.95 1719.51 1532.12 1718.76 1531.9 1718.03 1531.47 1718.82 1531.24 1718.78 1530.92 1719.58 1530.81 1719.38 1530.69 1719.19 1530.58 1718.99 1530.53 1719.06 1530.2 1719.58 1529.96 1719.89L1529.6 1718.94C1529.38 1720.23 1529.02 1721.7 1528.97 1721.94 1528.84 1721.33 1528.71 1720.72 1528.58 1720.11 1527.83 1727.86 1528.28 1728.35 1525.73 1728.4 1524.89 1728.07 1524.86 1728.04 1523.34 1728.06 1522.58 1727.03 1522.67 1727.04 1522.16 1726.02 1519.91 1727.89 1518.51 1727.69 1517.63 1728.29 1517.16 1727.65 1517.11 1727.68 1516.6 1727.04 1516.54 1727.1 1516.15 1727.53 1515.7 1727.78 1514.32 1727.49 1514.7 1727.43 1514 1726.99 1513.32 1727.73 1513.46 1727.73 1512.81 1728.46L1512.32 1728.08C1510.47 1728.55 1511.06 1727.94 1510.6 1727.27 1508.81 1728.57 1509.82 1728.72 1507.37 1729.3 1507.12 1728.91 1507.12 1728.65 1505.91 1728.9 1502.17 1729.68 1502.1 1729.66 1501.68 1729.83 1500.78 1730.21 1500.41 1729.84 1500.22 1729.88 1499.19 1730.14 1498.64 1730.51 1497.93 1730.84L1497.19 1730.7 1496.78 1730.93 1496.06 1730.7C1495.36 1731.02 1494.8 1731.08 1494.19 1730.74 1493.5 1731.31 1493.49 1731.28 1493.44 1731.33 1493.07 1731.11 1492.42 1730.92 1491.78 1730.74 1490.7 1730.45 1490.87 1730.45 1490.43 1730.03L1490.01 1730.28C1489.15 1729.88 1488.85 1729.94 1488.3 1729.49 1488.15 1729.63 1487.19 1729.81 1484.21 1732.24 1483.22 1731.92 1483.01 1732.04 1482.37 1732.16L1481.73 1731.77C1480.72 1732.51 1481.7 1732.78 1479.12 1732.92 1478.48 1733.25 1478.55 1733.25 1477.58 1733.51 1476.92 1733.07 1476.81 1733.11 1476.21 1732.67L1475.83 1733.23C1475.75 1733.15 1475.75 1733.15 1474.65 1732.28 1473.29 1732.87 1471.72 1732.66 1471.13 1733.76 1470.39 1732.74 1470.44 1732.76 1470.37 1732.67 1469.89 1733.26 1469.42 1733.85 1468.95 1734.44 1468.83 1734.34 1467.97 1733.58 1467.2 1733.22 1466.84 1733.55 1466.81 1733.53 1466.42 1733.85L1466.19 1733.55C1466.05 1733.81 1465.93 1734.07 1465.8 1734.34 1464.52 1733.8 1464.59 1733.79 1464.44 1733.76 1464.26 1733.93 1459.85 1738.07 1458.89 1735.34 1458.18 1733.32 1457.8 1731.29 1457.08 1729.27 1456.83 1729.66 1456.74 1729.63 1456.49 1730.02 1455.8 1728.85 1455.97 1728.86 1455.74 1727.67 1455.43 1728.51 1455.38 1728.48 1454.92 1729.32L1454.62 1728.41C1454.55 1728.93 1454.54 1728.91 1454.21 1730.59L1454.04 1729.54 1453.92 1729.77 1453.87 1729.48C1453.5 1730.54 1452.66 1730.47 1451.89 1731.54 1450.55 1729.69 1450.49 1727.8 1449.84 1725.93 1446.19 1715.32 1446.1 1715.33 1445.84 1714.4 1445.26 1714.99 1445.14 1714.96 1444.76 1715.57 1444.51 1715.1 1444.26 1714.64 1444.01 1714.18 1443.78 1714.56 1444.04 1714.56 1442.22 1718.97 1439.72 1714.14 1440.71 1712.21 1438.42 1708.84L1438.12 1709.5C1438.02 1709.22 1437.84 1708.95 1437.7 1708.67 1437.38 1708.05 1437.03 1707.44 1436.73 1706.82L1436.49 1707.22C1436.18 1705.93 1436.48 1705.94 1435.5 1704.66L1433.74 1708.24C1433.4 1708.54 1432.13 1708.73 1431.91 1709.04 1430.98 1710.31 1430.71 1711.62 1430.32 1712.91L1429.86 1712.08C1429.22 1713.3 1428.18 1714.58 1428 1714.79L1427.83 1714.55 1427.71 1714.73 1427.6 1714.52 1427.36 1715.37 1427.23 1715.1C1426.64 1715.73 1425.92 1720.27 1425.33 1721.87L1425.17 1721.62C1424.51 1723.53 1424.47 1723.53 1424.42 1723.69L1424.21 1723.31C1423.96 1723.71 1424.24 1723.73 1423.47 1724 1423.21 1723.75 1423.29 1723.75 1421.89 1719.54 1421.89 1719.54 1419.52 1714.44 1419.32 1714 1419.18 1714.75 1419.76 1715.51 1419.62 1716.26 1419.52 1716.9 1419.25 1717.54 1418.59 1718.15L1417.58 1717.51C1416.27 1719.7 1416.06 1719.67 1414.38 1721.84L1413.97 1721.65C1413.8 1721.93 1413.63 1722.2 1413.46 1722.48L1412.79 1722.01 1411.48 1723.52C1407.7 1715.76 1408.07 1715.75 1407.49 1715.08 1407.31 1715.73 1407.12 1716.39 1406.94 1717.03L1406.63 1716.68C1405.62 1717.83 1405.35 1717.79 1404.75 1718.95L1402.06 1716.84C1400.85 1717.05 1400.83 1717.52 1400.24 1717.15 1399.06 1720.58 1398.87 1720.56 1397.38 1722.27 1394.47 1720.78 1393.56 1713.93 1389.9 1708.85L1389.68 1709.31 1389.38 1708.18C1388.34 1709.21 1387.21 1711.65 1387.07 1711.95 1385.8 1711.52 1386.13 1711.49 1385.84 1710.95 1382.2 1720.74 1380.3 1722.25 1379.12 1723.19 1378.98 1722.94 1377.96 1721.16 1377.54 1720.1L1377.36 1720.58C1376.22 1719.27 1376.37 1719.27 1375.9 1717.94L1375.74 1718.31C1374.59 1713.93 1373.97 1713.96 1372.85 1709.58 1372.67 1709.76 1371.8 1710.55 1370.92 1711.8 1370.86 1711.69 1370.39 1710.88 1370.04 1710.45 1369.11 1712.18 1369.02 1712.16 1368.95 1712.31 1367.95 1710.11 1368.7 1710.11 1367.55 1707.94 1366.72 1710.3 1366.59 1710.28 1365.72 1712.65 1365.06 1709.65 1365.38 1709.67 1364.14 1706.66L1362.67 1711.47C1360.44 1706.86 1359.76 1706.9 1359.24 1702.26 1358.03 1707.04 1358.98 1707.04 1356.55 1711.78 1354.54 1709.04 1354.9 1709.04 1354.12 1706.24L1353.97 1706.6C1353.78 1706.36 1353.59 1706.11 1353.4 1705.87 1353.08 1706.78 1352.93 1706.75 1352.61 1707.67L1352.57 1707.43C1352.46 1707.83 1351.5 1711.36 1350.69 1712.34 1350.26 1712.1 1350.29 1712.12 1350.02 1711.85L1349.75 1712.5C1349.63 1711.87 1349.51 1711.24 1349.39 1710.61 1349.27 1711.28 1349.15 1711.95 1349.04 1712.62L1348.99 1712.3C1348.88 1712.69 1348.71 1713.26 1348.18 1714.26L1348.07 1713.98C1347.79 1714.04 1347.38 1714.83 1347.34 1714.91 1346.91 1713.7 1346.91 1713.72 1346.57 1712.5 1345.33 1714.72 1345.16 1717.09 1344.4 1715.78 1343.88 1716.29 1343.8 1716.27 1343.38 1716.77L1343.08 1716.42C1341.89 1717.19 1342.54 1717.22 1341.39 1717.99L1341.01 1717.6C1340.77 1717.97 1340.87 1717.96 1340.47 1718.25 1339.97 1717.12 1339.59 1717.15 1338.89 1716.03L1338.45 1716.41C1337.77 1715.32 1335.93 1714.06 1335.45 1713.52 1335.24 1713.75 1335.03 1713.99 1334.83 1714.22L1334.42 1713.91C1333.9 1714.11 1332.93 1714.47 1331.62 1716.81 1330.5 1712.58 1330.09 1712.62 1327.64 1708.44 1327.29 1709.35 1327.21 1709.32 1326.81 1710.22L1326.47 1709.68 1326.38 1709.89C1326.12 1708.78 1326.07 1708.81 1325.79 1707.69 1325.61 1707.89 1325.44 1708.1 1325.26 1708.31 1325.07 1707.71 1324.89 1707.11 1324.7 1706.51L1324.51 1707.15C1324.38 1706.86 1324.24 1706.58 1324.11 1706.3 1323.17 1709.52 1322.66 1709.49 1320.69 1712.7 1320.39 1711.74 1320.61 1711.76 1319.86 1710.85L1319.68 1711.81 1319.56 1711.6C1319.08 1713.79 1319.6 1713.8 1317.44 1715.9 1316.98 1715.49 1316.63 1713.19 1316.59 1712.96 1316.37 1713.55 1316.14 1714.14 1315.9 1714.73L1315.68 1713.82C1314.02 1719.58 1314.74 1719.57 1312.37 1725.32 1311.93 1724.81 1311.31 1724.84 1310.28 1720.13L1310.01 1721.1C1309.9 1720.59 1309.62 1719.19 1307.88 1714.64 1307.77 1715.13 1307.66 1715.62 1307.54 1716.11L1307.46 1715.65 1307.35 1715.99C1307.34 1715.94 1304.06 1708.52 1304.04 1708.51 1303.74 1708.99 1303.77 1708.97 1303.58 1709.47 1303.23 1708.86 1302.27 1707.41 1301.62 1705.87 1301.19 1706.62 1300.74 1707.8 1300.67 1707.96L1300.27 1707.37C1299.8 1708.95 1299.63 1708.93 1299.13 1710.51L1298.75 1708.98C1295.76 1712.91 1296.02 1724.08 1290.22 1726.46 1289.52 1725.5 1289 1724.53 1288.14 1723.58 1288.08 1723.51 1288.06 1723.76 1287.8 1723.77 1285.67 1723.85 1286.49 1723.48 1284.08 1720.64 1283.99 1720.73 1283.68 1720.98 1283.59 1720.89 1282.65 1719.84 1282.03 1718.77 1281.44 1717.7L1281.23 1718.01C1280.28 1714.6 1280.67 1714.61 1279.66 1712.13 1279.16 1712.76 1278.99 1713.17 1278.95 1713.26 1278.67 1712.54 1278.77 1712.56 1278.74 1712.5L1278.59 1712.83 1278.41 1711.63C1278.3 1712.24 1278.36 1712.22 1278.12 1712.82L1277.97 1712.57 1277.85 1712.91C1275.69 1704.95 1277 1704.94 1274.35 1696.98 1274.31 1697.37 1274.13 1699.54 1273.83 1701.78 1273.75 1701.13 1273.66 1700.49 1273.57 1699.84 1273.51 1700.85 1273.44 1701.87 1273.38 1702.89L1273.3 1701.96C1273.22 1702.61 1273.16 1703.25 1273.09 1703.89L1273.05 1703.57C1272.63 1706.66 1272.53 1706.64 1271.13 1709.7 1270.21 1708.98 1270.38 1709.89 1269.35 1711.45 1268.78 1710.13 1268.68 1710.16 1268.29 1708.82 1267.58 1711.01 1267.75 1711.01 1267.11 1711.95L1267.01 1711.77C1266.66 1712.48 1266.66 1712.48 1266.64 1712.51 1266.6 1712.45 1266.31 1712 1265.96 1711.75 1265.88 1711.94 1265.9 1711.92 1265.67 1713.02 1265.41 1712.42 1265.46 1712.44 1265.28 1712.24 1265.19 1712.63 1265.1 1713.02 1265.02 1713.41 1264.9 1713.26 1264.79 1713.11 1264.67 1712.96 1263.28 1718.23 1259.66 1718.36 1259.16 1717.96 1257.45 1721.1 1257.8 1721.11 1254.38 1724.16 1251.62 1720.17 1251.52 1720.18 1251.33 1719.83 1250.88 1720.03 1250.74 1720.09 1249.51 1722.69L1249.08 1722.2C1248.63 1722.58 1248.74 1722.57 1248.18 1722.85L1247.43 1722.59C1246.8 1723.88 1246.76 1725.2 1245.72 1726.47 1245.05 1727.29 1243.27 1728.02 1242.34 1728.82 1241.64 1727.74 1238.47 1723.58 1237.55 1721.77 1237.37 1722.22 1237.19 1722.68 1237.02 1723.14 1235.83 1722.18 1235.9 1722.19 1235.18 1721.2 1233.86 1721.57 1234.26 1721.61 1232.86 1723.02L1232.63 1722.63 1232.42 1723.22 1231.97 1722.9 1231.82 1723.36C1231.75 1722.9 1230.93 1718.16 1229.18 1717.75 1229.06 1718.05 1229.11 1718.36 1228.73 1718.64 1228.6 1718.74 1228.47 1718.44 1228.38 1718.34 1227.94 1718.83 1227.84 1718.81 1227.19 1719.28L1226.94 1718.74 1226.82 1718.98 1226.49 1718.1C1225.2 1722.8 1224.54 1723.82 1223.41 1726.04 1221.91 1724.69 1222.47 1724.68 1221.12 1723.34 1220.56 1723.77 1220.19 1721.88 1220.17 1721.75L1220.04 1722.46 1219.88 1721.32 1219.75 1721.98C1218.64 1716.16 1217.57 1716.2 1216.4 1710.39 1215.58 1712.11 1215.42 1719.91 1214.14 1715.61L1214.02 1716.13 1213.81 1715.16 1213.58 1715.89C1213.38 1715.68 1213.17 1715.47 1212.96 1715.26L1212.52 1715.59C1212.07 1715.48 1212.13 1715.2 1212.06 1715.38 1211.67 1716.41 1211.24 1717.44 1210.96 1718.47 1210.81 1718.11 1210.72 1718.14 1210.41 1717.81 1209.95 1719.05 1210 1719.03 1209.36 1720.26 1209.22 1719.69 1209.09 1719.11 1208.95 1718.54L1208.73 1719.54C1204.69 1712.64 1205.22 1712.63 1204.54 1705.65 1204.29 1707.04 1204.14 1708.14 1204.11 1708.36L1204.02 1708.13C1203.89 1709.33 1203.75 1710.53 1203.62 1711.73 1203.51 1711.02 1203.4 1710.3 1203.29 1709.59L1203.17 1710.35 1203.08 1710.08C1203.03 1710.23 1202.04 1716.44 1199.93 1717.44 1199.78 1717.26 1199.5 1716.94 1198.95 1715.25L1198.51 1716.86 1198.39 1716.43 1198.2 1717.06C1198.12 1716.84 1197.5 1714.91 1196.95 1714.27L1196.68 1714.64C1195.74 1714.06 1195.39 1710.25 1195.35 1709.87L1195.27 1710.42 1195.19 1709.65C1194.97 1711.36 1194.96 1711.34 1194.69 1713.02 1194.56 1712.37 1193.62 1708.11 1193.53 1707.69L1193.38 1708.54C1193.32 1708.08 1193.17 1705.96 1192.73 1705.86 1192.64 1706.31 1192.7 1706.29 1192.44 1706.72L1192.23 1705.73 1192.07 1707.3 1191.98 1706.66 1191.9 1707.54 1191.86 1706.89 1191.74 1708.3 1191.65 1707.77 1191.53 1708.92 1191.49 1708.29 1191.36 1709.45 1191.28 1708.84 1191.19 1709.84 1191.07 1709.24 1190.99 1710.12 1190.95 1709.65 1190.86 1710.39C1190.75 1709.77 1190.63 1709.16 1190.52 1708.55L1190.31 1709.6C1190.17 1709.34 1190.04 1709.08 1189.91 1708.82 1189.13 1710.46 1189.1 1710.46 1189.03 1710.6 1188.99 1710.37 1188.48 1707.73 1187.9 1707.71 1187.63 1707.7 1187.19 1712.58 1186.8 1713.84 1186.52 1712.24 1186.24 1710.64 1185.96 1709.04 1185.39 1711.93 1184.94 1711.9 1184.38 1715.44L1184.21 1715.2 1184.13 1715.43C1183.74 1714.14 1183.58 1714.16 1183.34 1713.78 1182.99 1715.33 1182.14 1722.74 1180.44 1718.99L1180.15 1719.58C1179.75 1718.47 1179.8 1718.47 1179.27 1716.35L1179.03 1716.94C1178.26 1714.86 1178.47 1714.87 1178.13 1712.78 1177.5 1714.05 1177.42 1715.72 1177.08 1716.21L1176.93 1715.96C1176.85 1716.24 1176.07 1718.75 1174.67 1719.33 1173.63 1718.38 1170.06 1710.64 1169.95 1709.92 1169.21 1710.41 1168.91 1711.88 1168.87 1712.05 1168.28 1714.96 1168 1717.87 1167.18 1720.76 1166.89 1720.41 1166.29 1719.69 1165.24 1716.21L1164.83 1716.84 1164.61 1716.43C1161.65 1719.74 1162.84 1719.78 1162.37 1720.05 1161.11 1720.77 1162.18 1719.82 1161.83 1719.04 1160.34 1723.27 1160.03 1723.24 1159.13 1727.49L1158.85 1726.86C1157.52 1730.47 1157.79 1730.47 1154.53 1733.97 1152.4 1733.27 1152.42 1734.92 1152.11 1735.58 1151.96 1735.31 1151.94 1735.32 1151.48 1734.73 1149.12 1735.91 1149.53 1735.93 1148.29 1737.23 1147.9 1736.77 1146.9 1736.79 1146.22 1736.21L1145.73 1736.4C1145.1 1736.46 1144.51 1736.58 1143.85 1736.57 1143.55 1736.56 1143.71 1736.39 1143.43 1736.36L1142.39 1736.33 1141.31 1737.31C1141.13 1737.17 1139.94 1736.21 1137.63 1735.61 1136.4 1737.59 1137.02 1737.8 1135.49 1737.83 1133.36 1737.88 1134.74 1736.63 1133.91 1737.16 1133.23 1737.59 1132.57 1738.03 1132.04 1738.48L1131.67 1738.21C1131.06 1740.3 1130.47 1740.25 1129.17 1741.89L1128.38 1741.2 1126.14 1742.34C1124.56 1742.31 1125.92 1741.55 1124.71 1741.82 1123.7 1742.05 1124.03 1742.1 1122.77 1743.18L1122.4 1742.68 1121.56 1743.81 1120.88 1743.48 1120.32 1743.77C1119.4 1742.33 1118.49 1740.89 1117.33 1739.47 1117.03 1739.1 1116.26 1738.78 1115.96 1738.42 1114.86 1738.32 1114.72 1738.96 1114.41 1738.64 1114.16 1738.39 1113.68 1737.91 1112.99 1735.35 1112.41 1736.4 1112.32 1736.38 1111.72 1737.43L1111.51 1737.09C1111.35 1737.42 1111.1 1737.38 1110.94 1737.73 1110.65 1737.03 1110.53 1737.06 1110.17 1736.35 1110 1736.86 1109.84 1737.36 1109.68 1737.86 1109.19 1736.6 1109.38 1736.61 1108.7 1735.84 1108.47 1736.27 1108.24 1736.71 1108.02 1737.14 1107.74 1736.8 1106.88 1736.84 1105.27 1731.68 1104.92 1732.08 1104.58 1732.48 1104.23 1732.88 1101.94 1730.36 1101.41 1730.41 1100.22 1728.22L1099.82 1728.51C1099.75 1728.34 1099.65 1728.13 1098.7 1726.43 1097.05 1728.03 1097.83 1729.18 1095.45 1730.78L1095.22 1730.57C1094.62 1731.1 1094.56 1731.08 1094.3 1731.64L1093.95 1731.37 1093.22 1731.75C1091.99 1730.71 1092.04 1730.72 1091.52 1729.63 1091.34 1729.8 1091.17 1729.98 1091 1730.15 1089.41 1727.63 1091.32 1727.6 1089.15 1723.98 1088.23 1727.01 1087.94 1726.99 1087.06 1730.03L1086.97 1729.71C1086.72 1730.19 1086.4 1730.16 1086.04 1730.64 1084.52 1725.13 1084.54 1725.13 1084.4 1724.65L1084.11 1725.02C1083.9 1724.53 1083.92 1724.55 1083.46 1724.07L1083.16 1724.45C1082.97 1723.94 1082.76 1723.43 1082.57 1722.93 1082.29 1722.16 1082.04 1721.4 1081.75 1720.64 1080.51 1721.62 1080.96 1721.63 1079.66 1722.61 1079.55 1722.39 1078.78 1720.89 1078.71 1720.74 1078.5 1721.33 1078.44 1721.31 1078.18 1721.89L1077.69 1721.2 1077.3 1721.88C1077.15 1721.46 1076.99 1721.04 1076.84 1720.62L1076.58 1721.14C1075.92 1720.42 1075.97 1720.42 1075.91 1720.35 1075 1721.44 1075.66 1721.45 1074.73 1722.54L1074.34 1721.92C1074 1722.42 1073.65 1722.92 1073.31 1723.42L1073.14 1723.2C1072.63 1724.31 1071.6 1724.24 1070.9 1725.8 1070.74 1725.51 1070.59 1725.23 1070.43 1724.94 1070.23 1725.15 1069.98 1725.75 1069.95 1725.82 1069.47 1725.09 1069.48 1725.12 1069.08 1724.4 1068.48 1725.03 1068.52 1725.01 1068.32 1725.17L1067.98 1724.82C1067.36 1725.13 1067.4 1725.76 1066.9 1728.64 1066.58 1728.01 1066.52 1728.04 1066.2 1727.39 1066.04 1727.69 1066.1 1727.67 1064.89 1731.12L1064.46 1730.06C1063.39 1733.64 1063.9 1733.63 1061.23 1737.13L1060.75 1736.95C1059.8 1738.83 1059.51 1738.8 1058.67 1740.68L1057.63 1739.96C1057.37 1740.25 1057.63 1740.57 1057.37 1740.85 1057.1 1741.16 1056.58 1741.45 1056.03 1741.73 1055.69 1741.48 1055.35 1741.22 1055 1740.97L1053.61 1741.47C1049.63 1738.02 1049.72 1738.03 1049.31 1737.74 1046.16 1736.56 1047.01 1736.47 1046.03 1735.02 1045.32 1735.32 1044.68 1735.76 1044.58 1735.83 1041.56 1734.39 1040.65 1734.48 1039.64 1732.45L1039.23 1732.94C1037.57 1730.68 1033.96 1730.59 1031.89 1724.9L1031.52 1725.27C1031.26 1724.56 1031.14 1724.58 1030.87 1723.87 1030.66 1724.6 1029.96 1724.56 1027.17 1733.02 1025.5 1738.09 1025.82 1741.3 1023.89 1738.8 1023.37 1738.13 1023.05 1737.45 1022.71 1736.76 1021.87 1738.98 1019.02 1738.9 1018.2 1739.14 1017.76 1739.26 1017.59 1739.79 1017.48 1739.62 1016.5 1738.09 1016.03 1736.54 1015.52 1735 1015.33 1735.5 1016.2 1735.94 1012.69 1740.23L1012.49 1739.91C1011.56 1740.41 1011 1740.13 1009.58 1739.74L1009.22 1740.01C1008.56 1739.74 1006.31 1739.64 1003.82 1737.72 1000.78 1735.36 1000.6 1733.65 1000.37 1733.43L999.644 1733.99C999.062 1733.74 999.033 1733.39 998.81 1733.68 998.067 1734.66 997.373 1735.65 996.814 1736.64 996.444 1736.45 996.523 1736.45 993.983 1733.78 993.262 1733.02 991.99 1732.3 991.507 1731.53 990.969 1731.7 990.941 1731.71 989.946 1734.35 988.897 1731.87 987.379 1731.97 986.132 1729.49L985.97 1729.9 985.651 1729.45C984.914 1731.91 984.808 1731.91 984.745 1732.12 980.866 1727.42 981.88 1727.37 981.393 1726.97L981.268 1727.47C979.554 1720.5 978.93 1720.52 978.815 1719.91 978.057 1715.92 977.823 1711.92 976.903 1707.93 975.36 1715.77 975.633 1715.77 975.49 1716.45 975.051 1715.62 975.066 1713.57 974.7 1712.98L974.659 1713.43 974.575 1712.98C974.495 1713.35 974.562 1713.34 973.689 1717.67 973.531 1715.99 973.485 1716.02 973.286 1714.33L973.286 1714.66 973.245 1714.3 973.079 1714.7 972.871 1713.1 972.788 1713.89C972.563 1713.45 972.526 1713.48 972.323 1713.01 972.109 1714.03 972.064 1714.01 971.956 1715.03L971.832 1714.4 971.748 1714.84 971.665 1714.41 971.582 1714.96C971.499 1714.58 971.416 1714.21 971.333 1713.83 970.828 1714.24 970.427 1716.48 970.385 1716.72 970.215 1715.64 970.044 1714.56 969.874 1713.48L969.631 1715C969.295 1712.99 969.339 1713.01 969.088 1711.01L969.047 1711.29C968.381 1707.14 968.24 1707.17 967.675 1703 967.014 1705.57 966.851 1708.9 965.795 1718.55 965.535 1718.04 965.447 1718.07 965.18 1717.58L964.806 1718.46C964.007 1713.78 964.264 1713.79 963.692 1709.1 963.483 1709.36 963.275 1709.61 963.067 1709.87 962.591 1707.6 962.507 1707.61 962.474 1707.41 962.323 1707.86 962.172 1708.3 962.022 1708.75 961.871 1708.29 961.72 1707.84 961.569 1707.39 961.231 1708 960.769 1709.19 960.708 1709.35 960.553 1708.79 960.398 1708.23 960.243 1707.67 959.229 1710.2 959.222 1710.17 959.146 1710.39L959.08 1710.28C958.525 1714.03 959.111 1714.03 958.044 1715.52 958.012 1715.33 957.864 1714.46 957.562 1713.18 956.562 1716.24 956.378 1717.16 956.309 1717.51L956.193 1716.98 955.827 1717.5C955.557 1717.01 955.374 1716.67 954.852 1711.24 954.422 1712.69 954.294 1712.68 953.859 1716.31L953.622 1715.83 953.25 1716.09C952.958 1715.28 953.814 1714.37 952.355 1713.65 951.707 1713.34 950.475 1714.21 950.117 1714.56 948.931 1713.67 948.848 1713.69 948.682 1712.73 948.468 1714.02 948.423 1713.99 948.261 1715.3 948.044 1714.63 947.827 1713.95 947.61 1713.28 945.738 1716 946.951 1716.03 944.783 1718.74 944.137 1717.69 944.252 1717.69 942.645 1711.43 942.484 1711.63 942.324 1711.82 942.163 1712.02L941.955 1711.69C941.866 1711.9 941.077 1713.73 940.165 1714.27 939.964 1713.89 939.762 1713.51 939.561 1713.13 938.92 1713.6 938.525 1717.27 938.41 1717.73L938.24 1716.75 938.035 1717.31 937.994 1716.99 937.841 1717.55C936.208 1715.87 936.928 1711.27 934.104 1706.25 933.89 1710.15 933.711 1712.61 933.671 1713.16 933.225 1708.3 933.022 1705.36 932.975 1704.68 932.888 1704.81 932.817 1705.19 932.714 1705.06 932.227 1704.45 931.984 1703.83 931.8 1703.2 930.745 1707.02 930.77 1707 930.22 1710.8L929.97 1708.82 929.834 1709.17 929.783 1709.17 929.538 1708.68 928.267 1714.72C927.722 1713.51 927.251 1713.55 926.538 1710.9 926.383 1711.58 926.229 1712.25 926.075 1712.92 925.637 1712.26 925.692 1712.28 925.65 1712.23L925.455 1713 925.28 1712.81C925.125 1713.4 924.971 1714 924.816 1714.59L924.733 1714.28 924.605 1714.81 924.36 1714.53C923.926 1716.63 923.147 1716.6 922.465 1718.7 921.888 1718.41 922.316 1718.41 920.909 1714.66 919.023 1719.21 919.171 1719.21 918.739 1719.42 917.811 1719.23 917.972 1717.99 917.063 1715.35L916.674 1715.86 916.226 1715.39C915.417 1716.31 915.295 1716.29 914.908 1717.23L914.655 1716.05C914.564 1716.28 914.473 1716.5 914.382 1716.72L914.174 1715.7 913.982 1716.31 913.883 1715.87 913.8 1716.1 913.636 1715.81C913.05 1717.22 913.162 1717.2 913.011 1718.61L912.927 1718.12C912.687 1718.44 912.446 1718.77 912.206 1719.09 911.97 1718.52 911.734 1717.96 911.498 1717.4L911.367 1717.62C910.826 1715.87 910.338 1715.91 909.716 1714.15 909.183 1716.33 908.766 1716.3 908.271 1718.48L908.188 1718.1 908.047 1718.79 907.909 1717.57 907.69 1718.1C907.385 1717.38 906.977 1716.43 905.714 1709.11L905.468 1709.63 905.295 1709.24C904.142 1712.51 904.851 1712.51 902.84 1715.76 901.824 1714.85 902.137 1714.55 901.87 1712.86 901.687 1712.91 901.76 1713.12 901.662 1713.06 901.451 1712.92 901.574 1712.46 901.496 1712.61 900.76 1714 900.575 1715.42 899.685 1716.81 899.302 1715.97 899.285 1716 899.085 1715.16 898.923 1715.99 899.3 1715.99 898.436 1716.79 897.523 1714.31 896.819 1714.36 896.092 1711.89 892.736 1700.47 893.57 1700.46 893.142 1699.47 893.11 1699.51 892.187 1700.6 892.132 1699.86 892.121 1699.72 892.349 1699.57 892.236 1699.42 891.286 1702.57 891.443 1702.55 891.075 1705.71 890.982 1705.31 890.822 1705.32 890.147 1699.75L889.981 1700.86C889.923 1699.93 889.865 1699.01 889.808 1698.08 889.278 1702.31 889.189 1702.29 888.817 1703.43 888.629 1702.49 888.441 1701.56 888.253 1700.63 887.451 1703.78 885.8 1713.34 884.993 1715.65 884.688 1714.76 884.656 1714.78 884.208 1713.89 883.938 1714.24 882.842 1717 882.575 1717.05 882.293 1717.1 882.721 1716.97 881.334 1715.93 880.854 1716.4 880.479 1716.99 880.42 1717.08 879.886 1715.75 879.647 1715.78 879.058 1714.44 878.513 1717.79 878.622 1717.77 878.175 1721.12L878.092 1720.83C877.883 1721.4 877.909 1721.38 877.752 1721.7L877.51 1721.4C876.97 1721.58 876.795 1725.51 875.048 1729.71L874.848 1729.22C874.777 1729.37 873.845 1731.36 873.392 1731.09 872.811 1730.76 871.143 1727.12 870.983 1726.77L870.543 1728.06C870.357 1727.51 870.172 1726.96 869.986 1726.41 868.24 1728.12 868.332 1728.97 867.077 1728.28 865.726 1727.55 866.554 1726.47 865.787 1727.27 865.488 1727.58 865.257 1727.89 864.998 1728.2L864.582 1727.92 863.958 1728.7 863.376 1727.76 862.45 1730.26C861.738 1729.78 859.881 1729.68 858.366 1727.52L857.806 1727.77C856.831 1726.45 855.996 1723.03 855.894 1722.62 855.619 1721.49 855.818 1720.35 855.289 1719.23 855.184 1719.01 854.16 1718.87 854.023 1718.65 853.634 1717.36 849.942 1705.09 848.6 1702.48 848.16 1704.04 848.023 1704.01 847.765 1705.59 847.699 1705.26 847.33 1703.39 847 1701.4 846.878 1701.97 846.757 1702.54 846.635 1703.11 846.58 1702.89 846.416 1702.27 846.019 1700.44 845.235 1703.53 845.706 1703.82 844.96 1706.17 844.525 1702.57 844.571 1702.58 844.337 1702.03 843.798 1705.14 843.943 1705.12 843.367 1708.24 843.337 1708.15 843.09 1707.44 842.903 1707.16 842.683 1709.45 842.278 1712.64 842.217 1713.11L841.941 1712.4C841.624 1713.81 841.414 1713.78 840.754 1715.17 840.726 1715.12 840.241 1714.2 840.112 1714.53 839.66 1715.72 839.339 1716.9 839.187 1718.09L839.1 1717.45C838.428 1723.23 837.301 1723.19 835.043 1728.93 834.741 1727.87 834.883 1727.88 834.402 1727.21 834.297 1727.23 834.218 1727.27 834.195 1727.3 834.045 1727.52 834.099 1727.74 833.887 1727.95 832.317 1725.16 832.982 1728.69 832.371 1731.5 831.036 1729.55 830.508 1733.77 830.328 1734.59 829.977 1734.2 829.98 1733.92 829.971 1733.9 829.655 1735.46 829.614 1735.43 829.081 1736.96L829.04 1736.67 828.998 1737.11C828.941 1736.87 828.399 1734.51 827.872 1734.05 827.543 1734.47 827.411 1734.64 826.548 1739.45L826.344 1739.22C826.168 1739.68 825.992 1740.13 825.816 1740.58 825.726 1740.37 825.637 1740.15 825.548 1739.93 825.301 1740.52 825.61 1740.55 824.963 1740.67 824.786 1740.36 824.608 1740.05 824.431 1739.74 823.945 1741.04 823.987 1741.02 823.714 1742.34 823.069 1741.49 823.214 1741.51 822.975 1740.66 822.654 1741.68 822.689 1741.65 822.513 1742.67 822.42 1742.63 822.454 1742.62 822.264 1742.04L822.098 1742.68 822.056 1742.24 821.886 1743.33C821.315 1743.17 821.515 1743.13 819.543 1739.26 819.165 1740.17 819.239 1740.15 819.196 1740.23L819 1738.69C818.732 1739.05 818.669 1739.13 817.927 1743.27 817.359 1741.73 817.172 1740.69 817.131 1740.47L816.864 1741.34C816.116 1739.77 816.161 1739.78 816.059 1739.75 815.869 1740.45 815.812 1740.43 815.613 1741.14 815.488 1740.96 815.356 1740.36 815.341 1740.29 815.245 1740.6 815.148 1740.91 815.052 1741.22 814.927 1740.81 814.803 1740.4 814.678 1739.99 814.353 1740.92 814.077 1742.08 814.034 1742.26 813.814 1740.94 813.948 1740.93 813.649 1740.81 813.296 1741.88 813.274 1741.85 813.071 1742.94 812.625 1742.13 812.561 1742.15 812.343 1741.34 812.266 1741.85 812.19 1742.36 812.114 1742.87L811.936 1741.43C811.903 1741.58 810.709 1746.68 809.54 1743.09L809.5 1743.14 809.5 1068.5Z" stroke="#FFFFFF" stroke-width="0.508137" stroke-miterlimit="8" fill="#FFFFFF" fill-rule="evenodd"/></g></svg>