<svg width="2455" height="691" xmlns="http://www.w3.org/2000/svg" xmlns:xlink="http://www.w3.org/1999/xlink" xml:space="preserve" overflow="hidden"><defs><clipPath id="clip0"><rect x="809" y="1068" width="2455" height="691"/></clipPath></defs><g clip-path="url(#clip0)" transform="translate(-809 -1068)"><path d="M809 1068 3264 1068 3264 1759 3262.93 1759 3262.82 1757.59C3262.4 1757.71 3261.98 1757.84 3261.56 1757.97L3261.4 1757.65 3261.14 1757.95 3260.72 1757.76C3258.25 1757.55 3257.89 1757.56 3257.36 1756.88L3256.79 1757.16C3255.84 1756.57 3255.1 1756.7 3254.3 1756.09L3253.88 1756.45C3253.58 1756.46 3253.64 1756.23 3253.34 1756.24 3253.02 1756.26 3253.29 1756.45 3253.01 1756.49 3252.72 1756.54 3252.31 1756.4 3252.02 1756.44 3251.5 1756.09 3251.52 1756.12 3251.05 1755.76 3248.45 1756.55 3247.87 1755.33 3246.19 1755.21 3245.37 1754.57 3245.41 1754.58 3245.06 1753.57 3244.72 1754.37 3244.86 1754.36 3244.12 1755.13 3243.81 1754.94 3243.5 1754.76 3243.19 1754.57L3242.8 1754.88C3241.96 1754.72 3241.2 1754.53 3240.46 1754.34 3238.46 1753.8 3238.38 1753.82 3238.29 1753.76L3237.3 1753.68C3235.84 1751.68 3235.77 1751.5 3235.68 1751.31L3235.37 1751.69 3234.85 1751.16 3234.18 1751.35C3233.95 1751.18 3232.65 1750.2 3232.09 1749.14L3231.82 1749.37 3231.38 1749.01C3231.19 1749.19 3231 1749.38 3230.81 1749.57 3230.16 1748.78 3228.82 1748.05 3228.08 1747.27 3225.96 1745.02 3224.19 1742.74 3222.26 1740.48 3219.45 1737.16 3215.67 1735.05 3214.87 1732.74 3214.21 1733.39 3214.14 1733.36 3213.16 1733.97L3212.47 1733.79C3212.01 1733.66 3211.56 1733.53 3211.1 1733.4L3209.69 1733.44 3209.2 1733.64C3208.9 1733.46 3208.61 1733.28 3208.31 1733.1L3207.78 1733.35 3207.39 1733.1 3207.14 1733.33 3206.67 1733.12 3206.3 1733.4 3206.1 1733.04 3205.66 1733.43 3205.12 1732.93C3204.86 1733.57 3204.82 1733.55 3203.77 1735.27L3203.31 1734.95C3201.54 1736.49 3203.59 1737.45 3197.71 1737.15 3196.01 1735.67 3190.2 1734.81 3189.96 1734.4 3189.86 1734.2 3190.14 1734 3189.96 1733.8L3189.5 1734.12C3188.74 1733.31 3188.28 1733.38 3187.18 1732.61 3186.6 1733.16 3186.46 1733.13 3186.01 1733.7 3184.76 1733.15 3179.6 1729.84 3178.83 1729.63 3177.97 1728.07 3178.57 1728.04 3176.01 1726.61 3174.25 1727.94 3174.19 1727.93 3174.03 1728.17L3173.66 1727.85C3173.06 1728.5 3173.03 1728.48 3172.99 1728.54L3172.45 1728.16C3172.3 1728.41 3172.14 1728.65 3171.99 1728.9 3171.68 1728.02 3171.68 1728.02 3171.68 1728.02 3171.54 1727.99 3171.34 1727.99 3170.62 1728.56L3170.09 1728.11C3169.99 1728.22 3170.1 1728.64 3169.18 1728.26 3168.82 1729.44 3167.88 1730.88 3167.39 1733.59 3166.26 1730.02 3164.47 1728.22 3164.25 1727.81 3163.14 1729.65 3163.26 1729.65 3163.06 1729.8L3162.36 1729.41C3161.09 1729.38 3161.15 1729.51 3161.1 1729.48 3160.23 1729.05 3159.47 1727.96 3159.38 1727.82 3158.99 1728.2 3158.87 1728.17 3158.25 1728.51 3157.35 1727.65 3156.16 1723.78 3154.2 1716.84 3153.31 1718.76 3153.42 1718.74 3151.51 1720.58 3149.44 1722.57 3149.77 1722.57 3147.95 1724.56 3147.5 1724.22 3147.63 1724.23 3147.14 1723.88 3141.08 1733.16 3139.39 1733.51 3136.71 1733.22 3135.77 1733.53 3135.72 1733.5 3134.75 1733.81 3132.9 1732.41 3132.65 1732.43 3132.08 1730.96 3131.38 1729.15 3130.86 1727.33 3130.27 1725.51 3128.83 1728.55 3128.84 1729.83 3126.64 1731.7 3125.59 1731.47 3125.66 1731.48 3124.92 1731.15 3122.84 1732 3121.15 1730.83 3121.1 1730.8L3120.43 1731.15C3119.67 1730.91 3118.47 1730.79 3117.59 1730.58 3114.18 1729.76 3115.51 1729.55 3112.5 1724.37 3110.42 1724.87 3110.48 1724.93 3109.96 1724.89 3108.82 1724.8 3109.28 1724.68 3105.52 1716.35 3104.34 1718.82 3104.75 1724.05 3101.27 1725.65 3101.05 1725.39 3100.83 1725.33 3100.32 1724.4L3100.15 1724.61C3100 1724.3 3099.85 1723.99 3099.7 1723.68 3099.15 1723.88 3099.16 1723.69 3098.83 1723.46 3098.62 1723.75 3098.4 1724.03 3098.19 1724.32L3098.01 1723.93C3097.87 1724.25 3097.73 1724.57 3097.6 1724.89 3096.83 1724.67 3096.55 1724.69 3096.05 1724.95L3094.95 1724.36C3092.73 1719.12 3092.8 1719.12 3092.54 1718.67L3092.36 1719.42C3091.03 1715.23 3090.86 1715.14 3090.22 1714.81 3088.53 1718.78 3083.4 1722.78 3078.94 1729.02L3078.69 1728.75C3078.2 1729.3 3077.72 1729.85 3077.24 1730.4 3075.6 1728.26 3076.06 1728.25 3074.12 1726.13L3073.93 1726.36 3073.27 1725.98C3072.43 1726.73 3072.44 1726.72 3072.36 1726.79 3072.01 1726.63 3070.69 1726.04 3069.31 1724.67 3066 1721.36 3066.71 1721.34 3066.39 1721.05 3062.48 1721.9 3065.79 1720.46 3064.02 1719.18L3063.72 1719.42C3063.68 1719.36 3063.36 1718.89 3062.97 1718.73 3061.43 1719.6 3061.03 1719.7 3060.46 1721.34 3060.01 1721.28 3059.72 1721.27 3058.53 1718.35 3057.83 1719.92 3057.83 1719.89 3057.27 1721.44 3057.2 1721.31 3053.27 1711.3 3053.22 1711.12L3053.11 1711.46C3052.43 1709.28 3052.45 1709.3 3052.13 1707.1L3051.79 1707.87C3051.62 1707.46 3051.45 1707.05 3051.28 1706.63 3049.47 1709.4 3049.57 1716.14 3048.28 1714.96 3046.3 1726.62 3042.62 1734.82 3041.86 1736.54 3041.58 1735.82 3036.94 1721.18 3036.89 1720.89 3036.36 1722.14 3032.15 1739.59 3026.1 1738.73 3025.26 1737.75 3024.79 1737.82 3023.09 1736.94 3021.17 1738.24 3015.27 1737.28 3014.53 1736.84 3013.76 1737.31 3011.78 1737.02 3011.57 1736.98 3006.07 1736.15 3003.38 1735.5 3002.74 1735.35 3002.51 1735.5 3002.28 1735.66 3002.04 1735.82 3000.55 1735.92 3000.19 1735.94 2999.77 1735.52 2999.29 1736 2998.45 1735.96 2997.41 1735.57 2995.15 1736.1 2991.83 1733.88 2990.93 1733.79 2990.34 1733.73 2989.64 1734.36 2989.58 1734.42L2989.38 1733.93C2988.73 1734.58 2986.63 1734.01 2985.83 1734.57L2985.46 1734.27C2984.84 1734.41 2985.46 1734.66 2984.76 1734.55 2983.6 1734.35 2983.45 1734.15 2982.56 1734.42 2981.15 1733.51 2980.84 1733.51 2980.65 1733.57 2980.42 1733.65 2980.47 1733.77 2980.2 1733.84L2979.55 1733.35C2979.31 1733.68 2979.09 1733.63 2978.54 1733.93 2978.2 1733.67 2972.31 1720.2 2970.74 1714.51 2970.34 1715.37 2970.42 1715.35 2970.04 1715.82L2969.81 1715.29 2969.36 1716.7C2969.1 1716.82 2968.05 1716.58 2967.84 1716.71 2966.82 1717.31 2965.98 1719.64 2965.88 1719.9 2965.66 1719.63 2965.43 1719.36 2965.21 1719.09 2965.03 1719.52 2964.84 1719.95 2964.66 1720.39 2964.36 1719.83 2963.9 1719.89 2963.49 1719.34 2963.07 1720.35 2963.02 1720.35 2962.99 1720.44 2962.52 1719.68 2962.64 1719.7 2962.42 1718.93 2961.84 1719.78 2961.91 1719.78 2961.85 1719.85 2960.59 1714.46 2960.25 1713.66 2960.03 1713.12 2959.85 1713.3 2959.69 1713.46 2959.15 1715.39 2959.09 1715.16 2958.3 1712.27 2957.94 1712.56 2956.36 1713.81 2956.13 1715.16 2955.24 1716.46 2955.12 1716.38 2954.33 1715.86 2953.55 1715.47L2953.31 1715.88C2949.64 1709.65 2950.22 1709.63 2949.87 1709.09 2949.48 1709.36 2949.1 1709.62 2948.71 1709.89L2948.47 1709.66C2948 1710.59 2947.88 1710.56 2947.37 1711.48L2946.67 1711.02C2946.44 1711.17 2946.22 1711.32 2946 1711.48L2945.68 1711.23 2945.27 1711.45C2945.11 1711.14 2943.56 1708.2 2943.31 1707.6 2942.65 1708.22 2943.36 1708.25 2939.14 1715.58 2938.95 1715.92 2938.55 1716.25 2938.42 1716.58L2938.16 1716.31C2935.93 1723.18 2936.52 1724.74 2934.56 1727.16 2934.41 1726.79 2935.23 1726.22 2934 1726.04 2932.96 1725.89 2933.54 1726.67 2933.36 1726.99L2933.08 1726.53 2932.71 1726.75C2929.9 1723.44 2930.74 1720.38 2928.74 1715.82 2922.73 1723.27 2928.73 1723.45 2923.94 1730.95 2923.56 1730.17 2923.16 1730.21 2922.75 1729.44 2922.07 1730.81 2922.51 1730.8 2921.36 1732.13L2921 1731.83C2920.19 1732.97 2918.86 1736.44 2917.99 1737.03L2917.39 1736.44C2917.25 1736.52 2915.44 1737.54 2913.7 1736.81 2913.61 1736.95 2912.82 1738.35 2911.72 1738.59 2911.5 1738.64 2911.21 1738.27 2908.52 1738.61 2907.89 1737.29 2907.62 1737.32 2906.98 1736.01 2906.24 1736.92 2905.39 1734.71 2905.35 1734.59 2904.47 1736 2904.41 1735.98 2904.18 1736.6L2903.83 1735.96C2903.68 1736.25 2903.53 1736.54 2903.38 1736.82L2903.01 1735.82C2902.99 1735.86 2902.61 1736.53 2901.73 1736.16 2901.46 1736.61 2901.41 1736.59 2901.13 1737.06 2900.47 1736.53 2900.39 1736.56 2899.82 1736.02L2899.52 1736.89C2897.47 1736.26 2897.4 1736.28 2897.31 1736.21 2897.16 1736.44 2897.03 1736.68 2896.89 1736.91 2896.57 1736.67 2896.25 1736.43 2895.93 1736.18 2895.6 1736.38 2895.42 1736.8 2893.82 1736.27L2893.44 1736.54 2892.96 1736.11C2892.76 1736.32 2892.56 1736.53 2892.35 1736.74 2891.03 1736.33 2890.9 1736.91 2890.7 1737.05 2889.02 1736.27 2887.24 1736.85 2886.95 1736.48 2886.35 1735.73 2887 1734.96 2885.2 1735.56L2884.72 1735.28 2884.06 1735.44C2882.07 1734.4 2882.82 1734.36 2882.55 1733.2 2882.49 1733.34 2881.01 1737 2878.87 1734.62L2878.34 1735.19C2877.85 1734.41 2878.01 1734.4 2876.52 1733.73 2875.13 1733.71 2874.95 1733.61 2874.18 1733.91 2873.96 1733.1 2873.88 1733.12 2873.61 1732.29L2873.27 1732.67C2873.1 1732.24 2872.93 1731.82 2872.76 1731.4L2872.47 1731.69 2872.24 1731.46C2871.41 1732.6 2871.86 1732.61 2870.84 1733.75 2870.71 1733.51 2870.58 1733.27 2870.45 1733.03 2869.67 1733.58 2869.53 1732.95 2869.23 1732.15 2869.12 1732.32 2869.49 1732.52 2869.14 1732.66 2868.72 1732.84 2868.21 1732.28 2868.18 1732.24L2867.89 1732.46C2867.59 1732.26 2867.3 1732.06 2867 1731.86 2866.07 1732.28 2866.56 1732.48 2866.46 1732.44 2866.09 1732.29 2865.6 1732.15 2865.44 1731.97L2865.05 1732.33C2864.31 1731.75 2863.89 1731.81 2863.48 1731.22L2862.78 1731.88C2862.25 1731.19 2861.06 1730.54 2860.53 1729.84 2859.59 1728.6 2859.34 1727.33 2858.39 1726.09 2858.28 1725.94 2857.57 1725.87 2857.39 1725.73 2856.98 1725.42 2857.13 1725.07 2856.66 1724.76 2856.51 1724.66 2856.03 1724.58 2855.64 1724.6L2855.09 1724.33C2854.35 1724.57 2854.38 1724.57 2853.27 1724.62 2853.02 1724.45 2852.77 1724.27 2852.52 1724.1L2852.11 1724.47C2850.2 1722.51 2846.31 1719.33 2845.14 1709.42 2844.34 1713.95 2844.55 1713.94 2843.69 1716.12 2843.51 1716.58 2842.84 1717.02 2842.69 1717.49L2842.36 1717C2842.26 1717.13 2841.53 1718.09 2841.18 1718.7L2841.17 1718.7C2840.99 1718.51 2840.38 1717.9 2839.54 1716.3 2838.18 1717.8 2838.73 1719.78 2838.07 1718.23 2837.54 1719.6 2837.18 1719.56 2836.53 1720.93 2836.34 1720.67 2836.16 1720.41 2835.96 1720.15 2835.3 1720.73 2835.38 1720.71 2835.06 1721.32L2834.84 1720.87 2834.48 1721.89 2834.23 1721.55 2833.84 1722 2833.36 1721.6C2832.29 1724.7 2829.78 1726.59 2829.24 1727.74L2828.96 1727.51C2828.64 1727.89 2828.59 1727.87 2828.34 1728.25L2828.21 1728.04C2825.44 1731.04 2825.75 1731.04 2824.66 1734.13L2823.53 1733.19C2822.49 1733.94 2823.82 1734.87 2822.1 1734.21 2821.91 1734.46 2821.71 1734.71 2821.52 1734.96L2820.97 1734.57 2819.64 1735.54C2819 1735.59 2818.26 1735.51 2817.61 1735.56 2817.16 1735.6 2816.95 1735.76 2816.51 1735.79 2816.26 1735.81 2815.99 1735.76 2815.79 1735.71L2815.04 1735.67C2812.39 1738.09 2812.62 1738.35 2812.2 1738.17 2811.83 1738.02 2811.97 1737.8 2811.57 1737.65L2811.11 1737.88C2810.97 1737.54 2810.82 1737.19 2810.68 1736.85 2810.42 1737.54 2810.57 1737.53 2809.87 1738.19L2809.43 1737.78 2809.16 1738.02 2808.84 1737.76C2808.28 1738.37 2807.97 1738.35 2807.84 1738.31 2807.33 1738.18 2806.93 1738.03 2806.57 1737.86L2805.34 1738.33C2804.59 1738.29 2804.02 1738.1 2803.27 1738.06 2802.96 1738.04 2802.59 1738.46 2802.56 1738.5 2802.3 1738.12 2802.36 1738.11 2801.25 1737.85 2800.85 1738.13 2800.47 1738.31 2800.39 1738.34L2799.62 1737.97C2798.29 1738.53 2798.26 1737.95 2798.21 1737.88 2797.75 1738.74 2796.54 1738.55 2794.94 1738.91 2794.51 1738.56 2794.09 1738.22 2793.66 1737.87 2792.47 1738.74 2792.28 1738.86 2792.14 1738.94 2790.99 1737.23 2790.95 1737.26 2790.47 1735.5 2790.43 1735.57 2790.43 1735.57 2789.98 1736.62L2788.8 1733.66C2788.61 1733.56 2787.78 1733.71 2787.59 1733.61 2787.08 1733.34 2787.22 1733.01 2786.99 1732.71 2785.75 1731.09 2783.86 1729.51 2783.18 1727.87L2782.85 1728.09C2781.67 1727.89 2781.36 1727.98 2781.07 1728.36 2780.37 1726.33 2780.34 1726.36 2779.82 1724.31L2779.65 1724.55C2779.14 1722.06 2779.13 1722.07 2778.73 1719.56 2778.25 1720.93 2778.4 1720.92 2777.04 1722.23 2776.78 1722.03 2775.43 1720.25 2775.3 1720.08 2773.86 1719.91 2774.17 1719.83 2773.36 1719.46L2772.86 1719.68C2772.38 1719.34 2772.18 1719.34 2771.42 1715.13 2770.99 1716.86 2770.99 1716.85 2770.5 1718.59L2770.22 1718.37C2769.36 1719.27 2768.78 1720.32 2768.68 1720.49L2768.05 1719.99C2767.8 1720.43 2767.55 1720.86 2767.3 1721.3 2767.12 1721.06 2766.93 1720.82 2766.76 1720.58L2766.6 1720.77C2765.15 1715.03 2765.52 1715.02 2765.04 1714.54 2764.11 1717.36 2764.22 1717.34 2764.13 1717.59 2763.71 1716.2 2763.84 1716.22 2763.59 1715.21 2763.27 1715.91 2763.62 1716.65 2762.82 1717.33 2762.51 1717.59 2762.18 1716.81 2762.01 1716.54 2761.95 1716.62 2761.53 1717.16 2761.16 1717.52L2760.01 1716.66C2759.53 1717.92 2760.99 1718.27 2757.78 1718.47 2757.15 1716.97 2756.77 1717 2756.25 1716.2 2754.32 1716.98 2754.93 1717.03 2753.91 1717.93 2753.6 1717.73 2753.29 1717.53 2752.98 1717.33 2752.44 1718.02 2751.24 1718.65 2750.56 1719.32 2749.89 1719.98 2749.66 1720.67 2748.91 1721.32L2748.34 1721.07C2747.5 1722.38 2746.83 1722.31 2744.53 1723.06 2742.49 1723.72 2742.33 1723.7 2741.55 1724.54 2739.71 1724.2 2736.22 1725.77 2735.91 1725.91L2733.87 1725.58C2732.68 1727.47 2732.79 1727.47 2732.58 1727.62 2732.55 1727.61 2731.95 1727.3 2731.81 1727.5 2731.25 1728.29 2731.18 1729.11 2730.52 1729.9 2730.47 1729.97 2729.92 1729.86 2729.78 1729.91 2728.58 1730.37 2727.99 1731.15 2727.9 1731.27 2727.41 1731.91 2727.16 1732.57 2726.53 1733.2 2726.08 1732.74 2725.68 1732.79 2725.34 1732.3 2724.54 1733.57 2723.71 1733.5 2722.67 1734.75 2722.62 1734.66 2722.26 1733.93 2721.83 1733.68 2721.7 1733.91 2721.58 1734.14 2721.46 1734.36L2721.07 1734.01C2720.96 1734.15 2720.41 1734.94 2720.02 1735.78 2719.33 1735.33 2719.3 1735.3 2719.25 1735.25L2718.93 1735.46C2718.87 1735.25 2718.73 1735.26 2718.07 1732.83 2717.6 1733.27 2717.77 1733.26 2717.55 1733.92 2717.03 1733.55 2717.03 1733.57 2716.78 1733.17 2716.19 1734.78 2715.41 1734.73 2714.84 1736.09 2714.28 1735.76 2714.36 1735.77 2714.16 1735.42 2713.78 1735.99 2713.36 1737.15 2713.3 1737.3L2713.2 1737.02 2713.08 1737.19 2713.02 1736.94C2712.24 1738.25 2712.09 1738.23 2711.62 1739.54 2710.72 1738.57 2710.61 1738.59 2710.01 1737.6L2709.88 1737.86 2709.24 1737.31C2706.33 1741.38 2705.59 1741.33 2704.31 1745.48 2704.15 1744.85 2704.1 1744.87 2703.93 1744.25 2703.3 1746.17 2702.74 1746.14 2701.21 1749.78 2701.08 1749.47 2700.95 1749.16 2700.82 1748.84L2699.97 1749.8 2697.87 1748.57C2694.79 1750.42 2695.49 1750.62 2693.04 1750.85 2688.75 1751.25 2687.67 1751.49 2685.67 1750.38L2684.67 1750.92 2683.34 1749.38C2683.08 1749.54 2683.67 1749.69 2680.18 1750.82 2679.2 1751.08 2679.84 1751.18 2678.86 1751.46 2678.12 1751.66 2678.26 1751.37 2675.98 1749.61L2674.52 1750.73 2673.57 1751.24 2672.49 1750.23 2670.37 1751.2C2670.02 1751.31 2669.18 1751.07 2668.83 1751.17 2668.31 1751.32 2668.66 1751.59 2668.39 1751.78 2667.16 1752.67 2666.73 1752.57 2664.47 1753.28L2661.8 1752.68C2660.18 1752.68 2658.56 1752.69 2656.94 1752.69 2656.3 1752.79 2656.08 1753.04 2655.44 1753.14 2654.79 1753.25 2653.94 1753.24 2653.23 1753.32 2647.88 1753.95 2647.96 1753.98 2647.46 1754L2644.77 1753.15C2643.53 1753.4 2642.65 1753.76 2641.41 1754.01 2640.95 1754.1 2640.35 1754.16 2639.77 1754.16 2638.52 1754.16 2637.3 1753.96 2636.06 1754.01 2634.24 1754.08 2632.63 1754.36 2630.87 1754.5 2630.37 1754.54 2626.57 1754.85 2624.44 1754.45 2617.89 1754.66 2621.85 1753.52 2620.91 1751.75 2620.4 1750.8 2619.43 1749.86 2618.98 1748.91 2618.76 1749.13 2618.54 1749.35 2618.32 1749.57 2618.12 1749.18 2617.28 1749.23 2614.33 1744.78 2613.08 1742.88 2612.07 1740.98 2611 1739.07L2610.7 1739.35C2609.34 1737.88 2609.8 1737.88 2609.46 1736.38L2609.1 1736.88C2608.52 1734.63 2598 1711.61 2597.49 1711.21 2597.24 1711.28 2596.86 1711.39 2595.9 1712.41 2594.63 1711.13 2595.17 1710.96 2593.62 1710.89 2592.68 1710.85 2592.54 1711.32 2592.52 1711.36 2592.43 1711.66 2592.65 1711.96 2592.39 1712.24 2591.94 1711.64 2592 1711.67 2591.66 1711.05 2591.6 1711.25 2591.49 1711.46 2591.19 1711.64 2591.07 1711.72 2591.24 1711.47 2591.13 1711.39 2590.53 1711.86 2591.49 1711.87 2591.02 1712.35 2590.35 1713.02 2589.58 1711.56 2589.54 1711.49 2588.43 1712.79 2588.7 1712.78 2588.28 1714.11L2588.08 1713.83 2587.71 1714.81C2586.76 1713.1 2586.26 1713.15 2585.41 1711.45L2585 1711.92C2582.57 1709.51 2581.54 1709.59 2580.53 1707.1L2580.25 1707.31C2579.26 1704.53 2579.28 1704.54 2577.45 1701.81 2577.42 1701.88 2576.84 1703.27 2576.43 1702.72 2576.23 1702.45 2576.21 1702.17 2576.07 1701.89L2575.88 1702.07C2574.64 1699.88 2574.92 1699.88 2573.14 1697.72 2572.87 1698.41 2572.9 1698.39 2572.33 1699.1L2571.93 1698.29C2571.45 1698.78 2570.94 1699.57 2570.86 1699.69 2570.45 1698.74 2570.75 1698.74 2569.69 1697.82 2569.3 1697.49 2568.87 1698.35 2568.84 1698.4 2568.29 1697.39 2568.73 1697.38 2567.65 1696.4 2567.07 1698.24 2566.08 1703.08 2566.07 1703.15 2566.03 1702.97 2565.99 1702.78 2565.94 1702.59 2564.86 1705.08 2564.89 1705.07 2563.58 1707.56 2563.46 1707.24 2562.58 1704.91 2560.83 1703.56 2560.78 1703.63 2560.33 1704.32 2559.92 1704.45 2559.67 1704.53 2559.21 1704.46 2558.79 1703.17 2558.09 1704.8 2553.09 1712.07 2549.61 1714.9 2549.17 1715.26 2544.94 1712.44 2544.9 1712.4 2544.49 1711.91 2545.57 1711.87 2542.14 1706.16 2541.57 1707.74 2540.94 1707.7 2540.31 1709.28L2539.92 1708.48C2539.78 1708.7 2539.64 1708.93 2539.51 1709.16L2539.36 1708.9C2537.31 1712.03 2535.51 1716.58 2532.87 1721.81L2532.72 1721.49 2529.67 1725.08C2529.33 1724.97 2528.13 1725.02 2527.33 1724.3 2527.17 1724.52 2527.19 1724.75 2526.84 1724.95 2526.5 1725.14 2525.61 1725.24 2525.33 1725.44 2523.85 1726.51 2523.11 1727.66 2521.63 1728.74 2521.38 1728.53 2520.52 1728.4 2520.27 1728.18 2520.16 1728.1 2520.77 1728.03 2520.68 1727.94 2520.58 1727.85 2520.03 1727.87 2519.86 1727.79 2517.84 1726.93 2520.05 1726.74 2518.03 1725.86 2514.71 1725.94 2516.68 1724.51 2514.6 1721.97 2513.48 1722.94 2513.61 1722.92 2513.11 1723.91 2512.89 1723.54 2512.97 1723.55 2512.37 1723.23 2507.52 1728.48 2507.56 1728.48 2507.39 1728.55 2506.55 1728.87 2505.5 1728.21 2505.42 1728.16L2505.11 1728.37C2504.32 1727.37 2504.01 1727.42 2503 1726.44 2502.78 1727.12 2502.73 1727.11 2502.5 1727.81L2499.68 1727.48C2496.52 1726.88 2496.93 1726.73 2496.61 1726.72 2496.35 1726.71 2496.11 1726.9 2495.97 1726.84 2495.39 1726.6 2495.23 1726.31 2494.92 1726.04 2494.59 1726.31 2494.27 1726.57 2493.93 1726.84 2493.32 1726.63 2493.28 1726.65 2492.38 1726.51 2492.3 1726.38 2491.4 1725.09 2489.26 1725.17 2488.41 1724.8 2488.43 1724.82 2487.99 1724.42L2487.53 1724.72C2486.78 1724.39 2486.6 1724.45 2485.99 1724.07 2484.4 1724.72 2484.09 1724.05 2483.99 1723.92 2483.95 1723.96 2483.51 1724.34 2482.89 1724.34 2481.63 1724.34 2478.08 1720.77 2477.8 1720.04L2477.23 1720.24 2476.86 1719.8 2476.63 1720.12C2475.93 1718.95 2475.8 1718.98 2474.76 1717.86 2474.15 1718.61 2474.09 1718.57 2473.55 1719.33 2473.21 1718.63 2473.28 1718.65 2472.6 1717.96 2472.33 1718.41 2472.5 1718.41 2471.66 1718.81 2470.75 1719.24 2471.37 1718.67 2470.97 1718.19 2470.67 1718.52 2470.9 1718.94 2470 1719.18 2469.49 1719.31 2469.48 1718.81 2469.31 1718.63L2468.98 1719.14C2468.71 1718.76 2468.44 1718.39 2468.17 1718.01L2467.8 1718.76C2467.79 1718.75 2467.8 1718.76 2464.9 1717.12L2464.68 1717.35 2464.25 1717.01 2463.8 1717.3C2463.25 1716.98 2459.12 1714.59 2458.13 1713.13L2457.86 1713.43C2457.67 1712.95 2456.2 1709.08 2454.91 1707.51 2454.81 1707.38 2453.07 1707.34 2451.81 1705.99 2451.55 1706.25 2451.3 1706.51 2451.04 1706.77L2450.6 1706.38C2448.9 1709.01 2450.17 1709.05 2447.57 1711.64L2446.7 1711.22C2445.13 1713.17 2444.09 1713.1 2441.88 1717.23L2441.61 1716.72C2440.88 1717.78 2441.04 1718.15 2440.44 1719.22L2439.85 1718.82C2439.11 1720.12 2439.02 1720.1 2438.22 1721.38L2437.77 1720.78C2435.4 1724.03 2434.89 1725.42 2434.74 1725.82 2434.49 1725.47 2434.25 1725.12 2434.01 1724.76L2433.71 1725.19C2433.26 1724.64 2433.25 1724.65 2432.59 1724.11 2431.86 1724.52 2431.86 1724.49 2431.11 1724.9 2430.67 1724.09 2430.23 1723.26 2429.36 1722.47 2429.27 1722.39 2428.82 1722.55 2428.56 1722.58L2428.24 1722.21 2428.1 1722.53 2427.33 1722.13 2426.82 1722.61C2426.25 1722.28 2425.93 1722.09 2424.93 1718.13 2424.41 1719.45 2424.37 1719.43 2424.1 1720.78 2423.92 1720.43 2423.74 1720.09 2423.56 1719.75 2423.4 1720.08 2423.24 1720.4 2423.08 1720.73 2422.97 1720.42 2422.01 1720.47 2420.35 1716.93 2419.07 1718.65 2418.75 1718.62 2418.64 1718.77 2417.89 1718.27 2417.71 1718.3 2417.32 1717.77L2417.13 1718.1C2415.64 1716.57 2415.94 1714.37 2415.3 1715.07 2415.11 1714.61 2414.93 1714.16 2414.74 1713.7 2414.2 1714.16 2413.62 1714.02 2412.94 1714.22 2412 1714.86 2412.74 1715.07 2412.58 1715.02 2411.14 1714.61 2411.26 1714.6 2410.66 1714.05 2409.81 1714.2 2409.83 1714.06 2409.53 1713.82L2409.08 1714.58C2407.81 1712.99 2407.91 1713.01 2406.72 1711.39 2405.93 1712.13 2405.9 1712.11 2405.84 1712.17L2405.41 1711.65C2405.09 1712.04 2405.14 1712.02 2404.75 1712.39 2404.33 1711.92 2404.34 1711.94 2403.85 1711.45 2403.78 1711.49 2403.2 1711.77 2402.19 1711.72 2400.78 1709.54 2399.95 1707.35 2398.97 1705.15 2397.98 1702.96 2397.3 1700.76 2396.3 1698.56 2396.27 1698.49 2396.3 1698.74 2396.06 1698.78L2395.94 1698.48C2395.67 1699.2 2395.73 1699.18 2395.24 1699.9 2395.1 1699.72 2394.96 1699.55 2394.81 1699.37 2394.09 1700 2393.09 1700.86 2390.52 1707.44 2389.01 1705.49 2387.86 1705.6 2386.25 1703.67 2386.04 1703.88 2385.84 1704.08 2385.63 1704.29L2385.1 1703.72 2384.63 1704.04 2384.19 1703.8C2382.95 1704 2382.93 1704.42 2382.37 1704.09 2382.27 1704.19 2382.26 1704.17 2380.96 1705.43L2380.66 1705.16C2378.82 1706.03 2377.9 1705.91 2377.34 1706.91L2376.99 1706.59C2376.71 1706.77 2376.43 1706.96 2376.16 1707.14 2375.7 1707.02 2375.58 1707.06 2375.38 1707.23L2375.02 1706.9C2374.88 1707.07 2371 1710.37 2370.84 1710.45L2370.4 1710.18C2369.99 1710.72 2370.01 1710.7 2369.74 1711.23L2368.89 1710.82C2368.72 1711.13 2368.55 1711.45 2368.38 1711.76L2368.09 1711.43C2364.29 1715.6 2367.5 1716.19 2363.53 1719.97 2358.16 1719.05 2360.44 1718.66 2359.12 1716.86 2358.98 1716.68 2358.07 1715.44 2356.92 1714.64 2356.58 1715.05 2357.03 1715.55 2354.28 1715.16 2351.09 1712.55 2353 1710.4 2350.6 1706.21 2350.3 1707.41 2350.66 1707.42 2349.03 1708.52 2348.82 1708.22 2348.24 1707.05 2347.97 1706.63L2347.59 1706.88C2347.43 1706.46 2347.28 1706.05 2347.13 1705.63 2346.52 1706.34 2346.7 1706.32 2346.41 1707.16 2345.87 1706.71 2345.89 1706.73 2345.35 1706.28L2344.88 1706.52C2344.44 1705.74 2344.42 1705.77 2344.02 1704.98L2343.68 1705.25C2343.21 1704.68 2342.64 1703.87 2342.56 1703.75L2342.06 1704.04C2342 1703.75 2341.94 1703.45 2341.88 1703.15 2341.86 1703.22 2341.68 1703.69 2341.1 1703.96 2338.99 1699.27 2340.37 1699.26 2338.53 1694.57 2335.4 1702.27 2337.61 1704.49 2334.28 1707.73 2333.68 1707.47 2333.69 1707.09 2333.53 1707.4 2333.13 1708.17 2332.76 1708.93 2332.51 1709.7L2332.24 1709.46C2330.5 1711.71 2328.19 1713.82 2323.86 1717.79L2322.9 1717.35C2320.8 1718.79 2319.2 1720.28 2317.11 1721.71 2317.03 1721.77 2316.58 1721.71 2316.46 1721.77 2315.29 1722.29 2314.1 1722.82 2313.34 1723.39 2312.98 1723.22 2312.61 1723.05 2312.25 1722.88 2312.08 1723.07 2311.92 1723.25 2311.75 1723.44 2311.12 1723.07 2311.17 1723.09 2310.89 1722.7L2310.5 1723.4 2309.96 1723.16C2309.68 1723.2 2310.11 1723.37 2309.83 1723.41 2309.58 1723.45 2309.4 1723.3 2309.13 1723.28 2309.13 1723.28 2308.67 1723.59 2308.62 1723.61 2308.49 1723.34 2308.35 1723.06 2308.22 1722.78 2308 1723.11 2308.03 1723.1 2307.45 1724.38 2307.42 1724.3 2306.77 1722.48 2306.43 1723.49 2306.23 1724.12 2306.26 1724.75 2306.06 1725.37 2304.32 1726.03 2304.12 1725.99 2303.42 1726.78L2302.6 1726.77C2301.99 1727.47 2302.02 1727.46 2301.96 1727.52 2301.81 1727.45 2301.64 1727.36 2301.35 1727.35 2300.85 1727.32 2300.35 1727.45 2299.85 1727.42 2298.8 1727.19 2299.14 1726.75 2298.19 1727.05 2296.58 1726.73 2296.38 1726.4 2295.08 1726.81 2294.82 1726.89 2294.64 1727.04 2294.25 1727.04 2293.06 1726.89 2291.53 1726.67 2291.04 1726.86 2289.27 1726.63 2287.18 1720.97 2286.99 1720.45 2282.91 1709.42 2281.72 1709.48 2277.88 1698.45 2277.02 1703.62 2275.33 1703.57 2274.15 1709.69L2273.72 1708.95C2273.18 1709.7 2273 1710.06 2272.95 1710.16 2270.91 1706.47 2270.75 1700.99 2269 1694.91 2264.63 1702.56 2265.87 1702.65 2264.54 1703.22 2262.7 1698.5 2262.81 1698.5 2262.51 1698.33 2261.96 1698.01 2262.04 1698.52 2256.96 1710.01L2256.7 1709.67C2256.05 1710.22 2256.22 1710.21 2255.9 1710.8L2255.65 1709.74C2255.64 1709.78 2255.34 1710.64 2254.87 1710.18 2253.89 1713.36 2254.17 1713.34 2253.51 1716.55L2253.42 1716.16C2252.75 1722.73 2252.28 1722.7 2250.58 1727.62L2250.43 1726.94C2250.39 1727.09 2250.35 1727.24 2250.31 1727.4 2250.31 1727.4 2249.82 1725.77 2249.77 1725.62L2249.56 1726.63 2249.43 1726.29C2249.12 1727.5 2249.02 1727.47 2247.81 1729.96L2247.54 1729.75C2247.36 1730.19 2247.19 1730.63 2247.02 1731.07 2246.89 1730.84 2246.77 1730.61 2246.65 1730.37 2245.29 1731.93 2246.26 1731.95 2245.15 1733.53 2244.79 1734.05 2243.97 1734.53 2243.64 1735.05 2243.43 1734.86 2243.23 1734.66 2243.02 1734.47 2241.55 1738.55 2239.14 1740.19 2238.45 1740.65L2238.41 1740.66 2237.55 1740.54C2236.68 1739.39 2236.98 1739.37 2234.94 1738.33L2234.48 1738.53 2233.24 1738.37 2232.48 1737.83 2231.38 1737.81 2230.81 1738.38C2229.89 1738.07 2230 1738.09 2229.39 1737.73 2228.84 1738.12 2228.8 1738.08 2228.01 1738.42 2220.77 1739.2 2220.16 1738.43 2218.48 1736.38L2217.96 1736.72 2217.58 1736.46 2216.84 1736.79C2215.18 1736.76 2215.23 1736.83 2213.6 1736.74 2213.46 1736.88 2212.34 1738.05 2211.1 1738.45 2209.65 1738.92 2208.64 1738.17 2207.12 1738.62L2190.82 1738.51C2189.38 1738.01 2189.36 1737.3 2188.17 1736.76 2187.95 1736.66 2187.32 1736.72 2186.89 1736.71 2186.43 1736.7 2185.86 1736.77 2185.51 1736.69 2185 1736.81 2184.5 1736.92 2183.99 1737.04 2178.81 1736.76 2181.98 1735.4 2178.24 1735.47 2173.96 1735.55 2173.75 1735.51 2171.06 1734.62 2169.56 1734.13 2169.75 1733.85 2167.54 1734.08L2166.56 1733.87C2160.43 1734.01 2160.88 1733.41 2160.32 1731.76 2159.41 1734.29 2161 1734.4 2158.3 1735.51L2157.9 1735.19C2155.44 1736.31 2156.97 1734.74 2154 1732.68 2151.06 1735.55 2152.83 1736.72 2150.71 1738.95L2150.44 1738.68C2150.26 1738.95 2150.08 1739.22 2149.9 1739.48 2149.86 1739.42 2149.59 1738.94 2149.16 1738.69 2148.09 1739.96 2148.41 1740.15 2148.12 1740.69 2147.96 1740.43 2147.8 1740.16 2147.65 1739.89 2147.46 1740.35 2147.27 1740.81 2147.08 1741.27 2147.03 1741.23 2146.4 1740.62 2146.08 1740.73 2145.58 1740.89 2145.6 1741.13 2145.46 1741.34 2145.29 1741.07 2145.61 1740.64 2144.65 1740.54 2144.18 1740.49 2143.84 1741.86 2143.8 1741.97L2143.28 1741.74 2142.96 1742.5 2142.8 1742.17C2142.6 1742.63 2142.12 1742.58 2141.88 1743.04 2141.31 1742.76 2140.79 1741.52 2140.74 1741.38 2140.52 1742.31 2140.52 1742.28 2140.25 1743.21 2140.1 1742.72 2139.96 1742.24 2139.81 1741.76 2139.61 1742.48 2139.46 1742.59 2139.38 1742.66L2139.29 1742.44 2138.87 1742.98C2137.98 1739.84 2138.4 1739.86 2137.66 1736.73L2137.49 1737.36 2137.33 1736.75C2136.68 1742.07 2135.89 1742.05 2135.9 1742.51 2135.93 1743.22 2136.53 1743.92 2136.5 1744.62 2136.47 1745.46 2136.23 1744.42 2135.32 1743.64 2134.81 1744.06 2134.3 1744.49 2133.79 1744.91L2132.96 1743.95 2132.29 1744.13C2131.24 1743.56 2130.46 1742.75 2129.84 1743.48L2129.64 1742.49C2128.9 1744.29 2129.12 1744.28 2128.22 1746.09 2128.11 1745.94 2127.42 1745.09 2126.85 1744.31 2125.74 1744.62 2125.63 1745.02 2124.93 1746.91L2124.78 1746.69C2124.34 1746.91 2124.42 1747.18 2124.26 1747.43 2123.96 1747.89 2123.73 1748.36 2123.39 1748.83 2123.35 1748.79 2122.57 1748.66 2121.5 1742.08 2121.4 1742.73 2121.29 1743.38 2121.19 1744.03L2120.98 1743.4C2120.78 1744.73 2120.53 1746.02 2120.48 1746.25L2120.36 1745.72C2120.25 1746.86 2120.26 1746.85 2119.94 1747.97 2119.79 1746.6 2119.74 1746.63 2119.59 1745.24 2119.45 1746.02 2119.32 1746.79 2119.18 1747.57L2119.09 1746.94C2118.86 1748.46 2119.01 1748.45 2118.49 1749.96L2118.45 1749.94 2117.71 1749.48 2117.46 1749.73 2117.17 1748.71 2116.9 1749.42C2116.4 1748.96 2115.43 1748.99 2114.2 1743.18 2113.9 1744.1 2113.74 1744.08 2113.39 1744.99 2113.33 1744.6 2113.7 1744.22 2113.64 1743.83 2113.63 1743.79 2113.23 1743.89 2113.21 1743.85 2112.95 1743.21 2112.98 1742.56 2112.88 1741.91L2112.72 1742.28C2112.27 1740.13 2112.27 1740.16 2111.59 1738.04L2111.55 1738.31C2111.15 1736.37 2111.12 1736.38 2111.08 1736.21L2110.93 1736.62C2110.8 1736.21 2110.68 1735.8 2110.55 1735.4L2110.1 1735.72C2109.99 1735.51 2110.22 1735.25 2109.76 1735.08 2109.53 1734.99 2109.33 1735.26 2109.15 1735.36L2108.76 1735C2108.58 1735.3 2108.4 1735.59 2108.22 1735.89 2107.71 1735.3 2107.38 1735.35 2106.97 1734.76L2106.65 1734.96C2105.73 1733.93 2106.31 1733.92 2105.37 1732.9 2105.19 1733.3 2105.02 1733.7 2104.83 1734.1 2103.17 1729.29 2104.1 1727.27 2097.08 1716.26 2096.26 1717.46 2096.39 1717.44 2095.79 1717.93 2095.53 1717.69 2095.27 1717.44 2095.01 1717.2 2094.55 1718.89 2094.69 1718.88 2094.13 1720.57L2093.09 1719.54C2090.4 1721.33 2091.09 1723.76 2089.57 1721.88L2089.1 1722.13C2088.97 1721.87 2088.85 1721.58 2088.26 1721.36 2088.06 1721.29 2087.51 1721.59 2087.39 1721.5 2086.83 1721.1 2086.86 1720.65 2086.67 1720.22L2086.33 1720.87C2085.42 1719.4 2085.19 1719.43 2084.56 1717.93 2081.69 1717.97 2082.68 1718.33 2081.35 1719.88L2080.04 1718.35C2079.19 1720.49 2078.97 1722.64 2078.12 1724.77 2077.9 1725.32 2077.11 1725.84 2076.84 1726.39 2076.41 1724.16 2076.37 1724.16 2076.34 1723.97 2075.92 1726.82 2076.69 1726.84 2074.15 1729.6 2073.58 1728.81 2073.64 1728.84 2073.36 1728.58 2072.55 1729.43 2072.53 1729.41 2072.15 1730.27L2071.91 1729.89C2071.19 1730.99 2070.75 1731.39 2070.6 1731.52L2069.62 1731.24C2069.08 1731.62 2069.04 1731.6 2068.52 1731.97L2067.7 1732.08C2066.78 1731.27 2066.79 1731.29 2066.72 1731.22 2066.09 1731.89 2064.31 1732.85 2064.17 1732.97 2063.46 1732.78 2063.21 1732.74 2062.78 1732.97L2062.4 1732.74C2061.48 1733.57 2063.12 1734.2 2060.01 1733.97 2059.87 1733.76 2059.77 1733.6 2058.94 1731.33 2058.09 1733.56 2057.56 1733.52 2056.53 1734.61L2055.91 1734.04C2055.71 1734.22 2055.49 1734.41 2055.29 1734.59L2055.28 1734.62C2054.65 1734.18 2054.8 1734.19 2054.16 1733.73L2053.96 1734.15 2053.39 1733.63C2052.3 1734.89 2051.08 1734.81 2050.69 1735.27 2050.51 1735.26 2050.31 1735.15 2049.4 1735.45L2049.11 1735.21 2048.73 1735.76C2048.22 1735.28 2048.23 1735.3 2047.88 1734.79 2047.82 1734.84 2047.28 1735.37 2046.67 1735.39 2046.54 1735.39 2046.56 1735.38 2045.51 1734.88 2045.12 1735.27 2044.89 1735.23 2044.59 1735.64 2044.33 1735.04 2044.08 1734.44 2043.83 1733.84L2043.05 1734.15C2041.54 1731.64 2041.47 1731.65 2040.56 1729.11 2039.98 1731.34 2040.52 1731.34 2039.03 1733.52 2037.74 1732.75 2038.28 1732.72 2037.75 1731.38 2037.58 1731.69 2037.41 1732 2037.24 1732.31L2035.81 1730.57C2035.02 1731.52 2032.77 1732.67 2030.02 1737.55 2029.31 1736.78 2028.86 1736.52 2028.71 1736.44L2028.27 1737.32 2027.53 1737.16C2027.3 1737.6 2026.3 1738.12 2025.86 1740.33L2025.25 1739.37C2025.06 1739.86 2025 1739.84 2024.78 1740.32 2024.46 1739.88 2024.4 1739.9 2024.05 1739.46 2023.44 1740.38 2022.55 1741.18 2022.39 1741.33 2021.92 1740.55 2021.96 1740.57 2021.92 1740.51 2021.78 1740.62 2021.39 1740.91 2020.85 1741.88L2020.26 1741.64C2019.72 1742.16 2019.77 1742.15 2019.53 1742.7L2019.23 1742.35C2018.74 1743.97 2018.46 1744.23 2018.28 1744.39 2018.15 1744.08 2018.01 1743.77 2017.88 1743.46 2017.66 1743.67 2017.45 1743.88 2017.24 1744.09 2017.05 1743.76 2016.87 1743.43 2016.69 1743.09 2016.43 1743.3 2016.17 1743.52 2015.92 1743.73L2015.69 1743.41C2015.3 1743.56 2015.09 1743.64 2013.97 1745.63 2013.82 1745.38 2013.66 1745.14 2013.51 1744.89 2013.16 1745.27 2012.97 1745.23 2012.29 1745.58L2012.17 1745.29C2011.35 1747.1 2010.96 1747.06 2010.36 1748.87L2009.34 1748.69 2008.82 1747.55 2008.51 1747.95C2007.96 1747.19 2007.83 1747.22 2007.32 1746.47 2007.09 1746.71 2006.87 1746.95 2006.63 1747.2 2006.14 1746.48 2005.78 1745.97 2004.59 1738.17L2004.38 1738.39 2003.88 1736.58 2003.51 1740.47 2003.01 1736.74C2002.6 1739.18 2002.53 1739.16 2001.8 1742.19L2001.22 1740.7 2000.14 1744.02C1998.95 1741.77 1999.38 1738.93 1998.64 1741.18L1998.1 1739.59C1997.52 1742.82 1997.33 1742.8 1996.27 1746.02L1995.73 1745.52 1995.27 1746.15C1995.14 1746.16 1992.56 1746.69 1990.5 1745.99 1986.37 1746.72 1988.87 1745.5 1987.88 1744.19 1984.59 1745.86 1981.31 1747.54 1978.02 1749.21 1977.78 1748.99 1976.35 1747.67 1974.85 1746.47L1974.58 1746.87C1973.67 1745.36 1972.03 1744.74 1971.91 1744.6 1970.16 1742.62 1968.24 1740.64 1967.28 1738.62L1966.83 1739.08C1966.33 1737.97 1966.21 1737.99 1965.79 1736.87 1965.55 1737.12 1965.4 1737.48 1965.37 1737.53L1965.29 1737.29C1964.02 1739.17 1964.16 1739.19 1963.82 1739.23 1963.61 1739.25 1964.1 1739.16 1963.48 1738.49L1963.28 1738.74C1962.81 1737.9 1962.6 1737.45 1962.55 1737.34 1962.08 1738.17 1962.21 1738.16 1961.96 1738.69 1961.91 1738.58 1961.58 1737.8 1961.05 1737.31L1960.83 1737.69C1960.69 1737.35 1960.56 1737 1960.42 1736.66 1959.9 1738.13 1959.7 1738.27 1959.5 1738.4 1959.01 1737.02 1958.96 1737.04 1958.48 1735.67 1958.02 1736.4 1957.96 1736.37 1957.72 1737.13L1957.42 1737.05 1957.18 1737.91C1957.02 1737.48 1956.87 1737.05 1956.71 1736.62L1956.03 1737.74C1955.83 1736.8 1955.74 1736.83 1955.39 1735.9L1954.97 1736.53 1954.67 1736.04 1954.36 1736.54C1951.63 1733.89 1951.69 1733.91 1951.41 1733.68 1950.67 1734.82 1950.65 1734.8 1950.6 1734.9L1950.41 1734.21C1950.22 1734.61 1950.19 1734.58 1949.97 1734.98L1949.65 1734.12C1949.44 1734.95 1949.2 1735.78 1948.56 1736.6 1948.47 1736.72 1948.08 1736.39 1947.95 1736.28 1946.08 1738.85 1942.79 1735.05 1942.66 1734.89L1942.3 1735.34C1939.74 1733.94 1940.97 1733.74 1940.49 1733.76 1939.37 1733.81 1939.89 1733.95 1939.54 1734.78 1937.99 1732.89 1937.42 1731.64 1935.79 1724.55L1935.75 1724.79C1935.33 1723.36 1935.27 1723.38 1935.07 1721.95L1934.91 1722.39C1934.71 1721.5 1933.47 1716.09 1932.79 1711.27L1932.59 1711.76 1932.36 1710.96C1932.25 1711.46 1932.14 1711.96 1932.02 1712.47 1931.62 1710.53 1931.63 1710.54 1931.04 1708.62 1930.77 1709.27 1930.93 1709.26 1930.28 1709.89 1929.72 1707.15 1929.74 1707.14 1928.4 1706.28L1928.01 1706.67 1927.59 1706.37C1926.3 1707.53 1926.86 1707.54 1925.98 1708.75L1925.35 1708.28C1924.13 1709.07 1923.4 1709.55 1920.99 1714.49 1920 1716.51 1918.73 1719.28 1917.04 1723.12L1916.96 1722.9C1916.55 1724.3 1915.74 1724.67 1915.04 1725.72 1912.55 1724.51 1913.44 1722.39 1911.87 1717.84L1911.71 1718.33C1911.58 1717.92 1910.76 1715.35 1909.89 1713.25L1909.38 1714.56C1908.93 1711.04 1908.89 1711.06 1908.4 1710.44 1906.3 1714.54 1906.92 1714.54 1904.75 1718.63 1901.09 1709.67 1901.44 1709.67 1901.08 1708.89L1901.03 1709.11 1900.78 1708.9 1900.27 1709.27C1899.69 1708.77 1898.55 1708.31 1898.21 1707.79 1897.62 1706.88 1897.77 1705.95 1897.52 1705.03 1896.8 1707.45 1897.05 1707.43 1896.46 1709.87 1896.21 1709.6 1895.96 1709.33 1895.71 1709.05 1893.01 1711.93 1890.7 1723.04 1889.69 1719.19L1889.61 1719.48 1889.47 1718.87 1889.27 1719.65C1888.94 1718.37 1888.81 1718.15 1888.73 1718.02L1888.65 1718.42C1886.43 1712.4 1887.47 1712.41 1885.38 1706.4 1885.19 1706.87 1883.63 1710.65 1883.16 1712.37 1882.91 1711.94 1882.83 1711.97 1882.63 1711.56 1881.56 1712.11 1880.07 1722.64 1879.93 1723.6L1879.81 1723.07C1878.99 1726.62 1878.07 1727.5 1877.68 1727.87L1877.24 1727.28 1876.98 1727.8 1876.68 1727.42C1876.09 1730.89 1876.36 1730.88 1875.09 1734.32L1874.81 1733.94C1873.09 1735.89 1873.98 1733.39 1871.66 1731.5 1871.63 1731.51 1871.09 1731.8 1870.94 1731.59 1869.3 1729.39 1870.01 1729.37 1868.51 1727.16 1868.14 1727.67 1867.89 1727.64 1867.72 1728.17 1866.9 1724.7 1866.58 1724.74 1865.71 1721.25L1865.47 1721.87C1864.69 1719.01 1864.24 1719.04 1863.74 1715.48L1863.5 1715.83C1859.48 1704.74 1860.52 1704.72 1859.94 1703.76 1859.9 1703.68 1859.44 1703.89 1859.17 1703.86 1858.92 1703.83 1858.99 1703.72 1858.89 1703.65 1854.89 1712.33 1855.97 1712.37 1855.39 1713.11 1855.23 1713.32 1852.33 1714.58 1851.72 1717.57L1851.52 1717.22C1851.44 1717.46 1850.56 1720.45 1850.48 1720.74L1850.42 1720.74C1850.36 1720.53 1850.29 1720.32 1850.23 1720.11L1850.03 1721.47 1849.9 1721.04C1849.88 1721.2 1849.79 1722.07 1849.57 1723.08L1849.49 1722.45C1849.16 1724.24 1848.82 1724.22 1848.58 1726.01 1848.47 1725.32 1848.37 1724.62 1848.26 1723.93 1847.83 1725.8 1847.61 1725.77 1847.31 1727.64 1847.17 1727.1 1847.03 1726.55 1846.89 1726 1846.7 1726.81 1846.71 1726.8 1846.42 1727.59 1846.35 1726.88 1846.28 1726.18 1846.2 1725.47 1846.15 1725.61 1846.08 1725.74 1846.04 1725.88 1845.96 1726.18 1845.93 1726.49 1845.84 1726.79 1845.58 1724.3 1845.45 1723.81 1845.39 1723.56 1845.16 1725.32 1845.12 1725.3 1844.76 1727.06 1844.6 1725.44 1844.55 1725.46 1844.36 1724.27 1843.83 1728.32 1843.96 1728.31 1843.42 1729.63L1843.22 1729.26 1843.1 1729.47 1842.93 1729.18 1842.67 1730.96C1842.57 1730.41 1842.54 1730.43 1842.14 1729.06 1841.85 1729.61 1841.82 1729.59 1841.65 1730.15L1841.43 1728.54 1841.3 1728.84 1841.22 1728.55C1840.6 1728.99 1840.86 1728.98 1840.8 1729.01L1840.51 1728.74C1840.49 1728.8 1839.65 1731.89 1839.57 1732.16 1839.51 1731.95 1839.51 1731.97 1838.86 1730.38 1838.46 1733.66 1838.64 1733.64 1837.76 1736.89 1837.46 1735.91 1837.41 1735.93 1837.19 1734.96 1836.41 1742.33 1835.44 1742.32 1835.06 1742.45L1834.61 1742.11C1833.13 1743.06 1833.21 1743.07 1833.03 1743.14 1832.72 1742.9 1832 1742.72 1831.57 1742.5 1831.15 1742.29 1830.61 1742.08 1830.46 1741.85 1828.91 1739.49 1829.36 1739.49 1825.48 1725.91L1825.22 1726.46 1825.01 1726.18C1824.82 1726.28 1824.99 1726.42 1824.8 1726.52 1824.71 1726.57 1824.72 1726.31 1824.67 1726.36 1824.55 1726.49 1824.69 1726.63 1824.57 1726.76 1824.08 1725.34 1823.91 1725.37 1823.66 1723.93 1823.27 1725.24 1823.17 1725.22 1822.76 1726.54L1822.68 1726.32 1822.57 1726.7C1821.8 1721.25 1822.1 1721.27 1821.35 1715.81L1821.31 1716.19 1820.95 1714.81C1820.85 1715.71 1820.75 1716.62 1820.64 1717.52 1820.53 1717.02 1820.42 1716.53 1820.31 1716.03L1820.16 1716.79C1819.83 1714.18 1820.08 1714.2 1819.44 1711.6L1819.35 1712.03C1819.27 1711.55 1819.19 1711.08 1819.1 1710.61 1818.85 1711.1 1819.07 1712.61 1817.85 1715.72 1816.56 1712.9 1817.15 1712.9 1815.88 1711.25L1815.81 1711.49C1815.58 1711.3 1815.43 1710.99 1815.41 1710.94L1815.34 1711.18C1813.8 1708.26 1813.63 1704.81 1813.45 1703.31 1812.98 1707.36 1813.11 1707.34 1812.54 1711.37 1812.38 1711.02 1812.43 1711.03 1812.24 1709.55L1812.2 1709.78 1812.08 1709.47 1812.04 1709.75 1811.91 1709.16C1811.65 1709.74 1808.03 1718.66 1806.89 1719.87 1804.72 1716.86 1805.26 1716.84 1805.01 1716.58 1804.78 1716.35 1804.28 1716.4 1800.93 1713.77 1800.73 1713.75 1799.7 1713.67 1799.13 1713.26 1798.71 1712.97 1796.26 1705.46 1795.5 1704.25 1794.87 1705.15 1794.87 1705.13 1794.53 1706.06L1794.32 1705.55 1794.14 1705.78 1794 1705.37 1793.83 1705.9C1792.7 1702.93 1793.14 1702.94 1792.45 1699.95 1792.42 1700.24 1791.98 1705.24 1791.63 1706.95 1791.53 1706.28 1791.44 1705.6 1791.34 1704.92 1791.08 1707.23 1791.09 1707.22 1791.05 1707.42L1790.92 1707C1790.85 1707.76 1790.78 1708.51 1790.71 1709.27L1790.67 1708.95C1789.87 1716.46 1789.17 1716.45 1788.28 1716.83 1785.17 1715.83 1785.72 1709.91 1781.34 1703.26 1780.59 1703.68 1780.54 1704.17 1780.22 1704.62 1779.28 1706.01 1778.61 1707.4 1777.58 1708.78L1776.85 1708.83 1776.4 1709.19 1775.57 1709.1C1773.53 1711.05 1773.51 1711.02 1773.36 1711.19L1773.01 1710.87C1771.9 1713.19 1771.72 1713.17 1770.68 1715.47 1769.78 1714.65 1771.96 1714.57 1766.15 1704.82 1765.69 1704.04 1765.06 1703.27 1764.25 1702.52 1764.03 1702.32 1762.19 1702.35 1760.93 1704.97 1760.57 1703.58 1760.83 1703.59 1759.91 1702.22 1759.69 1703.49 1760.67 1703.52 1759.05 1704.72L1758.54 1704.3C1758.04 1705.22 1757.39 1705.15 1756.67 1706.05 1754.44 1705.61 1755.65 1705.45 1755.11 1704.43L1752.84 1706.27C1750 1703.05 1750.06 1703.06 1749.77 1702.79L1746.42 1707.09C1746.13 1706.91 1744.97 1706.93 1744.68 1706.75 1743.83 1706.24 1743.57 1705.67 1743.16 1705.12 1742.27 1703.91 1741.86 1702.66 1740.79 1701.46 1739.41 1703.37 1739.62 1703.35 1738.31 1705.27 1738.04 1704.03 1738.04 1704.05 1737.86 1702.8L1737.71 1703.41 1737.5 1702.7C1736.4 1706.09 1735.95 1709.57 1735.88 1710.17L1735.66 1709.78 1735.38 1710.28 1735.15 1709.51 1735.02 1709.98C1734.83 1709.23 1734.84 1709.25 1734.77 1709.08 1733.78 1715.43 1734.38 1715.41 1732.93 1721.76 1731.92 1720 1732.03 1715.35 1731.47 1714.24 1731.09 1716.09 1731.11 1716.07 1730.85 1717.93 1730.62 1716.99 1730.66 1717.02 1730.44 1716.09L1730.31 1716.53C1730.19 1716.34 1730.07 1716.15 1729.96 1715.96L1729.72 1716.53 1729.46 1715.69 1729.26 1716.18C1728.96 1715.35 1728.98 1715.37 1728.58 1714.55 1727.75 1716.39 1728.12 1716.39 1725.93 1719.33L1725.34 1715.32C1724.99 1715.31 1724.1 1715.98 1723.46 1715.24L1722 1716.82C1718.58 1714.79 1718.68 1714.54 1718.45 1714.72 1718.32 1714.4 1718.31 1714.41 1717.71 1713.16L1717.28 1714 1716.22 1711.23 1712.48 1713.72C1711.23 1712.48 1712.38 1710.89 1710.86 1712.12 1710.68 1712.26 1710.69 1712.42 1710.49 1712.57 1709.88 1712.31 1709.69 1711.91 1708.64 1711.8 1708.07 1711.75 1707.42 1712.74 1707.36 1712.83 1706.39 1711.87 1706.4 1711.89 1705.67 1710.9L1704.87 1711.03 1703.47 1709.68 1702.82 1709.83C1699.48 1706.02 1698.99 1706.06 1696.37 1702.19 1695.85 1703.4 1696.37 1703.42 1694.56 1704.54L1694.37 1703.92C1694.13 1705.13 1693.93 1705.11 1693.09 1706.29L1692.89 1705.22C1692.74 1705.99 1692.58 1706.76 1692.43 1707.53L1692.22 1707.18C1691.56 1709.07 1691.26 1709.04 1690.92 1710.97L1690.71 1709.52C1690.49 1710.9 1690.51 1710.88 1690.24 1712.24 1690.18 1712.11 1690.1 1711.98 1690.07 1711.85 1689.98 1711.47 1689.97 1711.1 1689.86 1710.72 1689.76 1710.79 1689.51 1711.26 1689.49 1711.31L1689.06 1709.76C1688.97 1709.87 1688.91 1709.96 1688.67 1711.17L1688.55 1710.4 1688.35 1711.71C1687.98 1709.87 1687.94 1709.89 1687.75 1708.04 1687.51 1709.94 1687.41 1709.92 1687.24 1711.82L1687.04 1711.18C1685.71 1714.95 1686.63 1714.95 1685.36 1718.55 1685.28 1718.2 1685.2 1717.85 1685.12 1717.49L1684.89 1717.94C1684.81 1717.59 1684.15 1715.78 1683.83 1714.24 1682.56 1718.41 1682.5 1718.4 1682.42 1718.77 1681.97 1717.1 1681.81 1717.13 1681.37 1715.47 1680.65 1716.72 1680.99 1716.77 1680.47 1718.68 1680.34 1718.42 1680.22 1718.15 1680.1 1717.89 1679.83 1719.68 1679.83 1719.66 1679.58 1721.45L1679.35 1721.11 1679.05 1721.46 1678.82 1720.91C1678.56 1721.4 1678.31 1721.88 1678.05 1722.37L1677.58 1722.06C1677.5 1722.14 1677.17 1722.12 1676.5 1723.35L1675.51 1722.98C1674.68 1723.59 1675.34 1724.04 1670.82 1726.18 1668.93 1725.39 1669.76 1725.13 1669.56 1725.2 1668.6 1725.49 1667.98 1726.13 1667.9 1726.22L1667.12 1725.72 1666.6 1726.17C1665.84 1726.06 1665.15 1725.66 1664.47 1726.24 1664.4 1726.15 1664.42 1725.97 1664.09 1725.99 1663.69 1726.01 1663.96 1726.28 1663.55 1726.29 1663.2 1726.31 1663.63 1725.97 1663.32 1726.02 1662.65 1726.34 1663.17 1726.37 1661.6 1727.93 1659.6 1726.22 1659.43 1725.73 1659.35 1725.53 1657.32 1726.35 1658.01 1725.28 1656.7 1723.68 1656.1 1724.49 1655.97 1724.45 1655.33 1725.25 1655 1724.78 1654.67 1724.3 1654.34 1723.82 1653.97 1724.92 1653.33 1725.94 1653.21 1726.13 1652.14 1725.78 1650.73 1724.12 1649.06 1723.69L1648.29 1723.94C1647.96 1723.63 1647.4 1723.33 1646.73 1723.06 1646.46 1722.95 1645.79 1722.94 1645.55 1722.82 1645.05 1722.57 1645 1722.27 1644.6 1722.01 1644.52 1721.95 1643.85 1721.5 1642.78 1721.47 1636.71 1721.27 1635.31 1721.69 1631.93 1719.96 1629.27 1719.3 1629.97 1719.19 1628.28 1718.33 1625.08 1718.44 1625.18 1718.27 1623.4 1717.89 1623.28 1717.87 1623.38 1717.93 1622.98 1718.4 1620.18 1715.9 1623.79 1715.06 1619.2 1712.35 1618.92 1712.86 1618.64 1713.37 1618.35 1713.87L1617.95 1713.21 1617.5 1713.5C1616.82 1712.59 1617.05 1712.6 1616.78 1711.54 1616.38 1714.27 1615.94 1714.24 1614.99 1716.95 1614.85 1716.76 1614.7 1716.57 1614.56 1716.38 1613.19 1719.89 1614.78 1722.9 1611.73 1726.9 1611.4 1726.68 1611.61 1726.68 1611.26 1726.47 1610.54 1727.53 1610.44 1727.51 1609.78 1728.56 1609.62 1728.28 1609.46 1728 1609.29 1727.71 1608.97 1728.11 1608.84 1728.08 1608.69 1728.47L1608.35 1728.13C1607.31 1730.22 1605.97 1730.15 1605.51 1732.63 1604.7 1731.86 1604.43 1731.86 1603.52 1724.48L1603.4 1725.21C1602.27 1722.56 1603.29 1722.57 1601.85 1718.46 1600.79 1720.56 1601.16 1720.55 1600.73 1722.67 1600.36 1721.05 1600.3 1721.07 1599.86 1719.47 1599.37 1721.98 1599.5 1722.14 1598.96 1722.5 1598.56 1721.69 1598 1721.46 1597.67 1720.51L1597.55 1720.93C1595.64 1712.08 1594.61 1701.81 1594.29 1700.2 1593.58 1701.73 1593.79 1701.72 1593.61 1703.28 1593.51 1702.97 1593.41 1702.66 1593.31 1702.35 1592.64 1704.51 1590.01 1704.33 1590.11 1705.16 1590.17 1705.62 1590.73 1706.07 1590.62 1706.52 1590.45 1706.26 1590.28 1706 1590.11 1705.75 1589.77 1707.32 1590.41 1707.33 1588.72 1708.82 1588.23 1708.66 1588.11 1708.69 1587.58 1708.84 1586.27 1708.2 1586.79 1708.18 1586.37 1707.46 1585.84 1708.62 1585.54 1708.72 1585.41 1708.63 1584.53 1708.03 1583.96 1707.39 1583.21 1706.77L1582.49 1708.31C1581.38 1707.36 1581.79 1707.35 1581.68 1706.9 1581.58 1707.32 1581.63 1707.73 1581.38 1708.14 1581.35 1708.19 1581.09 1708.01 1580.99 1708.05 1580.26 1708.34 1580.57 1708.37 1579.72 1710.41L1579.49 1710.11C1578.73 1711.79 1578.13 1713.49 1578.02 1713.78L1577.9 1713.49C1577.7 1714.07 1576.07 1718.87 1576.23 1720.77 1576.38 1722.48 1576.96 1722.53 1576.47 1722.59 1575.92 1722.65 1574.67 1722.43 1574.05 1723.53L1573.68 1723.01 1573.59 1723.27C1573.47 1722.68 1573.4 1722.7 1573.26 1722.12L1573.18 1722.43 1573.09 1722.14C1572.72 1723.89 1572.59 1723.87 1572.38 1724.7 1572.18 1724.13 1572 1723.57 1571.81 1723.01L1571.65 1723.3C1571.28 1722.62 1570.97 1721.35 1570.93 1721.18 1570.83 1721.54 1570.74 1721.91 1570.64 1722.28 1569.94 1721.39 1570.11 1721.41 1569.86 1720.49L1569.51 1721.11 1569.36 1720.73C1568.83 1723.28 1569.37 1723.29 1568.38 1724.92L1568.01 1724.45 1567.74 1724.8C1567.69 1724.72 1566.7 1723.08 1565.61 1723.93 1564.61 1723.64 1562.98 1721.46 1562.41 1723L1562.27 1722.57C1562.07 1723.33 1562.07 1723.31 1561.91 1724.06 1561.74 1723.44 1561.57 1722.83 1561.4 1722.21L1561.08 1722.48C1560.76 1722.06 1559.43 1718.26 1559.31 1717.89L1559.09 1718.49C1558.93 1718.25 1558.95 1718.01 1558.79 1717.77 1558.76 1717.72 1558.73 1717.96 1558.71 1717.91 1558.59 1717.66 1558.63 1717.41 1558.52 1717.16 1558 1720.77 1558.09 1721.01 1557.79 1722.35L1557.63 1721.78C1556.3 1724.9 1556.8 1724.89 1555.76 1728.02 1555.51 1727.76 1554.7 1727.87 1554.61 1727.89 1554.23 1727.94 1553.94 1728.22 1553.72 1728.13 1553.09 1727.85 1552.63 1726.43 1552.59 1726.28 1552.18 1727.3 1551.17 1727.84 1550.94 1727.96 1550.83 1728.02 1550.2 1728.07 1549.71 1727.25L1549.3 1727.67 1548.98 1727.44C1548.31 1729.09 1547.2 1729.25 1547.09 1729.32 1546.12 1727.63 1546.66 1727.62 1546.33 1727.5 1545.99 1727.38 1545.14 1727.39 1544.96 1727.25 1543.61 1726.12 1543.2 1724.93 1541.88 1723.8 1541.65 1723.98 1541.38 1724.57 1541.35 1724.64 1541.29 1724.47 1540.36 1722.17 1539.17 1722.61 1539.02 1722.36 1538.86 1722.11 1538.71 1721.86L1538.27 1722.37C1537.72 1721.21 1538.41 1721.21 1538.18 1721.13 1537.71 1720.97 1536.07 1721.29 1535.92 1721.32 1535.21 1720.72 1532.99 1720.3 1532.27 1719.7 1531.45 1719.01 1531.62 1718.26 1531.4 1717.53 1530.97 1718.32 1530.74 1718.28 1530.42 1719.08 1530.31 1718.88 1530.19 1718.69 1530.08 1718.49 1530.03 1718.56 1529.7 1719.08 1529.46 1719.39L1529.1 1718.44C1528.88 1719.73 1528.52 1721.2 1528.46 1721.44 1528.34 1720.83 1528.21 1720.22 1528.08 1719.61 1527.33 1727.36 1527.78 1727.85 1525.23 1727.9 1524.39 1727.57 1524.36 1727.54 1522.84 1727.56 1522.08 1726.53 1522.17 1726.54 1521.66 1725.52 1519.41 1727.39 1518.01 1727.19 1517.13 1727.79 1516.66 1727.15 1516.61 1727.18 1516.1 1726.53 1516.04 1726.6 1515.65 1727.03 1515.2 1727.28 1513.82 1726.99 1514.2 1726.93 1513.5 1726.49 1512.82 1727.23 1512.96 1727.23 1512.31 1727.96L1511.82 1727.58C1509.97 1728.05 1510.56 1727.44 1510.1 1726.77 1508.31 1728.07 1509.32 1728.22 1506.87 1728.8 1506.62 1728.41 1506.62 1728.15 1505.41 1728.4 1501.66 1729.18 1501.6 1729.16 1501.18 1729.33 1500.28 1729.71 1499.91 1729.34 1499.72 1729.38 1498.69 1729.64 1498.14 1730.01 1497.43 1730.34L1496.69 1730.2 1496.28 1730.43 1495.56 1730.2C1494.86 1730.52 1494.29 1730.58 1493.69 1730.23 1493 1730.81 1492.99 1730.78 1492.94 1730.83 1492.57 1730.61 1491.92 1730.42 1491.28 1730.24 1490.2 1729.95 1490.37 1729.95 1489.93 1729.53L1489.51 1729.78C1488.65 1729.38 1488.35 1729.44 1487.8 1728.99 1487.65 1729.13 1486.69 1729.31 1483.71 1731.74 1482.72 1731.42 1482.51 1731.54 1481.87 1731.66L1481.23 1731.27C1480.22 1732.01 1481.2 1732.28 1478.62 1732.42 1477.98 1732.75 1478.05 1732.75 1477.08 1733.01 1476.42 1732.57 1476.31 1732.61 1475.7 1732.17L1475.33 1732.73C1475.25 1732.65 1475.25 1732.65 1474.15 1731.78 1472.79 1732.37 1471.22 1732.16 1470.63 1733.26 1469.89 1732.24 1469.94 1732.26 1469.87 1732.17 1469.39 1732.76 1468.92 1733.35 1468.45 1733.94 1468.33 1733.84 1467.47 1733.08 1466.7 1732.72 1466.34 1733.05 1466.31 1733.03 1465.92 1733.35L1465.69 1733.05C1465.55 1733.31 1465.42 1733.57 1465.3 1733.84 1464.02 1733.3 1464.09 1733.29 1463.94 1733.26 1463.76 1733.43 1459.35 1737.57 1458.39 1734.84 1457.68 1732.82 1457.3 1730.79 1456.58 1728.77 1456.32 1729.16 1456.24 1729.12 1455.99 1729.52 1455.3 1728.35 1455.47 1728.36 1455.24 1727.17 1454.93 1728.01 1454.88 1727.98 1454.42 1728.82L1454.12 1727.91C1454.05 1728.43 1454.04 1728.41 1453.71 1730.09L1453.54 1729.04 1453.42 1729.27 1453.37 1728.98C1453 1730.04 1452.16 1729.97 1451.39 1731.04 1450.05 1729.19 1449.99 1727.3 1449.34 1725.43 1445.69 1714.82 1445.6 1714.83 1445.34 1713.9 1444.76 1714.49 1444.64 1714.46 1444.26 1715.07 1444.01 1714.6 1443.76 1714.14 1443.51 1713.68 1443.28 1714.06 1443.54 1714.06 1441.72 1718.47 1439.22 1713.64 1440.21 1711.71 1437.92 1708.34L1437.62 1708.99C1437.51 1708.72 1437.34 1708.45 1437.2 1708.17 1436.88 1707.55 1436.53 1706.94 1436.23 1706.32L1435.99 1706.72C1435.68 1705.43 1435.98 1705.44 1435 1704.16L1433.24 1707.74C1432.9 1708.04 1431.63 1708.23 1431.41 1708.54 1430.48 1709.81 1430.21 1711.12 1429.82 1712.41L1429.36 1711.58C1428.72 1712.8 1427.68 1714.08 1427.5 1714.29L1427.33 1714.05 1427.21 1714.23 1427.1 1714.02 1426.86 1714.87 1426.73 1714.6C1426.14 1715.23 1425.42 1719.77 1424.83 1721.37L1424.67 1721.12C1424.01 1723.03 1423.97 1723.02 1423.92 1723.19L1423.71 1722.81C1423.46 1723.21 1423.74 1723.23 1422.97 1723.5 1422.71 1723.25 1422.79 1723.25 1421.39 1719.04 1421.39 1719.04 1419.02 1713.94 1418.82 1713.5 1418.68 1714.25 1419.26 1715.01 1419.12 1715.76 1419.02 1716.4 1418.75 1717.04 1418.09 1717.65L1417.08 1717.01C1415.77 1719.2 1415.56 1719.17 1413.88 1721.34L1413.47 1721.15C1413.3 1721.43 1413.13 1721.7 1412.96 1721.98L1412.29 1721.51 1410.98 1723.02C1407.2 1715.26 1407.57 1715.25 1406.99 1714.58 1406.81 1715.23 1406.62 1715.89 1406.44 1716.53L1406.13 1716.18C1405.12 1717.33 1404.85 1717.29 1404.25 1718.45L1401.56 1716.34C1400.35 1716.55 1400.33 1717.02 1399.74 1716.65 1398.56 1720.08 1398.37 1720.06 1396.88 1721.77 1393.97 1720.28 1393.06 1713.43 1389.4 1708.35L1389.18 1708.81 1388.88 1707.68C1387.84 1708.71 1386.71 1711.15 1386.57 1711.45 1385.3 1711.02 1385.63 1710.99 1385.34 1710.45 1381.7 1720.24 1379.8 1721.75 1378.62 1722.69 1378.48 1722.44 1377.46 1720.66 1377.03 1719.6L1376.86 1720.08C1375.72 1718.77 1375.87 1718.77 1375.4 1717.44L1375.24 1717.81C1374.09 1713.43 1373.47 1713.46 1372.35 1709.08 1372.17 1709.26 1371.3 1710.05 1370.42 1711.3 1370.36 1711.19 1369.89 1710.38 1369.54 1709.95 1368.61 1711.68 1368.52 1711.66 1368.45 1711.81 1367.44 1709.61 1368.2 1709.61 1367.05 1707.44 1366.22 1709.8 1366.09 1709.78 1365.22 1712.15 1364.56 1709.15 1364.88 1709.17 1363.64 1706.16L1362.17 1710.97C1359.94 1706.36 1359.26 1706.4 1358.74 1701.76 1357.53 1706.54 1358.48 1706.54 1356.05 1711.28 1354.04 1708.54 1354.4 1708.54 1353.62 1705.74L1353.46 1706.1C1353.28 1705.86 1353.09 1705.61 1352.9 1705.36 1352.58 1706.28 1352.43 1706.25 1352.11 1707.17L1352.07 1706.93C1351.96 1707.33 1351 1710.86 1350.19 1711.84 1349.76 1711.6 1349.79 1711.62 1349.52 1711.35L1349.25 1712C1349.12 1711.37 1349.01 1710.74 1348.89 1710.11 1348.77 1710.78 1348.65 1711.45 1348.53 1712.12L1348.49 1711.8C1348.38 1712.19 1348.21 1712.76 1347.68 1713.76L1347.57 1713.48C1347.29 1713.54 1346.88 1714.33 1346.84 1714.41 1346.41 1713.2 1346.41 1713.22 1346.07 1712 1344.83 1714.22 1344.66 1716.59 1343.9 1715.28 1343.38 1715.79 1343.3 1715.77 1342.88 1716.27L1342.58 1715.92C1341.39 1716.69 1342.04 1716.72 1340.89 1717.49L1340.51 1717.1C1340.27 1717.47 1340.37 1717.46 1339.97 1717.75 1339.47 1716.62 1339.09 1716.65 1338.39 1715.53L1337.95 1715.91C1337.27 1714.82 1335.43 1713.56 1334.95 1713.02 1334.74 1713.25 1334.53 1713.49 1334.33 1713.72L1333.92 1713.41C1333.4 1713.61 1332.43 1713.97 1331.12 1716.31 1330 1712.08 1329.59 1712.12 1327.14 1707.94 1326.79 1708.85 1326.71 1708.82 1326.31 1709.72L1325.97 1709.17 1325.88 1709.38C1325.62 1708.28 1325.57 1708.3 1325.29 1707.19 1325.11 1707.39 1324.94 1707.6 1324.76 1707.81 1324.57 1707.21 1324.39 1706.61 1324.2 1706.01L1324.01 1706.65C1323.88 1706.36 1323.74 1706.08 1323.61 1705.8 1322.67 1709.02 1322.16 1708.99 1320.19 1712.19 1319.89 1711.24 1320.11 1711.26 1319.36 1710.35L1319.18 1711.31 1319.06 1711.1C1318.58 1713.29 1319.1 1713.3 1316.94 1715.4 1316.48 1714.99 1316.13 1712.69 1316.09 1712.46 1315.87 1713.05 1315.64 1713.64 1315.4 1714.23L1315.18 1713.32C1313.52 1719.08 1314.24 1719.06 1311.87 1724.82 1311.43 1724.31 1310.81 1724.34 1309.78 1719.63L1309.51 1720.6C1309.4 1720.08 1309.12 1718.69 1307.38 1714.14 1307.27 1714.63 1307.16 1715.12 1307.04 1715.61L1306.96 1715.15 1306.85 1715.49C1306.84 1715.44 1303.56 1708.02 1303.54 1708.01 1303.24 1708.49 1303.27 1708.47 1303.08 1708.97 1302.73 1708.36 1301.77 1706.91 1301.12 1705.37 1300.69 1706.12 1300.23 1707.3 1300.17 1707.46L1299.77 1706.87C1299.3 1708.45 1299.13 1708.43 1298.63 1710.01L1298.25 1708.48C1295.26 1712.41 1295.52 1723.57 1289.72 1725.96 1289.02 1725 1288.5 1724.03 1287.64 1723.07 1287.58 1723 1287.56 1723.26 1287.3 1723.27 1285.17 1723.35 1285.98 1722.98 1283.58 1720.14 1283.49 1720.23 1283.17 1720.48 1283.09 1720.39 1282.15 1719.34 1281.53 1718.27 1280.94 1717.2L1280.73 1717.51C1279.78 1714.1 1280.17 1714.11 1279.16 1711.63 1278.66 1712.26 1278.49 1712.67 1278.45 1712.76 1278.17 1712.04 1278.27 1712.06 1278.24 1712L1278.09 1712.33 1277.91 1711.13C1277.8 1711.74 1277.86 1711.72 1277.62 1712.32L1277.47 1712.07 1277.35 1712.41C1275.19 1704.45 1276.5 1704.44 1273.85 1696.48 1273.81 1696.87 1273.63 1699.04 1273.33 1701.28 1273.25 1700.63 1273.16 1699.99 1273.07 1699.34 1273.01 1700.35 1272.94 1701.37 1272.88 1702.39L1272.79 1701.46C1272.72 1702.1 1272.66 1702.75 1272.59 1703.39L1272.55 1703.07C1272.13 1706.16 1272.03 1706.14 1270.63 1709.2 1269.71 1708.48 1269.88 1709.39 1268.85 1710.95 1268.28 1709.63 1268.18 1709.66 1267.79 1708.32 1267.08 1710.51 1267.25 1710.51 1266.61 1711.45L1266.51 1711.27C1266.16 1711.98 1266.16 1711.98 1266.14 1712.01 1266.1 1711.95 1265.81 1711.5 1265.46 1711.25 1265.38 1711.44 1265.4 1711.42 1265.17 1712.52 1264.91 1711.92 1264.95 1711.94 1264.78 1711.74 1264.69 1712.13 1264.6 1712.52 1264.52 1712.91 1264.4 1712.76 1264.29 1712.61 1264.17 1712.46 1262.78 1717.73 1259.16 1717.86 1258.66 1717.46 1256.95 1720.6 1257.3 1720.61 1253.88 1723.66 1251.12 1719.67 1251.02 1719.68 1250.83 1719.33 1250.38 1719.53 1250.24 1719.59 1249.01 1722.19L1248.58 1721.7C1248.13 1722.08 1248.24 1722.07 1247.68 1722.35L1246.93 1722.09C1246.3 1723.38 1246.26 1724.7 1245.22 1725.97 1244.55 1726.79 1242.77 1727.52 1241.84 1728.32 1241.14 1727.24 1237.97 1723.08 1237.04 1721.27 1236.87 1721.72 1236.69 1722.18 1236.52 1722.64 1235.33 1721.68 1235.4 1721.69 1234.68 1720.7 1233.36 1721.07 1233.76 1721.11 1232.36 1722.52L1232.13 1722.13 1231.92 1722.72 1231.47 1722.4 1231.32 1722.85C1231.25 1722.4 1230.43 1717.66 1228.68 1717.25 1228.56 1717.55 1228.61 1717.86 1228.23 1718.14 1228.1 1718.24 1227.97 1717.94 1227.88 1717.84 1227.44 1718.33 1227.34 1718.31 1226.69 1718.78L1226.44 1718.24 1226.32 1718.48 1225.99 1717.6C1224.7 1722.3 1224.04 1723.32 1222.91 1725.54 1221.41 1724.19 1221.97 1724.18 1220.62 1722.84 1220.06 1723.27 1219.69 1721.38 1219.67 1721.25L1219.54 1721.96 1219.38 1720.82 1219.25 1721.48C1218.13 1715.66 1217.07 1715.7 1215.9 1709.89 1215.08 1711.61 1214.92 1719.41 1213.64 1715.11L1213.52 1715.63 1213.31 1714.66 1213.08 1715.39C1212.88 1715.18 1212.67 1714.97 1212.46 1714.76L1212.02 1715.09C1211.57 1714.97 1211.63 1714.7 1211.56 1714.88 1211.17 1715.91 1210.74 1716.94 1210.46 1717.97 1210.31 1717.61 1210.22 1717.64 1209.91 1717.31 1209.45 1718.55 1209.5 1718.53 1208.86 1719.76 1208.72 1719.19 1208.59 1718.61 1208.45 1718.04L1208.23 1719.04C1204.19 1712.14 1204.72 1712.13 1204.04 1705.15 1203.79 1706.54 1203.64 1707.64 1203.61 1707.86L1203.51 1707.63C1203.39 1708.83 1203.25 1710.03 1203.12 1711.23 1203.01 1710.52 1202.9 1709.8 1202.79 1709.08L1202.67 1709.85 1202.58 1709.58C1202.53 1709.73 1201.54 1715.94 1199.43 1716.94 1199.28 1716.76 1199 1716.44 1198.45 1714.75L1198.01 1716.36 1197.89 1715.93 1197.7 1716.56C1197.62 1716.34 1197 1714.41 1196.45 1713.77L1196.18 1714.14C1195.24 1713.56 1194.89 1709.75 1194.85 1709.37L1194.77 1709.92 1194.69 1709.15C1194.47 1710.86 1194.46 1710.84 1194.19 1712.52 1194.06 1711.87 1193.12 1707.61 1193.03 1707.19L1192.88 1708.04C1192.82 1707.58 1192.67 1705.46 1192.23 1705.36 1192.14 1705.81 1192.2 1705.79 1191.94 1706.22L1191.73 1705.23 1191.57 1706.8 1191.48 1706.16 1191.4 1707.04 1191.36 1706.39 1191.23 1707.8 1191.15 1707.27 1191.03 1708.42 1190.99 1707.79 1190.86 1708.95 1190.78 1708.34 1190.69 1709.34 1190.57 1708.74 1190.49 1709.62 1190.45 1709.15 1190.36 1709.89C1190.25 1709.27 1190.13 1708.66 1190.02 1708.05L1189.81 1709.1C1189.67 1708.84 1189.54 1708.58 1189.41 1708.32 1188.63 1709.96 1188.59 1709.96 1188.53 1710.1 1188.49 1709.87 1187.98 1707.23 1187.4 1707.21 1187.13 1707.2 1186.69 1712.08 1186.3 1713.34 1186.02 1711.74 1185.74 1710.14 1185.46 1708.54 1184.89 1711.43 1184.44 1711.4 1183.88 1714.94L1183.71 1714.7 1183.63 1714.93C1183.24 1713.64 1183.08 1713.66 1182.84 1713.28 1182.49 1714.83 1181.64 1722.24 1179.94 1718.49L1179.65 1719.08C1179.25 1717.96 1179.3 1717.97 1178.77 1715.85L1178.53 1716.44C1177.76 1714.36 1177.97 1714.37 1177.63 1712.28 1177 1713.55 1176.92 1715.22 1176.58 1715.71L1176.43 1715.46C1176.35 1715.74 1175.57 1718.25 1174.17 1718.83 1173.13 1717.88 1169.56 1710.14 1169.45 1709.42 1168.71 1709.91 1168.41 1711.38 1168.37 1711.55 1167.78 1714.46 1167.5 1717.36 1166.68 1720.26 1166.39 1719.91 1165.79 1719.19 1164.74 1715.71L1164.33 1716.34 1164.11 1715.93C1161.15 1719.24 1162.34 1719.28 1161.87 1719.55 1160.61 1720.27 1161.68 1719.32 1161.33 1718.54 1159.84 1722.77 1159.53 1722.74 1158.63 1726.99L1158.35 1726.36C1157.02 1729.97 1157.29 1729.97 1154.03 1733.47 1151.9 1732.77 1151.92 1734.42 1151.61 1735.08 1151.46 1734.81 1151.44 1734.82 1150.98 1734.23 1148.62 1735.41 1149.03 1735.43 1147.79 1736.73 1147.4 1736.27 1146.39 1736.29 1145.72 1735.71L1145.23 1735.9C1144.6 1735.96 1144.01 1736.08 1143.35 1736.07 1143.05 1736.06 1143.21 1735.89 1142.93 1735.86L1141.89 1735.83 1140.81 1736.81C1140.63 1736.66 1139.44 1735.71 1137.13 1735.11 1135.9 1737.09 1136.52 1737.3 1134.99 1737.33 1132.86 1737.38 1134.24 1736.13 1133.41 1736.66 1132.73 1737.09 1132.07 1737.53 1131.54 1737.98L1131.17 1737.71C1130.56 1739.8 1129.97 1739.75 1128.67 1741.39L1127.88 1740.7 1125.64 1741.84C1124.06 1741.81 1125.42 1741.05 1124.21 1741.32 1123.2 1741.55 1123.53 1741.6 1122.27 1742.68L1121.9 1742.18 1121.06 1743.31 1120.38 1742.98 1119.82 1743.27C1118.9 1741.83 1117.99 1740.39 1116.83 1738.97 1116.53 1738.6 1115.76 1738.28 1115.46 1737.92 1114.36 1737.82 1114.22 1738.46 1113.91 1738.14 1113.66 1737.89 1113.18 1737.41 1112.49 1734.85 1111.91 1735.9 1111.82 1735.88 1111.22 1736.93L1111.01 1736.59C1110.85 1736.92 1110.6 1736.88 1110.44 1737.23 1110.15 1736.53 1110.03 1736.56 1109.67 1735.85 1109.5 1736.36 1109.34 1736.86 1109.18 1737.36 1108.69 1736.1 1108.88 1736.11 1108.2 1735.34 1107.97 1735.77 1107.74 1736.21 1107.52 1736.64 1107.24 1736.3 1106.38 1736.34 1104.77 1731.18 1104.42 1731.58 1104.08 1731.98 1103.73 1732.38 1101.44 1729.86 1100.91 1729.91 1099.72 1727.72L1099.32 1728.01C1099.25 1727.84 1099.15 1727.63 1098.2 1725.93 1096.55 1727.53 1097.33 1728.68 1094.95 1730.28L1094.72 1730.07C1094.12 1730.6 1094.06 1730.58 1093.8 1731.14L1093.45 1730.87 1092.72 1731.25C1091.49 1730.21 1091.54 1730.22 1091.02 1729.13 1090.84 1729.3 1090.67 1729.48 1090.5 1729.65 1088.91 1727.13 1090.82 1727.1 1088.65 1723.47 1087.73 1726.51 1087.44 1726.49 1086.56 1729.53L1086.47 1729.21C1086.22 1729.69 1085.9 1729.66 1085.54 1730.14 1084.02 1724.63 1084.04 1724.63 1083.9 1724.15L1083.61 1724.52C1083.4 1724.03 1083.42 1724.05 1082.96 1723.57L1082.66 1723.95C1082.47 1723.44 1082.26 1722.93 1082.07 1722.43 1081.79 1721.66 1081.54 1720.9 1081.25 1720.14 1080.01 1721.12 1080.46 1721.13 1079.16 1722.11 1079.05 1721.89 1078.28 1720.39 1078.21 1720.24 1078 1720.83 1077.94 1720.81 1077.68 1721.39L1077.19 1720.69 1076.8 1721.38C1076.65 1720.96 1076.49 1720.54 1076.34 1720.11L1076.08 1720.64C1075.42 1719.92 1075.47 1719.92 1075.41 1719.85 1074.5 1720.94 1075.16 1720.95 1074.23 1722.04L1073.84 1721.42C1073.5 1721.92 1073.15 1722.42 1072.81 1722.92L1072.64 1722.7C1072.13 1723.81 1071.1 1723.74 1070.4 1725.3 1070.24 1725.01 1070.09 1724.73 1069.93 1724.44 1069.73 1724.65 1069.48 1725.25 1069.45 1725.32 1068.97 1724.59 1068.98 1724.62 1068.58 1723.9 1067.98 1724.53 1068.02 1724.51 1067.82 1724.67L1067.48 1724.32C1066.86 1724.63 1066.9 1725.26 1066.4 1728.14 1066.08 1727.51 1066.02 1727.54 1065.7 1726.89 1065.54 1727.19 1065.6 1727.17 1064.39 1730.62L1063.96 1729.56C1062.89 1733.14 1063.4 1733.13 1060.73 1736.63L1060.25 1736.45C1059.3 1738.33 1059.01 1738.3 1058.17 1740.18L1057.13 1739.46C1056.87 1739.75 1057.13 1740.07 1056.87 1740.35 1056.6 1740.66 1056.08 1740.95 1055.53 1741.23 1055.19 1740.97 1054.85 1740.72 1054.5 1740.47L1053.11 1740.97C1049.13 1737.52 1049.22 1737.53 1048.81 1737.24 1045.66 1736.06 1046.51 1735.97 1045.53 1734.52 1044.82 1734.82 1044.18 1735.26 1044.08 1735.33 1041.06 1733.89 1040.15 1733.98 1039.14 1731.95L1038.73 1732.44C1037.07 1730.18 1033.46 1730.09 1031.39 1724.4L1031.02 1724.77C1030.76 1724.06 1030.64 1724.08 1030.37 1723.37 1030.16 1724.1 1029.46 1724.06 1026.67 1732.52 1025 1737.59 1025.32 1740.8 1023.39 1738.3 1022.87 1737.63 1022.55 1736.94 1022.21 1736.26 1021.36 1738.48 1018.52 1738.4 1017.7 1738.63 1017.26 1738.76 1017.09 1739.29 1016.98 1739.12 1016 1737.59 1015.53 1736.04 1015.02 1734.5 1014.83 1735 1015.7 1735.44 1012.19 1739.73L1011.99 1739.41C1011.06 1739.91 1010.5 1739.63 1009.08 1739.24L1008.72 1739.51C1008.06 1739.24 1005.8 1739.14 1003.32 1737.22 1000.28 1734.86 1000.1 1733.15 999.869 1732.93L999.143 1733.49C998.562 1733.24 998.533 1732.89 998.31 1733.18 997.566 1734.16 996.873 1735.15 996.313 1736.14 995.943 1735.95 996.023 1735.95 993.483 1733.28 992.761 1732.52 991.49 1731.8 991.007 1731.02 990.469 1731.2 990.441 1731.21 989.445 1733.85 988.397 1731.37 986.879 1731.47 985.631 1728.99L985.47 1729.4 985.15 1728.95C984.414 1731.41 984.307 1731.41 984.245 1731.62 980.365 1726.92 981.38 1726.87 980.892 1726.47L980.768 1726.97C979.054 1720 978.43 1720.02 978.315 1719.41 977.557 1715.42 977.322 1711.42 976.403 1707.43 974.86 1715.27 975.133 1715.27 974.99 1715.95 974.551 1715.12 974.565 1713.07 974.2 1712.48L974.158 1712.93 974.075 1712.48C973.995 1712.85 974.062 1712.84 973.189 1717.17 973.03 1715.49 972.985 1715.52 972.786 1713.83L972.786 1714.16 972.745 1713.8 972.578 1714.2 972.371 1712.6 972.287 1713.39C972.063 1712.95 972.025 1712.98 971.823 1712.51 971.609 1713.53 971.563 1713.51 971.456 1714.53L971.332 1713.9 971.248 1714.34 971.165 1713.91 971.082 1714.46C970.999 1714.08 970.916 1713.7 970.833 1713.33 970.327 1713.74 969.926 1715.98 969.885 1716.22 969.714 1715.14 969.544 1714.06 969.374 1712.98L969.13 1714.5C968.794 1712.49 968.839 1712.51 968.588 1710.51L968.546 1710.79C967.881 1706.64 967.739 1706.67 967.174 1702.5 966.514 1705.07 966.351 1708.4 965.295 1718.05 965.035 1717.54 964.947 1717.57 964.68 1717.08L964.306 1717.96C963.507 1713.28 963.764 1713.29 963.192 1708.6 962.983 1708.86 962.775 1709.11 962.566 1709.37 962.091 1707.1 962.007 1707.11 961.973 1706.91 961.823 1707.36 961.672 1707.8 961.522 1708.25 961.371 1707.79 961.22 1707.34 961.069 1706.89 960.731 1707.5 960.269 1708.69 960.208 1708.85 960.053 1708.29 959.898 1707.73 959.743 1707.17 958.729 1709.7 958.722 1709.67 958.646 1709.89L958.58 1709.78C958.024 1713.53 958.611 1713.53 957.544 1715.02 957.512 1714.83 957.364 1713.96 957.061 1712.68 956.061 1715.74 955.877 1716.66 955.808 1717.01L955.693 1716.48 955.327 1717C955.057 1716.51 954.874 1716.17 954.352 1710.74 953.921 1712.19 953.794 1712.18 953.359 1715.81L953.121 1715.33 952.75 1715.59C952.458 1714.78 953.313 1713.87 951.855 1713.15 951.207 1712.84 949.975 1713.71 949.616 1714.06 948.43 1713.17 948.348 1713.19 948.182 1712.23 947.968 1713.52 947.923 1713.49 947.76 1714.8 947.543 1714.13 947.327 1713.45 947.11 1712.78 945.237 1715.5 946.451 1715.53 944.283 1718.24 943.636 1717.19 943.752 1717.19 942.145 1710.93 941.984 1711.13 941.823 1711.32 941.663 1711.52L941.455 1711.19C941.366 1711.4 940.577 1713.23 939.665 1713.77 939.463 1713.39 939.262 1713.01 939.06 1712.63 938.419 1713.1 938.025 1716.77 937.909 1717.23L937.74 1716.25 937.535 1716.81 937.494 1716.49 937.341 1717.05C935.708 1715.37 936.428 1710.77 933.603 1705.75 933.39 1709.65 933.211 1712.11 933.17 1712.66 932.725 1707.8 932.522 1704.86 932.475 1704.18 932.388 1704.31 932.316 1704.69 932.214 1704.56 931.727 1703.95 931.484 1703.33 931.3 1702.7 930.245 1706.52 930.269 1706.5 929.72 1710.3L929.469 1708.32 929.334 1708.67 929.282 1708.67 929.038 1708.18 927.766 1714.22C927.221 1713.01 926.751 1713.05 926.038 1710.4 925.883 1711.08 925.729 1711.75 925.575 1712.42 925.137 1711.76 925.192 1711.78 925.149 1711.73L924.954 1712.5 924.779 1712.31C924.625 1712.9 924.471 1713.5 924.316 1714.09L924.233 1713.78 924.105 1714.31 923.86 1714.02C923.426 1716.13 922.647 1716.1 921.965 1718.2 921.387 1717.91 921.816 1717.91 920.409 1714.16 918.522 1718.71 918.67 1718.71 918.239 1718.92 917.311 1718.73 917.472 1717.49 916.563 1714.85L916.174 1715.36 915.725 1714.89C914.917 1715.81 914.794 1715.79 914.408 1716.73L914.155 1715.55C914.064 1715.78 913.973 1716 913.882 1716.22L913.674 1715.2 913.482 1715.81 913.383 1715.37 913.3 1715.6 913.135 1715.31C912.55 1716.72 912.662 1716.69 912.51 1718.11L912.427 1717.62C912.187 1717.94 911.946 1718.27 911.705 1718.59 911.47 1718.02 911.234 1717.46 910.998 1716.9L910.867 1717.12C910.325 1715.37 909.838 1715.41 909.216 1713.65 908.683 1715.83 908.266 1715.8 907.771 1717.98L907.688 1717.6 907.546 1718.29 907.409 1717.07 907.189 1717.6C906.885 1716.88 906.477 1715.93 905.214 1708.61L904.968 1709.13 904.794 1708.74C903.642 1712.01 904.35 1712.01 902.34 1715.26 901.323 1714.35 901.636 1714.05 901.37 1712.36 901.187 1712.41 901.26 1712.62 901.162 1712.56 900.951 1712.42 901.074 1711.96 900.996 1712.11 900.26 1713.5 900.075 1714.92 899.184 1716.31 898.801 1715.47 898.784 1715.5 898.584 1714.66 898.423 1715.49 898.8 1715.49 897.936 1716.29 897.023 1713.81 896.319 1713.86 895.591 1711.39 892.235 1699.97 893.07 1699.96 892.642 1698.97 892.61 1699 891.686 1700.1 891.632 1699.36 891.621 1699.21 891.849 1699.07 891.736 1698.92 890.785 1702.06 890.943 1702.05 890.575 1705.21 890.482 1704.81 890.321 1704.82 889.647 1699.25L889.481 1700.36C889.423 1699.43 889.365 1698.51 889.307 1697.58 888.778 1701.81 888.689 1701.79 888.317 1702.93 888.129 1701.99 887.94 1701.06 887.753 1700.13 886.951 1703.28 885.3 1712.84 884.493 1715.15 884.187 1714.26 884.155 1714.28 883.708 1713.39 883.438 1713.74 882.342 1716.5 882.075 1716.55 881.793 1716.6 882.221 1716.47 880.834 1715.43 880.353 1715.9 879.978 1716.49 879.92 1716.58 879.386 1715.25 879.147 1715.28 878.557 1713.94 878.013 1717.29 878.122 1717.27 877.675 1720.62L877.592 1720.33C877.383 1720.9 877.409 1720.88 877.252 1721.2L877.01 1720.9C876.47 1721.08 876.295 1725.01 874.548 1729.21L874.348 1728.72C874.276 1728.87 873.344 1730.86 872.892 1730.59 872.311 1730.26 870.642 1726.62 870.483 1726.27L870.043 1727.56C869.857 1727.01 869.671 1726.46 869.485 1725.91 867.74 1727.62 867.832 1728.47 866.576 1727.78 865.226 1727.05 866.054 1725.97 865.287 1726.77 864.988 1727.08 864.756 1727.39 864.497 1727.7L864.081 1727.42 863.458 1728.2 862.876 1727.26 861.95 1729.76C861.238 1729.28 859.38 1729.18 857.866 1727.02L857.306 1727.27C856.331 1725.95 855.495 1722.53 855.394 1722.12 855.119 1720.99 855.318 1719.85 854.789 1718.73 854.684 1718.51 853.659 1718.37 853.523 1718.15 853.134 1716.86 849.441 1704.59 848.1 1701.98 847.66 1703.54 847.523 1703.51 847.265 1705.09 847.199 1704.76 846.83 1702.89 846.499 1700.9 846.378 1701.47 846.256 1702.04 846.135 1702.61 846.079 1702.39 845.916 1701.77 845.519 1699.94 844.735 1703.03 845.206 1703.32 844.46 1705.67 844.025 1702.07 844.071 1702.08 843.837 1701.53 843.298 1704.64 843.443 1704.62 842.867 1707.74 842.837 1707.65 842.59 1706.94 842.403 1706.66 842.183 1708.95 841.778 1712.14 841.717 1712.61L841.441 1711.9C841.124 1713.31 840.914 1713.28 840.254 1714.67 840.226 1714.62 839.74 1713.7 839.612 1714.03 839.16 1715.22 838.839 1716.4 838.687 1717.59L838.599 1716.94C837.927 1722.73 836.8 1722.69 834.543 1728.43 834.241 1727.37 834.383 1727.38 833.902 1726.71 833.797 1726.73 833.718 1726.77 833.694 1726.8 833.544 1727.02 833.599 1727.24 833.386 1727.45 831.817 1724.66 832.481 1728.19 831.87 1731 830.536 1729.05 830.008 1733.27 829.828 1734.09 829.477 1733.7 829.48 1733.42 829.471 1733.4 829.155 1734.96 829.114 1734.93 828.581 1736.46L828.539 1736.17 828.498 1736.61C828.441 1736.37 827.899 1734.01 827.372 1733.55 827.043 1733.97 826.911 1734.14 826.047 1738.95L825.844 1738.72C825.668 1739.18 825.491 1739.63 825.315 1740.08 825.226 1739.87 825.137 1739.65 825.047 1739.43 824.801 1740.02 825.11 1740.05 824.463 1740.17 824.286 1739.86 824.108 1739.55 823.93 1739.24 823.445 1740.54 823.487 1740.52 823.214 1741.84 822.568 1740.99 822.714 1741.01 822.475 1740.16 822.154 1741.18 822.189 1741.15 822.013 1742.17 821.919 1742.13 821.954 1742.12 821.764 1741.54L821.597 1742.18 821.556 1741.74 821.386 1742.83C820.814 1742.67 821.015 1742.63 819.042 1738.76 818.665 1739.67 818.739 1739.65 818.696 1739.73L818.5 1738.19C818.232 1738.55 818.169 1738.63 817.427 1742.77 816.858 1741.23 816.671 1740.19 816.631 1739.97L816.364 1740.84C815.616 1739.27 815.661 1739.28 815.559 1739.25 815.369 1739.95 815.312 1739.93 815.112 1740.64 814.988 1740.46 814.856 1739.86 814.841 1739.79 814.745 1740.1 814.648 1740.41 814.551 1740.72 814.427 1740.31 814.302 1739.9 814.178 1739.49 813.853 1740.42 813.577 1741.58 813.534 1741.76 813.314 1740.44 813.448 1740.43 813.148 1740.31 812.796 1741.38 812.774 1741.35 812.57 1742.44 812.124 1741.63 812.061 1741.65 811.843 1740.84 811.766 1741.35 811.69 1741.86 811.614 1742.37L811.436 1740.93C811.402 1741.08 810.209 1746.18 809.04 1742.59L809 1742.64 809 1068Z" fill="#FFFFFF" fill-rule="evenodd"/></g></svg>