<svg width="2454" height="690" xmlns="http://www.w3.org/2000/svg" xmlns:xlink="http://www.w3.org/1999/xlink" xml:space="preserve" overflow="hidden"><defs><clipPath id="clip0"><rect x="1270" y="54" width="2454" height="690"/></clipPath></defs><g clip-path="url(#clip0)" transform="translate(-1270 -54)"><path d="M1270 54 3724 54 3724 744 3722.93 744 3722.82 741.735C3722.4 741.942 3721.98 742.149 3721.56 742.355L3721.4 741.845 3721.14 742.323 3720.72 742.013C3718.25 741.677 3717.9 741.698 3717.36 740.6L3716.79 741.049C3715.85 740.11 3715.11 740.321 3714.3 739.334L3713.89 739.912C3713.58 739.937 3713.65 739.562 3713.35 739.587 3713.02 739.613 3713.3 739.915 3713.01 739.984 3712.72 740.055 3712.32 739.835 3712.03 739.906 3711.5 739.341 3711.53 739.381 3711.06 738.81 3708.46 740.081 3707.88 738.118 3706.19 737.933 3705.38 736.902 3705.41 736.927 3705.07 735.313 3704.72 736.586 3704.86 736.563 3704.12 737.806 3703.82 737.506 3703.51 737.206 3703.2 736.906L3702.81 737.406C3701.96 737.151 3701.21 736.844 3700.47 736.531 3698.47 735.676 3698.39 735.711 3698.3 735.612L3697.31 735.489C3695.86 732.278 3695.78 731.989 3695.69 731.681L3695.38 732.303 3694.87 731.44 3694.19 731.752C3693.96 731.476 3692.66 729.91 3692.1 728.209L3691.84 728.586 3691.39 728C3691.2 728.298 3691.01 728.596 3690.82 728.893 3690.18 727.638 3688.83 726.466 3688.1 725.22 3685.98 721.614 3684.2 717.972 3682.28 714.345 3679.46 709.03 3675.69 705.654 3674.89 701.955 3674.23 702.997 3674.16 702.942 3673.18 703.919L3672.49 703.643C3672.03 703.435 3671.58 703.227 3671.12 703.019L3669.71 703.079 3669.22 703.389C3668.93 703.104 3668.63 702.819 3668.33 702.534L3667.8 702.939 3667.41 702.532 3667.17 702.899 3666.69 702.558 3666.32 703.011 3666.12 702.433 3665.68 703.057 3665.15 702.261C3664.88 703.289 3664.84 703.258 3663.79 705.999L3663.33 705.496C3661.56 707.96 3663.61 709.492 3657.73 709.014 3656.04 706.647 3650.23 705.275 3649.99 704.612 3649.89 704.297 3650.17 703.965 3649.99 703.656L3649.53 704.171C3648.77 702.872 3648.31 702.985 3647.21 701.753 3646.63 702.629 3646.49 702.572 3646.05 703.495 3644.79 702.614 3639.64 697.306 3638.86 696.97 3638 694.485 3638.6 694.429 3636.05 692.145 3634.29 694.267 3634.22 694.252 3634.07 694.642L3633.7 694.119C3633.1 695.169 3633.07 695.133 3633.03 695.222L3632.49 694.628C3632.34 695.018 3632.18 695.409 3632.03 695.801 3631.71 694.396 3631.71 694.396 3631.71 694.396 3631.58 694.344 3631.37 694.343 3630.66 695.269L3630.12 694.546C3630.02 694.725 3630.14 695.396 3629.22 694.783 3628.86 696.669 3627.92 698.978 3627.43 703.323 3626.3 697.601 3624.51 694.717 3624.29 694.065 3623.18 697.013 3623.3 697.005 3623.1 697.248L3622.4 696.615C3621.13 696.576 3621.19 696.782 3621.14 696.742 3620.27 696.046 3619.51 694.295 3619.42 694.077 3619.03 694.682 3618.91 694.633 3618.3 695.187 3617.4 693.801 3616.2 687.606 3614.24 676.502 3613.35 679.569 3613.46 679.545 3611.56 682.49 3609.49 685.676 3609.82 685.675 3608 688.857 3607.55 688.312 3607.68 688.334 3607.19 687.763 3601.13 702.63 3599.44 703.184 3596.76 702.728 3595.82 703.224 3595.77 703.173 3594.8 703.663 3592.95 701.42 3592.71 701.463 3592.14 699.107 3591.43 696.2 3590.91 693.286 3590.32 690.374 3588.88 695.24 3588.89 697.294 3586.7 700.29 3585.65 699.928 3585.72 699.932 3584.98 699.41 3582.9 700.765 3581.21 698.893 3581.16 698.848L3580.49 699.411C3579.73 699.02 3578.53 698.837 3577.65 698.497 3574.24 697.189 3575.57 696.853 3572.56 688.552 3570.48 689.351 3570.54 689.446 3570.02 689.384 3568.88 689.25 3569.34 689.046 3565.58 675.717 3564.41 679.672 3564.82 688.039 3561.34 690.61 3561.12 690.193 3560.9 690.083 3560.39 688.599L3560.21 688.945C3560.06 688.448 3559.92 687.951 3559.77 687.454 3559.21 687.766 3559.22 687.464 3558.9 687.103 3558.69 687.559 3558.47 688.016 3558.25 688.472L3558.08 687.848C3557.94 688.363 3557.8 688.877 3557.66 689.391 3556.9 689.029 3556.62 689.059 3556.11 689.48L3555.02 688.537C3552.8 680.146 3552.87 680.147 3552.61 679.421L3552.43 680.633C3551.1 673.917 3550.93 673.775 3550.29 673.248 3548.6 679.602 3543.47 686.01 3539.01 695.999L3538.77 695.56C3538.28 696.44 3537.8 697.321 3537.31 698.201 3535.68 694.776 3536.14 694.764 3534.19 691.364L3534 691.741 3533.35 691.127C3532.5 692.331 3532.52 692.324 3532.44 692.427 3532.09 692.178 3530.77 691.234 3529.39 689.032 3526.08 683.728 3526.79 683.695 3526.47 683.241 3522.56 684.596 3525.87 682.291 3524.1 680.249L3523.8 680.622C3523.77 680.531 3523.44 679.786 3523.05 679.521 3521.51 680.912 3521.11 681.073 3520.54 683.709 3520.09 683.609 3519.8 683.585 3518.62 678.911 3517.91 681.427 3517.92 681.384 3517.35 683.87 3517.28 683.646 3513.36 667.629 3513.3 667.332L3513.19 667.888C3512.52 664.395 3512.53 664.426 3512.21 660.899L3511.87 662.141C3511.7 661.479 3511.54 660.817 3511.37 660.155 3509.55 664.589 3509.66 675.384 3508.37 673.484 3506.38 692.16 3502.71 705.283 3501.95 708.036 3501.68 706.891 3497.03 683.44 3496.98 682.984 3496.45 684.985 3492.24 712.915 3486.2 711.543 3485.36 709.975 3484.88 710.092 3483.18 708.676 3481.27 710.753 3475.37 709.219 3474.63 708.518 3473.86 709.279 3471.88 708.8 3471.67 708.749 3466.17 707.416 3463.49 706.374 3462.85 706.126 3462.62 706.377 3462.38 706.628 3462.15 706.879 3460.65 707.039 3460.3 707.072 3459.88 706.407 3459.4 707.175 3458.56 707.105 3457.52 706.482 3455.26 707.338 3451.95 703.779 3451.04 703.632 3450.45 703.534 3449.75 704.549 3449.69 704.638L3449.49 703.866C3448.85 704.908 3446.74 703.984 3445.94 704.879L3445.57 704.4C3444.96 704.623 3445.57 705.036 3444.87 704.849 3443.71 704.537 3443.56 704.212 3442.67 704.651 3441.27 703.189 3440.95 703.192 3440.76 703.289 3440.53 703.406 3440.59 703.61 3440.32 703.712L3439.67 702.925C3439.42 703.458 3439.21 703.381 3438.65 703.856 3438.32 703.449 3432.43 681.872 3430.86 672.767 3430.46 674.136 3430.54 674.11 3430.16 674.859L3429.93 674.013 3429.48 676.275C3429.22 676.463 3428.17 676.088 3427.96 676.287 3426.94 677.256 3426.1 680.978 3426 681.39 3425.78 680.96 3425.55 680.53 3425.33 680.099 3425.15 680.791 3424.96 681.483 3424.79 682.174 3424.48 681.284 3424.03 681.38 3423.61 680.494 3423.19 682.122 3423.14 682.115 3423.11 682.256 3422.65 681.051 3422.76 681.071 3422.54 679.84 3421.96 681.202 3422.03 681.203 3421.97 681.321 3420.72 672.679 3420.38 671.403 3420.15 670.544 3419.97 670.826 3419.82 671.086 3419.28 674.173 3419.21 673.809 3418.42 669.182 3418.06 669.643 3416.48 671.647 3416.25 673.805 3415.36 675.887 3415.24 675.758 3414.46 674.931 3413.68 674.305L3413.43 674.958C3409.76 664.992 3410.34 664.96 3410 664.096 3409.61 664.52 3409.22 664.944 3408.84 665.368L3408.6 664.996C3408.13 666.488 3408.01 666.435 3407.5 667.921L3406.8 667.173C3406.57 667.42 3406.35 667.667 3406.12 667.914L3405.81 667.518 3405.4 667.867C3405.24 667.374 3403.69 662.67 3403.44 661.705 3402.78 662.698 3403.49 662.737 3399.27 674.485 3399.08 675.022 3398.68 675.544 3398.55 676.085L3398.29 675.653C3396.06 686.651 3396.66 689.147 3394.7 693.023 3394.54 692.426 3395.36 691.518 3394.14 691.235 3393.1 690.995 3393.68 692.239 3393.49 692.745L3393.22 692.012 3392.84 692.361C3390.04 687.07 3390.87 682.17 3388.88 674.872 3382.87 686.793 3388.87 687.073 3384.08 699.089 3383.69 697.835 3383.3 697.899 3382.88 696.668 3382.21 698.858 3382.65 698.846 3381.5 700.972L3381.14 700.497C3380.33 702.329 3379 707.872 3378.13 708.817L3377.53 707.883C3377.4 708.006 3375.58 709.636 3373.84 708.467 3373.76 708.703 3372.97 710.932 3371.86 711.32 3371.64 711.398 3371.35 710.801 3368.67 711.354 3368.04 709.242 3367.77 709.285 3367.13 707.196 3366.39 708.646 3365.54 705.104 3365.49 704.914 3364.61 707.178 3364.56 707.15 3364.33 708.135L3363.97 707.11C3363.82 707.571 3363.68 708.031 3363.53 708.492L3363.16 706.885C3363.13 706.946 3362.76 708.029 3361.88 707.423 3361.61 708.154 3361.56 708.126 3361.28 708.865 3360.62 708.026 3360.54 708.066 3359.97 707.203L3359.67 708.593C3357.62 707.586 3357.55 707.614 3357.46 707.505 3357.31 707.882 3357.18 708.259 3357.03 708.636 3356.71 708.246 3356.4 707.855 3356.08 707.465 3355.75 707.775 3355.57 708.449 3353.97 707.613L3353.59 708.037 3353.11 707.344C3352.91 707.68 3352.71 708.017 3352.51 708.354 3351.18 707.702 3351.05 708.624 3350.86 708.849 3349.18 707.603 3347.39 708.535 3347.1 707.944 3346.5 706.741 3347.15 705.513 3345.36 706.469L3344.88 706.019 3344.21 706.28C3342.22 704.616 3342.98 704.55 3342.7 702.691 3342.64 702.912 3341.16 708.78 3339.03 704.96L3338.5 705.875C3338.01 704.625 3338.17 704.62 3336.68 703.538 3335.29 703.504 3335.11 703.341 3334.33 703.826 3334.11 702.526 3334.04 702.562 3333.77 701.239L3333.42 701.839C3333.26 701.161 3333.09 700.482 3332.92 699.804L3332.63 700.267 3332.4 699.906C3331.57 701.728 3332.02 701.74 3331 703.564 3330.87 703.18 3330.74 702.796 3330.61 702.412 3329.83 703.296 3329.69 702.289 3329.39 701.004 3329.28 701.274 3329.65 701.598 3329.3 701.828 3328.88 702.11 3328.38 701.219 3328.34 701.158L3328.05 701.511C3327.75 701.192 3327.46 700.872 3327.16 700.553 3326.24 701.224 3326.72 701.538 3326.62 701.475 3326.25 701.233 3325.77 701.003 3325.6 700.719L3325.21 701.299C3324.47 700.366 3324.05 700.471 3323.64 699.514L3322.94 700.58C3322.41 699.467 3321.22 698.427 3320.69 697.313 3319.75 695.329 3319.5 693.291 3318.55 691.307 3318.44 691.071 3317.73 690.957 3317.55 690.73 3317.15 690.232 3317.29 689.667 3316.82 689.18 3316.67 689.022 3316.2 688.897 3315.8 688.918L3315.25 688.494C3314.51 688.881 3314.55 688.874 3313.44 688.96 3313.19 688.68 3312.94 688.4 3312.69 688.119L3312.28 688.716C3310.37 685.58 3306.48 680.478 3305.31 664.612 3304.51 671.877 3304.72 671.857 3303.86 675.347 3303.68 676.085 3303.01 676.791 3302.86 677.531L3302.53 676.753C3302.43 676.969 3301.7 678.5 3301.35 679.469L3301.35 679.473C3301.16 679.172 3300.55 678.196 3299.71 675.633 3298.35 678.041 3298.91 681.198 3298.25 678.721 3297.71 680.909 3297.35 680.852 3296.71 683.042 3296.52 682.626 3296.33 682.211 3296.14 681.795 3295.47 682.723 3295.55 682.697 3295.24 683.677L3295.01 682.954 3294.66 684.579 3294.41 684.038 3294.02 684.764 3293.54 684.116C3292.47 689.089 3289.96 692.115 3289.42 693.954L3289.14 693.573C3288.81 694.188 3288.76 694.151 3288.51 694.766L3288.39 694.431C3285.62 699.23 3285.93 699.226 3284.84 704.173L3283.71 702.675C3282.67 703.872 3284 705.357 3282.28 704.314 3282.09 704.715 3281.89 705.116 3281.7 705.517L3281.15 704.886 3279.83 706.438C3279.18 706.522 3278.44 706.385 3277.79 706.47 3277.34 706.528 3277.14 706.785 3276.69 706.844 3276.44 706.876 3276.17 706.784 3275.97 706.708L3275.23 706.642C3272.57 710.518 3272.81 710.929 3272.38 710.649 3272.01 710.404 3272.15 710.05 3271.75 709.814L3271.3 710.187C3271.16 709.635 3271.01 709.083 3270.87 708.531 3270.6 709.645 3270.75 709.622 3270.05 710.676L3269.62 710.027 3269.35 710.415 3269.03 709.987C3268.46 710.965 3268.16 710.934 3268.02 710.879 3267.52 710.671 3267.11 710.417 3266.75 710.16L3265.53 710.912C3264.77 710.847 3264.21 710.538 3263.45 710.473 3263.15 710.447 3262.78 711.112 3262.75 711.171 3262.49 710.566 3262.54 710.549 3261.44 710.13 3261.04 710.59 3260.66 710.867 3260.57 710.928L3259.81 710.333C3258.48 711.223 3258.45 710.29 3258.4 710.179 3257.94 711.555 3256.73 711.264 3255.13 711.834 3254.7 711.28 3254.28 710.725 3253.85 710.17 3252.66 711.565 3252.47 711.753 3252.33 711.887 3251.18 709.145 3251.15 709.185 3250.67 706.375 3250.62 706.49 3250.63 706.484 3250.17 708.163L3248.99 703.428C3248.81 703.271 3247.98 703.501 3247.79 703.343 3247.27 702.911 3247.41 702.384 3247.19 701.908 3245.95 699.319 3244.06 696.778 3243.38 694.15L3243.04 694.51C3241.87 694.182 3241.56 694.337 3241.27 694.941 3240.57 691.697 3240.54 691.736 3240.01 688.456L3239.85 688.841C3239.34 684.847 3239.32 684.873 3238.92 680.851 3238.45 683.041 3238.6 683.033 3237.24 685.134 3236.98 684.803 3235.63 681.963 3235.5 681.686 3234.06 681.408 3234.37 681.288 3233.56 680.695L3233.06 681.044C3232.58 680.497 3232.38 680.504 3231.62 673.758 3231.19 676.536 3231.19 676.508 3230.7 679.307L3230.42 678.942C3229.56 680.395 3228.98 682.064 3228.89 682.338L3228.25 681.545C3228 682.243 3227.75 682.94 3227.5 683.638 3227.32 683.252 3227.14 682.866 3226.96 682.48L3226.8 682.782C3225.35 673.597 3225.72 673.58 3225.25 672.807 3224.32 677.332 3224.43 677.305 3224.33 677.695 3223.91 675.473 3224.04 675.504 3223.8 673.888 3223.48 675.015 3223.82 676.198 3223.02 677.278 3222.72 677.694 3222.38 676.447 3222.21 676.016 3222.15 676.143 3221.73 677.008 3221.37 677.587L3220.21 676.206C3219.73 678.233 3221.2 678.786 3217.99 679.108 3217.36 676.7 3216.97 676.75 3216.46 675.476 3214.53 676.719 3215.14 676.808 3214.11 678.238 3213.81 677.922 3213.5 677.605 3213.19 677.287 3212.65 678.382 3211.45 679.396 3210.76 680.474 3210.1 681.528 3209.87 682.631 3209.12 683.675L3208.55 683.267C3207.71 685.368 3207.04 685.25 3204.74 686.45 3202.7 687.512 3202.54 687.477 3201.76 688.82 3199.92 688.286 3196.44 690.788 3196.12 691.013L3194.08 690.486C3192.89 693.522 3193.01 693.515 3192.8 693.765 3192.76 693.737 3192.17 693.244 3192.02 693.564 3191.46 694.836 3191.4 696.147 3190.74 697.41 3190.68 697.514 3190.14 697.338 3190 697.425 3188.8 698.165 3188.21 699.412 3188.12 699.594 3187.62 700.626 3187.38 701.682 3186.75 702.699 3186.3 701.949 3185.9 702.032 3185.56 701.255 3184.76 703.285 3183.93 703.164 3182.89 705.174 3182.85 705.034 3182.48 703.855 3182.05 703.454 3181.92 703.821 3181.8 704.188 3181.68 704.555L3181.29 703.995C3181.18 704.22 3180.63 705.471 3180.24 706.82 3179.55 706.108 3179.52 706.05 3179.47 705.98L3179.15 706.308C3179.09 705.972 3178.95 705.984 3178.3 702.106 3177.82 702.808 3177.99 702.789 3177.77 703.84 3177.25 703.251 3177.26 703.29 3177 702.646 3176.41 705.214 3175.63 705.138 3175.06 707.319 3174.5 706.783 3174.58 706.799 3174.38 706.238 3174.01 707.164 3173.58 709.01 3173.52 709.252L3173.43 708.807 3173.3 709.08 3173.24 708.676C3172.47 710.782 3172.31 710.742 3171.85 712.837 3170.95 711.285 3170.83 711.327 3170.23 709.734L3170.11 710.146 3169.46 709.272C3166.56 715.785 3165.81 715.71 3164.54 722.349 3164.38 721.341 3164.33 721.37 3164.15 720.379 3163.53 723.458 3162.97 723.413 3161.44 729.232 3161.31 728.735 3161.18 728.237 3161.05 727.74L3160.19 729.277 3158.1 727.305C3155.03 730.266 3155.72 730.579 3153.27 730.947 3148.98 731.592 3147.91 731.974 3145.9 730.198L3144.9 731.065 3143.57 728.591C3143.32 728.859 3143.9 729.1 3140.42 730.902 3139.44 731.319 3140.08 731.485 3139.09 731.92 3138.36 732.242 3138.5 731.781 3136.22 728.97L3134.76 730.758 3133.81 731.57 3132.73 729.963 3130.61 731.516C3130.26 731.68 3129.42 731.298 3129.07 731.462 3128.55 731.707 3128.9 732.132 3128.63 732.445 3127.4 733.862 3126.97 733.711 3124.71 734.838L3122.05 733.881C3120.43 733.887 3118.81 733.893 3117.19 733.899 3116.54 734.062 3116.32 734.45 3115.69 734.622 3115.04 734.8 3114.18 734.779 3113.48 734.911 3108.13 735.909 3108.21 735.959 3107.71 735.994L3105.02 734.631C3103.79 735.029 3102.9 735.605 3101.67 736.004 3101.2 736.154 3100.6 736.247 3100.03 736.247 3098.78 736.247 3097.55 735.928 3096.31 736.005 3094.5 736.118 3092.88 736.572 3091.13 736.801 3090.63 736.865 3086.83 737.362 3084.7 736.719 3078.16 737.052 3082.11 735.229 3081.17 732.399 3080.66 730.869 3079.69 729.371 3079.24 727.838 3079.02 728.193 3078.81 728.548 3078.59 728.903 3078.39 728.279 3077.54 728.365 3074.6 721.225 3073.35 718.192 3072.34 715.141 3071.27 712.095L3070.96 712.537C3069.6 710.191 3070.07 710.18 3069.73 707.775L3069.37 708.583C3068.78 704.978 3058.27 668.12 3057.76 667.477 3057.51 667.596 3057.13 667.773 3056.17 669.399 3054.9 667.354 3055.44 667.081 3053.89 666.968 3052.96 666.9 3052.81 667.658 3052.8 667.73 3052.71 668.195 3052.92 668.676 3052.67 669.13 3052.22 668.178 3052.28 668.215 3051.94 667.222 3051.87 667.547 3051.76 667.879 3051.47 668.179 3051.34 668.306 3051.52 667.895 3051.41 667.766 3050.8 668.523 3051.77 668.538 3051.29 669.311 3050.63 670.388 3049.86 668.046 3049.82 667.925 3048.7 670.005 3048.98 669.995 3048.56 672.123L3048.35 671.678 3047.99 673.246C3047.04 670.513 3046.54 670.589 3045.69 667.874L3045.27 668.614C3042.85 664.766 3041.82 664.886 3040.81 660.898L3040.53 661.236C3039.53 656.785 3039.55 656.809 3037.73 652.428 3037.7 652.55 3037.12 654.769 3036.71 653.895 3036.5 653.457 3036.49 653.005 3036.35 652.562L3036.16 652.85C3034.92 649.34 3035.2 649.345 3033.43 645.878 3033.15 646.996 3033.18 646.964 3032.61 648.088L3032.21 646.796C3031.73 647.586 3031.22 648.852 3031.14 649.032 3030.73 647.51 3031.03 647.512 3029.97 646.043 3029.59 645.514 3029.15 646.899 3029.12 646.978 3028.58 645.347 3029.01 645.336 3027.94 643.764 3027.35 646.72 3026.37 654.471 3026.35 654.583 3026.31 654.282 3026.27 653.982 3026.23 653.68 3025.15 657.674 3025.18 657.645 3023.87 661.641 3023.75 661.123 3022.87 657.398 3021.11 655.235 3021.06 655.352 3020.62 656.45 3020.21 656.662 3019.96 656.792 3019.5 656.68 3019.07 654.606 3018.38 657.218 3013.38 668.852 3009.9 673.397 3009.46 673.967 3005.23 669.444 3005.19 669.381 3004.79 668.596 3005.86 668.547 3002.44 659.395 3001.86 661.934 3001.24 661.861 3000.61 664.39L3000.21 663.104C3000.08 663.468 2999.94 663.831 2999.8 664.195L2999.66 663.778C2997.6 668.792 2995.8 676.075 2993.17 684.461L2993.02 683.937 2989.97 689.688C2989.63 689.51 2988.43 689.602 2987.63 688.444 2987.47 688.79 2987.49 689.162 2987.14 689.48 2986.8 689.787 2985.91 689.942 2985.63 690.26 2984.15 691.987 2983.41 693.823 2981.93 695.55 2981.68 695.211 2980.82 694.998 2980.57 694.658 2980.47 694.522 2981.07 694.406 2980.98 694.268 2980.89 694.132 2980.33 694.153 2980.16 694.032 2978.14 692.647 2980.35 692.341 2978.33 690.941 2975.02 691.063 2976.98 688.777 2974.9 684.71 2973.79 686.261 2973.92 686.231 2973.41 687.82 2973.19 687.229 2973.27 687.247 2972.67 686.731 2967.83 695.13 2967.87 695.14 2967.7 695.244 2966.86 695.754 2965.81 694.705 2965.73 694.628L2965.42 694.959C2964.63 693.364 2964.32 693.433 2963.31 691.863 2963.09 692.964 2963.04 692.937 2962.81 694.054L2959.99 693.528C2956.83 692.572 2957.25 692.339 2956.92 692.319 2956.67 692.303 2956.42 692.597 2956.28 692.504 2955.7 692.128 2955.54 691.657 2955.24 691.224 2954.91 691.654 2954.58 692.083 2954.25 692.512 2953.63 692.165 2953.59 692.21 2952.7 691.972 2952.61 691.773 2951.72 689.712 2949.57 689.833 2948.73 689.245 2948.75 689.274 2948.31 688.626L2947.84 689.122C2947.09 688.584 2946.92 688.675 2946.31 688.078 2944.72 689.112 2944.41 688.039 2944.31 687.833 2944.27 687.896 2943.83 688.505 2943.21 688.505 2941.95 688.505 2938.4 682.79 2938.12 681.613L2937.56 681.937 2937.18 681.235 2936.95 681.746C2936.25 679.882 2936.12 679.929 2935.08 678.126 2934.47 679.325 2934.41 679.274 2933.87 680.478 2933.53 679.369 2933.6 679.392 2932.92 678.288 2932.65 679.011 2932.82 679.012 2931.99 679.644 2931.08 680.334 2931.69 679.424 2931.29 678.658 2930.99 679.188 2931.23 679.86 2930.33 680.24 2929.81 680.456 2929.81 679.659 2929.64 679.357L2929.3 680.182C2929.03 679.577 2928.77 678.972 2928.5 678.367L2928.12 679.572C2928.11 679.557 2928.13 679.57 2925.22 676.94L2925 677.308 2924.57 676.768 2924.13 677.229C2923.57 676.714 2919.45 672.9 2918.46 670.558L2918.18 671.036C2918 670.274 2916.53 664.071 2915.24 661.553 2915.14 661.356 2913.4 661.28 2912.14 659.128 2911.88 659.542 2911.63 659.957 2911.37 660.372L2910.93 659.745C2909.23 663.96 2910.5 664.027 2907.9 668.175L2907.03 667.504C2905.46 670.614 2904.43 670.503 2902.22 677.12L2901.95 676.312C2901.21 678.002 2901.38 678.602 2900.78 680.303L2900.18 679.664C2899.44 681.751 2899.36 681.717 2898.56 683.774L2898.11 682.804C2895.74 688.003 2895.23 690.229 2895.08 690.88 2894.83 690.315 2894.59 689.75 2894.34 689.185L2894.05 689.861C2893.6 688.98 2893.58 689.008 2892.93 688.133 2892.2 688.786 2892.2 688.745 2891.45 689.405 2891.01 688.097 2890.57 686.78 2889.7 685.514 2889.61 685.389 2889.16 685.632 2888.9 685.695L2888.58 685.092 2888.44 685.614 2887.68 684.971 2887.16 685.732C2886.6 685.208 2886.27 684.903 2885.27 678.555 2884.75 680.682 2884.71 680.648 2884.45 682.799 2884.26 682.252 2884.09 681.706 2883.91 681.16 2883.74 681.68 2883.58 682.2 2883.42 682.721 2883.31 682.227 2882.35 682.31 2880.69 676.644 2879.42 679.389 2879.09 679.349 2878.99 679.588 2878.24 678.786 2878.05 678.833 2877.67 677.985L2877.48 678.513C2875.99 676.066 2876.29 672.548 2875.64 673.667 2875.46 672.933 2875.27 672.197 2875.09 671.462 2874.55 672.206 2873.97 671.979 2873.29 672.294 2872.34 673.323 2873.09 673.661 2872.93 673.586 2871.48 672.933 2871.61 672.916 2871 672.026 2870.16 672.271 2870.18 672.049 2869.88 671.656L2869.43 672.885C2868.16 670.329 2868.26 670.357 2867.07 667.767 2866.28 668.961 2866.25 668.924 2866.19 669.026L2865.76 668.185C2865.44 668.808 2865.49 668.781 2865.1 669.376 2864.68 668.616 2864.69 668.652 2864.2 667.87 2864.13 667.929 2863.55 668.377 2862.54 668.298 2861.14 664.816 2860.3 661.294 2859.32 657.785 2858.34 654.273 2857.65 650.746 2856.65 647.235 2856.62 647.115 2856.65 647.518 2856.42 647.583L2856.29 647.104C2856.02 648.251 2856.09 648.227 2855.6 649.368 2855.45 649.09 2855.31 648.811 2855.16 648.533 2854.45 649.529 2853.44 650.915 2850.88 661.443 2849.37 658.324 2848.22 658.493 2846.6 655.41 2846.4 655.742 2846.19 656.075 2845.99 656.408L2845.46 655.486 2844.99 656.009 2844.54 655.621C2843.31 655.931 2843.29 656.617 2842.73 656.075 2842.63 656.249 2842.62 656.206 2841.32 658.232L2841.02 657.795C2839.18 659.186 2838.26 658.994 2837.7 660.6L2837.35 660.092C2837.07 660.381 2836.79 660.671 2836.52 660.96 2836.06 660.766 2835.94 660.834 2835.74 661.112L2835.38 660.588C2835.24 660.86 2831.36 666.131 2831.21 666.266L2830.76 665.83C2830.35 666.691 2830.37 666.666 2830.1 667.516L2829.25 666.852C2829.08 667.357 2828.91 667.862 2828.75 668.366L2828.46 667.83C2824.66 674.513 2827.86 675.455 2823.9 681.511 2818.53 680.029 2820.81 679.408 2819.49 676.537 2819.35 676.247 2818.44 674.263 2817.29 672.974 2816.95 673.63 2817.4 674.438 2814.65 673.805 2811.46 669.633 2813.37 666.186 2810.97 659.483 2810.67 661.398 2811.03 661.414 2809.4 663.182 2809.19 662.7 2808.61 660.822 2808.35 660.142L2807.96 660.547C2807.81 659.88 2807.65 659.214 2807.5 658.547 2806.89 659.678 2807.08 659.66 2806.78 661.002 2806.24 660.283 2806.26 660.307 2805.72 659.582L2805.25 659.977C2804.81 658.725 2804.79 658.767 2804.39 657.504L2804.05 657.939C2803.59 657.021 2803.02 655.73 2802.93 655.537L2802.43 656.006C2802.38 655.532 2802.32 655.057 2802.26 654.583 2802.23 654.69 2802.05 655.437 2801.47 655.88 2799.37 648.362 2800.74 648.349 2798.91 640.841 2795.78 653.162 2797.98 656.722 2794.66 661.916 2794.06 661.49 2794.07 660.88 2793.91 661.39 2793.51 662.613 2793.14 663.838 2792.89 665.069L2792.62 664.686C2790.88 668.289 2788.57 671.661 2784.24 678.024L2783.28 677.318C2781.19 679.619 2779.59 682.001 2777.49 684.302 2777.41 684.392 2776.97 684.299 2776.85 684.382 2775.68 685.218 2774.49 686.065 2773.73 686.986 2773.36 686.713 2773 686.439 2772.64 686.165 2772.47 686.464 2772.3 686.764 2772.13 687.063 2771.51 686.47 2771.56 686.497 2771.28 685.872L2770.89 686.992 2770.35 686.613C2770.07 686.679 2770.5 686.954 2770.22 687.02 2769.97 687.079 2769.79 686.843 2769.52 686.811 2769.52 686.811 2769.05 687.302 2769.01 687.345 2768.88 686.899 2768.74 686.454 2768.61 686.009 2768.39 686.532 2768.42 686.522 2767.84 688.565 2767.81 688.447 2767.16 685.525 2766.82 687.147 2766.62 688.148 2766.65 689.156 2766.45 690.158 2764.71 691.213 2764.51 691.154 2763.81 692.409L2763 692.402C2762.38 693.524 2762.41 693.506 2762.35 693.601 2762.21 693.489 2762.03 693.343 2761.74 693.321 2761.24 693.283 2760.74 693.48 2760.24 693.443 2759.19 693.06 2759.53 692.369 2758.59 692.842 2756.97 692.334 2756.78 691.81 2755.48 692.467 2755.22 692.595 2755.03 692.826 2754.64 692.824 2753.45 692.584 2751.93 692.237 2751.44 692.541 2749.67 692.179 2747.58 683.109 2747.39 682.281 2743.31 664.623 2742.12 664.711 2738.28 647.054 2737.42 655.329 2735.73 655.246 2734.56 665.049L2734.12 663.859C2733.59 665.059 2733.4 665.644 2733.35 665.8 2731.32 659.887 2731.15 651.123 2729.4 641.377 2725.04 653.634 2726.27 653.772 2724.95 654.682 2723.11 647.134 2723.21 647.128 2722.92 646.854 2722.37 646.343 2722.45 647.168 2717.37 665.561L2717.11 665.012C2716.46 665.901 2716.63 665.881 2716.31 666.824L2716.06 665.136C2716.05 665.197 2715.75 666.569 2715.29 665.829 2714.3 670.929 2714.58 670.894 2713.92 676.033L2713.84 675.401C2713.16 685.928 2712.7 685.883 2710.99 693.755L2710.84 692.662C2710.8 692.908 2710.76 693.155 2710.72 693.402 2710.72 693.401 2710.23 690.788 2710.19 690.561L2709.97 692.174 2709.85 691.632C2709.53 693.572 2709.43 693.523 2708.22 697.5L2707.95 697.163C2707.78 697.869 2707.61 698.575 2707.43 699.281 2707.31 698.91 2707.19 698.538 2707.06 698.166 2705.7 700.654 2706.67 700.687 2705.57 703.224 2705.21 704.046 2704.38 704.823 2704.06 705.649 2703.85 705.342 2703.65 705.036 2703.44 704.729 2701.96 711.261 2699.56 713.877 2698.87 714.627L2698.83 714.627 2697.97 714.441C2697.1 712.595 2697.4 712.564 2695.36 710.907L2694.9 711.218 2693.66 710.965 2692.9 710.103 2691.8 710.075 2691.23 710.987C2690.31 710.495 2690.42 710.513 2689.81 709.947 2689.27 710.562 2689.22 710.508 2688.43 711.05 2681.2 712.291 2680.59 711.066 2678.91 707.79L2678.39 708.33 2678.01 707.917 2677.27 708.441C2675.61 708.395 2675.66 708.505 2674.03 708.351 2673.89 708.58 2672.76 710.459 2671.53 711.098 2670.08 711.842 2669.07 710.644 2667.55 711.369L2651.26 711.186C2649.81 710.398 2649.79 709.258 2648.61 708.393 2648.39 708.232 2647.75 708.334 2647.33 708.316 2646.87 708.297 2646.3 708.409 2645.95 708.282 2645.44 708.469 2644.94 708.655 2644.43 708.841 2639.25 708.392 2642.42 706.212 2638.68 706.326 2634.4 706.456 2634.2 706.386 2631.5 704.972 2630.01 704.188 2630.2 703.731 2627.99 704.094L2627 703.769C2620.88 703.986 2621.33 703.029 2620.77 700.386 2619.86 704.433 2621.45 704.609 2618.75 706.391L2618.35 705.873C2615.9 707.665 2617.42 705.149 2614.45 701.854 2611.51 706.45 2613.28 708.323 2611.16 711.901L2610.89 711.471C2610.71 711.899 2610.53 712.326 2610.35 712.753 2610.31 712.65 2610.04 711.883 2609.61 711.48 2608.54 713.522 2608.87 713.814 2608.57 714.691 2608.41 714.262 2608.26 713.832 2608.1 713.403 2607.91 714.142 2607.73 714.88 2607.54 715.619 2607.49 715.543 2606.86 714.574 2606.54 714.741 2606.04 715.001 2606.06 715.39 2605.92 715.724 2605.75 715.287 2606.06 714.599 2605.11 714.444 2604.64 714.368 2604.29 716.555 2604.26 716.74L2603.74 716.367 2603.42 717.588 2603.26 717.047C2603.06 717.792 2602.57 717.706 2602.34 718.448 2601.77 717.996 2601.25 716.005 2601.19 715.79 2600.97 717.27 2600.98 717.232 2600.71 718.713 2600.56 717.94 2600.41 717.167 2600.27 716.395 2600.06 717.541 2599.92 717.731 2599.84 717.842L2599.74 717.49 2599.32 718.349C2598.44 713.327 2598.86 713.36 2598.12 708.348L2597.94 709.344 2597.79 708.372C2597.14 716.897 2596.35 716.861 2596.36 717.6 2596.39 718.731 2596.99 719.851 2596.96 720.981 2596.93 722.316 2596.69 720.657 2595.78 719.401 2595.27 720.081 2594.76 720.761 2594.25 721.441L2593.42 719.906 2592.75 720.195C2591.7 719.286 2590.92 717.986 2590.3 719.156L2590.1 717.564C2589.36 720.45 2589.58 720.436 2588.69 723.324 2588.57 723.096 2587.88 721.727 2587.31 720.475 2586.21 720.975 2586.1 721.623 2585.39 724.642L2585.24 724.283C2584.81 724.639 2584.88 725.075 2584.72 725.473 2584.42 726.218 2584.2 726.969 2583.86 727.711 2583.82 727.653 2583.04 727.443 2581.97 716.908 2581.86 717.95 2581.76 718.991 2581.66 720.033L2581.45 719.016C2581.24 721.152 2580.99 723.224 2580.95 723.59L2580.82 722.741C2580.71 724.564 2580.72 724.54 2580.41 726.334 2580.25 724.15 2580.21 724.188 2580.06 721.973 2579.92 723.212 2579.78 724.452 2579.64 725.691L2579.55 724.694C2579.33 727.131 2579.47 727.101 2578.96 729.531L2578.91 729.497 2578.17 728.761 2577.92 729.159 2577.64 727.532 2577.37 728.663C2576.86 727.925 2575.9 727.979 2574.67 718.673 2574.36 720.142 2574.21 720.108 2573.86 721.57 2573.79 720.951 2574.17 720.333 2574.11 719.714 2574.1 719.65 2573.69 719.807 2573.68 719.744 2573.42 718.715 2573.45 717.676 2573.35 716.642L2573.19 717.227C2572.73 713.795 2572.74 713.839 2572.06 710.446L2572.02 710.879C2571.62 707.772 2571.59 707.782 2571.55 707.513L2571.4 708.163C2571.27 707.512 2571.15 706.861 2571.02 706.21L2570.57 706.731C2570.46 706.386 2570.69 705.981 2570.23 705.697 2570 705.554 2569.81 705.996 2569.62 706.153L2569.23 705.576C2569.05 706.048 2568.87 706.519 2568.69 706.991 2568.18 706.061 2567.85 706.126 2567.44 705.19L2567.12 705.512C2566.2 703.857 2566.78 703.839 2565.85 702.213 2565.67 702.852 2565.49 703.491 2565.3 704.13 2563.65 696.425 2564.57 693.193 2557.56 675.569 2556.74 677.489 2556.86 677.465 2556.26 678.249 2556.01 677.857 2555.74 677.465 2555.49 677.073 2555.03 679.783 2555.17 679.763 2554.61 682.464L2553.57 680.817C2550.87 683.683 2551.57 687.583 2550.05 684.559L2549.58 684.969C2549.44 684.545 2549.32 684.084 2548.74 683.74 2548.54 683.622 2547.99 684.095 2547.87 683.959 2547.31 683.315 2547.34 682.6 2547.15 681.916L2546.81 682.942C2545.9 680.593 2545.67 680.65 2545.04 678.246 2542.17 678.312 2543.16 678.887 2541.83 681.37L2540.52 678.918C2539.67 682.335 2539.46 685.778 2538.61 689.195 2538.39 690.075 2537.6 690.914 2537.32 691.791 2536.9 688.215 2536.85 688.223 2536.82 687.912 2536.4 692.471 2537.18 692.503 2534.63 696.933 2534.07 695.67 2534.13 695.706 2533.85 695.294 2533.04 696.647 2533.01 696.622 2532.64 697.992L2532.4 697.388C2531.68 699.146 2531.23 699.795 2531.09 700L2530.11 699.559C2529.57 700.168 2529.53 700.131 2529 700.717L2528.19 700.894C2527.27 699.602 2527.28 699.633 2527.21 699.523 2526.57 700.59 2524.8 702.137 2524.66 702.317 2523.95 702.019 2523.7 701.95 2523.27 702.327L2522.89 701.955C2521.97 703.289 2523.61 704.296 2520.5 703.922 2520.36 703.588 2520.26 703.334 2519.43 699.696 2518.58 703.268 2518.05 703.206 2517.02 704.953L2516.41 704.037C2516.2 704.332 2515.99 704.627 2515.78 704.921L2515.77 704.965C2515.15 704.267 2515.3 704.277 2514.66 703.546L2514.45 704.217 2513.88 703.386C2512.79 705.394 2511.57 705.271 2511.19 706.007 2511.01 705.983 2510.8 705.812 2509.89 706.293L2509.61 705.907 2509.23 706.79C2508.72 706.015 2508.73 706.056 2508.37 705.239 2508.32 705.323 2507.78 706.157 2507.16 706.196 2507.03 706.204 2507.05 706.175 2506 705.373 2505.62 706.001 2505.39 705.948 2505.08 706.6 2504.83 705.642 2504.58 704.682 2504.33 703.723L2503.55 704.22C2502.04 700.187 2501.97 700.214 2501.06 696.146 2500.48 699.706 2501.02 699.705 2499.53 703.2 2498.24 701.971 2498.78 701.929 2498.25 699.772 2498.08 700.271 2497.91 700.769 2497.74 701.268L2496.31 698.474C2495.52 700.004 2493.27 701.846 2490.53 709.664 2489.81 708.422 2489.36 708.01 2489.21 707.875L2488.78 709.294 2488.04 709.037C2487.81 709.739 2486.8 710.563 2486.37 714.102L2485.76 712.566C2485.57 713.357 2485.5 713.324 2485.29 714.091 2484.96 713.388 2484.91 713.423 2484.56 712.717 2483.94 714.184 2483.06 715.465 2482.9 715.7 2482.42 714.463 2482.47 714.499 2482.42 714.395 2482.29 714.564 2481.9 715.039 2481.36 716.586L2480.77 716.201C2480.23 717.039 2480.28 717.019 2480.04 717.898L2479.74 717.345C2479.25 719.936 2478.96 720.355 2478.79 720.607 2478.65 720.109 2478.52 719.61 2478.38 719.112 2478.17 719.453 2477.96 719.794 2477.74 720.134 2477.56 719.598 2477.38 719.062 2477.2 718.527 2476.94 718.869 2476.68 719.212 2476.42 719.554L2476.2 719.043C2475.81 719.277 2475.6 719.402 2474.47 722.588 2474.33 722.195 2474.17 721.801 2474.02 721.408 2473.67 722.017 2473.48 721.951 2472.8 722.509L2472.68 722.046C2471.86 724.94 2471.47 724.875 2470.87 727.788L2469.85 727.5 2469.33 725.67 2469.02 726.302C2468.47 725.087 2468.35 725.135 2467.83 723.934 2467.61 724.323 2467.38 724.712 2467.15 725.1 2466.65 723.961 2466.3 723.131 2465.1 710.644L2464.89 711.005 2464.39 708.098 2464.02 714.328 2463.52 708.351C2463.11 712.273 2463.04 712.233 2462.32 717.09L2461.73 714.707 2460.65 720.015C2459.47 716.412 2459.9 711.86 2459.16 715.465L2458.62 712.919C2458.03 718.087 2457.85 718.059 2456.79 723.211L2456.25 722.416 2455.79 723.429C2455.66 723.44 2453.08 724.286 2451.01 723.175 2446.89 724.34 2449.39 722.387 2448.4 720.293 2445.11 722.969 2441.83 725.644 2438.55 728.32 2438.31 727.968 2436.87 725.855 2435.38 723.941L2435.11 724.585C2434.2 722.157 2432.56 721.168 2432.44 720.946 2430.68 717.775 2428.77 714.606 2427.81 711.371L2427.35 712.108C2426.86 710.322 2426.74 710.359 2426.32 708.572 2426.08 708.965 2425.93 709.541 2425.9 709.626L2425.82 709.236C2424.55 712.245 2424.69 712.283 2424.35 712.343 2424.14 712.378 2424.63 712.232 2424.01 711.157L2423.81 711.568C2423.34 710.217 2423.13 709.493 2423.08 709.312 2422.61 710.656 2422.74 710.626 2422.49 711.486 2422.44 711.308 2422.11 710.056 2421.58 709.278L2421.36 709.883C2421.23 709.333 2421.09 708.783 2420.95 708.233 2420.44 710.579 2420.23 710.802 2420.03 711.01 2419.54 708.804 2419.5 708.843 2419.01 706.644 2418.55 707.819 2418.49 707.773 2418.25 708.976L2417.96 708.858 2417.71 710.237C2417.56 709.545 2417.4 708.852 2417.24 708.16L2416.56 709.956C2416.36 708.456 2416.28 708.497 2415.92 707.012L2415.5 708.029 2415.2 707.246 2414.9 708.032C2412.16 703.798 2412.22 703.82 2411.95 703.459 2411.21 705.288 2411.18 705.256 2411.13 705.413L2410.94 704.31C2410.75 704.948 2410.72 704.904 2410.51 705.545L2410.19 704.157C2409.98 705.488 2409.74 706.827 2409.1 708.132 2409.01 708.319 2408.62 707.805 2408.49 707.621 2406.62 711.731 2403.33 705.652 2403.2 705.403L2402.83 706.118C2400.28 703.879 2401.51 703.552 2401.03 703.585 2399.91 703.662 2400.43 703.885 2400.08 705.213 2398.53 702.198 2397.96 700.198 2396.33 688.834L2396.29 689.231C2395.87 686.937 2395.82 686.969 2395.62 684.683L2395.45 685.378C2395.25 683.955 2394.01 675.292 2393.33 667.578L2393.13 668.359 2392.9 667.076C2392.79 667.881 2392.68 668.687 2392.56 669.492 2392.16 666.388 2392.17 666.415 2391.58 663.332 2391.31 664.383 2391.47 664.356 2390.83 665.374 2390.27 660.987 2390.28 660.97 2388.94 659.592L2388.55 660.214 2388.14 659.736C2386.85 661.593 2387.41 661.612 2386.53 663.544L2385.89 662.79C2384.68 664.049 2383.94 664.818 2381.53 672.735 2380.54 675.973 2379.28 680.407 2377.59 686.559L2377.51 686.198C2377.1 688.434 2376.29 689.03 2375.59 690.708 2373.1 688.782 2373.99 685.38 2372.42 678.098L2372.26 678.879C2372.13 678.228 2371.31 674.108 2370.44 670.751L2369.93 672.844C2369.48 667.215 2369.45 667.244 2368.96 666.248 2366.85 672.812 2367.48 672.82 2365.3 679.368 2361.64 665.022 2362 665.017 2361.63 663.773L2361.59 664.115 2361.33 663.792 2360.83 664.38C2360.25 663.574 2359.1 662.842 2358.77 662.01 2358.18 660.555 2358.33 659.061 2358.08 657.587 2357.36 661.466 2357.6 661.43 2357.01 665.342 2356.76 664.903 2356.51 664.465 2356.27 664.027 2353.57 668.628 2351.26 686.424 2350.25 680.258L2350.17 680.727 2350.03 679.744 2349.83 680.996C2349.5 678.94 2349.37 678.587 2349.29 678.38L2349.21 679.03C2346.99 669.393 2348.03 669.397 2345.94 659.774 2345.75 660.539 2344.19 666.586 2343.73 669.338 2343.47 668.658 2343.39 668.703 2343.2 668.046 2342.12 668.92 2340.63 685.781 2340.5 687.324L2340.38 686.467C2339.55 692.161 2338.63 693.564 2338.24 694.16L2337.8 693.211 2337.54 694.041 2337.25 693.435C2336.66 698.999 2336.92 698.972 2335.65 704.478L2335.38 703.877C2333.66 706.993 2334.55 702.994 2332.22 699.966 2332.19 699.991 2331.66 700.453 2331.51 700.118 2329.87 696.589 2330.58 696.565 2329.08 693.022 2328.71 693.839 2328.46 693.79 2328.29 694.63 2327.47 689.089 2327.15 689.143 2326.28 683.563L2326.04 684.543C2325.26 679.967 2324.81 680.013 2324.31 674.313L2324.07 674.882C2320.05 657.121 2321.09 657.083 2320.51 655.552 2320.47 655.43 2320.01 655.759 2319.74 655.715 2319.49 655.673 2319.57 655.49 2319.46 655.38 2315.46 669.281 2316.54 669.332 2315.97 670.524 2315.81 670.863 2312.91 672.871 2312.29 677.669L2312.09 677.101C2312.01 677.495 2311.13 682.284 2311.05 682.735L2311 682.741C2310.93 682.406 2310.87 682.071 2310.8 681.736L2310.61 683.905 2310.48 683.223C2310.46 683.485 2310.36 684.874 2310.15 686.486L2310.07 685.475C2309.74 688.337 2309.4 688.306 2309.15 691.181 2309.05 690.071 2308.95 688.961 2308.84 687.85 2308.41 690.839 2308.19 690.791 2307.89 693.795 2307.74 692.919 2307.61 692.043 2307.47 691.168 2307.28 692.459 2307.28 692.437 2307 693.704 2306.93 692.574 2306.85 691.445 2306.78 690.315 2306.73 690.532 2306.66 690.747 2306.62 690.964 2306.54 691.453 2306.51 691.943 2306.42 692.431 2306.16 688.442 2306.03 687.664 2305.97 687.25 2305.74 690.068 2305.7 690.035 2305.33 692.867 2305.18 690.273 2305.13 690.301 2304.94 688.387 2304.41 694.884 2304.54 694.865 2304 696.976L2303.8 696.39 2303.68 696.722 2303.51 696.256 2303.25 699.105C2303.14 698.228 2303.12 698.263 2302.72 696.064 2302.43 696.941 2302.4 696.917 2302.23 697.804L2302.01 695.225 2301.88 695.713 2301.8 695.243C2301.18 695.943 2301.44 695.929 2301.38 695.984L2301.09 695.543C2301.07 695.649 2300.23 700.594 2300.15 701.033 2300.09 700.691 2300.09 700.725 2299.44 698.173 2299.04 703.422 2299.22 703.389 2298.34 708.593 2298.04 707.034 2297.99 707.061 2297.77 705.512 2296.99 717.306 2296.03 717.287 2295.64 717.507L2295.2 716.959C2293.72 718.485 2293.79 718.487 2293.61 718.607 2293.31 718.229 2292.59 717.939 2292.15 717.586 2291.73 717.248 2291.19 716.917 2291.04 716.538 2289.49 712.769 2289.95 712.76 2286.06 691.016L2285.81 691.904 2285.59 691.452C2285.41 691.615 2285.57 691.83 2285.38 691.994 2285.3 692.07 2285.31 691.657 2285.26 691.741 2285.14 691.947 2285.28 692.171 2285.16 692.377 2284.67 690.102 2284.5 690.151 2284.25 687.848 2283.86 689.945 2283.76 689.918 2283.34 692.033L2283.27 691.679 2283.15 692.288C2282.38 683.563 2282.68 683.59 2281.94 674.841L2281.89 675.455 2281.54 673.25C2281.44 674.695 2281.33 676.14 2281.23 677.585 2281.12 676.791 2281.01 675.996 2280.9 675.202L2280.74 676.421C2280.42 672.237 2280.67 672.268 2280.03 668.108L2279.94 668.793C2279.86 668.034 2279.78 667.276 2279.69 666.518 2279.43 667.3 2279.65 669.731 2278.44 674.699 2277.15 670.187 2277.73 670.182 2276.47 667.554L2276.4 667.934C2276.17 667.625 2276.02 667.128 2276 667.057L2275.93 667.441C2274.39 662.759 2274.22 657.235 2274.04 654.836 2273.57 661.318 2273.7 661.282 2273.13 667.745 2272.97 667.17 2273.02 667.195 2272.84 664.82L2272.79 665.2 2272.67 664.694 2272.63 665.145 2272.5 664.196C2272.24 665.132 2268.62 679.414 2267.48 681.341 2265.31 676.53 2265.85 676.495 2265.6 676.084 2265.37 675.709 2264.87 675.796 2261.53 671.579 2261.33 671.552 2260.3 671.416 2259.73 670.768 2259.31 670.3 2256.85 658.278 2256.09 656.345 2255.47 657.781 2255.47 657.74 2255.13 659.231L2254.91 658.416 2254.74 658.79 2254.6 658.134 2254.43 658.976C2253.3 654.219 2253.74 654.237 2253.05 649.447 2253.02 649.913 2252.58 657.919 2252.23 660.668 2252.13 659.582 2252.03 658.497 2251.94 657.411 2251.68 661.109 2251.69 661.087 2251.65 661.409L2251.52 660.746C2251.45 661.953 2251.38 663.161 2251.31 664.369L2251.27 663.863C2250.47 675.885 2249.77 675.866 2248.88 676.476 2245.77 674.879 2246.33 665.399 2241.94 654.755 2241.19 655.425 2241.14 656.205 2240.83 656.939 2239.89 659.152 2239.21 661.386 2238.19 663.592L2237.46 663.669 2237.01 664.253 2236.18 664.098C2234.14 667.226 2234.12 667.185 2233.97 667.456L2233.61 666.938C2232.51 670.647 2232.33 670.613 2231.29 674.302 2230.39 672.985 2232.56 672.862 2226.76 657.251 2226.3 656.009 2225.67 654.775 2224.86 653.568 2224.64 653.248 2222.8 653.29 2221.54 657.488 2221.18 655.272 2221.44 655.282 2220.53 653.086 2220.3 655.118 2221.29 655.163 2219.66 657.092L2219.15 656.425C2218.65 657.887 2218 657.775 2217.28 659.217 2215.05 658.524 2216.26 658.267 2215.73 656.627L2213.46 659.567C2210.61 654.413 2210.67 654.441 2210.39 654.001L2207.03 660.878C2206.75 660.598 2205.59 660.628 2205.3 660.348 2204.45 659.529 2204.19 658.616 2203.78 657.734 2202.89 655.788 2202.48 653.799 2201.41 651.869 2200.03 654.922 2200.24 654.898 2198.93 657.976 2198.66 655.991 2198.66 656.022 2198.48 654.024L2198.34 654.993 2198.12 653.855C2197.03 659.29 2196.57 664.862 2196.5 665.82L2196.28 665.201 2196 666.001 2195.77 664.758 2195.64 665.518C2195.45 664.306 2195.46 664.342 2195.39 664.067 2194.41 674.246 2195 674.215 2193.55 684.367 2192.55 681.554 2192.66 674.109 2192.1 672.331 2191.71 675.295 2191.73 675.262 2191.48 678.235 2191.25 676.735 2191.29 676.778 2191.06 675.289L2190.94 675.996C2190.82 675.692 2190.7 675.388 2190.58 675.084L2190.34 675.999 2190.09 674.658 2189.89 675.437C2189.58 674.105 2189.6 674.143 2189.2 672.831 2188.37 675.783 2188.75 675.78 2186.55 680.483L2185.97 674.069C2185.62 674.045 2184.73 675.115 2184.09 673.939L2182.62 676.466C2179.21 673.222 2179.31 672.819 2179.08 673.097 2178.95 672.586 2178.94 672.601 2178.34 670.601L2177.91 671.953 2176.85 667.511 2173.11 671.501C2171.86 669.516 2173.01 666.972 2171.49 668.933 2171.31 669.167 2171.32 669.424 2171.13 669.656 2170.52 669.247 2170.32 668.608 2169.27 668.434 2168.7 668.339 2168.05 669.937 2168 670.073 2167.02 668.544 2167.04 668.566 2166.31 666.992L2165.51 667.188 2164.11 665.026 2163.46 665.277C2160.12 659.165 2159.63 659.24 2157.01 653.036 2156.48 654.97 2157.01 655.014 2155.2 656.81L2155.01 655.809C2154.77 657.746 2154.57 657.713 2153.73 659.608L2153.53 657.885C2153.38 659.119 2153.22 660.353 2153.07 661.587L2152.86 661.028C2152.2 664.061 2151.91 664.011 2151.56 667.09L2151.35 664.784C2151.13 666.99 2151.15 666.95 2150.88 669.136 2150.82 668.925 2150.75 668.715 2150.71 668.504 2150.62 667.902 2150.61 667.299 2150.5 666.698 2150.4 666.809 2150.16 667.561 2150.13 667.637L2149.7 665.167C2149.62 665.344 2149.55 665.488 2149.31 667.414L2149.19 666.185 2148.99 668.283C2148.62 665.338 2148.58 665.362 2148.39 662.41 2148.15 665.45 2148.05 665.416 2147.88 668.456L2147.68 667.436C2146.35 673.47 2147.27 673.476 2146 679.24 2145.92 678.674 2145.85 678.108 2145.77 677.541L2145.53 678.251C2145.46 677.702 2144.79 674.796 2144.47 672.334 2143.21 679.01 2143.15 679.002 2143.07 679.582 2142.61 676.913 2142.46 676.953 2142.02 674.298 2141.3 676.311 2141.63 676.39 2141.11 679.449 2140.99 679.024 2140.87 678.598 2140.75 678.172 2140.48 681.04 2140.47 681.014 2140.22 683.882L2140 683.335 2139.7 683.895 2139.46 683.013C2139.21 683.79 2138.96 684.569 2138.7 685.347L2138.23 684.85C2138.15 684.99 2137.81 684.953 2137.15 686.919L2136.15 686.322C2135.33 687.298 2135.99 688.021 2131.47 691.448 2129.58 690.181 2130.41 689.778 2130.21 689.876 2129.25 690.341 2128.63 691.377 2128.55 691.515L2127.77 690.722 2127.25 691.437C2126.49 691.256 2125.81 690.622 2125.12 691.553 2125.05 691.41 2125.07 691.118 2124.75 691.146 2124.34 691.181 2124.61 691.609 2124.2 691.632 2123.86 691.652 2124.28 691.12 2123.97 691.19 2123.3 691.713 2123.82 691.755 2122.26 694.248 2120.26 691.509 2120.08 690.723 2120.01 690.407 2117.97 691.718 2118.66 690.014 2117.35 687.447 2116.76 688.747 2116.62 688.688 2115.99 689.967 2115.65 689.204 2115.33 688.441 2114.99 687.678 2114.63 689.435 2113.98 691.073 2113.87 691.367 2112.8 690.805 2111.38 688.159 2109.72 687.47L2108.95 687.863C2108.62 687.362 2108.05 686.889 2107.39 686.455 2107.12 686.277 2106.45 686.259 2106.21 686.071 2105.71 685.672 2105.66 685.191 2105.26 684.769 2105.18 684.683 2104.51 683.964 2103.44 683.908 2097.37 683.589 2095.98 684.258 2092.6 681.487 2089.94 680.432 2090.63 680.252 2088.94 678.885 2085.74 679.057 2085.84 678.783 2084.07 678.181 2083.95 678.141 2084.05 678.239 2083.65 678.988 2080.85 674.984 2084.46 673.647 2079.87 669.316 2079.59 670.126 2079.31 670.936 2079.02 671.746L2078.62 670.684 2078.17 671.15C2077.49 669.699 2077.73 669.706 2077.45 668.007 2077.05 672.383 2076.61 672.34 2075.66 676.679 2075.52 676.373 2075.37 676.066 2075.23 675.76 2073.86 681.373 2075.46 686.196 2072.41 692.6 2072.08 692.247 2072.29 692.256 2071.93 691.917 2071.22 693.615 2071.11 693.576 2070.46 695.265 2070.29 694.813 2070.13 694.361 2069.96 693.909 2069.65 694.538 2069.51 694.493 2069.36 695.11L2069.03 694.575C2067.98 697.923 2066.65 697.809 2066.19 701.779 2065.38 700.542 2065.11 700.542 2064.2 688.725L2064.07 689.899C2062.94 685.658 2063.96 685.668 2062.53 679.085 2061.47 682.452 2061.84 682.443 2061.4 685.831 2061.04 683.241 2060.98 683.271 2060.54 680.705 2060.05 684.721 2060.17 684.987 2059.64 685.556 2059.23 684.258 2058.68 683.888 2058.34 682.373L2058.23 683.042C2056.32 668.882 2055.29 652.437 2054.98 649.853 2054.26 652.306 2054.47 652.285 2054.29 654.778 2054.19 654.283 2054.09 653.787 2053.99 653.292 2053.33 656.755 2050.69 656.469 2050.79 657.802 2050.85 658.53 2051.41 659.248 2051.3 659.973 2051.13 659.561 2050.96 659.148 2050.79 658.735 2050.45 661.25 2051.09 661.271 2049.41 663.649 2048.91 663.395 2048.8 663.445 2048.26 663.683 2046.96 662.666 2047.47 662.629 2047.05 661.47 2046.53 663.344 2046.22 663.498 2046.09 663.355 2045.21 662.386 2044.64 661.37 2043.9 660.381L2043.17 662.837C2042.06 661.312 2042.47 661.306 2042.37 660.585 2042.27 661.247 2042.31 661.917 2042.07 662.572 2042.04 662.647 2041.78 662.356 2041.68 662.419 2040.94 662.894 2041.25 662.934 2040.41 666.196L2040.18 665.728C2039.42 668.405 2038.81 671.129 2038.71 671.599L2038.58 671.133C2038.38 672.063 2036.76 679.746 2036.92 682.786 2037.07 685.522 2037.65 685.607 2037.15 685.698 2036.61 685.798 2035.36 685.444 2034.73 687.201L2034.36 686.378 2034.28 686.793C2034.16 685.841 2034.09 685.882 2033.95 684.952L2033.87 685.439 2033.78 684.988C2033.41 687.792 2033.28 687.759 2033.06 689.074 2032.87 688.175 2032.69 687.277 2032.49 686.378L2032.34 686.847C2031.97 685.756 2031.66 683.713 2031.62 683.44 2031.52 684.028 2031.43 684.617 2031.33 685.205 2030.63 683.787 2030.8 683.818 2030.55 682.347L2030.2 683.335 2030.05 682.729C2029.52 686.808 2030.06 686.832 2029.07 689.436L2028.7 688.687 2028.44 689.238C2028.39 689.106 2027.4 686.483 2026.3 687.843 2025.3 687.377 2023.67 683.889 2023.1 686.36L2022.97 685.677C2022.77 686.885 2022.77 686.848 2022.61 688.057 2022.44 687.072 2022.26 686.087 2022.09 685.102L2021.78 685.534C2021.45 684.85 2020.12 678.764 2020 678.174L2019.78 679.14C2019.63 678.758 2019.65 678.365 2019.49 677.983 2019.46 677.905 2019.43 678.296 2019.41 678.217 2019.29 677.815 2019.33 677.407 2019.21 677.005 2018.7 682.784 2018.78 683.177 2018.48 685.315L2018.33 684.41C2017 689.396 2017.49 689.392 2016.46 694.391 2016.21 693.978 2015.39 694.162 2015.3 694.182 2014.93 694.266 2014.64 694.721 2014.42 694.567 2013.78 694.129 2013.33 691.848 2013.29 691.609 2012.88 693.239 2011.87 694.106 2011.64 694.305 2011.53 694.394 2010.9 694.478 2010.41 693.171L2010 693.835 2009.68 693.465C2009.01 696.106 2007.9 696.368 2007.79 696.472 2006.82 693.776 2007.36 693.751 2007.03 693.568 2006.69 693.38 2005.84 693.386 2005.66 693.158 2004.31 691.359 2003.9 689.445 2002.58 687.642 2002.35 687.935 2002.08 688.872 2002.05 688.98 2001.99 688.711 2001.06 685.037 1999.88 685.729 1999.72 685.329 1999.56 684.929 1999.41 684.529L1998.97 685.353C1998.43 683.487 1999.12 683.487 1998.88 683.363 1998.41 683.105 1996.78 683.615 1996.62 683.664 1995.91 682.703 1993.7 682.043 1992.98 681.083 1992.15 679.974 1992.32 678.768 1992.1 677.606 1991.68 678.861 1991.45 678.809 1991.12 680.084 1991.01 679.768 1990.9 679.453 1990.78 679.137 1990.74 679.253 1990.4 680.077 1990.17 680.58L1989.8 679.064C1989.58 681.116 1989.23 683.476 1989.17 683.86 1989.04 682.882 1988.91 681.904 1988.79 680.926 1988.04 693.347 1988.48 694.124 1985.94 694.212 1985.1 693.673 1985.07 693.625 1983.55 693.661 1982.79 692.008 1982.88 692.035 1982.37 690.392 1980.12 693.382 1978.73 693.07 1977.84 694.021 1977.38 693.009 1977.32 693.045 1976.81 692.02 1976.75 692.117 1976.36 692.806 1975.91 693.212 1974.54 692.753 1974.91 692.656 1974.21 691.954 1973.54 693.137 1973.67 693.127 1973.02 694.301L1972.54 693.694C1970.69 694.441 1971.28 693.472 1970.81 692.397 1969.02 694.471 1970.04 694.724 1967.59 695.64 1967.33 695.014 1967.34 694.601 1966.12 695.008 1962.38 696.259 1962.32 696.223 1961.9 696.502 1961 697.105 1960.63 696.504 1960.44 696.579 1959.41 696.994 1958.86 697.589 1958.15 698.116L1957.41 697.887 1957 698.262 1956.28 697.892C1955.58 698.407 1955.02 698.5 1954.41 697.943 1953.72 698.869 1953.72 698.824 1953.66 698.901 1953.29 698.539 1952.64 698.238 1952 697.959 1950.92 697.492 1951.09 697.48 1950.66 696.817L1950.23 697.216C1949.37 696.578 1949.08 696.677 1948.53 695.957 1948.38 696.181 1947.42 696.46 1944.44 700.347 1943.45 699.848 1943.24 700.032 1942.6 700.228L1941.96 699.605C1940.95 700.779 1941.93 701.222 1939.35 701.44 1938.71 701.978 1938.78 701.967 1937.8 702.39 1937.15 701.688 1937.04 701.746 1936.43 701.045L1936.06 701.933C1935.98 701.808 1935.98 701.817 1934.88 700.415 1933.52 701.366 1931.95 701.029 1931.36 702.786 1930.62 701.148 1930.67 701.182 1930.6 701.044 1930.13 701.986 1929.65 702.928 1929.18 703.87 1929.07 703.711 1928.21 702.506 1927.43 701.929 1927.07 702.451 1927.04 702.423 1926.65 702.929L1926.42 702.449C1926.29 702.87 1926.16 703.291 1926.03 703.712 1924.75 702.856 1924.82 702.842 1924.67 702.785 1924.49 703.053 1920.08 709.69 1919.12 705.318 1918.42 702.084 1918.04 698.838 1917.32 695.605 1917.06 696.215 1916.98 696.166 1916.73 696.796 1916.04 694.921 1916.21 694.936 1915.98 693.037 1915.67 694.377 1915.62 694.331 1915.15 695.677L1914.86 694.214C1914.79 695.053 1914.78 695.022 1914.44 697.717L1914.28 696.038 1914.15 696.399 1914.11 695.929C1913.73 697.634 1912.9 697.518 1912.12 699.226 1910.79 696.277 1910.72 693.245 1910.08 690.252 1906.43 673.255 1906.34 673.272 1906.08 671.793 1905.51 672.729 1905.39 672.688 1905 673.655 1904.75 672.917 1904.5 672.179 1904.25 671.441 1904.03 672.05 1904.28 672.051 1902.46 679.107 1899.96 671.368 1900.95 668.278 1898.67 662.886L1898.36 663.936C1898.26 663.494 1898.09 663.057 1897.95 662.618 1897.63 661.628 1897.27 660.641 1896.97 659.651L1896.74 660.288C1896.42 658.222 1896.72 658.243 1895.74 656.19L1893.99 661.924C1893.65 662.405 1892.38 662.712 1892.15 663.206 1891.22 665.247 1890.95 667.336 1890.57 669.41L1890.11 668.07C1889.47 670.02 1888.42 672.074 1888.25 672.42L1888.08 672.031 1887.95 672.315 1887.85 671.988 1887.61 673.345 1887.48 672.909C1886.89 673.925 1886.17 681.191 1885.58 683.753L1885.42 683.344C1884.76 686.409 1884.72 686.4 1884.67 686.665L1884.45 686.048C1884.21 686.695 1884.49 686.73 1883.72 687.152 1883.46 686.766 1883.54 686.765 1882.14 680.021 1882.14 680.021 1879.77 671.861 1879.57 671.152 1879.44 672.356 1880.01 673.562 1879.88 674.766 1879.77 675.786 1879.51 676.816 1878.84 677.795L1877.84 676.767C1876.53 680.277 1876.31 680.234 1874.63 683.695L1874.23 683.394C1874.05 683.839 1873.88 684.283 1873.71 684.728L1873.05 683.978 1871.74 686.384C1867.95 673.962 1868.32 673.945 1867.75 672.886 1867.56 673.927 1867.38 674.967 1867.19 676.008L1866.89 675.443C1865.87 677.276 1865.6 677.216 1865 679.076L1862.32 675.689C1861.11 676.028 1861.09 676.792 1860.5 676.197 1859.32 681.678 1859.13 681.647 1857.64 684.388 1854.73 682.01 1853.83 671.044 1850.16 662.907L1849.95 663.641 1849.65 661.836C1848.6 663.482 1847.47 667.384 1847.33 667.87 1846.07 667.17 1846.39 667.13 1846.11 666.264 1842.47 681.947 1840.57 684.363 1839.39 685.864 1839.25 685.469 1838.23 682.617 1837.8 680.918L1837.63 681.686C1836.49 679.584 1836.64 679.592 1836.17 677.452L1836.01 678.045C1834.86 671.043 1834.24 671.092 1833.12 664.074 1832.94 664.354 1832.07 665.62 1831.19 667.626 1831.13 667.453 1830.66 666.16 1830.31 665.47 1829.39 668.231 1829.29 668.201 1829.22 668.439 1828.22 664.916 1828.97 664.926 1827.83 661.443 1827 665.226 1826.86 665.195 1825.99 668.989 1825.34 664.186 1825.65 664.212 1824.42 659.396L1822.94 667.095C1820.71 659.715 1820.04 659.774 1819.52 652.348 1818.31 660.013 1819.26 660.008 1816.82 667.6 1814.82 663.204 1815.17 663.201 1814.4 658.726L1814.24 659.305C1814.06 658.911 1813.87 658.518 1813.68 658.124 1813.36 659.587 1813.21 659.541 1812.89 661.011L1812.85 660.632C1812.74 661.263 1811.78 666.926 1810.96 668.495 1810.54 668.104 1810.57 668.139 1810.3 667.708L1810.03 668.741C1809.91 667.734 1809.79 666.727 1809.67 665.721 1809.55 666.793 1809.43 667.865 1809.32 668.937L1809.27 668.432C1809.16 669.059 1808.99 669.967 1808.46 671.561L1808.35 671.113C1808.07 671.212 1807.66 672.486 1807.62 672.607 1807.19 670.67 1807.2 670.706 1806.85 668.747 1805.61 672.307 1805.44 676.094 1804.69 674.002 1804.16 674.818 1804.08 674.779 1803.66 675.583L1803.36 675.017C1802.17 676.257 1802.82 676.305 1801.67 677.53L1801.3 676.912C1801.05 677.501 1801.15 677.493 1800.76 677.947 1800.26 676.138 1799.87 676.19 1799.17 674.396L1798.73 675.008C1798.06 673.265 1796.22 671.249 1795.73 670.376 1795.52 670.751 1795.32 671.126 1795.11 671.5L1794.71 671.01C1794.19 671.32 1793.22 671.902 1791.91 675.649 1790.79 668.869 1790.38 668.932 1787.93 662.244 1787.58 663.696 1787.5 663.651 1787.1 665.101L1786.76 664.224 1786.66 664.56C1786.41 662.792 1786.36 662.831 1786.08 661.04 1785.9 661.37 1785.73 661.701 1785.55 662.031 1785.36 661.075 1785.18 660.119 1784.99 659.163L1784.8 660.18C1784.67 659.725 1784.53 659.27 1784.4 658.814 1783.46 663.98 1782.95 663.928 1780.98 669.059 1780.68 667.538 1780.9 667.563 1780.15 666.109L1779.97 667.64 1779.85 667.312C1779.37 670.817 1779.89 670.83 1777.73 674.184 1777.28 673.527 1776.92 669.854 1776.89 669.477 1776.66 670.426 1776.43 671.375 1776.2 672.324L1775.98 670.863C1774.32 680.076 1775.03 680.059 1772.67 689.277 1772.23 688.452 1771.6 688.503 1770.58 680.971L1770.3 682.523C1770.2 681.693 1769.91 679.464 1768.18 672.176 1768.07 672.962 1767.95 673.748 1767.84 674.534L1767.76 673.795 1767.65 674.331C1767.64 674.259 1764.36 662.376 1764.34 662.357 1764.04 663.125 1764.07 663.1 1763.88 663.896 1763.53 662.92 1762.57 660.595 1761.92 658.128 1761.49 659.335 1761.03 661.215 1760.97 661.484L1760.57 660.539C1760.1 663.069 1759.93 663.036 1759.43 665.563L1759.05 663.112C1756.07 669.396 1756.32 687.28 1750.53 691.104 1749.82 689.563 1749.3 688.005 1748.44 686.48 1748.38 686.368 1748.37 686.779 1748.11 686.793 1745.98 686.915 1746.79 686.326 1744.38 681.783 1744.29 681.928 1743.98 682.326 1743.9 682.18 1742.96 680.499 1742.34 678.786 1741.75 677.074L1741.54 677.572C1740.59 672.114 1740.97 672.122 1739.96 668.158 1739.47 669.162 1739.29 669.821 1739.26 669.966 1738.97 668.813 1739.08 668.837 1739.05 668.74L1738.9 669.274 1738.72 667.348C1738.61 668.327 1738.67 668.299 1738.43 669.262L1738.28 668.86 1738.16 669.398C1736 656.653 1737.31 656.643 1734.66 643.905 1734.62 644.519 1734.44 647.993 1734.14 651.587 1734.06 650.549 1733.97 649.511 1733.88 648.472 1733.82 650.1 1733.76 651.728 1733.69 653.355L1733.61 651.875C1733.54 652.904 1733.47 653.933 1733.4 654.962L1733.36 654.457C1732.95 659.393 1732.84 659.369 1731.45 664.261 1730.52 663.119 1730.69 664.573 1729.67 667.06 1729.09 664.951 1729 664.994 1728.6 662.854 1727.9 666.367 1728.06 666.363 1727.42 667.872L1727.33 667.572C1726.97 668.716 1726.98 668.715 1726.95 668.764 1726.92 668.666 1726.63 667.944 1726.27 667.554 1726.19 667.852 1726.21 667.824 1725.99 669.583 1725.72 668.623 1725.77 668.65 1725.59 668.333 1725.5 668.956 1725.42 669.58 1725.33 670.203 1725.22 669.961 1725.1 669.72 1724.99 669.478 1723.6 677.926 1719.98 678.123 1719.47 677.491 1717.77 682.522 1718.12 682.539 1714.7 687.417 1711.94 681.03 1711.84 681.046 1711.65 680.488 1711.2 680.805 1711.06 680.896 1709.83 685.066L1709.4 684.285C1708.95 684.881 1709.06 684.877 1708.5 685.324L1707.75 684.9C1707.12 686.967 1707.08 689.075 1706.04 691.111 1705.37 692.428 1703.6 693.596 1702.67 694.883 1701.96 693.154 1698.79 686.485 1697.87 683.584 1697.7 684.315 1697.52 685.045 1697.34 685.776 1696.15 684.242 1696.23 684.258 1695.5 682.677 1694.19 683.276 1694.59 683.336 1693.18 685.586L1692.95 684.974 1692.75 685.913 1692.3 685.403 1692.15 686.128C1692.07 685.404 1691.26 677.816 1689.51 677.148 1689.39 677.627 1689.44 678.127 1689.06 678.578 1688.93 678.735 1688.8 678.265 1688.71 678.102 1688.27 678.889 1688.17 678.849 1687.52 679.608L1687.27 678.741 1687.15 679.12 1686.82 677.712C1685.53 685.24 1684.87 686.875 1683.74 690.422 1682.24 688.259 1682.8 688.245 1681.46 686.107 1680.89 686.787 1680.53 683.768 1680.5 683.562L1680.38 684.699 1680.21 682.876 1680.09 683.923C1678.97 674.606 1677.9 674.666 1676.73 665.37 1675.92 668.124 1675.76 680.614 1674.48 673.722L1674.35 674.552 1674.15 673.009 1673.92 674.175C1673.71 673.841 1673.5 673.507 1673.29 673.173L1672.85 673.694C1672.41 673.511 1672.47 673.065 1672.4 673.36 1672 675.006 1671.57 676.651 1671.3 678.302 1671.14 677.73 1671.05 677.776 1670.75 677.248 1670.29 679.232 1670.33 679.199 1669.69 681.171 1669.56 680.251 1669.42 679.332 1669.29 678.412L1669.07 680.026C1665.03 668.966 1665.56 668.959 1664.88 657.773 1664.63 660 1664.47 661.773 1664.45 662.121L1664.35 661.753C1664.23 663.675 1664.09 665.596 1663.96 667.518 1663.85 666.372 1663.74 665.226 1663.63 664.08L1663.51 665.308 1663.42 664.875C1663.37 665.105 1662.38 675.051 1660.27 676.65 1660.12 676.376 1659.84 675.858 1659.29 673.15L1658.85 675.726 1658.73 675.039 1658.54 676.052C1658.47 675.693 1657.84 672.603 1657.3 671.588L1657.02 672.169C1656.09 671.251 1655.73 665.144 1655.69 664.531L1655.61 665.416 1655.53 664.188C1655.32 666.929 1655.3 666.885 1655.03 669.587 1654.9 668.542 1653.96 661.724 1653.87 661.04L1653.72 662.411C1653.66 661.665 1653.51 658.274 1653.08 658.122 1652.98 658.835 1653.04 658.803 1652.79 659.494L1652.58 657.905 1652.41 660.415 1652.33 659.404 1652.25 660.812 1652.2 659.765 1652.08 662.022 1652 661.173 1651.87 663.015 1651.83 662.004 1651.71 663.863 1651.62 662.888 1651.54 664.495 1651.41 663.52 1651.33 664.929 1651.29 664.188 1651.21 665.362C1651.09 664.38 1650.98 663.399 1650.86 662.417L1650.65 664.109C1650.52 663.69 1650.39 663.271 1650.25 662.852 1649.48 665.485 1649.44 665.477 1649.38 665.705 1649.33 665.334 1648.82 661.115 1648.25 661.082 1647.98 661.067 1647.54 668.869 1647.15 670.9 1646.87 668.335 1646.59 665.771 1646.3 663.206 1645.74 667.827 1645.29 667.789 1644.72 673.451L1644.56 673.072 1644.48 673.433C1644.09 671.369 1643.93 671.401 1643.69 670.797 1643.34 673.283 1642.48 685.138 1640.79 679.133L1640.5 680.077C1640.1 678.298 1640.15 678.312 1639.62 674.915L1639.38 675.858C1638.61 672.528 1638.82 672.545 1638.48 669.194 1637.85 671.23 1637.77 673.899 1637.43 674.694L1637.28 674.292C1637.2 674.729 1636.42 678.754 1635.02 679.676 1633.98 678.159 1630.41 665.766 1630.31 664.614 1629.56 665.398 1629.26 667.758 1629.23 668.034 1628.63 672.682 1628.35 677.337 1627.54 681.978 1627.24 681.405 1626.65 680.258 1625.59 674.685L1625.18 675.701 1624.97 675.037C1622 680.332 1623.19 680.41 1622.73 680.835 1621.47 681.989 1622.53 680.471 1622.18 679.213 1620.69 685.991 1620.39 685.94 1619.49 692.754L1619.21 691.744C1617.88 697.512 1618.14 697.517 1614.89 703.121 1612.76 702.001 1612.78 704.641 1612.47 705.7 1612.32 705.264 1612.3 705.284 1611.84 704.347 1609.48 706.23 1609.89 706.269 1608.65 708.337 1608.26 707.613 1607.26 707.637 1606.58 706.708L1606.09 707.015C1605.47 707.105 1604.87 707.307 1604.21 707.286 1603.91 707.277 1604.07 706.992 1603.8 706.943L1602.76 706.907 1601.68 708.478C1601.49 708.238 1600.3 706.711 1598 705.757 1596.77 708.917 1597.39 709.258 1595.86 709.308 1593.73 709.378 1595.11 707.375 1594.28 708.225 1593.6 708.919 1592.94 709.619 1592.41 710.337L1592.04 709.919C1591.43 713.253 1590.83 713.179 1589.54 715.808L1588.75 714.707 1586.51 716.53C1584.93 716.475 1586.3 715.257 1585.08 715.694 1584.07 716.061 1584.4 716.14 1583.14 717.866L1582.77 717.072 1581.93 718.881 1581.25 718.354 1580.7 718.812C1579.78 716.511 1578.86 714.208 1577.7 711.926 1577.4 711.345 1576.63 710.822 1576.34 710.241 1575.23 710.082 1575.1 711.107 1574.79 710.608 1574.54 710.198 1574.06 709.43 1573.37 705.337 1572.79 707.008 1572.7 706.979 1572.1 708.668L1571.89 708.111C1571.72 708.649 1571.48 708.584 1571.32 709.145 1571.02 708.025 1570.9 708.066 1570.55 706.939 1570.38 707.744 1570.22 708.548 1570.05 709.353 1569.57 707.34 1569.76 707.35 1569.08 706.112 1568.85 706.808 1568.62 707.505 1568.39 708.201 1568.12 707.657 1567.26 707.712 1565.65 699.45 1565.3 700.095 1564.96 700.74 1564.61 701.385 1562.32 697.34 1561.79 697.418 1560.6 693.914L1560.2 694.383C1560.13 694.115 1560.04 693.771 1559.08 691.045 1557.44 693.606 1558.22 695.46 1555.83 698.014L1555.61 697.678C1555.01 698.527 1554.95 698.5 1554.69 699.4L1554.34 698.968 1553.6 699.566C1552.38 697.902 1552.42 697.916 1551.9 696.176 1551.73 696.454 1551.56 696.732 1551.39 697.011 1549.79 692.969 1551.7 692.922 1549.54 687.12 1548.62 691.986 1548.33 691.951 1547.45 696.822L1547.36 696.307C1547.1 697.071 1546.78 697.016 1546.43 697.787 1544.91 688.965 1544.93 688.973 1544.79 688.207L1544.5 688.801C1544.29 688.008 1544.31 688.037 1543.85 687.274L1543.54 687.877C1543.35 687.064 1543.15 686.252 1542.96 685.439 1542.68 684.219 1542.43 682.997 1542.14 681.776 1540.9 683.342 1541.35 683.362 1540.05 684.934 1539.94 684.575 1539.17 682.186 1539.1 681.947 1538.89 682.881 1538.83 682.854 1538.57 683.781L1538.09 682.669 1537.69 683.765C1537.54 683.09 1537.39 682.415 1537.23 681.741L1536.97 682.587C1536.31 681.422 1536.36 681.421 1536.3 681.321 1535.39 683.057 1536.05 683.082 1535.12 684.823L1534.73 683.833C1534.39 684.633 1534.05 685.434 1533.7 686.235L1533.54 685.877C1533.02 687.664 1531.99 687.546 1531.29 690.042 1531.14 689.582 1530.98 689.122 1530.83 688.662 1530.62 689.008 1530.37 689.958 1530.34 690.072 1529.86 688.911 1529.88 688.955 1529.47 687.798 1528.88 688.806 1528.91 688.771 1528.72 689.033L1528.37 688.466C1527.75 688.972 1527.79 689.972 1527.29 694.594 1526.97 693.579 1526.91 693.625 1526.59 692.591 1526.44 693.066 1526.49 693.035 1525.29 698.566L1524.86 696.869C1523.78 702.59 1524.29 702.582 1521.63 708.177L1521.15 707.9C1520.2 710.902 1519.91 710.851 1519.07 713.865L1518.03 712.721C1517.77 713.183 1518.03 713.683 1517.77 714.146 1517.49 714.636 1516.98 715.098 1516.43 715.544 1516.09 715.139 1515.75 714.735 1515.4 714.33L1514.01 715.125C1510.03 709.604 1510.12 709.63 1509.71 709.163 1506.57 707.269 1507.41 707.131 1506.43 704.8 1505.72 705.292 1505.08 705.988 1504.98 706.094 1501.97 703.793 1501.05 703.941 1500.05 700.685L1499.64 701.481C1497.98 697.853 1494.37 697.711 1492.3 688.6L1491.93 689.187C1491.67 688.055 1491.55 688.089 1491.28 686.951 1491.07 688.127 1490.37 688.051 1487.58 701.609 1485.91 709.715 1486.23 714.863 1484.3 710.864 1483.78 709.784 1483.46 708.687 1483.13 707.593 1482.28 711.142 1479.43 711.018 1478.61 711.393 1478.17 711.593 1478.01 712.434 1477.9 712.162 1476.91 709.721 1476.45 707.245 1475.94 704.777 1475.75 705.573 1476.61 706.279 1473.11 713.154L1472.9 712.63C1471.97 713.44 1471.42 712.979 1470 712.36L1469.63 712.8C1468.98 712.368 1466.72 712.2 1464.24 709.12 1461.2 705.356 1461.02 702.616 1460.79 702.252L1460.07 703.154C1459.49 702.759 1459.46 702.193 1459.23 702.664 1458.49 704.235 1457.8 705.812 1457.24 707.398 1456.87 707.101 1456.95 707.099 1454.41 702.818 1453.69 701.602 1452.42 700.446 1451.93 699.208 1451.4 699.489 1451.37 699.503 1450.37 703.728 1449.32 699.765 1447.81 699.92 1446.56 695.947L1446.4 696.601 1446.08 695.891C1445.34 699.829 1445.24 699.821 1445.17 700.163 1441.3 692.639 1442.31 692.556 1441.82 691.921L1441.7 692.716C1439.98 681.551 1439.36 681.589 1439.25 680.619 1438.49 674.224 1438.25 667.817 1437.33 661.426 1435.79 673.991 1436.07 673.984 1435.92 675.076 1435.48 673.741 1435.5 670.469 1435.13 669.515L1435.09 670.237 1435.01 669.515C1434.93 670.115 1435 670.099 1434.12 677.023 1433.96 674.335 1433.92 674.379 1433.72 671.682L1433.72 672.205 1433.68 671.627 1433.51 672.277 1433.3 669.714 1433.22 670.977C1433 670.27 1432.96 670.316 1432.76 669.567 1432.54 671.196 1432.5 671.169 1432.39 672.801L1432.27 671.79 1432.18 672.494 1432.1 671.808 1432.02 672.693C1431.93 672.084 1431.85 671.477 1431.77 670.869 1431.26 671.527 1430.86 675.127 1430.82 675.498 1430.65 673.774 1430.48 672.049 1430.31 670.323L1430.07 672.755C1429.73 669.535 1429.77 669.571 1429.52 666.355L1429.48 666.807C1428.82 660.162 1428.67 660.208 1428.11 653.536 1427.45 657.656 1427.29 662.98 1426.23 678.427 1425.97 677.62 1425.88 677.663 1425.62 676.881L1425.24 678.29C1424.44 670.795 1424.7 670.818 1424.13 663.308 1423.92 663.717 1423.71 664.126 1423.5 664.536 1423.03 660.907 1422.94 660.915 1422.91 660.6 1422.76 661.313 1422.61 662.025 1422.46 662.738 1422.31 662.011 1422.16 661.285 1422.01 660.559 1421.67 661.534 1421.21 663.445 1421.15 663.696 1420.99 662.8 1420.84 661.905 1420.68 661.009 1419.67 665.06 1419.66 665.02 1419.58 665.369L1419.52 665.185C1418.96 671.19 1419.55 671.201 1418.48 673.578 1418.45 673.279 1418.3 671.88 1418 669.842 1417 674.728 1416.82 676.214 1416.75 676.769L1416.63 675.915 1416.27 676.755C1416 675.961 1415.82 675.427 1415.29 666.738 1414.86 669.047 1414.73 669.029 1414.3 674.842L1414.06 674.074 1413.69 674.498C1413.4 673.197 1414.25 671.738 1412.8 670.594 1412.15 670.086 1410.92 671.481 1410.56 672.041 1409.37 670.626 1409.29 670.658 1409.13 669.123 1408.91 671.179 1408.87 671.136 1408.7 673.229 1408.49 672.152 1408.27 671.075 1408.05 669.997 1406.18 674.348 1407.4 674.403 1405.23 678.741 1404.58 677.052 1404.7 677.055 1403.09 667.029 1402.93 667.347 1402.77 667.664 1402.61 667.982L1402.4 667.454C1402.31 667.788 1401.52 670.724 1400.61 671.583 1400.41 670.972 1400.21 670.362 1400.01 669.752 1399.37 670.516 1398.97 676.388 1398.86 677.116L1398.69 675.559 1398.48 676.448 1398.44 675.942 1398.29 676.826C1396.66 674.139 1397.38 666.772 1394.55 658.741 1394.34 664.992 1394.16 668.918 1394.12 669.804 1393.68 662.028 1393.47 657.309 1393.43 656.223 1393.34 656.428 1393.27 657.045 1393.16 656.84 1392.68 655.861 1392.43 654.86 1392.25 653.861 1391.2 659.969 1391.22 659.935 1390.67 666.03L1390.42 662.855 1390.29 663.415 1390.23 663.417 1389.99 662.631 1388.72 672.295C1388.17 670.371 1387.7 670.426 1386.99 666.193 1386.84 667.269 1386.68 668.345 1386.53 669.422 1386.09 668.366 1386.14 668.397 1386.1 668.309L1385.91 669.554 1385.73 669.242C1385.58 670.194 1385.42 671.145 1385.27 672.097L1385.19 671.591 1385.06 672.441 1384.81 671.99C1384.38 675.365 1383.6 675.307 1382.92 678.672 1382.34 678.216 1382.77 678.203 1381.36 672.205 1379.48 679.486 1379.63 679.493 1379.19 679.821 1378.27 679.529 1378.43 677.536 1377.52 673.307L1377.13 674.121 1376.68 673.377C1375.87 674.848 1375.75 674.816 1375.37 676.314L1375.11 674.434C1375.02 674.792 1374.93 675.151 1374.84 675.509L1374.63 673.866 1374.44 674.845 1374.34 674.137 1374.26 674.516 1374.09 674.04C1373.51 676.299 1373.62 676.264 1373.47 678.524L1373.39 677.748C1373.14 678.264 1372.9 678.779 1372.66 679.295 1372.43 678.393 1372.19 677.491 1371.96 676.588L1371.83 676.951C1371.28 674.143 1370.8 674.201 1370.18 671.396 1369.64 674.886 1369.23 674.836 1368.73 678.326L1368.65 677.712 1368.51 678.819 1368.37 676.873 1368.15 677.712C1367.85 676.566 1367.44 675.032 1366.18 663.315L1365.93 664.157 1365.76 663.523C1364.6 668.759 1365.31 668.771 1363.3 673.964 1362.29 672.504 1362.6 672.022 1362.33 669.316 1362.15 669.396 1362.22 669.745 1362.12 669.641 1361.91 669.417 1362.04 668.679 1361.96 668.919 1361.22 671.157 1361.04 673.428 1360.15 675.655 1359.77 674.308 1359.75 674.347 1359.55 672.999 1359.39 674.335 1359.76 674.33 1358.9 675.62 1357.99 671.647 1357.28 671.726 1356.56 667.763 1353.2 649.482 1354.04 649.464 1353.61 647.881 1353.58 647.941 1352.65 649.698 1352.6 648.511 1352.59 648.276 1352.82 648.038 1352.7 647.81 1351.75 652.84 1351.91 652.817 1351.54 657.881 1351.45 657.238 1351.29 657.25 1350.61 648.336L1350.45 650.106C1350.39 648.624 1350.33 647.143 1350.27 645.661 1349.75 652.43 1349.66 652.407 1349.28 654.222 1349.1 652.727 1348.91 651.232 1348.72 649.737 1347.92 654.793 1346.27 670.095 1345.46 673.786 1345.16 672.37 1345.12 672.404 1344.68 670.973 1344.41 671.537 1343.31 675.953 1343.05 676.034 1342.76 676.121 1343.19 675.902 1341.81 674.245 1341.32 674.992 1340.95 675.938 1340.89 676.087 1340.36 673.953 1340.12 673.993 1339.53 671.854 1338.98 677.224 1339.09 677.182 1338.65 682.551L1338.56 682.081C1338.36 683.002 1338.38 682.967 1338.22 683.475L1337.98 683.002C1337.44 683.283 1337.27 689.571 1335.52 696.304L1335.32 695.522C1335.25 695.765 1334.32 698.94 1333.87 698.518 1333.29 697.976 1331.62 692.152 1331.46 691.596L1331.02 693.66C1330.83 692.78 1330.65 691.899 1330.46 691.019 1328.72 693.76 1328.81 695.111 1327.55 694.018 1326.2 692.842 1327.03 691.12 1326.26 692.391 1325.97 692.886 1325.73 693.389 1325.47 693.889L1325.06 693.438 1324.44 694.684 1323.85 693.185 1322.93 697.185C1322.22 696.421 1320.36 696.262 1318.85 692.798L1318.29 693.203C1317.31 691.086 1316.48 685.611 1316.38 684.949 1316.1 683.143 1316.3 681.322 1315.77 679.527 1315.67 679.169 1314.64 678.952 1314.51 678.597 1314.12 676.524 1310.43 656.88 1309.08 652.711 1308.64 655.207 1308.51 655.16 1308.25 657.691 1308.18 657.153 1307.81 654.168 1307.48 650.969 1307.36 651.882 1307.24 652.796 1307.12 653.709 1307.06 653.367 1306.9 652.362 1306.5 649.442 1305.72 654.387 1306.19 654.845 1305.45 658.618 1305.01 652.846 1305.06 652.865 1304.82 651.983 1304.28 656.962 1304.43 656.927 1303.85 661.925 1303.82 661.786 1303.58 660.65 1303.39 660.196 1303.17 663.86 1302.76 668.969 1302.7 669.732L1302.43 668.584C1302.11 670.837 1301.9 670.792 1301.24 673.03 1301.21 672.945 1300.73 671.466 1300.6 672.005 1300.15 673.895 1299.83 675.793 1299.68 677.693L1299.59 676.665C1298.92 685.926 1297.79 685.856 1295.53 695.057 1295.23 693.364 1295.37 693.375 1294.89 692.301 1294.79 692.334 1294.71 692.389 1294.68 692.445 1294.53 692.79 1294.59 693.15 1294.38 693.488 1292.81 689.019 1293.47 694.664 1292.86 699.162 1291.53 696.047 1291 702.804 1290.82 704.109 1290.47 703.498 1290.47 703.039 1290.46 703.013 1290.15 705.501 1290.11 705.466 1289.57 707.918L1289.53 707.449 1289.49 708.153C1289.43 707.759 1288.89 703.991 1288.36 703.245 1288.04 703.923 1287.9 704.195 1287.04 711.894L1286.84 711.537C1286.66 712.262 1286.48 712.988 1286.31 713.713 1286.22 713.365 1286.13 713.015 1286.04 712.667 1285.79 713.615 1286.1 713.662 1285.46 713.856 1285.28 713.36 1285.1 712.864 1284.92 712.368 1284.44 714.44 1284.48 714.404 1284.21 716.518 1283.56 715.156 1283.71 715.19 1283.47 713.829 1283.15 715.463 1283.18 715.42 1283.01 717.054 1282.91 716.983 1282.95 716.978 1282.76 716.043L1282.59 717.072 1282.55 716.368 1282.38 718.103C1281.81 717.85 1282.01 717.794 1280.04 711.597 1279.66 713.055 1279.74 713.019 1279.69 713.142L1279.5 710.676C1279.23 711.253 1279.17 711.391 1278.42 718.016 1277.86 715.556 1277.67 713.889 1277.63 713.529L1277.36 714.924C1276.61 712.408 1276.66 712.419 1276.56 712.376 1276.37 713.501 1276.31 713.471 1276.11 714.599 1275.99 714.31 1275.85 713.357 1275.84 713.248 1275.74 713.742 1275.65 714.236 1275.55 714.729 1275.42 714.076 1275.3 713.422 1275.18 712.768 1274.85 714.249 1274.58 716.107 1274.53 716.398 1274.31 714.278 1274.45 714.262 1274.15 714.069 1273.79 715.785 1273.77 715.745 1273.57 717.482 1273.12 716.19 1273.06 716.222 1272.84 714.92 1272.77 715.737 1272.69 716.555 1272.61 717.372L1272.43 715.073C1272.4 715.3 1271.21 723.467 1270.04 717.724L1270 717.811 1270 54Z" fill="#FFFFFF" fill-rule="evenodd"/></g></svg>