<svg width="2454" height="690" xmlns="http://www.w3.org/2000/svg" xmlns:xlink="http://www.w3.org/1999/xlink" xml:space="preserve" overflow="hidden"><defs><clipPath id="clip0"><rect x="815" y="1107" width="2454" height="690"/></clipPath></defs><g clip-path="url(#clip0)" transform="translate(-815 -1107)"><path d="M815 1107 3269 1107 3269 1797 3267.93 1797 3267.82 1794.74C3267.4 1794.94 3266.98 1795.15 3266.56 1795.36L3266.4 1794.84 3266.14 1795.32 3265.73 1795.01C3263.25 1794.68 3262.9 1794.7 3262.36 1793.6L3261.79 1794.05C3260.85 1793.11 3260.11 1793.32 3259.3 1792.33L3258.89 1792.91C3258.58 1792.94 3258.65 1792.56 3258.35 1792.59 3258.03 1792.61 3258.3 1792.92 3258.01 1792.98 3257.72 1793.05 3257.32 1792.84 3257.03 1792.91 3256.5 1792.34 3256.53 1792.38 3256.06 1791.81 3253.46 1793.08 3252.88 1791.12 3251.19 1790.93 3250.38 1789.9 3250.41 1789.93 3250.07 1788.31 3249.72 1789.59 3249.86 1789.56 3249.12 1790.81 3248.82 1790.51 3248.51 1790.21 3248.2 1789.91L3247.81 1790.41C3246.96 1790.15 3246.21 1789.84 3245.47 1789.53 3243.47 1788.68 3243.39 1788.71 3243.3 1788.61L3242.31 1788.49C3240.86 1785.28 3240.78 1784.99 3240.69 1784.68L3240.38 1785.3 3239.87 1784.44 3239.19 1784.75C3238.96 1784.48 3237.66 1782.91 3237.1 1781.21L3236.84 1781.59 3236.39 1781C3236.2 1781.3 3236.01 1781.6 3235.82 1781.89 3235.18 1780.64 3233.83 1779.47 3233.1 1778.22 3230.98 1774.61 3229.2 1770.97 3227.28 1767.35 3224.46 1762.03 3220.69 1758.65 3219.89 1754.95 3219.23 1756 3219.16 1755.94 3218.18 1756.92L3217.49 1756.64C3217.03 1756.44 3216.58 1756.23 3216.12 1756.02L3214.72 1756.08 3214.22 1756.39C3213.93 1756.1 3213.63 1755.82 3213.34 1755.53L3212.8 1755.94 3212.41 1755.53 3212.17 1755.9 3211.69 1755.56 3211.32 1756.01 3211.13 1755.43 3210.68 1756.06 3210.15 1755.26C3209.88 1756.29 3209.84 1756.26 3208.79 1759L3208.33 1758.5C3206.56 1760.96 3208.62 1762.49 3202.74 1762.01 3201.04 1759.65 3195.23 1758.28 3194.99 1757.61 3194.89 1757.3 3195.17 1756.97 3194.99 1756.66L3194.53 1757.17C3193.77 1755.87 3193.32 1755.98 3192.21 1754.75 3191.63 1755.63 3191.49 1755.57 3191.05 1756.5 3189.79 1755.61 3184.64 1750.31 3183.86 1749.97 3183 1747.48 3183.6 1747.43 3181.05 1745.15 3179.29 1747.27 3179.22 1747.25 3179.07 1747.64L3178.7 1747.12C3178.1 1748.17 3178.07 1748.13 3178.03 1748.22L3177.49 1747.63C3177.34 1748.02 3177.18 1748.41 3177.03 1748.8 3176.72 1747.4 3176.72 1747.4 3176.72 1747.4 3176.58 1747.34 3176.37 1747.34 3175.66 1748.27L3175.12 1747.55C3175.02 1747.73 3175.14 1748.4 3174.22 1747.78 3173.86 1749.67 3172.92 1751.98 3172.43 1756.32 3171.3 1750.6 3169.51 1747.72 3169.29 1747.07 3168.18 1750.01 3168.3 1750 3168.1 1750.25L3167.4 1749.62C3166.13 1749.58 3166.19 1749.78 3166.14 1749.74 3165.27 1749.05 3164.52 1747.29 3164.42 1747.08 3164.03 1747.68 3163.91 1747.63 3163.3 1748.19 3162.4 1746.8 3161.2 1740.61 3159.24 1729.5 3158.35 1732.57 3158.47 1732.55 3156.56 1735.49 3154.49 1738.68 3154.82 1738.68 3153 1741.86 3152.55 1741.31 3152.68 1741.33 3152.19 1740.76 3146.13 1755.63 3144.45 1756.18 3141.77 1755.73 3140.82 1756.22 3140.77 1756.17 3139.8 1756.66 3137.95 1754.42 3137.71 1754.46 3137.14 1752.11 3136.43 1749.2 3135.91 1746.29 3135.32 1743.37 3133.88 1748.24 3133.9 1750.29 3131.7 1753.29 3130.65 1752.93 3130.72 1752.93 3129.98 1752.41 3127.9 1753.77 3126.21 1751.89 3126.16 1751.85L3125.49 1752.41C3124.73 1752.02 3123.53 1751.84 3122.65 1751.5 3119.24 1750.19 3120.57 1749.85 3117.56 1741.55 3115.48 1742.35 3115.54 1742.45 3115.02 1742.38 3113.88 1742.25 3114.34 1742.05 3110.58 1728.72 3109.41 1732.67 3109.82 1741.04 3106.34 1743.61 3106.12 1743.19 3105.9 1743.08 3105.39 1741.6L3105.22 1741.95C3105.07 1741.45 3104.92 1740.95 3104.77 1740.45 3104.21 1740.77 3104.22 1740.46 3103.9 1740.1 3103.69 1740.56 3103.47 1741.02 3103.25 1741.47L3103.08 1740.85C3102.94 1741.36 3102.8 1741.88 3102.66 1742.39 3101.9 1742.03 3101.62 1742.06 3101.11 1742.48L3100.02 1741.54C3097.8 1733.15 3097.87 1733.15 3097.61 1732.42L3097.43 1733.63C3096.1 1726.92 3095.93 1726.78 3095.29 1726.25 3093.61 1732.6 3088.47 1739.01 3084.02 1749L3083.77 1748.56C3083.28 1749.44 3082.8 1750.32 3082.32 1751.2 3080.68 1747.78 3081.14 1747.76 3079.2 1744.36L3079 1744.74 3078.35 1744.13C3077.5 1745.33 3077.52 1745.32 3077.44 1745.43 3077.09 1745.18 3075.77 1744.23 3074.39 1742.03 3071.08 1736.73 3071.79 1736.7 3071.47 1736.24 3067.56 1737.6 3070.87 1735.29 3069.1 1733.25L3068.8 1733.62C3068.77 1733.53 3068.44 1732.79 3068.05 1732.52 3066.51 1733.91 3066.11 1734.07 3065.54 1736.71 3065.09 1736.61 3064.8 1736.59 3063.62 1731.91 3062.91 1734.43 3062.92 1734.38 3062.35 1736.87 3062.28 1736.65 3058.36 1720.63 3058.3 1720.33L3058.19 1720.89C3057.52 1717.4 3057.53 1717.43 3057.21 1713.9L3056.87 1715.14C3056.7 1714.48 3056.54 1713.82 3056.37 1713.16 3054.55 1717.59 3054.66 1728.38 3053.37 1726.48 3051.38 1745.16 3047.71 1758.28 3046.95 1761.04 3046.68 1759.89 3042.03 1736.44 3041.98 1735.98 3041.45 1737.99 3037.24 1765.92 3031.2 1764.54 3030.36 1762.98 3029.88 1763.09 3028.19 1761.68 3026.27 1763.75 3020.37 1762.22 3019.63 1761.52 3018.86 1762.28 3016.88 1761.8 3016.68 1761.75 3011.17 1760.42 3008.49 1759.37 3007.85 1759.13 3007.62 1759.38 3007.38 1759.63 3007.15 1759.88 3005.66 1760.04 3005.3 1760.07 3004.88 1759.41 3004.4 1760.17 3003.56 1760.1 3002.52 1759.48 3000.26 1760.34 2996.95 1756.78 2996.04 1756.63 2995.45 1756.53 2994.75 1757.55 2994.69 1757.64L2994.49 1756.87C2993.85 1757.91 2991.74 1756.98 2990.94 1757.88L2990.58 1757.4C2989.96 1757.62 2990.57 1758.04 2989.87 1757.85 2988.71 1757.54 2988.56 1757.21 2987.67 1757.65 2986.27 1756.19 2985.95 1756.19 2985.76 1756.29 2985.53 1756.41 2985.59 1756.61 2985.32 1756.71L2984.67 1755.93C2984.42 1756.46 2984.21 1756.38 2983.65 1756.86 2983.32 1756.45 2977.43 1734.87 2975.86 1725.77 2975.46 1727.14 2975.54 1727.11 2975.16 1727.86L2974.94 1727.01 2974.48 1729.28C2974.22 1729.46 2973.17 1729.09 2972.97 1729.29 2971.94 1730.26 2971.1 1733.98 2971 1734.39 2970.78 1733.96 2970.55 1733.53 2970.33 1733.1 2970.15 1733.79 2969.97 1734.48 2969.79 1735.17 2969.48 1734.28 2969.03 1734.38 2968.61 1733.49 2968.2 1735.12 2968.14 1735.12 2968.11 1735.26 2967.65 1734.05 2967.76 1734.07 2967.54 1732.84 2966.97 1734.2 2967.03 1734.2 2966.97 1734.32 2965.72 1725.68 2965.38 1724.4 2965.15 1723.54 2964.97 1723.83 2964.82 1724.09 2964.28 1727.17 2964.21 1726.81 2963.42 1722.18 2963.06 1722.64 2961.48 1724.65 2961.25 1726.81 2960.36 1728.89 2960.24 1728.76 2959.46 1727.93 2958.68 1727.31L2958.43 1727.96C2954.77 1717.99 2955.34 1717.96 2955 1717.1 2954.61 1717.52 2954.23 1717.94 2953.84 1718.37L2953.6 1718C2953.13 1719.49 2953.01 1719.44 2952.5 1720.92L2951.8 1720.17C2951.57 1720.42 2951.35 1720.67 2951.13 1720.91L2950.81 1720.52 2950.4 1720.87C2950.24 1720.37 2948.69 1715.67 2948.44 1714.71 2947.78 1715.7 2948.49 1715.74 2944.27 1727.49 2944.08 1728.02 2943.68 1728.54 2943.55 1729.09L2943.29 1728.65C2941.07 1739.65 2941.66 1742.15 2939.7 1746.02 2939.54 1745.43 2940.36 1744.52 2939.14 1744.24 2938.1 1743.99 2938.68 1745.24 2938.49 1745.74L2938.22 1745.01 2937.84 1745.36C2935.04 1740.07 2935.87 1735.17 2933.88 1727.87 2927.87 1739.79 2933.87 1740.07 2929.08 1752.09 2928.7 1750.84 2928.3 1750.9 2927.89 1749.67 2927.21 1751.86 2927.65 1751.85 2926.5 1753.97L2926.14 1753.5C2925.33 1755.33 2924 1760.87 2923.14 1761.82L2922.53 1760.88C2922.4 1761.01 2920.58 1762.64 2918.84 1761.47 2918.76 1761.7 2917.97 1763.93 2916.86 1764.32 2916.64 1764.4 2916.35 1763.8 2913.67 1764.35 2913.04 1762.24 2912.77 1762.29 2912.13 1760.2 2911.39 1761.65 2910.54 1758.1 2910.49 1757.91 2909.61 1760.18 2909.56 1760.15 2909.33 1761.14L2908.97 1760.11C2908.82 1760.57 2908.68 1761.03 2908.53 1761.49L2908.16 1759.89C2908.14 1759.95 2907.76 1761.03 2906.88 1760.42 2906.61 1761.15 2906.56 1761.13 2906.28 1761.86 2905.62 1761.03 2905.54 1761.07 2904.97 1760.2L2904.67 1761.59C2902.62 1760.59 2902.55 1760.61 2902.46 1760.51 2902.31 1760.88 2902.18 1761.26 2902.03 1761.64 2901.72 1761.25 2901.4 1760.86 2901.08 1760.47 2900.75 1760.78 2900.57 1761.45 2898.97 1760.61L2898.59 1761.04 2898.11 1760.34C2897.91 1760.68 2897.71 1761.02 2897.51 1761.35 2896.18 1760.7 2896.06 1761.62 2895.86 1761.85 2894.18 1760.6 2892.39 1761.54 2892.1 1760.94 2891.5 1759.74 2892.15 1758.51 2890.36 1759.47L2889.88 1759.02 2889.21 1759.28C2887.22 1757.62 2887.98 1757.55 2887.7 1755.69 2887.65 1755.91 2886.16 1761.78 2884.03 1757.96L2883.5 1758.87C2883.01 1757.62 2883.17 1757.62 2881.68 1756.54 2880.29 1756.5 2880.11 1756.34 2879.33 1756.83 2879.11 1755.53 2879.04 1755.56 2878.77 1754.24L2878.43 1754.84C2878.26 1754.16 2878.09 1753.48 2877.92 1752.8L2877.63 1753.27 2877.4 1752.91C2876.57 1754.73 2877.02 1754.74 2876 1756.56 2875.87 1756.18 2875.74 1755.8 2875.61 1755.41 2874.83 1756.3 2874.69 1755.29 2874.39 1754 2874.28 1754.27 2874.65 1754.6 2874.3 1754.83 2873.88 1755.11 2873.38 1754.22 2873.34 1754.16L2873.05 1754.51C2872.75 1754.19 2872.46 1753.87 2872.16 1753.55 2871.24 1754.22 2871.72 1754.54 2871.62 1754.48 2871.25 1754.23 2870.77 1754 2870.6 1753.72L2870.21 1754.3C2869.47 1753.37 2869.05 1753.47 2868.64 1752.51L2867.94 1753.58C2867.41 1752.47 2866.22 1751.43 2865.69 1750.31 2864.75 1748.33 2864.5 1746.29 2863.55 1744.31 2863.44 1744.07 2862.73 1743.96 2862.55 1743.73 2862.15 1743.23 2862.29 1742.67 2861.82 1742.18 2861.67 1742.02 2861.2 1741.9 2860.8 1741.92L2860.25 1741.49C2859.51 1741.88 2859.55 1741.87 2858.44 1741.96 2858.19 1741.68 2857.94 1741.4 2857.69 1741.12L2857.28 1741.72C2855.37 1738.58 2851.48 1733.48 2850.31 1717.61 2849.51 1724.88 2849.72 1724.86 2848.86 1728.35 2848.68 1729.09 2848.01 1729.79 2847.86 1730.53L2847.53 1729.75C2847.43 1729.97 2846.7 1731.5 2846.35 1732.47L2846.35 1732.47C2846.16 1732.17 2845.55 1731.2 2844.71 1728.63 2843.35 1731.04 2843.91 1734.2 2843.25 1731.72 2842.71 1733.91 2842.35 1733.85 2841.71 1736.04 2841.52 1735.63 2841.33 1735.21 2841.14 1734.8 2840.47 1735.72 2840.55 1735.7 2840.24 1736.68L2840.01 1735.95 2839.66 1737.58 2839.41 1737.04 2839.02 1737.76 2838.54 1737.12C2837.47 1742.09 2834.96 1745.12 2834.42 1746.95L2834.14 1746.57C2833.81 1747.19 2833.76 1747.15 2833.51 1747.77L2833.39 1747.43C2830.62 1752.23 2830.93 1752.23 2829.84 1757.17L2828.71 1755.68C2827.67 1756.87 2829 1758.36 2827.28 1757.31 2827.09 1757.72 2826.89 1758.12 2826.7 1758.52L2826.15 1757.89 2824.83 1759.44C2824.18 1759.52 2823.44 1759.39 2822.79 1759.47 2822.34 1759.53 2822.14 1759.79 2821.69 1759.84 2821.44 1759.88 2821.17 1759.78 2820.97 1759.71L2820.23 1759.64C2817.57 1763.52 2817.81 1763.93 2817.38 1763.65 2817.01 1763.4 2817.15 1763.05 2816.75 1762.81L2816.3 1763.19C2816.16 1762.64 2816.01 1762.08 2815.87 1761.53 2815.6 1762.65 2815.75 1762.62 2815.05 1763.68L2814.62 1763.03 2814.35 1763.42 2814.03 1762.99C2813.46 1763.97 2813.16 1763.93 2813.02 1763.88 2812.52 1763.67 2812.11 1763.42 2811.75 1763.16L2810.53 1763.91C2809.78 1763.85 2809.21 1763.54 2808.45 1763.47 2808.15 1763.45 2807.78 1764.11 2807.75 1764.17 2807.49 1763.57 2807.54 1763.55 2806.44 1763.13 2806.04 1763.59 2805.66 1763.87 2805.57 1763.93L2804.81 1763.33C2803.48 1764.22 2803.45 1763.29 2803.4 1763.18 2802.94 1764.55 2801.73 1764.26 2800.13 1764.83 2799.7 1764.28 2799.28 1763.73 2798.86 1763.17 2797.66 1764.57 2797.47 1764.75 2797.33 1764.89 2796.18 1762.15 2796.15 1762.18 2795.67 1759.37 2795.62 1759.49 2795.63 1759.48 2795.17 1761.16L2793.99 1756.43C2793.81 1756.27 2792.98 1756.5 2792.79 1756.34 2792.27 1755.91 2792.41 1755.38 2792.19 1754.91 2790.95 1752.32 2789.06 1749.78 2788.38 1747.15L2788.04 1747.51C2786.87 1747.18 2786.56 1747.34 2786.27 1747.94 2785.57 1744.7 2785.54 1744.74 2785.01 1741.46L2784.85 1741.84C2784.34 1737.85 2784.32 1737.87 2783.93 1733.85 2783.45 1736.04 2783.6 1736.03 2782.24 1738.13 2781.98 1737.8 2780.63 1734.96 2780.5 1734.69 2779.06 1734.41 2779.37 1734.29 2778.56 1733.7L2778.06 1734.04C2777.58 1733.5 2777.38 1733.5 2776.62 1726.76 2776.19 1729.54 2776.19 1729.51 2775.7 1732.31L2775.42 1731.94C2774.56 1733.4 2773.98 1735.06 2773.89 1735.34L2773.25 1734.55C2773 1735.24 2772.75 1735.94 2772.5 1736.64 2772.32 1736.25 2772.14 1735.87 2771.96 1735.48L2771.8 1735.78C2770.35 1726.6 2770.72 1726.58 2770.25 1725.81 2769.32 1730.33 2769.43 1730.3 2769.33 1730.69 2768.91 1728.47 2769.04 1728.5 2768.8 1726.89 2768.48 1728.02 2768.82 1729.2 2768.02 1730.28 2767.72 1730.69 2767.38 1729.45 2767.21 1729.02 2767.15 1729.14 2766.74 1730.01 2766.37 1730.59L2765.21 1729.21C2764.73 1731.23 2766.2 1731.79 2762.99 1732.11 2762.36 1729.7 2761.97 1729.75 2761.46 1728.48 2759.53 1729.72 2760.14 1729.81 2759.11 1731.24 2758.81 1730.92 2758.5 1730.6 2758.19 1730.29 2757.65 1731.38 2756.45 1732.4 2755.76 1733.47 2755.1 1734.53 2754.87 1735.63 2754.12 1736.68L2753.55 1736.27C2752.72 1738.37 2752.04 1738.25 2749.74 1739.45 2747.7 1740.51 2747.54 1740.48 2746.76 1741.82 2744.92 1741.29 2741.44 1743.79 2741.12 1744.01L2739.08 1743.49C2737.89 1746.52 2738.01 1746.52 2737.8 1746.76 2737.76 1746.74 2737.17 1746.24 2737.02 1746.56 2736.46 1747.84 2736.4 1749.15 2735.74 1750.41 2735.68 1750.51 2735.14 1750.34 2735 1750.43 2733.8 1751.17 2733.21 1752.41 2733.12 1752.59 2732.62 1753.63 2732.38 1754.68 2731.75 1755.7 2731.3 1754.95 2730.9 1755.03 2730.56 1754.26 2729.76 1756.29 2728.93 1756.16 2727.89 1758.17 2727.85 1758.03 2727.48 1756.86 2727.05 1756.45 2726.92 1756.82 2726.8 1757.19 2726.68 1757.56L2726.29 1757C2726.18 1757.22 2725.63 1758.47 2725.24 1759.82 2724.55 1759.11 2724.52 1759.05 2724.47 1758.98L2724.15 1759.31C2724.09 1758.97 2723.95 1758.98 2723.3 1755.11 2722.82 1755.81 2722.99 1755.79 2722.77 1756.84 2722.25 1756.25 2722.26 1756.29 2722 1755.65 2721.41 1758.21 2720.63 1758.14 2720.06 1760.32 2719.5 1759.78 2719.59 1759.8 2719.38 1759.24 2719.01 1760.16 2718.58 1762.01 2718.53 1762.25L2718.43 1761.81 2718.3 1762.08 2718.24 1761.68C2717.47 1763.78 2717.31 1763.74 2716.85 1765.84 2715.95 1764.29 2715.83 1764.33 2715.23 1762.73L2715.11 1763.15 2714.46 1762.27C2711.56 1768.79 2710.81 1768.71 2709.54 1775.35 2709.38 1774.34 2709.33 1774.37 2709.16 1773.38 2708.53 1776.46 2707.97 1776.41 2706.44 1782.23 2706.31 1781.73 2706.18 1781.24 2706.05 1780.74L2705.2 1782.28 2703.11 1780.31C2700.03 1783.27 2700.72 1783.58 2698.27 1783.95 2693.98 1784.59 2692.91 1784.97 2690.9 1783.2L2689.9 1784.06 2688.57 1781.59C2688.32 1781.86 2688.9 1782.1 2685.42 1783.9 2684.44 1784.32 2685.08 1784.49 2684.09 1784.92 2683.36 1785.24 2683.5 1784.78 2681.22 1781.97L2679.77 1783.76 2678.81 1784.57 2677.73 1782.96 2675.61 1784.52C2675.26 1784.68 2674.42 1784.3 2674.07 1784.46 2673.55 1784.71 2673.9 1785.13 2673.63 1785.44 2672.4 1786.86 2671.97 1786.71 2669.71 1787.84L2667.05 1786.88C2665.43 1786.89 2663.81 1786.89 2662.19 1786.9 2661.54 1787.06 2661.32 1787.45 2660.69 1787.62 2660.04 1787.8 2659.18 1787.78 2658.48 1787.91 2653.13 1788.91 2653.21 1788.96 2652.71 1788.99L2650.02 1787.63C2648.79 1788.03 2647.9 1788.61 2646.67 1789 2646.2 1789.15 2645.6 1789.25 2645.03 1789.25 2643.78 1789.25 2642.55 1788.93 2641.31 1789.01 2639.5 1789.12 2637.88 1789.57 2636.13 1789.8 2635.63 1789.87 2631.83 1790.36 2629.7 1789.72 2623.16 1790.05 2627.11 1788.23 2626.17 1785.4 2625.66 1783.87 2624.69 1782.37 2624.24 1780.84 2624.02 1781.19 2623.81 1781.55 2623.59 1781.9 2623.39 1781.28 2622.54 1781.36 2619.6 1774.22 2618.35 1771.19 2617.34 1768.14 2616.27 1765.1L2615.97 1765.54C2614.6 1763.19 2615.07 1763.18 2614.73 1760.78L2614.37 1761.58C2613.78 1757.98 2603.27 1721.12 2602.76 1720.48 2602.51 1720.6 2602.13 1720.77 2601.17 1722.4 2599.9 1720.35 2600.45 1720.08 2598.89 1719.97 2597.96 1719.9 2597.81 1720.66 2597.8 1720.73 2597.71 1721.2 2597.92 1721.68 2597.67 1722.13 2597.22 1721.18 2597.28 1721.21 2596.94 1720.22 2596.87 1720.55 2596.76 1720.88 2596.47 1721.18 2596.34 1721.31 2596.52 1720.9 2596.41 1720.77 2595.8 1721.52 2596.77 1721.54 2596.29 1722.31 2595.63 1723.39 2594.86 1721.05 2594.82 1720.92 2593.71 1723.01 2593.98 1723 2593.56 1725.12L2593.35 1724.68 2592.99 1726.25C2592.04 1723.51 2591.54 1723.59 2590.69 1720.87L2590.27 1721.61C2587.85 1717.77 2586.82 1717.89 2585.81 1713.9L2585.53 1714.24C2584.53 1709.78 2584.56 1709.81 2582.73 1705.43 2582.7 1705.55 2582.12 1707.77 2581.71 1706.89 2581.51 1706.46 2581.49 1706.01 2581.35 1705.56L2581.16 1705.85C2579.92 1702.34 2580.2 1702.34 2578.43 1698.88 2578.15 1700 2578.18 1699.96 2577.61 1701.09L2577.21 1699.8C2576.74 1700.59 2576.22 1701.85 2576.14 1702.03 2575.73 1700.51 2576.03 1700.51 2574.97 1699.04 2574.59 1698.51 2574.15 1699.9 2574.13 1699.98 2573.58 1698.35 2574.01 1698.34 2572.94 1696.76 2572.35 1699.72 2571.37 1707.47 2571.35 1707.58 2571.31 1707.28 2571.27 1706.98 2571.23 1706.68 2570.15 1710.67 2570.18 1710.65 2568.87 1714.64 2568.75 1714.12 2567.87 1710.4 2566.11 1708.23 2566.06 1708.35 2565.62 1709.45 2565.21 1709.66 2564.96 1709.79 2564.5 1709.68 2564.07 1707.61 2563.38 1710.22 2558.38 1721.85 2554.9 1726.4 2554.46 1726.97 2550.23 1722.44 2550.2 1722.38 2549.79 1721.6 2550.86 1721.55 2547.44 1712.4 2546.86 1714.93 2546.24 1714.86 2545.61 1717.39L2545.21 1716.1C2545.08 1716.47 2544.94 1716.83 2544.8 1717.19L2544.66 1716.78C2542.6 1721.79 2540.8 1729.08 2538.17 1737.46L2538.02 1736.94 2534.97 1742.69C2534.63 1742.51 2533.43 1742.6 2532.63 1741.44 2532.47 1741.79 2532.49 1742.16 2532.14 1742.48 2531.8 1742.79 2530.91 1742.94 2530.63 1743.26 2529.15 1744.99 2528.41 1746.82 2526.93 1748.55 2526.68 1748.21 2525.82 1748 2525.57 1747.66 2525.47 1747.52 2526.07 1747.41 2525.98 1747.27 2525.89 1747.13 2525.33 1747.15 2525.16 1747.03 2523.14 1745.65 2525.36 1745.34 2523.33 1743.94 2520.02 1744.06 2521.99 1741.78 2519.9 1737.71 2518.79 1739.26 2518.92 1739.23 2518.41 1740.82 2518.2 1740.23 2518.27 1740.25 2517.67 1739.73 2512.83 1748.13 2512.87 1748.14 2512.7 1748.24 2511.86 1748.75 2510.81 1747.71 2510.73 1747.63L2510.42 1747.96C2509.63 1746.36 2509.32 1746.43 2508.31 1744.86 2508.09 1745.96 2508.04 1745.94 2507.81 1747.05L2504.99 1746.53C2501.83 1745.57 2502.25 1745.34 2501.92 1745.32 2501.67 1745.3 2501.42 1745.6 2501.28 1745.5 2500.7 1745.13 2500.54 1744.66 2500.24 1744.22 2499.91 1744.65 2499.58 1745.08 2499.25 1745.51 2498.63 1745.17 2498.59 1745.21 2497.7 1744.97 2497.61 1744.77 2496.72 1742.71 2494.57 1742.83 2493.73 1742.25 2493.75 1742.27 2493.31 1741.63L2492.84 1742.12C2492.09 1741.58 2491.92 1741.67 2491.31 1741.08 2489.72 1742.11 2489.41 1741.04 2489.31 1740.83 2489.27 1740.9 2488.83 1741.51 2488.21 1741.51 2486.95 1741.51 2483.4 1735.79 2483.12 1734.61L2482.56 1734.94 2482.18 1734.24 2481.95 1734.75C2481.25 1732.88 2481.12 1732.93 2480.08 1731.13 2479.47 1732.32 2479.41 1732.27 2478.87 1733.48 2478.53 1732.37 2478.6 1732.39 2477.92 1731.29 2477.65 1732.01 2477.82 1732.01 2476.99 1732.64 2476.08 1733.33 2476.69 1732.42 2476.29 1731.66 2475.99 1732.19 2476.23 1732.86 2475.33 1733.24 2474.81 1733.46 2474.81 1732.66 2474.64 1732.36L2474.3 1733.18C2474.03 1732.58 2473.77 1731.97 2473.5 1731.37L2473.12 1732.57C2473.11 1732.56 2473.13 1732.57 2470.22 1729.94L2470 1730.31 2469.57 1729.77 2469.13 1730.23C2468.57 1729.71 2464.45 1725.9 2463.46 1723.56L2463.18 1724.04C2463 1723.27 2461.53 1717.07 2460.24 1714.55 2460.14 1714.36 2458.41 1714.28 2457.14 1712.13 2456.88 1712.54 2456.63 1712.96 2456.37 1713.37L2455.93 1712.74C2454.23 1716.96 2455.5 1717.03 2452.9 1721.18L2452.03 1720.5C2450.46 1723.61 2449.43 1723.5 2447.22 1730.12L2446.95 1729.31C2446.21 1731 2446.38 1731.6 2445.78 1733.3L2445.18 1732.66C2444.44 1734.75 2444.36 1734.72 2443.56 1736.77L2443.11 1735.8C2440.74 1741 2440.23 1743.23 2440.08 1743.88 2439.83 1743.32 2439.59 1742.75 2439.35 1742.19L2439.05 1742.86C2438.6 1741.98 2438.58 1742.01 2437.93 1741.13 2437.2 1741.79 2437.2 1741.75 2436.45 1742.41 2436.01 1741.1 2435.57 1739.78 2434.7 1738.51 2434.61 1738.39 2434.16 1738.63 2433.9 1738.69L2433.58 1738.09 2433.44 1738.61 2432.68 1737.97 2432.16 1738.73C2431.6 1738.21 2431.27 1737.9 2430.27 1731.55 2429.75 1733.68 2429.71 1733.65 2429.45 1735.8 2429.26 1735.25 2429.09 1734.71 2428.91 1734.16 2428.74 1734.68 2428.58 1735.2 2428.42 1735.72 2428.31 1735.23 2427.35 1735.31 2425.69 1729.64 2424.42 1732.39 2424.1 1732.35 2423.99 1732.59 2423.24 1731.79 2423.05 1731.83 2422.67 1730.98L2422.48 1731.51C2420.99 1729.07 2421.29 1725.55 2420.64 1726.67 2420.46 1725.93 2420.27 1725.2 2420.09 1724.46 2419.55 1725.21 2418.97 1724.98 2418.29 1725.29 2417.34 1726.32 2418.09 1726.66 2417.93 1726.59 2416.48 1725.93 2416.61 1725.92 2416 1725.03 2415.16 1725.27 2415.18 1725.05 2414.88 1724.66L2414.43 1725.89C2413.16 1723.33 2413.26 1723.36 2412.07 1720.77 2411.28 1721.96 2411.25 1721.92 2411.19 1722.03L2410.76 1721.19C2410.44 1721.81 2410.49 1721.78 2410.1 1722.38 2409.68 1721.62 2409.69 1721.65 2409.2 1720.87 2409.13 1720.93 2408.55 1721.38 2407.54 1721.3 2406.14 1717.82 2405.3 1714.29 2404.32 1710.78 2403.34 1707.27 2402.65 1703.75 2401.65 1700.23 2401.62 1700.11 2401.65 1700.52 2401.42 1700.58L2401.29 1700.1C2401.03 1701.25 2401.09 1701.23 2400.6 1702.37 2400.45 1702.09 2400.31 1701.81 2400.17 1701.53 2399.45 1702.53 2398.44 1703.92 2395.88 1714.44 2394.37 1711.32 2393.22 1711.49 2391.6 1708.41 2391.4 1708.74 2391.19 1709.07 2390.99 1709.41L2390.46 1708.49 2389.99 1709.01 2389.54 1708.62C2388.31 1708.93 2388.29 1709.62 2387.73 1709.08 2387.63 1709.25 2387.62 1709.21 2386.32 1711.23L2386.02 1710.8C2384.18 1712.19 2383.26 1711.99 2382.7 1713.6L2382.35 1713.09C2382.07 1713.38 2381.79 1713.67 2381.52 1713.96 2381.06 1713.77 2380.94 1713.83 2380.74 1714.11L2380.38 1713.59C2380.24 1713.86 2376.36 1719.13 2376.21 1719.27L2375.77 1718.83C2375.35 1719.69 2375.37 1719.67 2375.1 1720.52L2374.25 1719.85C2374.08 1720.36 2373.91 1720.86 2373.75 1721.37L2373.46 1720.83C2369.66 1727.51 2372.86 1728.46 2368.9 1734.51 2363.53 1733.03 2365.81 1732.41 2364.49 1729.54 2364.35 1729.25 2363.44 1727.26 2362.29 1725.97 2361.95 1726.63 2362.4 1727.44 2359.65 1726.81 2356.46 1722.63 2358.37 1719.19 2355.97 1712.48 2355.67 1714.4 2356.03 1714.41 2354.4 1716.18 2354.2 1715.7 2353.61 1713.82 2353.35 1713.14L2352.97 1713.55C2352.81 1712.88 2352.65 1712.21 2352.5 1711.55 2351.89 1712.68 2352.08 1712.66 2351.78 1714 2351.24 1713.28 2351.26 1713.31 2350.72 1712.58L2350.25 1712.98C2349.81 1711.73 2349.79 1711.77 2349.39 1710.5L2349.05 1710.94C2348.59 1710.02 2348.02 1708.73 2347.93 1708.54L2347.43 1709.01C2347.38 1708.53 2347.32 1708.06 2347.26 1707.58 2347.23 1707.69 2347.05 1708.44 2346.47 1708.88 2344.37 1701.36 2345.74 1701.35 2343.91 1693.84 2340.78 1706.16 2342.98 1709.72 2339.66 1714.92 2339.06 1714.49 2339.07 1713.88 2338.91 1714.39 2338.51 1715.61 2338.14 1716.84 2337.89 1718.07L2337.62 1717.69C2335.88 1721.29 2333.57 1724.66 2329.24 1731.02L2328.28 1730.32C2326.19 1732.62 2324.59 1735 2322.49 1737.3 2322.41 1737.39 2321.97 1737.3 2321.85 1737.38 2320.68 1738.22 2319.49 1739.07 2318.73 1739.99 2318.36 1739.71 2318 1739.44 2317.64 1739.17 2317.47 1739.46 2317.3 1739.76 2317.13 1740.06 2316.51 1739.47 2316.56 1739.5 2316.28 1738.87L2315.89 1739.99 2315.35 1739.61C2315.07 1739.68 2315.5 1739.95 2315.22 1740.02 2314.97 1740.08 2314.79 1739.84 2314.52 1739.81 2314.52 1739.81 2314.06 1740.3 2314.01 1740.34 2313.88 1739.9 2313.74 1739.45 2313.61 1739.01 2313.39 1739.53 2313.42 1739.52 2312.84 1741.57 2312.81 1741.45 2312.16 1738.53 2311.82 1740.15 2311.62 1741.15 2311.65 1742.16 2311.45 1743.16 2309.71 1744.21 2309.51 1744.15 2308.81 1745.41L2308 1745.4C2307.38 1746.52 2307.42 1746.51 2307.35 1746.6 2307.21 1746.49 2307.03 1746.34 2306.74 1746.32 2306.24 1746.28 2305.74 1746.48 2305.24 1746.44 2304.19 1746.06 2304.53 1745.37 2303.59 1745.84 2301.97 1745.33 2301.78 1744.81 2300.48 1745.47 2300.22 1745.6 2300.03 1745.83 2299.64 1745.82 2298.45 1745.58 2296.93 1745.24 2296.44 1745.54 2294.67 1745.18 2292.58 1736.11 2292.39 1735.28 2288.31 1717.62 2287.12 1717.71 2283.28 1700.05 2282.42 1708.33 2280.73 1708.25 2279.56 1718.05L2279.12 1716.86C2278.59 1718.06 2278.4 1718.64 2278.35 1718.8 2276.32 1712.89 2276.15 1704.12 2274.4 1694.38 2270.04 1706.63 2271.27 1706.77 2269.95 1707.68 2268.11 1700.13 2268.21 1700.13 2267.92 1699.85 2267.37 1699.34 2267.45 1700.17 2262.37 1718.56L2262.11 1718.01C2261.46 1718.9 2261.63 1718.88 2261.31 1719.82L2261.06 1718.14C2261.05 1718.2 2260.75 1719.57 2260.29 1718.83 2259.3 1723.93 2259.58 1723.89 2258.92 1729.03L2258.84 1728.4C2258.16 1738.93 2257.7 1738.88 2255.99 1746.76L2255.84 1745.66C2255.8 1745.91 2255.76 1746.16 2255.72 1746.4 2255.72 1746.4 2255.23 1743.79 2255.19 1743.56L2254.97 1745.17 2254.85 1744.63C2254.53 1746.57 2254.43 1746.52 2253.22 1750.5L2252.95 1750.16C2252.78 1750.87 2252.61 1751.58 2252.43 1752.28 2252.31 1751.91 2252.19 1751.54 2252.06 1751.17 2250.7 1753.65 2251.67 1753.69 2250.57 1756.22 2250.21 1757.05 2249.38 1757.82 2249.06 1758.65 2248.85 1758.34 2248.65 1758.04 2248.44 1757.73 2246.96 1764.26 2244.56 1766.88 2243.87 1767.63L2243.83 1767.63 2242.97 1767.44C2242.1 1765.6 2242.4 1765.56 2240.36 1763.91L2239.9 1764.22 2238.66 1763.97 2237.9 1763.1 2236.8 1763.08 2236.23 1763.99C2235.31 1763.49 2235.42 1763.51 2234.81 1762.95 2234.27 1763.56 2234.22 1763.51 2233.43 1764.05 2226.2 1765.29 2225.59 1764.07 2223.91 1760.79L2223.39 1761.33 2223.01 1760.92 2222.27 1761.44C2220.61 1761.4 2220.66 1761.51 2219.03 1761.35 2218.89 1761.58 2217.76 1763.46 2216.53 1764.1 2215.08 1764.84 2214.07 1763.64 2212.55 1764.37L2196.26 1764.19C2194.82 1763.4 2194.79 1762.26 2193.61 1761.39 2193.39 1761.23 2192.75 1761.33 2192.33 1761.32 2191.87 1761.3 2191.3 1761.41 2190.95 1761.28 2190.44 1761.47 2189.94 1761.66 2189.43 1761.84 2184.25 1761.39 2187.42 1759.21 2183.68 1759.33 2179.4 1759.46 2179.2 1759.39 2176.5 1757.97 2175.01 1757.19 2175.2 1756.73 2172.99 1757.09L2172 1756.77C2165.88 1756.99 2166.33 1756.03 2165.77 1753.39 2164.86 1757.43 2166.45 1757.61 2163.75 1759.39L2163.35 1758.87C2160.9 1760.67 2162.42 1758.15 2159.45 1754.85 2156.51 1759.45 2158.28 1761.32 2156.16 1764.9L2155.89 1764.47C2155.71 1764.9 2155.53 1765.33 2155.35 1765.75 2155.32 1765.65 2155.04 1764.88 2154.61 1764.48 2153.55 1766.52 2153.87 1766.81 2153.57 1767.69 2153.41 1767.26 2153.26 1766.83 2153.1 1766.4 2152.91 1767.14 2152.73 1767.88 2152.54 1768.62 2152.49 1768.54 2151.86 1767.57 2151.54 1767.74 2151.04 1768 2151.06 1768.39 2150.92 1768.72 2150.75 1768.29 2151.06 1767.6 2150.11 1767.44 2149.64 1767.37 2149.29 1769.55 2149.26 1769.74L2148.74 1769.37 2148.42 1770.59 2148.26 1770.05C2148.06 1770.79 2147.57 1770.71 2147.34 1771.45 2146.77 1771 2146.25 1769 2146.19 1768.79 2145.97 1770.27 2145.98 1770.23 2145.71 1771.71 2145.56 1770.94 2145.41 1770.17 2145.27 1769.39 2145.06 1770.54 2144.92 1770.73 2144.84 1770.84L2144.74 1770.49 2144.32 1771.35C2143.44 1766.33 2143.86 1766.36 2143.12 1761.35L2142.94 1762.34 2142.79 1761.37C2142.14 1769.9 2141.35 1769.86 2141.36 1770.6 2141.39 1771.73 2141.99 1772.85 2141.96 1773.98 2141.93 1775.32 2141.69 1773.66 2140.78 1772.4 2140.27 1773.08 2139.76 1773.76 2139.25 1774.44L2138.42 1772.91 2137.75 1773.2C2136.7 1772.29 2135.92 1770.99 2135.3 1772.16L2135.1 1770.56C2134.36 1773.45 2134.58 1773.44 2133.69 1776.32 2133.57 1776.1 2132.88 1774.73 2132.31 1773.48 2131.21 1773.98 2131.1 1774.62 2130.39 1777.64L2130.24 1777.28C2129.81 1777.64 2129.89 1778.08 2129.72 1778.47 2129.42 1779.22 2129.2 1779.97 2128.86 1780.71 2128.82 1780.65 2128.04 1780.44 2126.97 1769.91 2126.86 1770.95 2126.76 1771.99 2126.66 1773.03L2126.45 1772.02C2126.24 1774.15 2125.99 1776.22 2125.95 1776.59L2125.83 1775.74C2125.71 1777.56 2125.72 1777.54 2125.41 1779.33 2125.25 1777.15 2125.21 1777.19 2125.06 1774.97 2124.92 1776.21 2124.78 1777.45 2124.65 1778.69L2124.55 1777.69C2124.33 1780.13 2124.47 1780.1 2123.96 1782.53L2123.91 1782.5 2123.17 1781.76 2122.93 1782.16 2122.64 1780.53 2122.37 1781.66C2121.87 1780.93 2120.9 1780.98 2119.67 1771.67 2119.36 1773.14 2119.21 1773.11 2118.86 1774.57 2118.79 1773.95 2119.17 1773.33 2119.11 1772.71 2119.1 1772.65 2118.69 1772.81 2118.68 1772.74 2118.42 1771.72 2118.45 1770.68 2118.35 1769.64L2118.19 1770.23C2117.74 1766.8 2117.74 1766.84 2117.06 1763.45L2117.02 1763.88C2116.62 1760.77 2116.59 1760.78 2116.55 1760.51L2116.4 1761.16C2116.27 1760.51 2116.15 1759.86 2116.02 1759.21L2115.57 1759.73C2115.46 1759.39 2115.69 1758.98 2115.23 1758.7 2115 1758.55 2114.81 1759 2114.62 1759.15L2114.23 1758.58C2114.05 1759.05 2113.87 1759.52 2113.69 1759.99 2113.18 1759.06 2112.85 1759.13 2112.45 1758.19L2112.12 1758.51C2111.2 1756.86 2111.78 1756.84 2110.85 1755.21 2110.67 1755.85 2110.49 1756.49 2110.31 1757.13 2108.65 1749.43 2109.57 1746.19 2102.56 1728.57 2101.74 1730.49 2101.86 1730.47 2101.26 1731.25 2101.01 1730.86 2100.74 1730.46 2100.49 1730.07 2100.03 1732.78 2100.17 1732.76 2099.61 1735.46L2098.57 1733.82C2095.87 1736.68 2096.57 1740.58 2095.05 1737.56L2094.58 1737.97C2094.44 1737.55 2094.32 1737.08 2093.74 1736.74 2093.54 1736.62 2092.99 1737.1 2092.87 1736.96 2092.31 1736.31 2092.34 1735.6 2092.15 1734.92L2091.81 1735.94C2090.9 1733.59 2090.67 1733.65 2090.04 1731.25 2087.17 1731.31 2088.16 1731.89 2086.83 1734.37L2085.52 1731.92C2084.67 1735.33 2084.46 1738.78 2083.61 1742.19 2083.39 1743.08 2082.6 1743.91 2082.32 1744.79 2081.9 1741.22 2081.85 1741.22 2081.82 1740.91 2081.4 1745.47 2082.18 1745.5 2079.64 1749.93 2079.07 1748.67 2079.13 1748.71 2078.85 1748.29 2078.04 1749.65 2078.01 1749.62 2077.64 1750.99L2077.4 1750.39C2076.68 1752.15 2076.23 1752.8 2076.09 1753L2075.11 1752.56C2074.57 1753.17 2074.53 1753.13 2074 1753.72L2073.19 1753.89C2072.27 1752.6 2072.28 1752.63 2072.21 1752.52 2071.57 1753.59 2069.8 1755.14 2069.66 1755.32 2068.95 1755.02 2068.7 1754.95 2068.27 1755.33L2067.89 1754.96C2066.97 1756.29 2068.61 1757.3 2065.5 1756.92 2065.36 1756.59 2065.26 1756.33 2064.43 1752.7 2063.58 1756.27 2063.05 1756.21 2062.02 1757.95L2061.41 1757.04C2061.2 1757.33 2060.99 1757.63 2060.78 1757.92L2060.77 1757.97C2060.15 1757.27 2060.3 1757.28 2059.66 1756.55L2059.45 1757.22 2058.88 1756.39C2057.79 1758.39 2056.57 1758.27 2056.19 1759.01 2056.01 1758.98 2055.8 1758.81 2054.89 1759.29L2054.61 1758.91 2054.23 1759.79C2053.72 1759.01 2053.73 1759.06 2053.37 1758.24 2053.32 1758.32 2052.78 1759.16 2052.16 1759.2 2052.03 1759.2 2052.05 1759.18 2051.01 1758.37 2050.62 1759 2050.39 1758.95 2050.08 1759.6 2049.83 1758.64 2049.58 1757.68 2049.33 1756.72L2048.55 1757.22C2047.04 1753.19 2046.97 1753.21 2046.06 1749.15 2045.48 1752.71 2046.02 1752.71 2044.53 1756.2 2043.24 1754.97 2043.78 1754.93 2043.25 1752.77 2043.08 1753.27 2042.91 1753.77 2042.74 1754.27L2041.31 1751.47C2040.52 1753 2038.27 1754.85 2035.53 1762.66 2034.81 1761.42 2034.36 1761.01 2034.21 1760.88L2033.78 1762.29 2033.04 1762.04C2032.81 1762.74 2031.8 1763.56 2031.37 1767.1L2030.76 1765.57C2030.57 1766.36 2030.5 1766.32 2030.29 1767.09 2029.96 1766.39 2029.91 1766.42 2029.56 1765.72 2028.94 1767.18 2028.06 1768.47 2027.9 1768.7 2027.42 1767.46 2027.47 1767.5 2027.42 1767.4 2027.29 1767.56 2026.9 1768.04 2026.36 1769.59L2025.77 1769.2C2025.23 1770.04 2025.28 1770.02 2025.04 1770.9L2024.74 1770.35C2024.25 1772.94 2023.96 1773.36 2023.79 1773.61 2023.66 1773.11 2023.52 1772.61 2023.39 1772.11 2023.17 1772.45 2022.96 1772.79 2022.75 1773.13 2022.56 1772.6 2022.38 1772.06 2022.2 1771.53 2021.94 1771.87 2021.68 1772.21 2021.42 1772.55L2021.2 1772.04C2020.81 1772.28 2020.6 1772.4 2019.48 1775.59 2019.33 1775.19 2019.17 1774.8 2019.02 1774.41 2018.67 1775.02 2018.48 1774.95 2017.8 1775.51L2017.68 1775.05C2016.86 1777.94 2016.47 1777.88 2015.87 1780.79L2014.85 1780.5 2014.33 1778.67 2014.02 1779.3C2013.47 1778.09 2013.35 1778.14 2012.84 1776.93 2012.61 1777.32 2012.38 1777.71 2012.15 1778.1 2011.65 1776.96 2011.3 1776.13 2010.1 1763.64L2009.89 1764.01 2009.39 1761.1 2009.02 1767.33 2008.52 1761.35C2008.11 1765.27 2008.04 1765.23 2007.32 1770.09L2006.74 1767.71 2005.65 1773.02C2004.47 1769.41 2004.9 1764.86 2004.16 1768.47L2003.62 1765.92C2003.03 1771.09 2002.85 1771.06 2001.79 1776.21L2001.25 1775.42 2000.79 1776.43C2000.66 1776.44 1998.08 1777.29 1996.01 1776.17 1991.89 1777.34 1994.39 1775.39 1993.4 1773.29 1990.11 1775.97 1986.83 1778.64 1983.55 1781.32 1983.31 1780.97 1981.87 1778.85 1980.38 1776.94L1980.11 1777.59C1979.2 1775.16 1977.56 1774.17 1977.44 1773.95 1975.68 1770.77 1973.77 1767.61 1972.81 1764.37L1972.35 1765.11C1971.86 1763.32 1971.74 1763.36 1971.32 1761.57 1971.08 1761.97 1970.93 1762.54 1970.9 1762.63L1970.82 1762.24C1969.55 1765.25 1969.69 1765.28 1969.35 1765.34 1969.14 1765.38 1969.63 1765.23 1969.01 1764.16L1968.81 1764.57C1968.34 1763.22 1968.13 1762.49 1968.08 1762.31 1967.61 1763.66 1967.74 1763.63 1967.49 1764.49 1967.44 1764.31 1967.11 1763.06 1966.58 1762.28L1966.36 1762.88C1966.23 1762.33 1966.09 1761.78 1965.96 1761.23 1965.44 1763.58 1965.23 1763.8 1965.03 1764.01 1964.54 1761.8 1964.5 1761.84 1964.01 1759.64 1963.55 1760.82 1963.49 1760.77 1963.25 1761.98L1962.96 1761.86 1962.71 1763.24C1962.56 1762.54 1962.4 1761.85 1962.24 1761.16L1961.56 1762.96C1961.36 1761.46 1961.28 1761.5 1960.92 1760.01L1960.5 1761.03 1960.2 1760.25 1959.9 1761.03C1957.16 1756.8 1957.22 1756.82 1956.95 1756.46 1956.21 1758.29 1956.18 1758.26 1956.13 1758.41L1955.94 1757.31C1955.75 1757.95 1955.72 1757.9 1955.51 1758.54L1955.19 1757.16C1954.98 1758.49 1954.74 1759.83 1954.1 1761.13 1954.01 1761.32 1953.62 1760.81 1953.49 1760.62 1951.62 1764.73 1948.33 1758.65 1948.2 1758.4L1947.83 1759.12C1945.28 1756.88 1946.51 1756.55 1946.03 1756.59 1944.91 1756.66 1945.43 1756.89 1945.08 1758.21 1943.53 1755.2 1942.96 1753.2 1941.33 1741.83L1941.29 1742.23C1940.87 1739.94 1940.82 1739.97 1940.62 1737.68L1940.45 1738.38C1940.25 1736.96 1939.01 1728.29 1938.33 1720.58L1938.13 1721.36 1937.9 1720.08C1937.79 1720.88 1937.68 1721.69 1937.56 1722.49 1937.16 1719.39 1937.17 1719.42 1936.58 1716.33 1936.31 1717.38 1936.47 1717.36 1935.83 1718.37 1935.27 1713.99 1935.29 1713.97 1933.94 1712.59L1933.55 1713.21 1933.14 1712.74C1931.85 1714.59 1932.41 1714.61 1931.53 1716.54L1930.89 1715.79C1929.68 1717.05 1928.94 1717.82 1926.53 1725.74 1925.55 1728.97 1924.28 1733.41 1922.59 1739.56L1922.51 1739.2C1922.1 1741.43 1921.29 1742.03 1920.59 1743.71 1918.1 1741.78 1918.99 1738.38 1917.42 1731.1L1917.26 1731.88C1917.13 1731.23 1916.31 1727.11 1915.44 1723.75L1914.93 1725.84C1914.48 1720.22 1914.45 1720.24 1913.96 1719.25 1911.85 1725.81 1912.48 1725.82 1910.3 1732.37 1906.64 1718.02 1907 1718.02 1906.63 1716.77L1906.59 1717.12 1906.34 1716.79 1905.83 1717.38C1905.25 1716.57 1904.1 1715.84 1903.77 1715.01 1903.18 1713.56 1903.33 1712.06 1903.08 1710.59 1902.36 1714.47 1902.6 1714.43 1902.01 1718.34 1901.76 1717.9 1901.52 1717.47 1901.27 1717.03 1898.57 1721.63 1896.26 1739.42 1895.25 1733.26L1895.17 1733.73 1895.03 1732.74 1894.83 1734C1894.5 1731.94 1894.37 1731.59 1894.29 1731.38L1894.21 1732.03C1891.99 1722.39 1893.03 1722.4 1890.94 1712.77 1890.75 1713.54 1889.19 1719.59 1888.73 1722.34 1888.47 1721.66 1888.39 1721.7 1888.2 1721.05 1887.13 1721.92 1885.63 1738.78 1885.5 1740.32L1885.38 1739.47C1884.55 1745.16 1883.63 1746.56 1883.24 1747.16L1882.8 1746.21 1882.54 1747.04 1882.25 1746.43C1881.66 1752 1881.92 1751.97 1880.65 1757.48L1880.38 1756.88C1878.66 1759.99 1879.55 1755.99 1877.22 1752.97 1877.19 1752.99 1876.66 1753.45 1876.51 1753.12 1874.87 1749.59 1875.58 1749.56 1874.08 1746.02 1873.71 1746.84 1873.46 1746.79 1873.29 1747.63 1872.47 1742.09 1872.15 1742.14 1871.28 1736.56L1871.04 1737.54C1870.26 1732.97 1869.81 1733.01 1869.31 1727.31L1869.07 1727.88C1865.05 1710.12 1866.09 1710.08 1865.51 1708.55 1865.47 1708.43 1865.01 1708.76 1864.75 1708.72 1864.49 1708.67 1864.57 1708.49 1864.46 1708.38 1860.46 1722.28 1861.54 1722.33 1860.97 1723.52 1860.81 1723.86 1857.91 1725.87 1857.29 1730.67L1857.09 1730.1C1857.01 1730.5 1856.13 1735.28 1856.05 1735.74L1856 1735.74C1855.93 1735.41 1855.87 1735.07 1855.8 1734.74L1855.61 1736.91 1855.48 1736.22C1855.46 1736.48 1855.36 1737.87 1855.15 1739.49L1855.07 1738.48C1854.74 1741.34 1854.4 1741.31 1854.15 1744.18 1854.05 1743.07 1853.95 1741.96 1853.84 1740.85 1853.41 1743.84 1853.19 1743.79 1852.89 1746.8 1852.74 1745.92 1852.61 1745.04 1852.47 1744.17 1852.28 1745.46 1852.28 1745.44 1852 1746.7 1851.93 1745.57 1851.86 1744.45 1851.78 1743.32 1851.73 1743.53 1851.66 1743.75 1851.62 1743.96 1851.54 1744.45 1851.51 1744.94 1851.42 1745.43 1851.16 1741.44 1851.03 1740.66 1850.97 1740.25 1850.74 1743.07 1850.7 1743.04 1850.33 1745.87 1850.18 1743.27 1850.13 1743.3 1849.94 1741.39 1849.41 1747.88 1849.54 1747.86 1849 1749.98L1848.8 1749.39 1848.68 1749.72 1848.51 1749.26 1848.25 1752.1C1848.14 1751.23 1848.12 1751.26 1847.72 1749.06 1847.43 1749.94 1847.4 1749.92 1847.23 1750.8L1847.01 1748.23 1846.88 1748.71 1846.8 1748.24C1846.18 1748.94 1846.44 1748.93 1846.38 1748.98L1846.09 1748.54C1846.07 1748.65 1845.23 1753.59 1845.15 1754.03 1845.09 1753.69 1845.09 1753.73 1844.44 1751.17 1844.04 1756.42 1844.22 1756.39 1843.34 1761.59 1843.04 1760.03 1842.99 1760.06 1842.77 1758.51 1841.99 1770.31 1841.03 1770.29 1840.64 1770.51L1840.2 1769.96C1838.72 1771.49 1838.79 1771.49 1838.61 1771.61 1838.31 1771.23 1837.59 1770.94 1837.15 1770.59 1836.73 1770.25 1836.19 1769.92 1836.04 1769.54 1834.49 1765.77 1834.95 1765.76 1831.06 1744.02L1830.81 1744.9 1830.59 1744.45C1830.41 1744.62 1830.57 1744.83 1830.39 1744.99 1830.3 1745.07 1830.31 1744.66 1830.26 1744.74 1830.14 1744.95 1830.28 1745.17 1830.16 1745.38 1829.67 1743.1 1829.5 1743.15 1829.25 1740.85 1828.86 1742.94 1828.76 1742.92 1828.34 1745.03L1828.27 1744.68 1828.15 1745.29C1827.39 1736.56 1827.68 1736.59 1826.94 1727.84L1826.89 1728.46 1826.54 1726.25C1826.44 1727.7 1826.33 1729.14 1826.23 1730.59 1826.12 1729.79 1826.01 1729 1825.9 1728.2L1825.74 1729.42C1825.42 1725.24 1825.67 1725.27 1825.03 1721.11L1824.94 1721.79C1824.86 1721.03 1824.78 1720.28 1824.69 1719.52 1824.43 1720.3 1824.66 1722.73 1823.44 1727.7 1822.15 1723.19 1822.74 1723.18 1821.47 1720.55L1821.4 1720.93C1821.17 1720.63 1821.02 1720.13 1821 1720.06L1820.93 1720.44C1819.39 1715.76 1819.22 1710.23 1819.04 1707.84 1818.57 1714.32 1818.7 1714.28 1818.13 1720.75 1817.97 1720.17 1818.02 1720.19 1817.84 1717.82L1817.79 1718.2 1817.67 1717.69 1817.63 1718.15 1817.5 1717.2C1817.24 1718.13 1813.62 1732.41 1812.48 1734.34 1810.31 1729.53 1810.85 1729.5 1810.6 1729.08 1810.37 1728.71 1809.87 1728.8 1806.53 1724.58 1806.33 1724.55 1805.3 1724.42 1804.73 1723.77 1804.31 1723.3 1801.86 1711.28 1801.09 1709.34 1800.47 1710.78 1800.47 1710.74 1800.13 1712.23L1799.91 1711.42 1799.74 1711.79 1799.6 1711.13 1799.43 1711.98C1798.3 1707.22 1798.74 1707.24 1798.05 1702.45 1798.02 1702.91 1797.58 1710.92 1797.23 1713.67 1797.13 1712.58 1797.03 1711.5 1796.94 1710.41 1796.68 1714.11 1796.69 1714.09 1796.65 1714.41L1796.52 1713.75C1796.45 1714.95 1796.38 1716.16 1796.31 1717.37L1796.27 1716.86C1795.47 1728.89 1794.77 1728.87 1793.88 1729.48 1790.77 1727.88 1791.33 1718.4 1786.94 1707.76 1786.19 1708.43 1786.14 1709.21 1785.83 1709.94 1784.89 1712.15 1784.21 1714.39 1783.19 1716.59L1782.46 1716.67 1782.01 1717.25 1781.18 1717.1C1779.14 1720.23 1779.12 1720.19 1778.97 1720.46L1778.61 1719.94C1777.51 1723.65 1777.33 1723.61 1776.29 1727.3 1775.39 1725.99 1777.56 1725.86 1771.76 1710.25 1771.3 1709.01 1770.67 1707.78 1769.86 1706.57 1769.64 1706.25 1767.8 1706.29 1766.54 1710.49 1766.18 1708.27 1766.44 1708.28 1765.53 1706.09 1765.3 1708.12 1766.29 1708.16 1764.66 1710.09L1764.15 1709.42C1763.65 1710.89 1763 1710.78 1762.28 1712.22 1760.05 1711.52 1761.26 1711.27 1760.73 1709.63L1758.46 1712.57C1755.62 1707.41 1755.67 1707.44 1755.39 1707L1752.03 1713.88C1751.75 1713.6 1750.59 1713.63 1750.3 1713.35 1749.45 1712.53 1749.19 1711.62 1748.78 1710.73 1747.89 1708.79 1747.48 1706.8 1746.41 1704.87 1745.03 1707.92 1745.24 1707.9 1743.93 1710.98 1743.66 1708.99 1743.66 1709.02 1743.48 1707.02L1743.34 1707.99 1743.12 1706.85C1742.03 1712.29 1741.57 1717.86 1741.5 1718.82L1741.28 1718.2 1741 1719 1740.77 1717.76 1740.64 1718.52C1740.45 1717.31 1740.47 1717.34 1740.39 1717.07 1739.41 1727.25 1740 1727.21 1738.55 1737.37 1737.55 1734.55 1737.66 1727.11 1737.1 1725.33 1736.71 1728.3 1736.73 1728.26 1736.48 1731.24 1736.25 1729.74 1736.29 1729.78 1736.06 1728.29L1735.94 1729C1735.82 1728.69 1735.7 1728.39 1735.58 1728.08L1735.34 1729 1735.09 1727.66 1734.89 1728.44C1734.58 1727.11 1734.6 1727.14 1734.2 1725.83 1733.37 1728.78 1733.75 1728.78 1731.55 1733.48L1730.97 1727.07C1730.62 1727.05 1729.73 1728.11 1729.09 1726.94L1727.62 1729.47C1724.21 1726.22 1724.31 1725.82 1724.08 1726.1 1723.95 1725.59 1723.94 1725.6 1723.34 1723.6L1722.91 1724.95 1721.85 1720.51 1718.11 1724.5C1716.86 1722.52 1718.01 1719.97 1716.49 1721.93 1716.31 1722.17 1716.32 1722.42 1716.13 1722.66 1715.52 1722.25 1715.32 1721.61 1714.27 1721.43 1713.7 1721.34 1713.05 1722.94 1713 1723.07 1712.02 1721.54 1712.04 1721.57 1711.31 1719.99L1710.51 1720.19 1709.11 1718.03 1708.46 1718.28C1705.12 1712.16 1704.63 1712.24 1702.01 1706.04 1701.48 1707.97 1702.01 1708.01 1700.2 1709.81L1700.01 1708.81C1699.77 1710.75 1699.57 1710.71 1698.73 1712.61L1698.53 1710.88C1698.38 1712.12 1698.22 1713.35 1698.07 1714.59L1697.87 1714.03C1697.2 1717.06 1696.91 1717.01 1696.56 1720.09L1696.35 1717.78C1696.13 1719.99 1696.15 1719.95 1695.88 1722.14 1695.83 1721.93 1695.75 1721.72 1695.71 1721.5 1695.62 1720.9 1695.61 1720.3 1695.5 1719.7 1695.41 1719.81 1695.16 1720.56 1695.13 1720.64L1694.7 1718.17C1694.62 1718.34 1694.55 1718.49 1694.31 1720.41L1694.19 1719.19 1693.99 1721.28C1693.62 1718.34 1693.58 1718.36 1693.39 1715.41 1693.15 1718.45 1693.05 1718.42 1692.88 1721.46L1692.68 1720.44C1691.35 1726.47 1692.27 1726.48 1691 1732.24 1690.92 1731.67 1690.85 1731.11 1690.77 1730.54L1690.54 1731.25C1690.46 1730.7 1689.79 1727.8 1689.47 1725.33 1688.21 1732.01 1688.15 1732 1688.07 1732.58 1687.61 1729.91 1687.46 1729.95 1687.02 1727.3 1686.3 1729.31 1686.63 1729.39 1686.11 1732.45 1685.99 1732.02 1685.87 1731.6 1685.75 1731.17 1685.48 1734.04 1685.47 1734.01 1685.22 1736.88L1685 1736.34 1684.7 1736.9 1684.46 1736.01C1684.21 1736.79 1683.96 1737.57 1683.7 1738.35L1683.23 1737.85C1683.15 1737.99 1682.81 1737.95 1682.15 1739.92L1681.15 1739.32C1680.33 1740.3 1680.99 1741.02 1676.47 1744.45 1674.58 1743.18 1675.41 1742.78 1675.21 1742.88 1674.25 1743.34 1673.63 1744.38 1673.55 1744.52L1672.77 1743.72 1672.25 1744.44C1671.49 1744.26 1670.81 1743.62 1670.12 1744.55 1670.05 1744.41 1670.07 1744.12 1669.75 1744.15 1669.34 1744.18 1669.61 1744.61 1669.2 1744.63 1668.86 1744.65 1669.28 1744.12 1668.97 1744.19 1668.3 1744.71 1668.82 1744.75 1667.26 1747.25 1665.26 1744.51 1665.08 1743.72 1665.01 1743.41 1662.97 1744.72 1663.66 1743.01 1662.35 1740.45 1661.76 1741.75 1661.62 1741.69 1660.99 1742.97 1660.65 1742.2 1660.33 1741.44 1659.99 1740.68 1659.63 1742.44 1658.98 1744.07 1658.87 1744.37 1657.8 1743.8 1656.38 1741.16 1654.72 1740.47L1653.95 1740.86C1653.62 1740.36 1653.05 1739.89 1652.39 1739.46 1652.12 1739.28 1651.45 1739.26 1651.21 1739.07 1650.71 1738.67 1650.66 1738.19 1650.26 1737.77 1650.18 1737.68 1649.51 1736.96 1648.44 1736.91 1642.37 1736.59 1640.98 1737.26 1637.6 1734.49 1634.94 1733.43 1635.63 1733.25 1633.94 1731.89 1630.74 1732.06 1630.84 1731.78 1629.07 1731.18 1628.95 1731.14 1629.05 1731.24 1628.65 1731.99 1625.85 1727.98 1629.46 1726.65 1624.87 1722.32 1624.59 1723.13 1624.31 1723.94 1624.02 1724.75L1623.62 1723.68 1623.17 1724.15C1622.49 1722.7 1622.73 1722.71 1622.45 1721.01 1622.05 1725.38 1621.61 1725.34 1620.66 1729.68 1620.52 1729.37 1620.37 1729.07 1620.23 1728.76 1618.86 1734.37 1620.46 1739.2 1617.41 1745.6 1617.08 1745.25 1617.29 1745.26 1616.93 1744.92 1616.22 1746.62 1616.11 1746.58 1615.46 1748.27 1615.29 1747.81 1615.13 1747.36 1614.96 1746.91 1614.65 1747.54 1614.51 1747.49 1614.36 1748.11L1614.03 1747.58C1612.98 1750.92 1611.65 1750.81 1611.19 1754.78 1610.38 1753.54 1610.11 1753.54 1609.2 1741.73L1609.07 1742.9C1607.94 1738.66 1608.96 1738.67 1607.53 1732.09 1606.47 1735.45 1606.84 1735.44 1606.4 1738.83 1606.04 1736.24 1605.98 1736.27 1605.54 1733.7 1605.05 1737.72 1605.17 1737.99 1604.64 1738.56 1604.23 1737.26 1603.68 1736.89 1603.34 1735.37L1603.23 1736.04C1601.32 1721.88 1600.29 1705.44 1599.98 1702.85 1599.26 1705.31 1599.47 1705.29 1599.29 1707.78 1599.19 1707.28 1599.09 1706.79 1598.99 1706.29 1598.33 1709.76 1595.69 1709.47 1595.79 1710.8 1595.85 1711.53 1596.41 1712.25 1596.3 1712.97 1596.13 1712.56 1595.96 1712.15 1595.79 1711.74 1595.45 1714.25 1596.09 1714.27 1594.41 1716.65 1593.91 1716.4 1593.8 1716.44 1593.26 1716.68 1591.96 1715.67 1592.48 1715.63 1592.05 1714.47 1591.53 1716.34 1591.22 1716.5 1591.09 1716.35 1590.21 1715.39 1589.64 1714.37 1588.9 1713.38L1588.17 1715.84C1587.06 1714.31 1587.47 1714.31 1587.37 1713.59 1587.27 1714.25 1587.31 1714.92 1587.07 1715.57 1587.04 1715.65 1586.78 1715.36 1586.68 1715.42 1585.94 1715.89 1586.25 1715.93 1585.41 1719.2L1585.18 1718.73C1584.42 1721.41 1583.82 1724.13 1583.71 1724.6L1583.58 1724.13C1583.38 1725.06 1581.76 1732.75 1581.92 1735.79 1582.07 1738.52 1582.65 1738.61 1582.15 1738.7 1581.61 1738.8 1580.36 1738.44 1579.73 1740.2L1579.36 1739.38 1579.28 1739.79C1579.16 1738.84 1579.09 1738.88 1578.95 1737.95L1578.87 1738.44 1578.78 1737.99C1578.41 1740.79 1578.28 1740.76 1578.06 1742.07 1577.87 1741.18 1577.69 1740.28 1577.5 1739.38L1577.34 1739.85C1576.97 1738.76 1576.66 1736.71 1576.62 1736.44 1576.52 1737.03 1576.43 1737.62 1576.33 1738.21 1575.63 1736.79 1575.8 1736.82 1575.55 1735.35L1575.2 1736.34 1575.05 1735.73C1574.52 1739.81 1575.06 1739.83 1574.07 1742.44L1573.7 1741.69 1573.44 1742.24C1573.39 1742.11 1572.4 1739.48 1571.3 1740.84 1570.3 1740.38 1568.67 1736.89 1568.1 1739.36L1567.97 1738.68C1567.77 1739.89 1567.77 1739.85 1567.61 1741.06 1567.44 1740.07 1567.26 1739.09 1567.09 1738.1L1566.78 1738.53C1566.45 1737.85 1565.12 1731.76 1565 1731.17L1564.78 1732.14C1564.63 1731.76 1564.65 1731.36 1564.49 1730.98 1564.46 1730.9 1564.43 1731.3 1564.41 1731.22 1564.29 1730.82 1564.33 1730.41 1564.21 1730.01 1563.7 1735.78 1563.78 1736.18 1563.48 1738.31L1563.33 1737.41C1562 1742.4 1562.49 1742.39 1561.46 1747.39 1561.21 1746.98 1560.39 1747.16 1560.3 1747.18 1559.93 1747.27 1559.64 1747.72 1559.42 1747.57 1558.78 1747.13 1558.33 1744.85 1558.29 1744.61 1557.88 1746.24 1556.87 1747.11 1556.64 1747.3 1556.53 1747.39 1555.9 1747.48 1555.41 1746.17L1555 1746.84 1554.68 1746.46C1554.01 1749.11 1552.9 1749.37 1552.79 1749.47 1551.82 1746.78 1552.36 1746.75 1552.03 1746.57 1551.69 1746.38 1550.84 1746.39 1550.66 1746.16 1549.31 1744.36 1548.9 1742.44 1547.58 1740.64 1547.35 1740.94 1547.08 1741.87 1547.05 1741.98 1546.99 1741.71 1546.06 1738.04 1544.88 1738.73 1544.72 1738.33 1544.56 1737.93 1544.41 1737.53L1543.97 1738.35C1543.43 1736.49 1544.12 1736.49 1543.88 1736.36 1543.41 1736.11 1541.78 1736.62 1541.62 1736.66 1540.91 1735.7 1538.7 1735.04 1537.98 1734.08 1537.15 1732.97 1537.32 1731.77 1537.1 1730.61 1536.68 1731.86 1536.45 1731.81 1536.13 1733.08 1536.01 1732.77 1535.9 1732.45 1535.78 1732.14 1535.74 1732.25 1535.4 1733.08 1535.17 1733.58L1534.8 1732.06C1534.58 1734.12 1534.23 1736.48 1534.17 1736.86 1534.04 1735.88 1533.91 1734.9 1533.79 1733.93 1533.04 1746.35 1533.48 1747.12 1530.94 1747.21 1530.1 1746.67 1530.07 1746.63 1528.55 1746.66 1527.79 1745.01 1527.88 1745.03 1527.37 1743.39 1525.12 1746.38 1523.73 1746.07 1522.84 1747.02 1522.38 1746.01 1522.32 1746.05 1521.81 1745.02 1521.75 1745.12 1521.36 1745.81 1520.91 1746.21 1519.54 1745.75 1519.91 1745.66 1519.21 1744.95 1518.54 1746.14 1518.67 1746.13 1518.02 1747.3L1517.54 1746.69C1515.69 1747.44 1516.28 1746.47 1515.81 1745.4 1514.02 1747.47 1515.04 1747.72 1512.59 1748.64 1512.33 1748.01 1512.34 1747.6 1511.12 1748.01 1507.38 1749.26 1507.32 1749.22 1506.9 1749.5 1506 1750.11 1505.63 1749.5 1505.44 1749.58 1504.41 1749.99 1503.86 1750.59 1503.15 1751.12L1502.41 1750.89 1502 1751.26 1501.28 1750.89C1500.58 1751.41 1500.02 1751.5 1499.41 1750.94 1498.72 1751.87 1498.72 1751.82 1498.66 1751.9 1498.29 1751.54 1497.64 1751.24 1497 1750.96 1495.92 1750.49 1496.09 1750.48 1495.66 1749.82L1495.23 1750.22C1494.37 1749.58 1494.08 1749.68 1493.53 1748.96 1493.38 1749.18 1492.42 1749.46 1489.44 1753.35 1488.45 1752.85 1488.24 1753.03 1487.6 1753.23L1486.96 1752.61C1485.95 1753.78 1486.93 1754.22 1484.35 1754.44 1483.71 1754.98 1483.78 1754.97 1482.8 1755.39 1482.15 1754.69 1482.04 1754.75 1481.43 1754.05L1481.06 1754.93C1480.98 1754.81 1480.98 1754.82 1479.88 1753.42 1478.52 1754.37 1476.95 1754.03 1476.36 1755.79 1475.62 1754.15 1475.67 1754.18 1475.6 1754.04 1475.13 1754.99 1474.65 1755.93 1474.18 1756.87 1474.07 1756.71 1473.21 1755.51 1472.43 1754.93 1472.07 1755.45 1472.04 1755.42 1471.65 1755.93L1471.42 1755.45C1471.29 1755.87 1471.16 1756.29 1471.03 1756.71 1469.75 1755.86 1469.82 1755.84 1469.67 1755.78 1469.49 1756.05 1465.08 1762.69 1464.12 1758.32 1463.42 1755.08 1463.04 1751.84 1462.32 1748.6 1462.06 1749.21 1461.98 1749.17 1461.73 1749.8 1461.04 1747.92 1461.21 1747.94 1460.98 1746.04 1460.67 1747.38 1460.62 1747.33 1460.15 1748.68L1459.86 1747.21C1459.79 1748.05 1459.78 1748.02 1459.44 1750.72L1459.28 1749.04 1459.15 1749.4 1459.11 1748.93C1458.73 1750.63 1457.9 1750.52 1457.13 1752.23 1455.79 1749.28 1455.72 1746.25 1455.08 1743.25 1451.43 1726.25 1451.34 1726.27 1451.08 1724.79 1450.51 1725.73 1450.39 1725.69 1450 1726.66 1449.75 1725.92 1449.5 1725.18 1449.25 1724.44 1449.03 1725.05 1449.28 1725.05 1447.46 1732.11 1444.96 1724.37 1445.95 1721.28 1443.67 1715.89L1443.36 1716.94C1443.26 1716.49 1443.09 1716.06 1442.95 1715.62 1442.63 1714.63 1442.27 1713.64 1441.97 1712.65L1441.74 1713.29C1441.42 1711.22 1441.72 1711.24 1440.74 1709.19L1438.99 1714.92C1438.65 1715.41 1437.38 1715.71 1437.15 1716.21 1436.22 1718.25 1435.95 1720.34 1435.57 1722.41L1435.11 1721.07C1434.47 1723.02 1433.42 1725.07 1433.25 1725.42L1433.08 1725.03 1432.95 1725.32 1432.85 1724.99 1432.61 1726.35 1432.48 1725.91C1431.89 1726.93 1431.17 1734.19 1430.58 1736.75L1430.42 1736.34C1429.76 1739.41 1429.72 1739.4 1429.67 1739.67L1429.45 1739.05C1429.21 1739.7 1429.49 1739.73 1428.72 1740.15 1428.46 1739.77 1428.54 1739.77 1427.14 1733.02 1427.14 1733.02 1424.77 1724.86 1424.57 1724.15 1424.44 1725.36 1425.01 1726.56 1424.88 1727.77 1424.77 1728.79 1424.51 1729.82 1423.84 1730.8L1422.84 1729.77C1421.53 1733.28 1421.31 1733.23 1419.63 1736.7L1419.23 1736.39C1419.05 1736.84 1418.88 1737.28 1418.71 1737.73L1418.05 1736.98 1416.74 1739.38C1412.95 1726.96 1413.32 1726.95 1412.75 1725.89 1412.56 1726.93 1412.38 1727.97 1412.19 1729.01L1411.89 1728.44C1410.87 1730.28 1410.6 1730.22 1410 1732.08L1407.32 1728.69C1406.11 1729.03 1406.09 1729.79 1405.5 1729.2 1404.32 1734.68 1404.13 1734.65 1402.64 1737.39 1399.73 1735.01 1398.83 1724.04 1395.16 1715.91L1394.95 1716.64 1394.65 1714.84C1393.6 1716.48 1392.47 1720.38 1392.33 1720.87 1391.07 1720.17 1391.39 1720.13 1391.11 1719.26 1387.47 1734.95 1385.57 1737.36 1384.39 1738.86 1384.25 1738.47 1383.23 1735.62 1382.8 1733.92L1382.63 1734.69C1381.49 1732.58 1381.64 1732.59 1381.17 1730.45L1381.01 1731.04C1379.86 1724.04 1379.24 1724.09 1378.12 1717.07 1377.94 1717.35 1377.07 1718.62 1376.19 1720.63 1376.13 1720.45 1375.66 1719.16 1375.31 1718.47 1374.39 1721.23 1374.29 1721.2 1374.22 1721.44 1373.22 1717.92 1373.97 1717.93 1372.83 1714.44 1372 1718.23 1371.86 1718.2 1370.99 1721.99 1370.34 1717.19 1370.65 1717.21 1369.42 1712.4L1367.94 1720.1C1365.71 1712.72 1365.04 1712.77 1364.52 1705.35 1363.31 1713.01 1364.26 1713.01 1361.82 1720.6 1359.82 1716.2 1360.17 1716.2 1359.4 1711.73L1359.24 1712.3C1359.06 1711.91 1358.87 1711.52 1358.68 1711.12 1358.36 1712.59 1358.21 1712.54 1357.89 1714.01L1357.85 1713.63C1357.74 1714.26 1356.78 1719.93 1355.96 1721.5 1355.54 1721.1 1355.57 1721.14 1355.3 1720.71L1355.03 1721.74C1354.91 1720.73 1354.79 1719.73 1354.67 1718.72 1354.55 1719.79 1354.43 1720.86 1354.32 1721.94L1354.27 1721.43C1354.16 1722.06 1353.99 1722.97 1353.46 1724.56L1353.35 1724.11C1353.07 1724.21 1352.66 1725.49 1352.62 1725.61 1352.19 1723.67 1352.2 1723.71 1351.85 1721.75 1350.61 1725.31 1350.44 1729.09 1349.69 1727 1349.16 1727.82 1349.08 1727.78 1348.66 1728.58L1348.36 1728.02C1347.17 1729.26 1347.82 1729.31 1346.67 1730.53L1346.3 1729.91C1346.05 1730.5 1346.15 1730.49 1345.76 1730.95 1345.26 1729.14 1344.87 1729.19 1344.17 1727.4L1343.73 1728.01C1343.06 1726.27 1341.22 1724.25 1340.73 1723.38 1340.52 1723.75 1340.32 1724.13 1340.11 1724.5L1339.71 1724.01C1339.19 1724.32 1338.22 1724.9 1336.91 1728.65 1335.79 1721.87 1335.38 1721.93 1332.93 1715.24 1332.58 1716.7 1332.5 1716.65 1332.1 1718.1L1331.76 1717.22 1331.66 1717.56C1331.41 1715.79 1331.36 1715.83 1331.08 1714.04 1330.9 1714.37 1330.73 1714.7 1330.55 1715.03 1330.36 1714.08 1330.18 1713.12 1329.99 1712.16L1329.8 1713.18C1329.67 1712.73 1329.53 1712.27 1329.4 1711.81 1328.46 1716.98 1327.95 1716.93 1325.98 1722.06 1325.68 1720.54 1325.9 1720.56 1325.15 1719.11L1324.97 1720.64 1324.85 1720.31C1324.37 1723.82 1324.89 1723.83 1322.73 1727.18 1322.28 1726.53 1321.92 1722.85 1321.89 1722.48 1321.66 1723.43 1321.43 1724.38 1321.2 1725.32L1320.98 1723.86C1319.32 1733.08 1320.03 1733.06 1317.67 1742.28 1317.23 1741.45 1316.6 1741.5 1315.58 1733.97L1315.3 1735.52C1315.2 1734.69 1314.92 1732.46 1313.18 1725.18 1313.07 1725.96 1312.95 1726.75 1312.84 1727.53L1312.76 1726.8 1312.65 1727.33C1312.64 1727.26 1309.36 1715.38 1309.34 1715.36 1309.04 1716.13 1309.07 1716.1 1308.88 1716.9 1308.53 1715.92 1307.57 1713.59 1306.92 1711.13 1306.49 1712.33 1306.04 1714.22 1305.97 1714.48L1305.57 1713.54C1305.1 1716.07 1304.93 1716.04 1304.43 1718.56L1304.05 1716.11C1301.07 1722.4 1301.32 1740.28 1295.53 1744.1 1294.82 1742.56 1294.3 1741.01 1293.44 1739.48 1293.38 1739.37 1293.37 1739.78 1293.11 1739.79 1290.98 1739.92 1291.79 1739.33 1289.38 1734.78 1289.29 1734.93 1288.98 1735.33 1288.9 1735.18 1287.96 1733.5 1287.34 1731.79 1286.75 1730.07L1286.54 1730.57C1285.59 1725.11 1285.97 1725.12 1284.96 1721.16 1284.47 1722.16 1284.29 1722.82 1284.26 1722.97 1283.97 1721.81 1284.08 1721.84 1284.05 1721.74L1283.9 1722.27 1283.72 1720.35C1283.61 1721.33 1283.67 1721.3 1283.43 1722.26L1283.28 1721.86 1283.16 1722.4C1281 1709.65 1282.31 1709.64 1279.66 1696.9 1279.62 1697.52 1279.44 1700.99 1279.14 1704.59 1279.06 1703.55 1278.97 1702.51 1278.88 1701.47 1278.82 1703.1 1278.76 1704.73 1278.69 1706.36L1278.61 1704.88C1278.54 1705.9 1278.47 1706.93 1278.4 1707.96L1278.36 1707.46C1277.95 1712.39 1277.84 1712.37 1276.45 1717.26 1275.52 1716.12 1275.69 1717.57 1274.67 1720.06 1274.09 1717.95 1274 1717.99 1273.6 1715.85 1272.9 1719.37 1273.06 1719.36 1272.42 1720.87L1272.33 1720.57C1271.97 1721.72 1271.98 1721.71 1271.95 1721.76 1271.92 1721.67 1271.63 1720.94 1271.27 1720.55 1271.19 1720.85 1271.21 1720.82 1270.99 1722.58 1270.72 1721.62 1270.77 1721.65 1270.59 1721.33 1270.5 1721.96 1270.42 1722.58 1270.33 1723.2 1270.22 1722.96 1270.1 1722.72 1269.99 1722.48 1268.6 1730.93 1264.98 1731.12 1264.47 1730.49 1262.77 1735.52 1263.12 1735.54 1259.7 1740.42 1256.94 1734.03 1256.84 1734.05 1256.65 1733.49 1256.2 1733.81 1256.06 1733.9 1254.83 1738.07L1254.4 1737.29C1253.95 1737.88 1254.06 1737.88 1253.5 1738.32L1252.75 1737.9C1252.12 1739.97 1252.08 1742.08 1251.04 1744.11 1250.37 1745.43 1248.6 1746.6 1247.67 1747.88 1246.96 1746.15 1243.79 1739.49 1242.87 1736.58 1242.7 1737.31 1242.52 1738.05 1242.34 1738.78 1241.15 1737.24 1241.23 1737.26 1240.5 1735.68 1239.19 1736.28 1239.59 1736.34 1238.18 1738.59L1237.96 1737.97 1237.75 1738.91 1237.3 1738.4 1237.15 1739.13C1237.07 1738.4 1236.26 1730.82 1234.51 1730.15 1234.39 1730.63 1234.44 1731.13 1234.06 1731.58 1233.93 1731.74 1233.8 1731.26 1233.71 1731.1 1233.27 1731.89 1233.17 1731.85 1232.52 1732.61L1232.27 1731.74 1232.15 1732.12 1231.82 1730.71C1230.53 1738.24 1229.87 1739.88 1228.74 1743.42 1227.24 1741.26 1227.8 1741.25 1226.46 1739.11 1225.89 1739.79 1225.53 1736.77 1225.5 1736.56L1225.38 1737.7 1225.21 1735.88 1225.09 1736.92C1223.97 1727.61 1222.9 1727.67 1221.73 1718.37 1220.92 1721.12 1220.76 1733.61 1219.48 1726.72L1219.35 1727.55 1219.15 1726.01 1218.92 1727.18C1218.71 1726.84 1218.5 1726.51 1218.29 1726.17L1217.85 1726.69C1217.41 1726.51 1217.47 1726.06 1217.4 1726.36 1217 1728.01 1216.57 1729.65 1216.3 1731.3 1216.14 1730.73 1216.05 1730.78 1215.75 1730.25 1215.29 1732.23 1215.33 1732.2 1214.69 1734.17 1214.56 1733.25 1214.42 1732.33 1214.29 1731.41L1214.07 1733.03C1210.03 1721.97 1210.56 1721.96 1209.88 1710.77 1209.63 1713 1209.47 1714.77 1209.45 1715.12L1209.35 1714.75C1209.23 1716.68 1209.09 1718.6 1208.96 1720.52 1208.85 1719.37 1208.74 1718.23 1208.63 1717.08L1208.51 1718.31 1208.42 1717.87C1208.37 1718.11 1207.38 1728.05 1205.27 1729.65 1205.12 1729.38 1204.84 1728.86 1204.29 1726.15L1203.85 1728.73 1203.73 1728.04 1203.54 1729.05C1203.47 1728.69 1202.84 1725.6 1202.3 1724.59L1202.02 1725.17C1201.09 1724.25 1200.73 1718.14 1200.69 1717.53L1200.61 1718.42 1200.53 1717.19C1200.32 1719.93 1200.3 1719.89 1200.03 1722.59 1199.9 1721.54 1198.96 1714.72 1198.87 1714.04L1198.72 1715.41C1198.66 1714.67 1198.51 1711.27 1198.08 1711.12 1197.98 1711.84 1198.04 1711.8 1197.79 1712.49L1197.58 1710.91 1197.41 1713.42 1197.33 1712.4 1197.25 1713.81 1197.2 1712.77 1197.08 1715.02 1197 1714.17 1196.87 1716.02 1196.83 1715 1196.71 1716.86 1196.62 1715.89 1196.54 1717.5 1196.41 1716.52 1196.33 1717.93 1196.29 1717.19 1196.21 1718.36C1196.09 1717.38 1195.98 1716.4 1195.86 1715.42L1195.65 1717.11C1195.52 1716.69 1195.39 1716.27 1195.25 1715.85 1194.48 1718.49 1194.44 1718.48 1194.38 1718.71 1194.33 1718.33 1193.82 1714.11 1193.25 1714.08 1192.98 1714.07 1192.54 1721.87 1192.15 1723.9 1191.87 1721.34 1191.59 1718.77 1191.3 1716.21 1190.74 1720.83 1190.29 1720.79 1189.72 1726.45L1189.56 1726.07 1189.48 1726.43C1189.09 1724.37 1188.93 1724.4 1188.69 1723.8 1188.34 1726.28 1187.48 1738.14 1185.79 1732.13L1185.5 1733.08C1185.1 1731.3 1185.15 1731.31 1184.62 1727.92L1184.38 1728.86C1183.61 1725.53 1183.82 1725.55 1183.48 1722.19 1182.85 1724.23 1182.77 1726.9 1182.43 1727.69L1182.28 1727.29C1182.2 1727.73 1181.42 1731.75 1180.02 1732.68 1178.98 1731.16 1175.41 1718.77 1175.31 1717.61 1174.56 1718.4 1174.26 1720.76 1174.23 1721.03 1173.63 1725.68 1173.35 1730.34 1172.54 1734.98 1172.24 1734.41 1171.65 1733.26 1170.59 1727.69L1170.18 1728.7 1169.97 1728.04C1167 1733.33 1168.19 1733.41 1167.73 1733.84 1166.47 1734.99 1167.53 1733.47 1167.18 1732.21 1165.69 1738.99 1165.39 1738.94 1164.49 1745.75L1164.21 1744.74C1162.88 1750.51 1163.14 1750.52 1159.89 1756.12 1157.76 1755 1157.78 1757.64 1157.47 1758.7 1157.32 1758.26 1157.3 1758.28 1156.84 1757.35 1154.48 1759.23 1154.89 1759.27 1153.65 1761.34 1153.26 1760.61 1152.26 1760.64 1151.58 1759.71L1151.09 1760.01C1150.47 1760.1 1149.87 1760.31 1149.21 1760.29 1148.91 1760.28 1149.07 1759.99 1148.8 1759.94L1147.76 1759.91 1146.68 1761.48C1146.49 1761.24 1145.3 1759.71 1143 1758.76 1141.77 1761.92 1142.39 1762.26 1140.86 1762.31 1138.73 1762.38 1140.11 1760.38 1139.28 1761.23 1138.6 1761.92 1137.94 1762.62 1137.41 1763.34L1137.04 1762.92C1136.43 1766.25 1135.83 1766.18 1134.54 1768.81L1133.75 1767.71 1131.51 1769.53C1129.93 1769.47 1131.3 1768.26 1130.08 1768.69 1129.07 1769.06 1129.4 1769.14 1128.14 1770.87L1127.77 1770.07 1126.93 1771.88 1126.25 1771.35 1125.7 1771.81C1124.78 1769.51 1123.86 1767.21 1122.7 1764.93 1122.4 1764.35 1121.63 1763.82 1121.34 1763.24 1120.23 1763.08 1120.1 1764.11 1119.79 1763.61 1119.54 1763.2 1119.06 1762.43 1118.37 1758.34 1117.79 1760.01 1117.7 1759.98 1117.1 1761.67L1116.89 1761.11C1116.72 1761.65 1116.48 1761.58 1116.32 1762.14 1116.02 1761.02 1115.9 1761.07 1115.55 1759.94 1115.38 1760.74 1115.22 1761.55 1115.05 1762.35 1114.57 1760.34 1114.76 1760.35 1114.08 1759.11 1113.85 1759.81 1113.62 1760.51 1113.39 1761.2 1113.12 1760.66 1112.26 1760.71 1110.65 1752.45 1110.3 1753.1 1109.96 1753.74 1109.61 1754.39 1107.32 1750.34 1106.79 1750.42 1105.6 1746.91L1105.2 1747.38C1105.13 1747.12 1105.04 1746.77 1104.08 1744.05 1102.44 1746.61 1103.22 1748.46 1100.83 1751.01L1100.61 1750.68C1100.01 1751.53 1099.95 1751.5 1099.69 1752.4L1099.34 1751.97 1098.6 1752.57C1097.38 1750.9 1097.42 1750.92 1096.9 1749.18 1096.73 1749.45 1096.56 1749.73 1096.39 1750.01 1094.79 1745.97 1096.7 1745.92 1094.54 1740.12 1093.62 1744.99 1093.33 1744.95 1092.45 1749.82L1092.36 1749.31C1092.1 1750.07 1091.78 1750.02 1091.43 1750.79 1089.91 1741.97 1089.93 1741.97 1089.79 1741.21L1089.5 1741.8C1089.29 1741.01 1089.31 1741.04 1088.85 1740.27L1088.54 1740.88C1088.35 1740.06 1088.15 1739.25 1087.96 1738.44 1087.68 1737.22 1087.43 1736 1087.14 1734.78 1085.9 1736.34 1086.35 1736.36 1085.05 1737.93 1084.94 1737.58 1084.17 1735.19 1084.1 1734.95 1083.89 1735.88 1083.83 1735.85 1083.57 1736.78L1083.09 1735.67 1082.69 1736.76C1082.54 1736.09 1082.39 1735.42 1082.23 1734.74L1081.97 1735.59C1081.31 1734.42 1081.36 1734.42 1081.3 1734.32 1080.39 1736.06 1081.05 1736.08 1080.12 1737.82L1079.73 1736.83C1079.39 1737.63 1079.05 1738.43 1078.7 1739.24L1078.54 1738.88C1078.02 1740.66 1076.99 1740.55 1076.29 1743.04 1076.14 1742.58 1075.98 1742.12 1075.83 1741.66 1075.62 1742.01 1075.37 1742.96 1075.34 1743.07 1074.86 1741.91 1074.88 1741.95 1074.47 1740.8 1073.88 1741.81 1073.91 1741.77 1073.72 1742.03L1073.37 1741.47C1072.75 1741.97 1072.79 1742.97 1072.29 1747.59 1071.97 1746.58 1071.91 1746.63 1071.59 1745.59 1071.44 1746.07 1071.49 1746.03 1070.29 1751.57L1069.86 1749.87C1068.78 1755.59 1069.29 1755.58 1066.63 1761.18L1066.15 1760.9C1065.2 1763.9 1064.91 1763.85 1064.07 1766.86L1063.03 1765.72C1062.77 1766.18 1063.03 1766.68 1062.77 1767.15 1062.49 1767.64 1061.98 1768.1 1061.43 1768.54 1061.09 1768.14 1060.75 1767.74 1060.4 1767.33L1059.01 1768.13C1055.03 1762.6 1055.12 1762.63 1054.71 1762.16 1051.57 1760.27 1052.41 1760.13 1051.43 1757.8 1050.72 1758.29 1050.08 1758.99 1049.98 1759.09 1046.97 1756.79 1046.05 1756.94 1045.05 1753.68L1044.64 1754.48C1042.98 1750.85 1039.37 1750.71 1037.3 1741.6L1036.93 1742.19C1036.67 1741.06 1036.55 1741.09 1036.28 1739.95 1036.07 1741.13 1035.37 1741.05 1032.58 1754.61 1030.91 1762.72 1031.23 1767.86 1029.3 1763.86 1028.78 1762.78 1028.46 1761.69 1028.13 1760.59 1027.28 1764.14 1024.43 1764.02 1023.61 1764.39 1023.17 1764.59 1023.01 1765.43 1022.9 1765.16 1021.91 1762.72 1021.45 1760.24 1020.94 1757.78 1020.75 1758.57 1021.61 1759.28 1018.11 1766.15L1017.9 1765.63C1016.97 1766.44 1016.42 1765.98 1015 1765.36L1014.63 1765.8C1013.98 1765.37 1011.72 1765.2 1009.24 1762.12 1006.2 1758.36 1006.02 1755.62 1005.79 1755.25L1005.07 1756.15C1004.49 1755.76 1004.46 1755.19 1004.23 1755.66 1003.49 1757.24 1002.8 1758.81 1002.24 1760.4 1001.87 1760.1 1001.95 1760.1 999.408 1755.82 998.687 1754.6 997.416 1753.45 996.933 1752.21 996.395 1752.49 996.368 1752.5 995.372 1756.73 994.324 1752.77 992.806 1752.92 991.56 1748.95L991.398 1749.6 991.079 1748.89C990.343 1752.83 990.236 1752.82 990.173 1753.16 986.296 1745.64 987.31 1745.56 986.823 1744.92L986.698 1745.72C984.985 1734.55 984.361 1734.59 984.246 1733.62 983.488 1727.22 983.254 1720.82 982.335 1714.43 980.793 1726.99 981.065 1726.98 980.922 1728.08 980.483 1726.74 980.498 1723.47 980.133 1722.51L980.091 1723.24 980.008 1722.51C979.928 1723.12 979.995 1723.1 979.122 1730.02 978.964 1727.33 978.919 1727.38 978.72 1724.68L978.72 1725.21 978.678 1724.63 978.512 1725.28 978.304 1722.71 978.221 1723.98C977.997 1723.27 977.959 1723.32 977.757 1722.57 977.543 1724.2 977.497 1724.17 977.39 1725.8L977.266 1724.79 977.182 1725.49 977.099 1724.81 977.016 1725.69C976.933 1725.08 976.85 1724.48 976.767 1723.87 976.262 1724.53 975.861 1728.13 975.82 1728.5 975.649 1726.77 975.479 1725.05 975.309 1723.32L975.065 1725.76C974.729 1722.54 974.774 1722.57 974.523 1719.36L974.482 1719.81C973.817 1713.16 973.675 1713.21 973.11 1706.54 972.45 1710.66 972.287 1715.98 971.232 1731.43 970.971 1730.62 970.884 1730.66 970.617 1729.88L970.243 1731.29C969.444 1723.8 969.701 1723.82 969.129 1716.31 968.921 1716.72 968.713 1717.13 968.504 1717.54 968.028 1713.91 967.945 1713.92 967.911 1713.6 967.761 1714.31 967.61 1715.03 967.46 1715.74 967.309 1715.01 967.158 1714.29 967.007 1713.56 966.67 1714.53 966.207 1716.45 966.147 1716.7 965.992 1715.8 965.837 1714.9 965.682 1714.01 964.668 1718.06 964.661 1718.02 964.585 1718.37L964.52 1718.19C963.964 1724.19 964.55 1724.2 963.483 1726.58 963.452 1726.28 963.304 1724.88 963.001 1722.84 962.002 1727.73 961.818 1729.21 961.749 1729.77L961.633 1728.91 961.268 1729.76C960.997 1728.96 960.815 1728.43 960.293 1719.74 959.862 1722.05 959.735 1722.03 959.3 1727.84L959.063 1727.07 958.691 1727.5C958.399 1726.2 959.255 1724.74 957.797 1723.59 957.15 1723.09 955.918 1724.48 955.559 1725.04 954.374 1723.63 954.292 1723.66 954.125 1722.12 953.912 1724.18 953.867 1724.14 953.704 1726.23 953.487 1725.15 953.27 1724.08 953.054 1723 951.182 1727.35 952.395 1727.4 950.228 1731.74 949.582 1730.05 949.697 1730.06 948.091 1720.03 947.93 1720.35 947.769 1720.66 947.609 1720.98L947.401 1720.45C947.312 1720.79 946.524 1723.72 945.612 1724.58 945.41 1723.97 945.209 1723.36 945.008 1722.75 944.367 1723.52 943.973 1729.39 943.857 1730.12L943.688 1728.56 943.483 1729.45 943.441 1728.94 943.289 1729.83C941.656 1727.14 942.376 1719.77 939.553 1711.74 939.34 1717.99 939.16 1721.92 939.12 1722.8 938.675 1715.03 938.472 1710.31 938.425 1709.22 938.338 1709.43 938.266 1710.04 938.164 1709.84 937.677 1708.86 937.435 1707.86 937.25 1706.86 936.196 1712.97 936.22 1712.94 935.671 1719.03L935.421 1715.86 935.285 1716.42 935.234 1716.42 934.989 1715.63 933.718 1725.3C933.173 1723.37 932.703 1723.43 931.99 1719.19 931.836 1720.27 931.682 1721.35 931.528 1722.42 931.09 1721.37 931.145 1721.4 931.102 1721.31L930.907 1722.55 930.732 1722.24C930.578 1723.19 930.424 1724.15 930.269 1725.1L930.186 1724.59 930.058 1725.44 929.813 1724.99C929.38 1728.37 928.601 1728.31 927.919 1731.67 927.342 1731.22 927.77 1731.2 926.363 1725.21 924.478 1732.49 924.626 1732.49 924.195 1732.82 923.267 1732.53 923.428 1730.54 922.52 1726.31L922.131 1727.12 921.682 1726.38C920.874 1727.85 920.752 1727.82 920.365 1729.31L920.112 1727.43C920.021 1727.79 919.93 1728.15 919.839 1728.51L919.632 1726.87 919.44 1727.85 919.341 1727.14 919.258 1727.52 919.093 1727.04C918.508 1729.3 918.62 1729.26 918.468 1731.52L918.385 1730.75C918.145 1731.26 917.904 1731.78 917.664 1732.3 917.428 1731.39 917.192 1730.49 916.957 1729.59L916.826 1729.95C916.284 1727.14 915.797 1727.2 915.176 1724.4 914.643 1727.89 914.226 1727.84 913.731 1731.33L913.648 1730.71 913.506 1731.82 913.369 1729.87 913.15 1730.71C912.845 1729.57 912.438 1728.03 911.175 1716.32L910.929 1717.16 910.756 1716.52C909.604 1721.76 910.312 1721.77 908.302 1726.96 907.286 1725.5 907.599 1725.02 907.332 1722.32 907.149 1722.4 907.223 1722.75 907.124 1722.64 906.914 1722.42 907.037 1721.68 906.958 1721.92 906.223 1724.16 906.038 1726.43 905.148 1728.66 904.765 1727.31 904.748 1727.35 904.548 1726 904.386 1727.33 904.764 1727.33 903.9 1728.62 902.987 1724.65 902.284 1724.73 901.556 1720.76 898.202 1702.48 899.036 1702.46 898.608 1700.88 898.576 1700.94 897.653 1702.7 897.598 1701.51 897.587 1701.28 897.815 1701.04 897.702 1700.81 896.752 1705.84 896.91 1705.82 896.542 1710.88 896.449 1710.24 896.288 1710.25 895.614 1701.34L895.448 1703.11C895.39 1701.62 895.333 1700.14 895.275 1698.66 894.746 1705.43 894.656 1705.41 894.285 1707.22 894.097 1705.73 893.908 1704.23 893.721 1702.74 892.919 1707.79 891.269 1723.1 890.463 1726.79 890.157 1725.37 890.125 1725.4 889.678 1723.97 889.408 1724.54 888.312 1728.95 888.045 1729.03 887.763 1729.12 888.191 1728.9 886.805 1727.25 886.324 1727.99 885.95 1728.94 885.891 1729.09 885.357 1726.95 885.118 1726.99 884.529 1724.85 883.985 1730.22 884.094 1730.18 883.647 1735.55L883.564 1735.08C883.355 1736 883.381 1735.97 883.224 1736.48L882.982 1736C882.443 1736.28 882.267 1742.57 880.521 1749.3L880.322 1748.52C880.25 1748.77 879.319 1751.94 878.866 1751.52 878.286 1750.98 876.617 1745.15 876.458 1744.6L876.019 1746.66C875.833 1745.78 875.647 1744.9 875.461 1744.02 873.716 1746.76 873.808 1748.11 872.553 1747.02 871.203 1745.84 872.031 1744.12 871.264 1745.39 870.966 1745.89 870.734 1746.39 870.475 1746.89L870.059 1746.44 869.436 1747.68 868.854 1746.19 867.929 1750.19C867.217 1749.42 865.36 1749.26 863.846 1745.8L863.286 1746.2C862.312 1744.09 861.477 1738.61 861.376 1737.95 861.101 1736.14 861.299 1734.32 860.771 1732.53 860.666 1732.17 859.641 1731.95 859.505 1731.6 859.116 1729.52 855.425 1709.88 854.084 1705.71 853.644 1708.21 853.508 1708.16 853.249 1710.69 853.183 1710.15 852.815 1707.17 852.484 1703.97 852.363 1704.88 852.242 1705.8 852.12 1706.71 852.064 1706.37 851.901 1705.36 851.504 1702.44 850.72 1707.39 851.192 1707.85 850.446 1711.62 850.011 1705.85 850.057 1705.87 849.823 1704.98 849.284 1709.96 849.429 1709.93 848.854 1714.92 848.824 1714.79 848.577 1713.65 848.39 1713.2 848.17 1716.86 847.765 1721.97 847.704 1722.73L847.428 1721.58C847.111 1723.84 846.901 1723.79 846.241 1726.03 846.213 1725.95 845.728 1724.47 845.6 1725.01 845.148 1726.9 844.827 1728.79 844.675 1730.69L844.588 1729.66C843.916 1738.93 842.789 1738.86 840.532 1748.06 840.231 1746.36 840.373 1746.38 839.892 1745.3 839.787 1745.33 839.708 1745.39 839.685 1745.45 839.535 1745.79 839.589 1746.15 839.377 1746.49 837.807 1742.02 838.472 1747.66 837.861 1752.16 836.528 1749.05 836 1755.8 835.82 1757.11 835.469 1756.5 835.472 1756.04 835.463 1756.01 835.147 1758.5 835.106 1758.47 834.573 1760.92L834.532 1760.45 834.49 1761.15C834.434 1760.76 833.892 1756.99 833.364 1756.24 833.036 1756.92 832.904 1757.2 832.041 1764.89L831.837 1764.54C831.661 1765.26 831.485 1765.99 831.309 1766.71 831.22 1766.36 831.131 1766.02 831.041 1765.67 830.794 1766.61 831.104 1766.66 830.457 1766.86 830.28 1766.36 830.102 1765.86 829.924 1765.37 829.44 1767.44 829.481 1767.4 829.209 1769.52 828.563 1768.16 828.708 1768.19 828.47 1766.83 828.149 1768.46 828.184 1768.42 828.008 1770.05 827.914 1769.98 827.949 1769.98 827.759 1769.04L827.592 1770.07 827.551 1769.37 827.381 1771.1C826.81 1770.85 827.01 1770.79 825.039 1764.6 824.661 1766.06 824.735 1766.02 824.692 1766.14L824.496 1763.68C824.229 1764.25 824.165 1764.39 823.424 1771.02 822.855 1768.56 822.668 1766.89 822.628 1766.53L822.361 1767.92C821.613 1765.41 821.658 1765.42 821.557 1765.38 821.366 1766.5 821.31 1766.47 821.11 1767.6 820.986 1767.31 820.854 1766.36 820.839 1766.25 820.742 1766.74 820.646 1767.24 820.549 1767.73 820.425 1767.08 820.3 1766.42 820.176 1765.77 819.851 1767.25 819.575 1769.11 819.532 1769.4 819.312 1767.28 819.446 1767.26 819.147 1767.07 818.795 1768.78 818.772 1768.75 818.569 1770.48 818.123 1769.19 818.06 1769.22 817.842 1767.92 817.765 1768.74 817.689 1769.56 817.613 1770.37L817.435 1768.07C817.402 1768.3 816.209 1776.47 815.04 1770.72L815 1770.81 815 1107Z" fill="#FFFFFF" fill-rule="evenodd"/></g></svg>