<svg width="1520" height="1143" xmlns="http://www.w3.org/2000/svg" xmlns:xlink="http://www.w3.org/1999/xlink" xml:space="preserve" overflow="hidden"><g transform="translate(-1457 -1279)"><path d="M1457.5 1279.5 2976.5 1279.5 2976.5 2421.5 2975.84 2421.5 2975.77 2417.75C2975.51 2418.09 2975.25 2418.44 2974.99 2418.78L2974.89 2417.93 2974.73 2418.72 2974.47 2418.21C2972.94 2417.66 2972.72 2417.69 2972.39 2415.87L2972.04 2416.62C2971.45 2415.06 2971 2415.41 2970.5 2413.78L2970.24 2414.73C2970.05 2414.77 2970.09 2414.15 2969.9 2414.2 2969.71 2414.24 2969.87 2414.74 2969.7 2414.85 2969.52 2414.97 2969.27 2414.61 2969.09 2414.72 2968.76 2413.79 2968.78 2413.85 2968.49 2412.91 2966.88 2415.01 2966.52 2411.76 2965.48 2411.46 2964.97 2409.75 2964.99 2409.79 2964.78 2407.12 2964.57 2409.23 2964.66 2409.19 2964.2 2411.25 2964.01 2410.75 2963.81 2410.26 2963.62 2409.76L2963.38 2410.59C2962.86 2410.16 2962.39 2409.66 2961.94 2409.14 2960.7 2407.72 2960.65 2407.78 2960.59 2407.62L2959.98 2407.41C2959.08 2402.1 2959.03 2401.62 2958.98 2401.11L2958.78 2402.14 2958.47 2400.71 2958.05 2401.23C2957.91 2400.77 2957.1 2398.18 2956.76 2395.36L2956.59 2395.99 2956.31 2395.02C2956.2 2395.51 2956.08 2396 2955.96 2396.5 2955.56 2394.42 2954.73 2392.48 2954.28 2390.42 2952.97 2384.45 2951.87 2378.42 2950.68 2372.42 2948.93 2363.62 2946.6 2358.03 2946.1 2351.91 2945.69 2353.64 2945.65 2353.55 2945.04 2355.16L2944.62 2354.71C2944.33 2354.36 2944.05 2354.02 2943.77 2353.67L2942.9 2353.77 2942.59 2354.29C2942.41 2353.81 2942.23 2353.34 2942.04 2352.87L2941.71 2353.54 2941.47 2352.87 2941.32 2353.48 2941.03 2352.91 2940.8 2353.66 2940.68 2352.7 2940.4 2353.74 2940.07 2352.42C2939.91 2354.12 2939.88 2354.07 2939.23 2358.61L2938.95 2357.77C2937.85 2361.85 2939.12 2364.39 2935.48 2363.6 2934.43 2359.68 2930.83 2357.41 2930.69 2356.31 2930.62 2355.79 2930.8 2355.24 2930.69 2354.73L2930.4 2355.58C2929.94 2353.43 2929.65 2353.62 2928.97 2351.58 2928.61 2353.03 2928.52 2352.93 2928.25 2354.46 2927.47 2353 2924.28 2344.22 2923.8 2343.66 2923.27 2339.55 2923.64 2339.46 2922.06 2335.68 2920.97 2339.19 2920.93 2339.16 2920.83 2339.81L2920.61 2338.94C2920.23 2340.68 2920.21 2340.62 2920.19 2340.77L2919.86 2339.79C2919.76 2340.43 2919.66 2341.08 2919.57 2341.73 2919.38 2339.4 2919.38 2339.4 2919.38 2339.4 2919.29 2339.32 2919.17 2339.31 2918.72 2340.85L2918.39 2339.65C2918.33 2339.95 2918.4 2341.06 2917.83 2340.04 2917.61 2343.16 2917.03 2346.99 2916.72 2354.18 2916.02 2344.71 2914.92 2339.93 2914.78 2338.85 2914.1 2343.73 2914.17 2343.72 2914.04 2344.12L2913.61 2343.07C2912.82 2343.01 2912.86 2343.35 2912.83 2343.28 2912.29 2342.13 2911.82 2339.23 2911.77 2338.87 2911.52 2339.88 2911.45 2339.79 2911.07 2340.71 2910.51 2338.42 2909.77 2328.16 2908.56 2309.79 2908.01 2314.86 2908.08 2314.82 2906.9 2319.7 2905.62 2324.97 2905.82 2324.97 2904.7 2330.23 2904.42 2329.33 2904.5 2329.37 2904.19 2328.42 2900.44 2353.03 2899.4 2353.95 2897.74 2353.19 2897.16 2354.01 2897.13 2353.93 2896.53 2354.74 2895.38 2351.03 2895.23 2351.1 2894.88 2347.2 2894.44 2342.39 2894.12 2337.56 2893.76 2332.75 2892.86 2340.8 2892.87 2344.2 2891.51 2349.16 2890.86 2348.56 2890.91 2348.56 2890.45 2347.7 2889.16 2349.94 2888.12 2346.84 2888.08 2346.77L2887.67 2347.7C2887.2 2347.05 2886.46 2346.75 2885.91 2346.19 2883.8 2344.02 2884.62 2343.47 2882.76 2329.73 2881.47 2331.05 2881.51 2331.21 2881.19 2331.11 2880.48 2330.88 2880.77 2330.55 2878.44 2308.49 2877.71 2315.03 2877.97 2328.88 2875.81 2333.14 2875.68 2332.45 2875.54 2332.26 2875.23 2329.81L2875.12 2330.38C2875.03 2329.56 2874.93 2328.73 2874.84 2327.91 2874.5 2328.43 2874.5 2327.93 2874.31 2327.33 2874.17 2328.09 2874.04 2328.84 2873.9 2329.6L2873.8 2328.56C2873.71 2329.42 2873.62 2330.27 2873.54 2331.12 2873.06 2330.52 2872.89 2330.57 2872.58 2331.27L2871.9 2329.7C2870.53 2315.82 2870.57 2315.82 2870.41 2314.62L2870.3 2316.62C2869.48 2305.51 2869.37 2305.27 2868.97 2304.4 2867.93 2314.92 2864.76 2325.52 2862 2342.05L2861.84 2341.33C2861.54 2342.79 2861.24 2344.24 2860.94 2345.7 2859.93 2340.03 2860.22 2340.01 2859.01 2334.38L2858.89 2335.01 2858.49 2333.99C2857.97 2335.98 2857.97 2335.97 2857.92 2336.14 2857.71 2335.73 2856.89 2334.17 2856.04 2330.52 2853.99 2321.75 2854.43 2321.69 2854.23 2320.94 2851.81 2323.18 2853.86 2319.37 2852.76 2315.99L2852.58 2316.6C2852.56 2316.45 2852.36 2315.22 2852.11 2314.78 2851.16 2317.08 2850.92 2317.35 2850.56 2321.71 2850.28 2321.55 2850.1 2321.51 2849.37 2313.77 2848.94 2317.94 2848.94 2317.87 2848.59 2321.98 2848.54 2321.61 2846.11 2295.1 2846.08 2294.61L2846.01 2295.53C2845.59 2289.75 2845.6 2289.8 2845.41 2283.96L2845.2 2286.02C2845.09 2284.92 2844.99 2283.83 2844.88 2282.73 2843.76 2290.07 2843.82 2307.94 2843.03 2304.79 2841.8 2335.7 2839.53 2357.42 2839.05 2361.98 2838.88 2360.08 2836.01 2321.27 2835.98 2320.51 2835.65 2323.83 2833.05 2370.05 2829.31 2367.78 2828.78 2365.19 2828.49 2365.38 2827.44 2363.04 2826.25 2366.47 2822.6 2363.93 2822.14 2362.77 2821.67 2364.04 2820.44 2363.24 2820.31 2363.16 2816.91 2360.95 2815.25 2359.23 2814.85 2358.82 2814.71 2359.23 2814.56 2359.65 2814.42 2360.06 2813.49 2360.33 2813.27 2360.38 2813.01 2359.28 2812.71 2360.55 2812.2 2360.44 2811.55 2359.41 2810.15 2360.82 2808.1 2354.93 2807.54 2354.69 2807.18 2354.53 2806.74 2356.21 2806.7 2356.35L2806.58 2355.08C2806.18 2356.8 2804.88 2355.27 2804.38 2356.75L2804.16 2355.96C2803.77 2356.33 2804.16 2357.01 2803.72 2356.7 2803.01 2356.19 2802.91 2355.65 2802.36 2356.37 2801.49 2353.96 2801.3 2353.96 2801.18 2354.12 2801.04 2354.31 2801.07 2354.65 2800.9 2354.82L2800.5 2353.52C2800.35 2354.4 2800.22 2354.27 2799.87 2355.06 2799.67 2354.39 2796.02 2318.67 2795.05 2303.6 2794.8 2305.87 2794.85 2305.83 2794.62 2307.07L2794.48 2305.67 2794.19 2309.41C2794.03 2309.72 2793.39 2309.1 2793.26 2309.43 2792.62 2311.03 2792.1 2317.19 2792.04 2317.88 2791.9 2317.16 2791.76 2316.45 2791.62 2315.74 2791.51 2316.88 2791.4 2318.03 2791.29 2319.17 2791.1 2317.7 2790.82 2317.86 2790.56 2316.39 2790.3 2319.09 2790.27 2319.08 2790.25 2319.31 2789.97 2317.31 2790.04 2317.35 2789.9 2315.31 2789.54 2317.56 2789.58 2317.57 2789.55 2317.76 2788.77 2303.46 2788.56 2301.35 2788.42 2299.92 2788.31 2300.39 2788.21 2300.82 2787.88 2305.93 2787.84 2305.33 2787.35 2297.67 2787.13 2298.43 2786.15 2301.75 2786.01 2305.32 2785.46 2308.77 2785.38 2308.55 2784.9 2307.19 2784.41 2306.15L2784.26 2307.23C2781.99 2290.74 2782.35 2290.68 2782.14 2289.25 2781.9 2289.95 2781.66 2290.66 2781.42 2291.36L2781.27 2290.74C2780.98 2293.21 2780.91 2293.12 2780.59 2295.58L2780.16 2294.35C2780.02 2294.75 2779.88 2295.16 2779.74 2295.57L2779.54 2294.92 2779.29 2295.49C2779.19 2294.68 2778.23 2286.89 2778.07 2285.3 2777.67 2286.94 2778.11 2287 2775.5 2306.45 2775.38 2307.34 2775.13 2308.2 2775.05 2309.1L2774.89 2308.38C2773.51 2326.58 2773.88 2330.72 2772.67 2337.13 2772.57 2336.14 2773.07 2334.64 2772.32 2334.17 2771.68 2333.77 2772.03 2335.83 2771.92 2336.67L2771.75 2335.46 2771.52 2336.03C2769.78 2327.28 2770.3 2319.17 2769.06 2307.09 2765.34 2326.82 2769.06 2327.28 2766.09 2347.17 2765.85 2345.09 2765.61 2345.2 2765.35 2343.16 2764.94 2346.79 2765.21 2346.77 2764.5 2350.29L2764.27 2349.5C2763.77 2352.53 2762.95 2361.71 2762.41 2363.27L2762.04 2361.72C2761.96 2361.93 2760.83 2364.62 2759.75 2362.69 2759.7 2363.08 2759.21 2366.77 2758.53 2367.41 2758.39 2367.54 2758.22 2366.55 2756.55 2367.47 2756.16 2363.97 2756 2364.04 2755.6 2360.59 2755.14 2362.99 2754.62 2357.12 2754.59 2356.81 2754.04 2360.56 2754.01 2360.51 2753.87 2362.14L2753.65 2360.44C2753.56 2361.21 2753.47 2361.97 2753.37 2362.73L2753.14 2360.07C2753.13 2360.17 2752.9 2361.96 2752.35 2360.96 2752.18 2362.17 2752.15 2362.13 2751.98 2363.35 2751.57 2361.96 2751.52 2362.03 2751.17 2360.6L2750.98 2362.9C2749.71 2361.23 2749.67 2361.28 2749.61 2361.1 2749.52 2361.72 2749.44 2362.35 2749.35 2362.97 2749.15 2362.32 2748.96 2361.68 2748.76 2361.03 2748.55 2361.55 2748.45 2362.66 2747.46 2361.28L2747.22 2361.98 2746.92 2360.83C2746.8 2361.39 2746.67 2361.95 2746.55 2362.5 2745.73 2361.42 2745.65 2362.95 2745.53 2363.32 2744.49 2361.26 2743.39 2362.8 2743.2 2361.82 2742.83 2359.83 2743.24 2357.8 2742.12 2359.38L2741.83 2358.64 2741.42 2359.07C2740.18 2356.32 2740.65 2356.21 2740.48 2353.13 2740.45 2353.5 2739.53 2363.21 2738.21 2356.89L2737.88 2358.4C2737.57 2356.33 2737.68 2356.32 2736.75 2354.53 2735.89 2354.48 2735.78 2354.21 2735.3 2355.01 2735.16 2352.86 2735.12 2352.92 2734.95 2350.73L2734.74 2351.72C2734.63 2350.6 2734.53 2349.48 2734.43 2348.35L2734.25 2349.12 2734.1 2348.52C2733.59 2351.54 2733.87 2351.56 2733.24 2354.58 2733.16 2353.94 2733.08 2353.3 2733 2352.67 2732.51 2354.13 2732.43 2352.46 2732.24 2350.34 2732.17 2350.79 2732.4 2351.32 2732.18 2351.7 2731.92 2352.17 2731.61 2350.69 2731.59 2350.59L2731.41 2351.18C2731.23 2350.65 2731.04 2350.12 2730.86 2349.59 2730.29 2350.7 2730.59 2351.22 2730.53 2351.12 2730.3 2350.72 2730 2350.34 2729.9 2349.87L2729.65 2350.83C2729.19 2349.28 2728.94 2349.46 2728.68 2347.87L2728.25 2349.64C2727.92 2347.79 2727.18 2346.07 2726.86 2344.23 2726.28 2340.95 2726.12 2337.57 2725.53 2334.29 2725.46 2333.9 2725.03 2333.71 2724.91 2333.33 2724.66 2332.51 2724.75 2331.57 2724.46 2330.77 2724.37 2330.51 2724.07 2330.3 2723.83 2330.34L2723.49 2329.63C2723.03 2330.27 2723.06 2330.26 2722.37 2330.41 2722.21 2329.94 2722.06 2329.48 2721.9 2329.01L2721.65 2330C2720.47 2324.81 2718.06 2316.37 2717.34 2290.11 2716.84 2302.13 2716.97 2302.1 2716.44 2307.87 2716.33 2309.1 2715.91 2310.26 2715.82 2311.49L2715.62 2310.2C2715.55 2310.56 2715.1 2313.09 2714.89 2314.7L2714.88 2314.7C2714.77 2314.2 2714.39 2312.59 2713.87 2308.35 2713.03 2312.33 2713.37 2317.56 2712.96 2313.46 2712.63 2317.08 2712.41 2316.99 2712.01 2320.61 2711.89 2319.92 2711.78 2319.23 2711.66 2318.55 2711.24 2320.08 2711.3 2320.04 2711.1 2321.66L2710.96 2320.47 2710.74 2323.15 2710.59 2322.26 2710.34 2323.46 2710.05 2322.39C2709.38 2330.62 2707.83 2335.63 2707.5 2338.67L2707.32 2338.04C2707.12 2339.06 2707.09 2339 2706.94 2340.01L2706.86 2339.46C2705.15 2347.4 2705.34 2347.4 2704.66 2355.58L2703.97 2353.1C2703.32 2355.08 2704.14 2357.54 2703.08 2355.82 2702.96 2356.48 2702.84 2357.14 2702.72 2357.81L2702.38 2356.76 2701.56 2359.33C2701.16 2359.47 2700.7 2359.25 2700.3 2359.38 2700.02 2359.48 2699.9 2359.91 2699.62 2360 2699.47 2360.06 2699.3 2359.9 2699.18 2359.78L2698.71 2359.67C2697.07 2366.08 2697.22 2366.77 2696.95 2366.3 2696.72 2365.9 2696.81 2365.31 2696.56 2364.92L2696.28 2365.54C2696.2 2364.62 2696.1 2363.71 2696.02 2362.8 2695.85 2364.64 2695.94 2364.6 2695.51 2366.35L2695.24 2365.27 2695.07 2365.92 2694.88 2365.21C2694.53 2366.83 2694.34 2366.77 2694.26 2366.68 2693.94 2366.34 2693.69 2365.92 2693.47 2365.49L2692.71 2366.74C2692.24 2366.63 2691.89 2366.12 2691.43 2366.01 2691.24 2365.97 2691.01 2367.07 2690.99 2367.17 2690.83 2366.16 2690.86 2366.14 2690.18 2365.44 2689.93 2366.2 2689.7 2366.66 2689.64 2366.76L2689.17 2365.78C2688.35 2367.25 2688.33 2365.71 2688.3 2365.52 2688.01 2367.8 2687.27 2367.32 2686.27 2368.26 2686.01 2367.35 2685.75 2366.43 2685.49 2365.51 2684.75 2367.82 2684.63 2368.13 2684.54 2368.35 2683.83 2363.81 2683.81 2363.88 2683.51 2359.23 2683.48 2359.42 2683.49 2359.41 2683.21 2362.19L2682.48 2354.35C2682.36 2354.09 2681.85 2354.47 2681.73 2354.21 2681.41 2353.5 2681.5 2352.62 2681.36 2351.83 2680.59 2347.55 2679.42 2343.34 2679 2338.99L2678.79 2339.59C2678.06 2339.05 2677.87 2339.3 2677.69 2340.3 2677.26 2334.93 2677.24 2335 2676.92 2329.57L2676.81 2330.21C2676.5 2323.6 2676.49 2323.64 2676.24 2316.98 2675.95 2320.61 2676.04 2320.6 2675.2 2324.07 2675.04 2323.52 2674.2 2318.82 2674.12 2318.37 2673.23 2317.91 2673.42 2317.71 2672.92 2316.73L2672.61 2317.3C2672.32 2316.4 2672.19 2316.41 2671.72 2305.24 2671.45 2309.84 2671.45 2309.8 2671.15 2314.43L2670.98 2313.82C2670.45 2316.23 2670.09 2318.99 2670.03 2319.44L2669.64 2318.13C2669.48 2319.29 2669.32 2320.44 2669.17 2321.6 2669.06 2320.96 2668.95 2320.32 2668.84 2319.68L2668.74 2320.18C2667.84 2304.98 2668.07 2304.95 2667.78 2303.67 2667.2 2311.16 2667.27 2311.11 2667.21 2311.76 2666.95 2308.08 2667.03 2308.13 2666.88 2305.46 2666.68 2307.33 2666.9 2309.28 2666.4 2311.07 2666.21 2311.76 2666 2309.69 2665.9 2308.98 2665.86 2309.19 2665.6 2310.62 2665.38 2311.58L2664.66 2309.3C2664.36 2312.65 2665.27 2313.57 2663.28 2314.1 2662.89 2310.11 2662.66 2310.2 2662.34 2308.09 2661.14 2310.15 2661.52 2310.29 2660.89 2312.66 2660.7 2312.14 2660.51 2311.61 2660.31 2311.09 2659.98 2312.9 2659.24 2314.58 2658.81 2316.36 2658.4 2318.1 2658.26 2319.93 2657.79 2321.66L2657.44 2320.98C2656.93 2324.46 2656.51 2324.26 2655.08 2326.25 2653.82 2328.01 2653.72 2327.95 2653.24 2330.17 2652.1 2329.29 2649.94 2333.43 2649.75 2333.8L2648.49 2332.93C2647.75 2337.96 2647.82 2337.94 2647.69 2338.36 2647.67 2338.31 2647.3 2337.5 2647.21 2338.02 2646.87 2340.13 2646.82 2342.3 2646.42 2344.39 2646.38 2344.56 2646.05 2344.27 2645.96 2344.41 2645.22 2345.64 2644.85 2347.7 2644.79 2348 2644.49 2349.71 2644.34 2351.46 2643.95 2353.14 2643.67 2351.9 2643.42 2352.04 2643.21 2350.75 2642.71 2354.11 2642.2 2353.91 2641.56 2357.24 2641.53 2357.01 2641.3 2355.06 2641.04 2354.39 2640.96 2355 2640.89 2355.61 2640.81 2356.22L2640.57 2355.29C2640.5 2355.66 2640.16 2357.73 2639.92 2359.96 2639.49 2358.79 2639.47 2358.69 2639.44 2358.57L2639.24 2359.12C2639.21 2358.56 2639.12 2358.58 2638.71 2352.16 2638.42 2353.32 2638.53 2353.29 2638.39 2355.03 2638.07 2354.06 2638.07 2354.12 2637.91 2353.06 2637.55 2357.31 2637.07 2357.18 2636.71 2360.79 2636.37 2359.9 2636.42 2359.93 2636.29 2359 2636.06 2360.53 2635.8 2363.59 2635.76 2363.99L2635.7 2363.25 2635.62 2363.71 2635.59 2363.04C2635.11 2366.52 2635.01 2366.46 2634.72 2369.92 2634.17 2367.35 2634.1 2367.42 2633.72 2364.79L2633.65 2365.47 2633.25 2364.02C2631.45 2374.8 2630.99 2374.68 2630.2 2385.67 2630.1 2384 2630.07 2384.04 2629.96 2382.41 2629.58 2387.5 2629.23 2387.43 2628.28 2397.06 2628.2 2396.23 2628.12 2395.41 2628.04 2394.59L2627.51 2397.13 2626.22 2393.87C2624.31 2398.77 2624.74 2399.29 2623.23 2399.9 2620.57 2400.96 2619.91 2401.6 2618.66 2398.66L2618.05 2400.09 2617.22 2396C2617.06 2396.44 2617.43 2396.84 2615.27 2399.82 2614.66 2400.51 2615.06 2400.79 2614.45 2401.51 2614 2402.04 2614.08 2401.28 2612.67 2396.62L2611.77 2399.58 2611.18 2400.93 2610.51 2398.27 2609.2 2400.84C2608.98 2401.11 2608.46 2400.48 2608.25 2400.75 2607.92 2401.15 2608.14 2401.86 2607.97 2402.38 2607.21 2404.72 2606.94 2404.47 2605.55 2406.34L2603.9 2404.75C2602.9 2404.76 2601.89 2404.77 2600.89 2404.78 2600.49 2405.05 2600.35 2405.69 2599.96 2405.98 2599.56 2406.27 2599.03 2406.24 2598.59 2406.46 2595.28 2408.11 2595.33 2408.19 2595.03 2408.25L2593.36 2405.99C2592.59 2406.65 2592.04 2407.61 2591.28 2408.27 2591 2408.51 2590.62 2408.67 2590.27 2408.67 2589.49 2408.67 2588.74 2408.14 2587.97 2408.27 2586.84 2408.45 2585.85 2409.21 2584.76 2409.58 2584.45 2409.69 2582.1 2410.51 2580.78 2409.45 2576.73 2410 2579.18 2406.98 2578.6 2402.3 2578.28 2399.77 2577.68 2397.29 2577.4 2394.75 2577.27 2395.34 2577.13 2395.93 2577 2396.51 2576.87 2395.48 2576.35 2395.62 2574.53 2383.81 2573.75 2378.79 2573.13 2373.74 2572.47 2368.69L2572.28 2369.43C2571.43 2365.54 2571.72 2365.53 2571.51 2361.54L2571.29 2362.88C2570.93 2356.92 2564.42 2295.91 2564.11 2294.85 2563.95 2295.05 2563.72 2295.34 2563.12 2298.03 2562.34 2294.65 2562.67 2294.19 2561.71 2294.01 2561.13 2293.89 2561.04 2295.15 2561.03 2295.27 2560.98 2296.04 2561.11 2296.83 2560.95 2297.58 2560.67 2296.01 2560.71 2296.07 2560.5 2294.43 2560.46 2294.96 2560.39 2295.51 2560.21 2296.01 2560.13 2296.22 2560.24 2295.54 2560.17 2295.33 2559.8 2296.58 2560.4 2296.6 2560.1 2297.88 2559.69 2299.67 2559.21 2295.79 2559.19 2295.59 2558.5 2299.03 2558.67 2299.02 2558.41 2302.54L2558.28 2301.8 2558.05 2304.4C2557.47 2299.87 2557.16 2300 2556.63 2295.51L2556.38 2296.73C2554.88 2290.36 2554.24 2290.56 2553.61 2283.96L2553.44 2284.52C2552.82 2277.15 2552.84 2277.19 2551.71 2269.94 2551.69 2270.14 2551.33 2273.82 2551.08 2272.37 2550.95 2271.64 2550.94 2270.9 2550.85 2270.16L2550.73 2270.64C2549.97 2264.83 2550.14 2264.84 2549.04 2259.1 2548.87 2260.95 2548.89 2260.9 2548.54 2262.76L2548.29 2260.62C2548 2261.93 2547.68 2264.02 2547.63 2264.32 2547.38 2261.8 2547.56 2261.81 2546.9 2259.37 2546.67 2258.5 2546.4 2260.79 2546.38 2260.92 2546.04 2258.22 2546.31 2258.2 2545.64 2255.6 2545.28 2260.49 2544.67 2273.32 2544.66 2273.51 2544.64 2273.01 2544.61 2272.51 2544.59 2272.01 2543.92 2278.62 2543.94 2278.58 2543.13 2285.19 2543.05 2284.33 2542.51 2278.17 2541.42 2274.59 2541.39 2274.78 2541.11 2276.6 2540.86 2276.95 2540.71 2277.17 2540.42 2276.98 2540.16 2273.55 2539.73 2277.87 2536.63 2297.12 2534.48 2304.65 2534.21 2305.59 2531.59 2298.1 2531.57 2298 2531.32 2296.7 2531.98 2296.62 2529.86 2281.47 2529.5 2285.68 2529.12 2285.55 2528.73 2289.74L2528.48 2287.61C2528.4 2288.21 2528.31 2288.82 2528.23 2289.42L2528.14 2288.73C2526.87 2297.03 2525.75 2309.08 2524.12 2322.96L2524.03 2322.09 2522.14 2331.61C2521.94 2331.32 2521.19 2331.47 2520.7 2329.55 2520.59 2330.12 2520.61 2330.74 2520.39 2331.27 2520.18 2331.77 2519.63 2332.03 2519.46 2332.56 2518.54 2335.42 2518.08 2338.45 2517.17 2341.31 2517.01 2340.75 2516.48 2340.4 2516.33 2339.84 2516.26 2339.61 2516.63 2339.42 2516.58 2339.19 2516.52 2338.96 2516.18 2339 2516.07 2338.8 2514.82 2336.51 2516.19 2336 2514.94 2333.68 2512.89 2333.89 2514.11 2330.1 2512.82 2323.37 2512.13 2325.94 2512.21 2325.89 2511.89 2328.52 2511.76 2327.54 2511.81 2327.57 2511.44 2326.72 2508.44 2340.62 2508.46 2340.63 2508.36 2340.8 2507.84 2341.65 2507.19 2339.91 2507.14 2339.79L2506.95 2340.33C2506.46 2337.69 2506.27 2337.81 2505.64 2335.21 2505.5 2337.03 2505.47 2336.99 2505.33 2338.84L2503.59 2337.97C2501.63 2336.38 2501.89 2336 2501.69 2335.96 2501.53 2335.94 2501.38 2336.42 2501.29 2336.27 2500.93 2335.65 2500.83 2334.87 2500.64 2334.15 2500.44 2334.86 2500.24 2335.57 2500.03 2336.28 2499.65 2335.71 2499.63 2335.78 2499.07 2335.39 2499.02 2335.06 2498.46 2331.65 2497.14 2331.85 2496.62 2330.88 2496.63 2330.92 2496.36 2329.85L2496.07 2330.67C2495.6 2329.78 2495.49 2329.93 2495.12 2328.94 2494.13 2330.66 2493.94 2328.88 2493.88 2328.54 2493.85 2328.64 2493.58 2329.65 2493.2 2329.65 2492.42 2329.65 2490.22 2320.19 2490.05 2318.24L2489.7 2318.78 2489.47 2317.62 2489.33 2318.47C2488.89 2315.38 2488.81 2315.46 2488.17 2312.47 2487.79 2314.46 2487.75 2314.37 2487.42 2316.37 2487.21 2314.53 2487.25 2314.57 2486.83 2312.74 2486.66 2313.94 2486.77 2313.94 2486.25 2314.99 2485.69 2316.13 2486.07 2314.62 2485.82 2313.35 2485.64 2314.23 2485.78 2315.34 2485.22 2315.97 2484.9 2316.33 2484.9 2315.01 2484.8 2314.51L2484.59 2315.88C2484.42 2314.88 2484.26 2313.87 2484.09 2312.87L2483.86 2314.87C2483.86 2314.84 2483.86 2314.86 2482.07 2310.51L2481.93 2311.12 2481.66 2310.23 2481.39 2310.99C2481.04 2310.14 2478.49 2303.82 2477.88 2299.95L2477.71 2300.74C2477.59 2299.48 2476.68 2289.21 2475.89 2285.04 2475.83 2284.72 2474.75 2284.59 2473.97 2281.03 2473.81 2281.72 2473.65 2282.4 2473.49 2283.09L2473.22 2282.05C2472.17 2289.03 2472.95 2289.14 2471.34 2296L2470.8 2294.89C2469.83 2300.04 2469.19 2299.86 2467.83 2310.81L2467.66 2309.47C2467.2 2312.27 2467.3 2313.26 2466.93 2316.08L2466.57 2315.02C2466.11 2318.47 2466.06 2318.42 2465.56 2321.82L2465.28 2320.22C2463.82 2328.82 2463.5 2332.5 2463.41 2333.58 2463.25 2332.65 2463.1 2331.71 2462.95 2330.78L2462.77 2331.9C2462.49 2330.44 2462.48 2330.48 2462.08 2329.04 2461.62 2330.12 2461.62 2330.05 2461.16 2331.14 2460.89 2328.98 2460.62 2326.8 2460.08 2324.7 2460.02 2324.49 2459.74 2324.9 2459.58 2325L2459.38 2324 2459.29 2324.87 2458.82 2323.8 2458.5 2325.06C2458.16 2324.19 2457.95 2323.69 2457.33 2313.18 2457.01 2316.7 2456.99 2316.65 2456.83 2320.21 2456.71 2319.3 2456.6 2318.4 2456.49 2317.5 2456.39 2318.36 2456.29 2319.22 2456.19 2320.08 2456.12 2319.26 2455.53 2319.4 2454.5 2310.02 2453.71 2314.56 2453.51 2314.5 2453.45 2314.89 2452.98 2313.57 2452.87 2313.64 2452.63 2312.24L2452.51 2313.11C2451.59 2309.06 2451.77 2303.24 2451.38 2305.09 2451.26 2303.88 2451.15 2302.66 2451.03 2301.44 2450.7 2302.68 2450.34 2302.3 2449.92 2302.82 2449.33 2304.52 2449.8 2305.08 2449.7 2304.96 2448.8 2303.88 2448.88 2303.85 2448.5 2302.38 2447.98 2302.78 2447.99 2302.42 2447.81 2301.77L2447.53 2303.8C2446.75 2299.57 2446.8 2299.61 2446.07 2295.33 2445.58 2297.3 2445.56 2297.24 2445.53 2297.41L2445.26 2296.02C2445.06 2297.05 2445.09 2297.01 2444.85 2297.99 2444.59 2296.73 2444.6 2296.79 2444.29 2295.5 2444.25 2295.6 2443.89 2296.34 2443.27 2296.21 2442.4 2290.44 2441.88 2284.62 2441.27 2278.81 2440.66 2272.99 2440.24 2267.16 2439.62 2261.35 2439.6 2261.15 2439.62 2261.81 2439.47 2261.92L2439.4 2261.13C2439.23 2263.03 2439.27 2262.99 2438.97 2264.88 2438.88 2264.42 2438.79 2263.96 2438.7 2263.5 2438.26 2265.14 2437.64 2267.44 2436.05 2284.86 2435.11 2279.7 2434.4 2279.98 2433.4 2274.88 2433.28 2275.43 2433.15 2275.98 2433.02 2276.53L2432.69 2275 2432.4 2275.87 2432.13 2275.23C2431.36 2275.74 2431.35 2276.87 2431 2275.98 2430.94 2276.27 2430.94 2276.19 2430.13 2279.55L2429.94 2278.82C2428.81 2281.13 2428.23 2280.81 2427.89 2283.47L2427.67 2282.63C2427.5 2283.11 2427.33 2283.58 2427.16 2284.06 2426.88 2283.74 2426.8 2283.85 2426.68 2284.31L2426.45 2283.45C2426.37 2283.9 2423.96 2292.62 2423.87 2292.85L2423.6 2292.12C2423.34 2293.55 2423.35 2293.51 2423.19 2294.91L2422.66 2293.81C2422.56 2294.65 2422.45 2295.49 2422.35 2296.32L2422.17 2295.43C2419.82 2306.49 2421.8 2308.05 2419.35 2318.08 2416.02 2315.62 2417.43 2314.6 2416.62 2309.84 2416.53 2309.36 2415.97 2306.08 2415.26 2303.95 2415.04 2305.03 2415.33 2306.37 2413.62 2305.32 2411.65 2298.42 2412.83 2292.71 2411.34 2281.62 2411.16 2284.79 2411.38 2284.81 2410.37 2287.74 2410.25 2286.94 2409.89 2283.83 2409.72 2282.71L2409.48 2283.38C2409.39 2282.28 2409.29 2281.17 2409.2 2280.07 2408.82 2281.94 2408.93 2281.91 2408.75 2284.13 2408.42 2282.94 2408.43 2282.98 2408.1 2281.78L2407.8 2282.44C2407.53 2280.36 2407.52 2280.43 2407.27 2278.34L2407.06 2279.06C2406.78 2277.54 2406.42 2275.41 2406.37 2275.09L2406.06 2275.86C2406.02 2275.08 2405.99 2274.29 2405.95 2273.51 2405.94 2273.69 2405.82 2274.92 2405.47 2275.65 2404.16 2263.21 2405.01 2263.19 2403.88 2250.76 2401.94 2271.16 2403.31 2277.05 2401.25 2285.64 2400.88 2284.94 2400.89 2283.93 2400.78 2284.77 2400.54 2286.8 2400.31 2288.83 2400.16 2290.86L2399.98 2290.23C2398.91 2296.19 2397.48 2301.77 2394.8 2312.31L2394.21 2311.14C2392.91 2314.95 2391.92 2318.89 2390.62 2322.7 2390.57 2322.84 2390.3 2322.69 2390.22 2322.83 2389.5 2324.21 2388.76 2325.61 2388.29 2327.14 2388.07 2326.69 2387.84 2326.23 2387.62 2325.78 2387.51 2326.27 2387.41 2326.77 2387.31 2327.27 2386.92 2326.28 2386.95 2326.33 2386.78 2325.29L2386.53 2327.15 2386.2 2326.52C2386.03 2326.63 2386.29 2327.08 2386.12 2327.19 2385.97 2327.29 2385.85 2326.9 2385.68 2326.85 2385.68 2326.85 2385.4 2327.66 2385.37 2327.73 2385.29 2326.99 2385.21 2326.26 2385.12 2325.52 2384.98 2326.39 2385.01 2326.37 2384.65 2329.75 2384.63 2329.56 2384.22 2324.72 2384.02 2327.4 2383.89 2329.06 2383.91 2330.73 2383.79 2332.39 2382.71 2334.13 2382.59 2334.04 2382.15 2336.11L2381.65 2336.1C2381.27 2337.96 2381.29 2337.93 2381.25 2338.09 2381.16 2337.9 2381.05 2337.66 2380.87 2337.62 2380.56 2337.56 2380.25 2337.89 2379.94 2337.82 2379.29 2337.19 2379.5 2336.05 2378.92 2336.83 2377.92 2335.99 2377.8 2335.12 2376.99 2336.21 2376.83 2336.42 2376.72 2336.8 2376.48 2336.8 2375.74 2336.4 2374.8 2335.83 2374.49 2336.33 2373.4 2335.73 2372.11 2320.72 2371.99 2319.35 2369.47 2290.12 2368.73 2290.27 2366.35 2261.05 2365.82 2274.74 2364.77 2274.61 2364.05 2290.83L2363.78 2288.86C2363.44 2290.85 2363.33 2291.82 2363.3 2292.07 2362.04 2282.29 2361.94 2267.78 2360.85 2251.65 2358.15 2271.94 2358.92 2272.17 2358.1 2273.67 2356.96 2261.18 2357.02 2261.17 2356.84 2260.72 2356.5 2259.87 2356.55 2261.24 2353.41 2291.68L2353.24 2290.77C2352.84 2292.24 2352.95 2292.21 2352.75 2293.77L2352.6 2290.97C2352.59 2291.08 2352.4 2293.35 2352.12 2292.12 2351.51 2300.56 2351.68 2300.5 2351.27 2309.01L2351.22 2307.96C2350.8 2325.39 2350.51 2325.31 2349.46 2338.34L2349.37 2336.53C2349.34 2336.94 2349.32 2337.35 2349.29 2337.76 2349.29 2337.75 2348.99 2333.43 2348.96 2333.05L2348.83 2335.72 2348.75 2334.83C2348.55 2338.04 2348.49 2337.96 2347.74 2344.54L2347.58 2343.98C2347.47 2345.15 2347.36 2346.32 2347.26 2347.49 2347.18 2346.87 2347.1 2346.26 2347.03 2345.64 2346.19 2349.76 2346.78 2349.81 2346.1 2354.01 2345.88 2355.37 2345.37 2356.66 2345.17 2358.03 2345.04 2357.52 2344.91 2357.01 2344.78 2356.5 2343.87 2367.31 2342.38 2371.65 2341.95 2372.89L2341.93 2372.89 2341.4 2372.58C2340.86 2369.52 2341.04 2369.47 2339.78 2366.73L2339.5 2367.24 2338.73 2366.83 2338.26 2365.4 2337.58 2365.35 2337.22 2366.86C2336.66 2366.05 2336.73 2366.08 2336.35 2365.14 2336.01 2366.16 2335.98 2366.07 2335.5 2366.97 2331.02 2369.02 2330.64 2366.99 2329.6 2361.57L2329.28 2362.46 2329.04 2361.78 2328.58 2362.65C2327.56 2362.57 2327.59 2362.75 2326.58 2362.5 2326.49 2362.88 2325.8 2365.99 2325.03 2367.05 2324.14 2368.28 2323.51 2366.29 2322.57 2367.49L2312.48 2367.19C2311.59 2365.89 2311.58 2364 2310.84 2362.57 2310.71 2362.3 2310.32 2362.47 2310.05 2362.44 2309.77 2362.41 2309.42 2362.6 2309.2 2362.38 2308.89 2362.69 2308.57 2363 2308.26 2363.31 2305.05 2362.57 2307.01 2358.96 2304.7 2359.15 2302.05 2359.36 2301.92 2359.25 2300.26 2356.91 2299.33 2355.61 2299.45 2354.85 2298.08 2355.45L2297.47 2354.91C2293.68 2355.27 2293.96 2353.69 2293.61 2349.31 2293.05 2356.01 2294.03 2356.31 2292.36 2359.25L2292.11 2358.4C2290.6 2361.36 2291.54 2357.2 2289.7 2351.75 2287.88 2359.35 2288.97 2362.45 2287.67 2368.37L2287.5 2367.66C2287.39 2368.37 2287.27 2369.08 2287.16 2369.78 2287.14 2369.61 2286.97 2368.34 2286.71 2367.68 2286.05 2371.06 2286.25 2371.54 2286.06 2372.99 2285.96 2372.28 2285.87 2371.57 2285.77 2370.86 2285.65 2372.08 2285.54 2373.3 2285.42 2374.53 2285.39 2374.4 2285 2372.8 2284.8 2373.07 2284.49 2373.51 2284.51 2374.15 2284.42 2374.7 2284.31 2373.98 2284.51 2372.84 2283.92 2372.58 2283.63 2372.46 2283.41 2376.08 2283.39 2376.38L2283.07 2375.77 2282.87 2377.79 2282.77 2376.89C2282.65 2378.12 2282.35 2377.98 2282.21 2379.21 2281.85 2378.46 2281.53 2375.17 2281.5 2374.81 2281.36 2377.26 2281.36 2377.2 2281.19 2379.65 2281.1 2378.37 2281.01 2377.09 2280.92 2375.81 2280.8 2377.71 2280.71 2378.02 2280.65 2378.21L2280.6 2377.62 2280.34 2379.05C2279.79 2370.73 2280.05 2370.79 2279.59 2362.49L2279.48 2364.14 2279.39 2362.53C2278.98 2376.64 2278.49 2376.58 2278.5 2377.81 2278.52 2379.68 2278.89 2381.53 2278.88 2383.4 2278.86 2385.61 2278.71 2382.87 2278.15 2380.79 2277.83 2381.91 2277.51 2383.04 2277.19 2384.16L2276.68 2381.62 2276.27 2382.1C2275.62 2380.6 2275.14 2378.44 2274.75 2380.38L2274.63 2377.75C2274.17 2382.52 2274.31 2382.5 2273.75 2387.28 2273.68 2386.9 2273.25 2384.64 2272.9 2382.56 2272.22 2383.39 2272.15 2384.46 2271.71 2389.46L2271.62 2388.87C2271.35 2389.46 2271.4 2390.18 2271.3 2390.84 2271.11 2392.07 2270.98 2393.31 2270.76 2394.54 2270.74 2394.44 2270.26 2394.1 2269.59 2376.66 2269.53 2378.38 2269.47 2380.11 2269.4 2381.83L2269.27 2380.15C2269.14 2383.69 2268.99 2387.11 2268.96 2387.72L2268.89 2386.32C2268.82 2389.33 2268.82 2389.29 2268.63 2392.26 2268.53 2388.65 2268.51 2388.71 2268.41 2385.04 2268.33 2387.1 2268.24 2389.15 2268.16 2391.2L2268.1 2389.55C2267.96 2393.58 2268.05 2393.53 2267.73 2397.55L2267.7 2397.5 2267.25 2396.28 2267.09 2396.94 2266.91 2394.24 2266.75 2396.12C2266.44 2394.9 2265.84 2394.98 2265.07 2379.58 2264.89 2382.01 2264.79 2381.96 2264.57 2384.38 2264.53 2383.35 2264.77 2382.33 2264.73 2381.3 2264.73 2381.2 2264.47 2381.46 2264.46 2381.35 2264.3 2379.65 2264.32 2377.93 2264.26 2376.22L2264.16 2377.19C2263.88 2371.51 2263.88 2371.58 2263.46 2365.97L2263.43 2366.68C2263.19 2361.54 2263.17 2361.56 2263.15 2361.11L2263.05 2362.19C2262.97 2361.11 2262.9 2360.03 2262.82 2358.96L2262.54 2359.82C2262.47 2359.25 2262.62 2358.58 2262.33 2358.11 2262.18 2357.87 2262.07 2358.6 2261.95 2358.86L2261.71 2357.91C2261.6 2358.69 2261.48 2359.47 2261.37 2360.25 2261.06 2358.71 2260.86 2358.82 2260.6 2357.27L2260.4 2357.8C2259.83 2355.06 2260.19 2355.03 2259.61 2352.34 2259.5 2353.4 2259.39 2354.45 2259.28 2355.51 2258.25 2342.76 2258.83 2337.41 2254.48 2308.24 2253.98 2311.42 2254.05 2311.38 2253.68 2312.68 2253.52 2312.03 2253.36 2311.38 2253.2 2310.73 2252.92 2315.22 2253.01 2315.18 2252.66 2319.65L2252.01 2316.93C2250.35 2321.67 2250.78 2328.13 2249.84 2323.12L2249.54 2323.8C2249.46 2323.1 2249.39 2322.33 2249.03 2321.76 2248.9 2321.57 2248.56 2322.35 2248.49 2322.13 2248.14 2321.06 2248.16 2319.88 2248.04 2318.75L2247.83 2320.45C2247.27 2316.56 2247.13 2316.65 2246.74 2312.67 2244.96 2312.78 2245.57 2313.73 2244.75 2317.84L2243.94 2313.78C2243.41 2319.44 2243.28 2325.14 2242.75 2330.79 2242.62 2332.25 2242.13 2333.64 2241.96 2335.09 2241.69 2329.17 2241.67 2329.19 2241.65 2328.67 2241.39 2336.22 2241.87 2336.27 2240.3 2343.6 2239.95 2341.51 2239.98 2341.57 2239.81 2340.89 2239.31 2343.13 2239.29 2343.09 2239.06 2345.35L2238.91 2344.35C2238.47 2347.26 2238.19 2348.34 2238.1 2348.68L2237.49 2347.95C2237.16 2348.96 2237.13 2348.89 2236.81 2349.86L2236.31 2350.16C2235.74 2348.02 2235.74 2348.07 2235.7 2347.89 2235.31 2349.65 2234.21 2352.21 2234.12 2352.51 2233.68 2352.02 2233.53 2351.9 2233.26 2352.53L2233.02 2351.91C2232.46 2354.12 2233.47 2355.79 2231.55 2355.17 2231.46 2354.61 2231.4 2354.19 2230.88 2348.17 2230.36 2354.09 2230.03 2353.98 2229.39 2356.87L2229.01 2355.36C2228.88 2355.85 2228.75 2356.33 2228.62 2356.82L2228.62 2356.89C2228.23 2355.74 2228.33 2355.75 2227.93 2354.55L2227.8 2355.66 2227.45 2354.28C2226.77 2357.6 2226.02 2357.4 2225.78 2358.62 2225.67 2358.58 2225.54 2358.3 2224.98 2359.09L2224.8 2358.45 2224.57 2359.92C2224.25 2358.63 2224.26 2358.7 2224.04 2357.35 2224.01 2357.49 2223.67 2358.87 2223.29 2358.93 2223.21 2358.94 2223.22 2358.9 2222.57 2357.57 2222.33 2358.61 2222.19 2358.52 2222 2359.6 2221.85 2358.01 2221.69 2356.43 2221.54 2354.84L2221.05 2355.66C2220.12 2348.99 2220.08 2349.03 2219.51 2342.3 2219.16 2348.19 2219.49 2348.19 2218.56 2353.97 2217.77 2351.94 2218.1 2351.87 2217.77 2348.3 2217.67 2349.12 2217.56 2349.95 2217.46 2350.77L2216.57 2346.15C2216.08 2348.68 2214.69 2351.73 2212.99 2364.67 2212.55 2362.62 2212.27 2361.93 2212.18 2361.71L2211.91 2364.06 2211.45 2363.63C2211.31 2364.8 2210.69 2366.16 2210.42 2372.02L2210.04 2369.48C2209.92 2370.78 2209.88 2370.73 2209.75 2372 2209.55 2370.83 2209.52 2370.89 2209.3 2369.72 2208.92 2372.15 2208.37 2374.27 2208.27 2374.66 2207.98 2372.61 2208.01 2372.67 2207.98 2372.5 2207.89 2372.78 2207.65 2373.57 2207.32 2376.13L2206.95 2375.49C2206.62 2376.88 2206.65 2376.85 2206.5 2378.3L2206.31 2377.38C2206.01 2381.67 2205.84 2382.37 2205.73 2382.78 2205.64 2381.96 2205.56 2381.13 2205.48 2380.31 2205.34 2380.87 2205.21 2381.44 2205.08 2382 2204.97 2381.11 2204.85 2380.23 2204.74 2379.34 2204.58 2379.91 2204.42 2380.47 2204.26 2381.04L2204.12 2380.19C2203.88 2380.58 2203.75 2380.79 2203.06 2386.06 2202.96 2385.41 2202.87 2384.76 2202.78 2384.11 2202.56 2385.12 2202.44 2385.01 2202.02 2385.93L2201.94 2385.17C2201.44 2389.95 2201.2 2389.85 2200.83 2394.67L2200.19 2394.19 2199.88 2391.16 2199.68 2392.21C2199.34 2390.2 2199.26 2390.28 2198.95 2388.29 2198.81 2388.93 2198.66 2389.58 2198.52 2390.22 2198.22 2388.33 2198 2386.96 2197.25 2366.29L2197.13 2366.89 2196.82 2362.08 2196.59 2372.39 2196.28 2362.5C2196.03 2368.99 2195.98 2368.92 2195.53 2376.96L2195.17 2373.02 2194.5 2381.8C2193.77 2375.84 2194.03 2368.31 2193.58 2374.27L2193.24 2370.06C2192.88 2378.61 2192.76 2378.57 2192.11 2387.09L2191.78 2385.78 2191.49 2387.45C2191.41 2387.47 2189.81 2388.87 2188.54 2387.03 2185.98 2388.96 2187.53 2385.73 2186.91 2382.26 2184.88 2386.69 2182.85 2391.12 2180.82 2395.55 2180.67 2394.97 2179.78 2391.47 2178.86 2388.3L2178.69 2389.37C2178.13 2385.35 2177.11 2383.71 2177.04 2383.34 2175.95 2378.1 2174.76 2372.85 2174.17 2367.5L2173.89 2368.72C2173.58 2365.76 2173.51 2365.82 2173.25 2362.86 2173.1 2363.52 2173.01 2364.47 2172.99 2364.61L2172.94 2363.96C2172.15 2368.94 2172.24 2369.01 2172.03 2369.11 2171.9 2369.16 2172.2 2368.92 2171.82 2367.14L2171.7 2367.82C2171.41 2365.59 2171.28 2364.39 2171.24 2364.09 2170.96 2366.31 2171.03 2366.26 2170.88 2367.69 2170.85 2367.39 2170.64 2365.32 2170.32 2364.03L2170.18 2365.03C2170.1 2364.12 2170.01 2363.21 2169.93 2362.3 2169.61 2366.19 2169.48 2366.55 2169.36 2366.9 2169.05 2363.25 2169.03 2363.31 2168.73 2359.67 2168.44 2361.62 2168.4 2361.54 2168.26 2363.53L2168.07 2363.34 2167.92 2365.62C2167.82 2364.47 2167.73 2363.33 2167.63 2362.18L2167.21 2365.15C2167.09 2362.67 2167.03 2362.74 2166.81 2360.28L2166.55 2361.97 2166.37 2360.67 2166.18 2361.97C2164.49 2354.96 2164.52 2355 2164.35 2354.4 2163.9 2357.43 2163.88 2357.38 2163.85 2357.64L2163.73 2355.81C2163.61 2356.87 2163.59 2356.79 2163.46 2357.85L2163.26 2355.56C2163.13 2357.76 2162.99 2359.98 2162.59 2362.14 2162.53 2362.45 2162.29 2361.59 2162.21 2361.29 2161.06 2368.09 2159.02 2358.03 2158.94 2357.62L2158.71 2358.8C2157.13 2355.1 2157.89 2354.56 2157.59 2354.61 2156.9 2354.74 2157.22 2355.11 2157.01 2357.3 2156.05 2352.31 2155.7 2349.01 2154.69 2330.2L2154.66 2330.85C2154.4 2327.06 2154.37 2327.11 2154.24 2323.33L2154.14 2324.48C2154.02 2322.12 2153.25 2307.78 2152.83 2295.02L2152.71 2296.31 2152.56 2294.19C2152.5 2295.52 2152.43 2296.85 2152.35 2298.18 2152.1 2293.05 2152.11 2293.09 2151.75 2287.99 2151.58 2289.73 2151.68 2289.68 2151.28 2291.37 2150.93 2284.11 2150.94 2284.08 2150.11 2281.8L2149.87 2282.83 2149.61 2282.04C2148.82 2285.11 2149.16 2285.14 2148.62 2288.34L2148.23 2287.09C2147.47 2289.18 2147.02 2290.45 2145.53 2303.55 2144.92 2308.91 2144.13 2316.25 2143.09 2326.43L2143.04 2325.83C2142.78 2329.53 2142.28 2330.52 2141.85 2333.3 2140.31 2330.11 2140.86 2324.48 2139.89 2312.43L2139.79 2313.72C2139.71 2312.64 2139.2 2305.82 2138.66 2300.27L2138.34 2303.73C2138.07 2294.42 2138.05 2294.46 2137.74 2292.82 2136.44 2303.68 2136.83 2303.69 2135.48 2314.53 2133.22 2290.79 2133.43 2290.78 2133.21 2288.72L2133.18 2289.28 2133.02 2288.75 2132.71 2289.72C2132.35 2288.39 2131.64 2287.18 2131.44 2285.8 2131.07 2283.39 2131.16 2280.92 2131.01 2278.48 2130.56 2284.9 2130.72 2284.84 2130.35 2291.31 2130.2 2290.59 2130.04 2289.86 2129.89 2289.14 2128.22 2296.75 2126.79 2326.21 2126.16 2316L2126.11 2316.78 2126.03 2315.15 2125.9 2317.22C2125.7 2313.82 2125.62 2313.24 2125.57 2312.89L2125.52 2313.97C2124.15 2298.02 2124.79 2298.03 2123.5 2282.1 2123.38 2283.37 2122.41 2293.37 2122.12 2297.93 2121.97 2296.8 2121.92 2296.88 2121.8 2295.79 2121.13 2297.24 2120.21 2325.14 2120.13 2327.7L2120.05 2326.28C2119.54 2335.7 2118.97 2338.02 2118.73 2339.01L2118.46 2337.44 2118.3 2338.81 2118.11 2337.81C2117.75 2347.02 2117.91 2346.97 2117.13 2356.09L2116.96 2355.09C2115.89 2360.25 2116.44 2353.63 2115 2348.62 2114.99 2348.66 2114.66 2349.43 2114.56 2348.87 2113.55 2343.03 2113.99 2342.99 2113.06 2337.13 2112.83 2338.48 2112.67 2338.4 2112.57 2339.79 2112.06 2330.62 2111.86 2330.71 2111.33 2321.47L2111.18 2323.09C2110.7 2315.52 2110.42 2315.6 2110.11 2306.16L2109.96 2307.1C2107.47 2277.71 2108.11 2277.65 2107.76 2275.11 2107.73 2274.91 2107.45 2275.46 2107.28 2275.38 2107.12 2275.31 2107.17 2275.01 2107.11 2274.83 2104.63 2297.84 2105.3 2297.92 2104.94 2299.89 2104.84 2300.45 2103.05 2303.78 2102.67 2311.72L2102.54 2310.78C2102.49 2311.43 2101.95 2319.36 2101.9 2320.1L2101.87 2320.11C2101.83 2319.56 2101.79 2319 2101.75 2318.45L2101.62 2322.04 2101.55 2320.91C2101.53 2321.34 2101.47 2323.64 2101.34 2326.31L2101.29 2324.64C2101.09 2329.37 2100.88 2329.32 2100.72 2334.08 2100.66 2332.24 2100.6 2330.41 2100.53 2328.57 2100.26 2333.52 2100.13 2333.43 2099.94 2338.41 2099.85 2336.96 2099.77 2335.51 2099.68 2334.06 2099.56 2336.2 2099.57 2336.16 2099.39 2338.26 2099.35 2336.39 2099.3 2334.52 2099.26 2332.65 2099.22 2333.01 2099.18 2333.36 2099.16 2333.72 2099.1 2334.53 2099.09 2335.34 2099.03 2336.15 2098.87 2329.55 2098.79 2328.26 2098.75 2327.57 2098.61 2332.24 2098.59 2332.18 2098.36 2336.87 2098.27 2332.58 2098.23 2332.62 2098.12 2329.46 2097.79 2340.21 2097.87 2340.18 2097.54 2343.67L2097.41 2342.7 2097.33 2343.25 2097.23 2342.48 2097.07 2347.2C2097.01 2345.74 2096.99 2345.8 2096.74 2342.16 2096.57 2343.61 2096.55 2343.57 2096.44 2345.04L2096.3 2340.77 2096.22 2341.58 2096.17 2340.8C2095.79 2341.96 2095.95 2341.94 2095.92 2342.03L2095.73 2341.3C2095.72 2341.48 2095.2 2349.66 2095.15 2350.39 2095.11 2349.82 2095.11 2349.88 2094.71 2345.65 2094.46 2354.34 2094.58 2354.29 2094.03 2362.9 2093.84 2360.32 2093.81 2360.36 2093.68 2357.8 2093.2 2377.32 2092.6 2377.29 2092.36 2377.65L2092.09 2376.75C2091.17 2379.27 2091.22 2379.27 2091.11 2379.47 2090.92 2378.85 2090.47 2378.37 2090.2 2377.78 2089.94 2377.22 2089.61 2376.68 2089.51 2376.05 2088.55 2369.81 2088.84 2369.8 2086.43 2333.81L2086.27 2335.28 2086.14 2334.53C2086.03 2334.8 2086.13 2335.15 2086.01 2335.43 2085.96 2335.55 2085.97 2334.87 2085.94 2335.01 2085.86 2335.35 2085.95 2335.72 2085.87 2336.06 2085.57 2332.3 2085.46 2332.38 2085.31 2328.56 2085.07 2332.03 2085 2331.99 2084.75 2335.49L2084.7 2334.9 2084.63 2335.91C2084.16 2321.47 2084.34 2321.52 2083.88 2307.04L2083.85 2308.05 2083.63 2304.4C2083.57 2306.8 2083.5 2309.19 2083.44 2311.58 2083.37 2310.26 2083.3 2308.95 2083.23 2307.63L2083.14 2309.65C2082.94 2302.73 2083.09 2302.78 2082.7 2295.89L2082.64 2297.03C2082.59 2295.77 2082.54 2294.52 2082.49 2293.26 2082.33 2294.56 2082.47 2298.58 2081.71 2306.8 2080.91 2299.33 2081.28 2299.33 2080.5 2294.98L2080.45 2295.61C2080.31 2295.09 2080.22 2294.27 2080.2 2294.15L2080.16 2294.79C2079.2 2287.04 2079.1 2277.9 2078.99 2273.93 2078.7 2284.66 2078.78 2284.6 2078.43 2295.29 2078.33 2294.34 2078.36 2294.38 2078.24 2290.45L2078.22 2291.08 2078.14 2290.24 2078.12 2290.99 2078.04 2289.42C2077.88 2290.97 2075.63 2314.61 2074.93 2317.79 2073.59 2309.83 2073.92 2309.77 2073.77 2309.09 2073.63 2308.47 2073.31 2308.62 2071.25 2301.64 2071.12 2301.59 2070.48 2301.37 2070.13 2300.3 2069.87 2299.52 2068.35 2279.62 2067.88 2276.42 2067.5 2278.8 2067.49 2278.73 2067.28 2281.2L2067.15 2279.85 2067.04 2280.47 2066.96 2279.39 2066.85 2280.78C2066.15 2272.91 2066.43 2272.94 2066 2265.01 2065.98 2265.78 2065.71 2279.03 2065.49 2283.58 2065.43 2281.78 2065.37 2279.99 2065.31 2278.19 2065.15 2284.31 2065.16 2284.27 2065.13 2284.81L2065.05 2283.71C2065.01 2285.71 2064.96 2287.71 2064.92 2289.71L2064.9 2288.87C2064.4 2308.77 2063.96 2308.73 2063.41 2309.74 2061.49 2307.1 2061.83 2291.41 2059.12 2273.79 2058.66 2274.9 2058.62 2276.19 2058.43 2277.41 2057.85 2281.07 2057.43 2284.77 2056.8 2288.42L2056.35 2288.55 2056.07 2289.51 2055.55 2289.26C2054.29 2294.43 2054.28 2294.37 2054.19 2294.81L2053.97 2293.96C2053.28 2300.09 2053.17 2300.04 2052.53 2306.14 2051.97 2303.96 2053.32 2303.76 2049.72 2277.92 2049.44 2275.87 2049.05 2273.83 2048.55 2271.83 2048.41 2271.3 2047.27 2271.37 2046.5 2278.32 2046.27 2274.65 2046.43 2274.67 2045.86 2271.03 2045.73 2274.39 2046.34 2274.47 2045.33 2277.66L2045.01 2276.56C2044.71 2278.98 2044.3 2278.79 2043.86 2281.18 2042.48 2280.03 2043.23 2279.61 2042.89 2276.89L2041.49 2281.76C2039.73 2273.23 2039.77 2273.27 2039.59 2272.54L2037.51 2283.93C2037.34 2283.46 2036.62 2283.51 2036.44 2283.05 2035.92 2281.69 2035.75 2280.18 2035.5 2278.72 2034.95 2275.5 2034.69 2272.21 2034.03 2269.02 2033.18 2274.07 2033.31 2274.03 2032.5 2279.12 2032.33 2275.84 2032.33 2275.89 2032.22 2272.58L2032.13 2274.19 2032 2272.3C2031.32 2281.3 2031.04 2290.52 2030.99 2292.11L2030.86 2291.08 2030.68 2292.41 2030.54 2290.35 2030.46 2291.61C2030.34 2289.6 2030.35 2289.66 2030.31 2289.21 2029.7 2306.05 2030.06 2306 2029.17 2322.8 2028.55 2318.15 2028.61 2305.83 2028.27 2302.88 2028.03 2307.79 2028.04 2307.73 2027.88 2312.65 2027.74 2310.17 2027.77 2310.24 2027.63 2307.78L2027.55 2308.95C2027.48 2308.45 2027.4 2307.94 2027.33 2307.44L2027.18 2308.95 2027.02 2306.73 2026.9 2308.02C2026.71 2305.82 2026.72 2305.88 2026.48 2303.71 2025.96 2308.6 2026.2 2308.59 2024.84 2316.38L2024.48 2305.76C2024.26 2305.72 2023.71 2307.49 2023.31 2305.54L2022.41 2309.73C2020.29 2304.36 2020.36 2303.69 2020.21 2304.15 2020.13 2303.31 2020.13 2303.33 2019.75 2300.02L2019.49 2302.26 2018.83 2294.9 2016.52 2301.51C2015.74 2298.22 2016.45 2294.01 2015.51 2297.26 2015.4 2297.65 2015.41 2298.07 2015.29 2298.46 2014.91 2297.78 2014.79 2296.72 2014.14 2296.43 2013.79 2296.28 2013.38 2298.92 2013.35 2299.15 2012.75 2296.61 2012.76 2296.65 2012.3 2294.05L2011.81 2294.37 2010.94 2290.79 2010.54 2291.21C2008.47 2281.09 2008.17 2281.22 2006.55 2270.95 2006.22 2274.15 2006.55 2274.22 2005.43 2277.19L2005.31 2275.54C2005.16 2278.74 2005.04 2278.69 2004.52 2281.82L2004.4 2278.97C2004.3 2281.02 2004.21 2283.06 2004.11 2285.1L2003.98 2284.18C2003.58 2289.19 2003.39 2289.11 2003.18 2294.21L2003.05 2290.39C2002.91 2294.04 2002.92 2293.98 2002.75 2297.59 2002.72 2297.25 2002.67 2296.9 2002.65 2296.55 2002.6 2295.55 2002.59 2294.55 2002.52 2293.56 2002.46 2293.74 2002.31 2294.99 2002.29 2295.11L2002.02 2291.03C2001.97 2291.32 2001.93 2291.56 2001.78 2294.74L2001.71 2292.71 2001.58 2296.18C2001.36 2291.31 2001.33 2291.35 2001.21 2286.46 2001.06 2291.49 2001.01 2291.44 2000.9 2296.47L2000.77 2294.78C1999.95 2304.77 2000.52 2304.78 1999.73 2314.32 1999.69 2313.38 1999.64 2312.44 1999.59 2311.51L1999.45 2312.68C1999.4 2311.77 1998.99 2306.96 1998.79 2302.89 1998.01 2313.94 1997.97 2313.92 1997.92 2314.88 1997.64 2310.47 1997.54 2310.53 1997.27 2306.14 1996.82 2309.47 1997.03 2309.6 1996.71 2314.66 1996.63 2313.96 1996.56 2313.25 1996.48 2312.55 1996.32 2317.3 1996.31 2317.25 1996.16 2322L1996.02 2321.09 1995.83 2322.02 1995.69 2320.56C1995.53 2321.85 1995.38 2323.14 1995.22 2324.42L1994.93 2323.6C1994.88 2323.83 1994.67 2323.77 1994.26 2327.03L1993.64 2326.04C1993.13 2327.65 1993.54 2328.85 1990.74 2334.52 1989.57 2332.43 1990.09 2331.76 1989.96 2331.92 1989.37 2332.69 1988.98 2334.4 1988.93 2334.63L1988.45 2333.32 1988.13 2334.5C1987.66 2334.2 1987.23 2333.16 1986.81 2334.7 1986.77 2334.46 1986.78 2333.98 1986.58 2334.02 1986.33 2334.08 1986.5 2334.79 1986.24 2334.83 1986.03 2334.86 1986.29 2333.98 1986.1 2334.09 1985.68 2334.96 1986.01 2335.03 1985.04 2339.16 1983.8 2334.62 1983.69 2333.32 1983.64 2332.8 1982.39 2334.97 1982.81 2332.15 1982 2327.9 1981.64 2330.05 1981.55 2329.95 1981.16 2332.07 1980.95 2330.81 1980.75 2329.55 1980.54 2328.28 1980.32 2331.19 1979.92 2333.9 1979.85 2334.39 1979.18 2333.46 1978.31 2329.08 1977.28 2327.94L1976.8 2328.59C1976.59 2327.76 1976.25 2326.98 1975.84 2326.26 1975.67 2325.96 1975.25 2325.93 1975.1 2325.62 1974.79 2324.96 1974.76 2324.17 1974.52 2323.47 1974.47 2323.33 1974.05 2322.14 1973.39 2322.04 1969.63 2321.51 1968.77 2322.62 1966.68 2318.04 1965.03 2316.29 1965.46 2315.99 1964.42 2313.73 1962.44 2314.02 1962.5 2313.56 1961.4 2312.56 1961.32 2312.5 1961.39 2312.66 1961.14 2313.9 1959.41 2307.27 1961.64 2305.06 1958.8 2297.89 1958.63 2299.23 1958.45 2300.57 1958.28 2301.91L1958.03 2300.16 1957.75 2300.93C1957.33 2298.53 1957.47 2298.54 1957.3 2295.73 1957.06 2302.97 1956.78 2302.9 1956.19 2310.08 1956.11 2309.57 1956.02 2309.07 1955.93 2308.56 1955.08 2317.85 1956.07 2325.83 1954.18 2336.43 1953.98 2335.84 1954.11 2335.86 1953.89 2335.3 1953.45 2338.11 1953.38 2338.04 1952.97 2340.84 1952.87 2340.09 1952.77 2339.34 1952.67 2338.6 1952.47 2339.64 1952.39 2339.56 1952.3 2340.58L1952.09 2339.7C1951.44 2345.24 1950.62 2345.05 1950.33 2351.62 1949.83 2349.57 1949.66 2349.57 1949.1 2330.02L1949.02 2331.96C1948.32 2324.94 1948.95 2324.96 1948.07 2314.06 1947.41 2319.63 1947.64 2319.62 1947.37 2325.23 1947.14 2320.94 1947.11 2320.99 1946.84 2316.74 1946.53 2323.39 1946.61 2323.83 1946.28 2324.77 1946.03 2322.62 1945.69 2322.01 1945.48 2319.5L1945.41 2320.61C1944.22 2297.17 1943.58 2269.96 1943.39 2265.68 1942.95 2269.74 1943.08 2269.71 1942.97 2273.83 1942.91 2273.01 1942.85 2272.19 1942.78 2271.37 1942.37 2277.1 1940.74 2276.63 1940.8 2278.84 1940.84 2280.04 1941.18 2281.23 1941.11 2282.43 1941.01 2281.75 1940.91 2281.06 1940.8 2280.38 1940.59 2284.54 1940.99 2284.58 1939.94 2288.51 1939.64 2288.09 1939.57 2288.18 1939.23 2288.57 1938.43 2286.89 1938.75 2286.83 1938.49 2284.91 1938.16 2288.01 1937.97 2288.26 1937.89 2288.03 1937.35 2286.42 1936.99 2284.74 1936.53 2283.11L1936.09 2287.17C1935.4 2284.65 1935.65 2284.64 1935.59 2283.44 1935.53 2284.54 1935.55 2285.65 1935.4 2286.73 1935.38 2286.85 1935.22 2286.37 1935.16 2286.48 1934.71 2287.26 1934.9 2287.33 1934.38 2292.73L1934.23 2291.95C1933.76 2296.39 1933.39 2300.89 1933.32 2301.67L1933.24 2300.9C1933.12 2302.44 1932.12 2315.16 1932.22 2320.19 1932.31 2324.71 1932.67 2324.85 1932.36 2325.01 1932.02 2325.17 1931.25 2324.59 1930.86 2327.49L1930.63 2326.13 1930.58 2326.82C1930.51 2325.24 1930.46 2325.31 1930.38 2323.77L1930.32 2324.58 1930.27 2323.83C1930.04 2328.47 1929.96 2328.42 1929.83 2330.59 1929.71 2329.11 1929.59 2327.62 1929.48 2326.13L1929.38 2326.91C1929.15 2325.1 1928.96 2321.72 1928.93 2321.27 1928.87 2322.24 1928.82 2323.22 1928.76 2324.19 1928.32 2321.84 1928.43 2321.9 1928.28 2319.46L1928.06 2321.09 1927.96 2320.09C1927.63 2326.84 1927.97 2326.88 1927.35 2331.19L1927.13 2329.95 1926.96 2330.87C1926.93 2330.65 1926.32 2326.31 1925.64 2328.56 1925.02 2327.79 1924.02 2322.01 1923.66 2326.1L1923.58 2324.97C1923.46 2326.97 1923.46 2326.91 1923.35 2328.91 1923.25 2327.28 1923.14 2325.65 1923.04 2324.02L1922.84 2324.73C1922.64 2323.6 1921.82 2313.53 1921.74 2312.55L1921.61 2314.15C1921.51 2313.52 1921.52 2312.87 1921.43 2312.24 1921.41 2312.11 1921.39 2312.76 1921.37 2312.62 1921.3 2311.96 1921.33 2311.28 1921.25 2310.62 1920.94 2320.18 1920.99 2320.83 1920.8 2324.37L1920.71 2322.87C1919.89 2331.13 1920.19 2331.12 1919.55 2339.39 1919.4 2338.71 1918.89 2339.01 1918.84 2339.05 1918.6 2339.19 1918.42 2339.94 1918.29 2339.68 1917.89 2338.96 1917.61 2335.19 1917.59 2334.79 1917.34 2337.49 1916.71 2338.92 1916.56 2339.25 1916.5 2339.4 1916.11 2339.54 1915.81 2337.37L1915.55 2338.47 1915.36 2337.86C1914.94 2342.23 1914.25 2342.67 1914.18 2342.84 1913.59 2338.38 1913.92 2338.33 1913.71 2338.03 1913.5 2337.72 1912.98 2337.73 1912.87 2337.35 1912.03 2334.38 1911.78 2331.21 1910.96 2328.22 1910.82 2328.71 1910.65 2330.26 1910.63 2330.44 1910.59 2329.99 1910.02 2323.91 1909.29 2325.06 1909.19 2324.4 1909.09 2323.73 1909 2323.07L1908.73 2324.44C1908.39 2321.35 1908.81 2321.35 1908.67 2321.14 1908.38 2320.71 1907.37 2321.56 1907.27 2321.64 1906.83 2320.05 1905.46 2318.96 1905.02 2317.37 1904.5 2315.53 1904.61 2313.54 1904.47 2311.61 1904.21 2313.69 1904.07 2313.6 1903.87 2315.71 1903.8 2315.19 1903.73 2314.67 1903.66 2314.15 1903.63 2314.34 1903.42 2315.7 1903.27 2316.54L1903.05 2314.03C1902.91 2317.42 1902.7 2321.33 1902.66 2321.96 1902.58 2320.35 1902.5 2318.73 1902.42 2317.11 1901.96 2337.67 1902.23 2338.95 1900.66 2339.1 1900.14 2338.21 1900.12 2338.13 1899.18 2338.19 1898.71 2335.45 1898.77 2335.49 1898.45 2332.78 1897.06 2337.72 1896.19 2337.21 1895.65 2338.78 1895.36 2337.11 1895.32 2337.17 1895.01 2335.47 1894.97 2335.63 1894.73 2336.77 1894.45 2337.44 1893.6 2336.68 1893.83 2336.52 1893.4 2335.36 1892.98 2337.32 1893.07 2337.3 1892.66 2339.25L1892.36 2338.24C1891.22 2339.48 1891.58 2337.87 1891.29 2336.09 1890.19 2339.53 1890.82 2339.94 1889.3 2341.46 1889.14 2340.42 1889.15 2339.74 1888.39 2340.41 1886.08 2342.49 1886.04 2342.43 1885.78 2342.89 1885.22 2343.89 1884.99 2342.89 1884.88 2343.02 1884.24 2343.7 1883.9 2344.69 1883.46 2345.56L1883 2345.18 1882.75 2345.8 1882.3 2345.19C1881.86 2346.04 1881.52 2346.2 1881.14 2345.27 1880.72 2346.81 1880.71 2346.73 1880.68 2346.86 1880.45 2346.26 1880.05 2345.76 1879.65 2345.3 1878.98 2344.53 1879.09 2344.51 1878.82 2343.41L1878.55 2344.07C1878.02 2343.01 1877.84 2343.18 1877.5 2341.99 1877.41 2342.36 1876.81 2342.82 1874.97 2349.25 1874.36 2348.42 1874.23 2348.73 1873.83 2349.05L1873.43 2348.02C1872.81 2349.97 1873.42 2350.7 1871.82 2351.06 1871.42 2351.95 1871.47 2351.93 1870.86 2352.63 1870.46 2351.47 1870.39 2351.57 1870.02 2350.41L1869.78 2351.88C1869.73 2351.67 1869.73 2351.68 1869.05 2349.36 1868.21 2350.94 1867.24 2350.38 1866.87 2353.29 1866.42 2350.58 1866.45 2350.63 1866.4 2350.4 1866.11 2351.96 1865.82 2353.52 1865.53 2355.08 1865.45 2354.82 1864.92 2352.82 1864.44 2351.87 1864.22 2352.73 1864.2 2352.69 1863.96 2353.52L1863.82 2352.73C1863.73 2353.43 1863.65 2354.12 1863.57 2354.82 1862.79 2353.4 1862.83 2353.38 1862.73 2353.29 1862.62 2353.73 1859.89 2364.71 1859.3 2357.48 1858.86 2352.13 1858.63 2346.75 1858.18 2341.4 1858.02 2342.41 1857.97 2342.33 1857.82 2343.37 1857.39 2340.27 1857.5 2340.3 1857.36 2337.15 1857.16 2339.37 1857.13 2339.29 1856.84 2341.52L1856.66 2339.1C1856.62 2340.49 1856.61 2340.44 1856.4 2344.9L1856.3 2342.12 1856.22 2342.72 1856.2 2341.94C1855.96 2344.76 1855.45 2344.57 1854.97 2347.4 1854.14 2342.51 1854.1 2337.5 1853.7 2332.54 1851.44 2304.41 1851.39 2304.44 1851.23 2301.99 1850.87 2303.54 1850.8 2303.47 1850.56 2305.07 1850.4 2303.85 1850.25 2302.63 1850.09 2301.41 1849.96 2302.42 1850.11 2302.42 1848.99 2314.1 1847.44 2301.29 1848.05 2296.17 1846.64 2287.25L1846.45 2288.99C1846.39 2288.26 1846.28 2287.53 1846.19 2286.81 1845.99 2285.17 1845.77 2283.54 1845.59 2281.9L1845.44 2282.95C1845.25 2279.53 1845.43 2279.57 1844.83 2276.17L1843.74 2285.66C1843.53 2286.46 1842.75 2286.96 1842.61 2287.78 1842.03 2291.16 1841.86 2294.61 1841.63 2298.05L1841.34 2295.83C1840.95 2299.06 1840.3 2302.46 1840.19 2303.03L1840.09 2302.39 1840.01 2302.86 1839.94 2302.32 1839.8 2304.56 1839.71 2303.84C1839.35 2305.52 1838.9 2317.55 1838.54 2321.79L1838.44 2321.11C1838.03 2326.18 1838.01 2326.17 1837.97 2326.61L1837.84 2325.59C1837.69 2326.66 1837.86 2326.71 1837.39 2327.41 1837.22 2326.77 1837.27 2326.77 1836.41 2315.61 1836.41 2315.61 1834.94 2302.11 1834.82 2300.93 1834.73 2302.92 1835.09 2304.92 1835.01 2306.91 1834.94 2308.6 1834.78 2310.31 1834.37 2311.93L1833.74 2310.22C1832.93 2316.03 1832.8 2315.96 1831.76 2321.69L1831.51 2321.19C1831.4 2321.93 1831.3 2322.66 1831.19 2323.4L1830.78 2322.16 1829.97 2326.14C1827.63 2305.58 1827.86 2305.55 1827.5 2303.8 1827.39 2305.52 1827.27 2307.25 1827.16 2308.97L1826.97 2308.03C1826.34 2311.07 1826.17 2310.97 1825.8 2314.05L1824.14 2308.44C1823.39 2309 1823.38 2310.27 1823.01 2309.28 1822.29 2318.35 1822.16 2318.3 1821.24 2322.84 1819.44 2318.9 1818.88 2300.75 1816.61 2287.28L1816.48 2288.5 1816.29 2285.51C1815.65 2288.24 1814.95 2294.7 1814.86 2295.5 1814.08 2294.34 1814.28 2294.27 1814.1 2292.84 1811.85 2318.8 1810.68 2322.8 1809.95 2325.28 1809.86 2324.63 1809.23 2319.91 1808.96 2317.09L1808.86 2318.37C1808.15 2314.89 1808.24 2314.9 1807.95 2311.36L1807.86 2312.34C1807.14 2300.75 1806.76 2300.83 1806.07 2289.22 1805.95 2289.68 1805.42 2291.78 1804.87 2295.1 1804.83 2294.81 1804.54 2292.67 1804.32 2291.53 1803.75 2296.1 1803.69 2296.05 1803.65 2296.44 1803.03 2290.61 1803.5 2290.63 1802.79 2284.86 1802.27 2291.12 1802.19 2291.07 1801.65 2297.35 1801.25 2289.4 1801.44 2289.44 1800.68 2281.47L1799.77 2294.22C1798.39 2282 1797.97 2282.1 1797.64 2269.81 1796.9 2282.5 1797.49 2282.49 1795.98 2295.05 1794.74 2287.78 1794.96 2287.77 1794.48 2280.37L1794.38 2281.32C1794.27 2280.67 1794.15 2280.02 1794.03 2279.37 1793.84 2281.79 1793.74 2281.71 1793.54 2284.15L1793.52 2283.52C1793.45 2284.56 1792.86 2293.94 1792.35 2296.53 1792.09 2295.89 1792.11 2295.94 1791.94 2295.23L1791.77 2296.94C1791.7 2295.27 1791.62 2293.61 1791.55 2291.94 1791.48 2293.72 1791.4 2295.49 1791.33 2297.27L1791.3 2296.43C1791.24 2297.47 1791.13 2298.97 1790.8 2301.61L1790.73 2300.87C1790.56 2301.03 1790.31 2303.14 1790.28 2303.34 1790.02 2300.13 1790.02 2300.19 1789.8 2296.95 1789.04 2302.84 1788.93 2309.11 1788.47 2305.65 1788.14 2307 1788.09 2306.94 1787.83 2308.26L1787.64 2307.33C1786.91 2309.38 1787.31 2309.46 1786.6 2311.49L1786.37 2310.47C1786.21 2311.44 1786.28 2311.43 1786.03 2312.18 1785.72 2309.18 1785.48 2309.27 1785.05 2306.3L1784.78 2307.31C1784.36 2304.43 1783.22 2301.09 1782.92 2299.65 1782.79 2300.27 1782.67 2300.89 1782.54 2301.51L1782.29 2300.7C1781.97 2301.21 1781.37 2302.17 1780.56 2308.37 1779.86 2297.15 1779.61 2297.26 1778.09 2286.19 1777.88 2288.59 1777.82 2288.52 1777.58 2290.92L1777.37 2289.46 1777.31 2290.02C1777.15 2287.1 1777.12 2287.16 1776.95 2284.2 1776.84 2284.74 1776.73 2285.29 1776.62 2285.84 1776.5 2284.25 1776.39 2282.67 1776.27 2281.09L1776.16 2282.77C1776.07 2282.02 1775.99 2281.27 1775.91 2280.51 1775.33 2289.06 1775.01 2288.98 1773.79 2297.47 1773.6 2294.95 1773.74 2294.99 1773.28 2292.58L1773.17 2295.12 1773.09 2294.58C1772.8 2300.38 1773.11 2300.4 1771.78 2305.95 1771.5 2304.86 1771.28 2298.78 1771.26 2298.16 1771.12 2299.73 1770.97 2301.3 1770.83 2302.87L1770.69 2300.45C1769.67 2315.7 1770.11 2315.67 1768.65 2330.93 1768.37 2329.56 1767.99 2329.65 1767.35 2317.18L1767.18 2319.75C1767.12 2318.38 1766.94 2314.69 1765.87 2302.63 1765.8 2303.93 1765.73 2305.23 1765.66 2306.53L1765.61 2305.31 1765.54 2306.19C1765.53 2306.07 1763.5 2286.41 1763.49 2286.37 1763.31 2287.65 1763.33 2287.6 1763.21 2288.92 1762.99 2287.31 1762.39 2283.46 1762 2279.38 1761.73 2281.37 1761.45 2284.49 1761.41 2284.93L1761.16 2283.37C1760.87 2287.55 1760.76 2287.5 1760.45 2291.68L1760.22 2287.62C1758.37 2298.03 1758.53 2327.62 1754.94 2333.95 1754.5 2331.4 1754.18 2328.82 1753.65 2326.3 1753.61 2326.11 1753.61 2326.79 1753.44 2326.82 1752.12 2327.02 1752.63 2326.04 1751.14 2318.53 1751.08 2318.77 1750.89 2319.42 1750.84 2319.18 1750.26 2316.4 1749.87 2313.57 1749.51 2310.73L1749.38 2311.56C1748.79 2302.52 1749.03 2302.54 1748.4 2295.98 1748.1 2297.64 1747.99 2298.73 1747.97 2298.97 1747.79 2297.06 1747.86 2297.1 1747.84 2296.94L1747.74 2297.82 1747.63 2294.64C1747.57 2296.26 1747.6 2296.21 1747.45 2297.8L1747.36 2297.14 1747.28 2298.03C1745.95 2276.94 1746.76 2276.92 1745.12 2255.83 1745.1 2256.85 1744.98 2262.6 1744.8 2268.55 1744.75 2266.83 1744.69 2265.11 1744.64 2263.4 1744.6 2266.09 1744.56 2268.78 1744.52 2271.48L1744.47 2269.03C1744.42 2270.73 1744.38 2272.43 1744.34 2274.14L1744.31 2273.3C1744.06 2281.47 1743.99 2281.43 1743.13 2289.53 1742.56 2287.64 1742.66 2290.04 1742.03 2294.16 1741.67 2290.67 1741.61 2290.74 1741.37 2287.2 1740.93 2293.01 1741.03 2293 1740.64 2295.5L1740.58 2295.01C1740.36 2296.9 1740.36 2296.9 1740.35 2296.98 1740.33 2296.82 1740.15 2295.62 1739.93 2294.98 1739.88 2295.47 1739.89 2295.42 1739.75 2298.33 1739.59 2296.75 1739.62 2296.79 1739.51 2296.27 1739.45 2297.3 1739.4 2298.33 1739.35 2299.36 1739.27 2298.96 1739.2 2298.56 1739.13 2298.16 1738.27 2312.14 1736.03 2312.47 1735.72 2311.42 1734.67 2319.75 1734.88 2319.78 1732.76 2327.85 1731.06 2317.28 1731 2317.31 1730.87 2316.38 1730.6 2316.91 1730.51 2317.06 1729.75 2323.96L1729.48 2322.67C1729.2 2323.65 1729.27 2323.65 1728.93 2324.39L1728.46 2323.68C1728.07 2327.11 1728.05 2330.6 1727.41 2333.97 1726.99 2336.15 1725.89 2338.08 1725.32 2340.21 1724.88 2337.35 1722.92 2326.31 1722.35 2321.51 1722.24 2322.72 1722.13 2323.93 1722.02 2325.14 1721.29 2322.6 1721.33 2322.62 1720.88 2320.01 1720.07 2321 1720.32 2321.1 1719.45 2324.82L1719.3 2323.81 1719.18 2325.36 1718.9 2324.52 1718.81 2325.72C1718.76 2324.52 1718.25 2311.96 1717.17 2310.86 1717.1 2311.65 1717.13 2312.47 1716.89 2313.22 1716.81 2313.48 1716.73 2312.7 1716.68 2312.43 1716.41 2313.74 1716.34 2313.67 1715.94 2314.93L1715.79 2313.49 1715.71 2314.12 1715.51 2311.79C1714.71 2324.25 1714.3 2326.95 1713.6 2332.82 1712.67 2329.25 1713.02 2329.22 1712.19 2325.68 1711.84 2326.81 1711.61 2321.81 1711.6 2321.47L1711.52 2323.35 1711.42 2320.33 1711.34 2322.07C1710.65 2306.65 1709.99 2306.75 1709.26 2291.36 1708.76 2295.92 1708.66 2316.59 1707.87 2305.18L1707.79 2306.56 1707.66 2304 1707.52 2305.93C1707.39 2305.38 1707.26 2304.83 1707.13 2304.28L1706.86 2305.14C1706.59 2304.84 1706.62 2304.1 1706.58 2304.59 1706.34 2307.31 1706.07 2310.03 1705.9 2312.76 1705.8 2311.82 1705.75 2311.9 1705.56 2311.02 1705.27 2314.3 1705.3 2314.25 1704.91 2317.51 1704.82 2315.99 1704.74 2314.47 1704.66 2312.95L1704.52 2315.62C1702.02 2297.31 1702.35 2297.3 1701.93 2278.79 1701.77 2282.47 1701.68 2285.41 1701.66 2285.98L1701.6 2285.38C1701.52 2288.56 1701.44 2291.74 1701.36 2294.92 1701.29 2293.02 1701.22 2291.12 1701.15 2289.23L1701.08 2291.26 1701.02 2290.54C1700.99 2290.92 1700.38 2307.39 1699.07 2310.03 1698.98 2309.58 1698.81 2308.72 1698.47 2304.24L1698.2 2308.5 1698.12 2307.37 1698 2309.04C1697.96 2308.45 1697.57 2303.33 1697.23 2301.65L1697.06 2302.61C1696.48 2301.09 1696.26 2290.99 1696.24 2289.97L1696.19 2291.44 1696.14 2289.41C1696.01 2293.94 1696 2293.87 1695.83 2298.34 1695.75 2296.61 1695.17 2285.33 1695.11 2284.19L1695.02 2286.46C1694.98 2285.23 1694.89 2279.62 1694.62 2279.37 1694.56 2280.55 1694.6 2280.49 1694.44 2281.64L1694.31 2279.01 1694.21 2283.16 1694.16 2281.49 1694.11 2283.82 1694.08 2282.08 1694 2285.82 1693.95 2284.42 1693.87 2287.46 1693.85 2285.79 1693.77 2288.87 1693.72 2287.25 1693.67 2289.91 1693.59 2288.3 1693.54 2290.63 1693.51 2289.41 1693.46 2291.35C1693.39 2289.72 1693.32 2288.1 1693.25 2286.47L1693.12 2289.27C1693.04 2288.58 1692.95 2287.89 1692.87 2287.19 1692.39 2291.55 1692.37 2291.54 1692.33 2291.92 1692.3 2291.3 1691.99 2284.32 1691.63 2284.27 1691.46 2284.24 1691.19 2297.15 1690.95 2300.51 1690.78 2296.27 1690.6 2292.03 1690.43 2287.78 1690.08 2295.43 1689.8 2295.37 1689.45 2304.74L1689.35 2304.11 1689.3 2304.71C1689.06 2301.29 1688.96 2301.34 1688.81 2300.34 1688.59 2304.46 1688.06 2324.08 1687.02 2314.14L1686.84 2315.7C1686.59 2312.76 1686.62 2312.78 1686.29 2307.16L1686.14 2308.72C1685.67 2303.21 1685.8 2303.24 1685.58 2297.69 1685.19 2301.06 1685.14 2305.48 1684.93 2306.79L1684.84 2306.13C1684.79 2306.85 1684.31 2313.51 1683.45 2315.04 1682.8 2312.53 1680.59 2292.02 1680.53 2290.11 1680.07 2291.41 1679.88 2295.31 1679.86 2295.77 1679.49 2303.46 1679.32 2311.17 1678.81 2318.85 1678.63 2317.9 1678.26 2316 1677.61 2306.78L1677.35 2308.46 1677.22 2307.36C1675.39 2316.12 1676.12 2316.25 1675.84 2316.96 1675.06 2318.87 1675.71 2316.35 1675.5 2314.27 1674.58 2325.49 1674.39 2325.41 1673.83 2336.68L1673.66 2335.01C1672.83 2344.56 1673 2344.57 1670.98 2353.84 1669.67 2351.99 1669.68 2356.36 1669.49 2358.11 1669.39 2357.39 1669.38 2357.42 1669.09 2355.87 1667.64 2358.99 1667.89 2359.05 1667.12 2362.48 1666.88 2361.28 1666.26 2361.32 1665.84 2359.78L1665.54 2360.29C1665.15 2360.44 1664.78 2360.77 1664.37 2360.74 1664.19 2360.72 1664.29 2360.25 1664.12 2360.17L1663.47 2360.11 1662.8 2362.71C1662.69 2362.31 1661.95 2359.78 1660.53 2358.2 1659.77 2363.43 1660.15 2364 1659.2 2364.08 1657.88 2364.2 1658.74 2360.88 1658.23 2362.29 1657.81 2363.44 1657.39 2364.6 1657.07 2365.79L1656.84 2365.09C1656.46 2370.61 1656.09 2370.49 1655.29 2374.84L1654.8 2373.02 1653.42 2376.04C1652.44 2375.94 1653.28 2373.93 1652.53 2374.65 1651.9 2375.26 1652.11 2375.39 1651.33 2378.25L1651.1 2376.93 1650.58 2379.93 1650.16 2379.05 1649.82 2379.81C1649.25 2376 1648.68 2372.19 1647.96 2368.42 1647.78 2367.45 1647.3 2366.59 1647.12 2365.63 1646.44 2365.36 1646.35 2367.06 1646.16 2366.23 1646 2365.55 1645.71 2364.28 1645.28 2357.51 1644.92 2360.28 1644.87 2360.23 1644.5 2363.02L1644.37 2362.1C1644.26 2362.99 1644.11 2362.88 1644.01 2363.81 1643.83 2361.96 1643.76 2362.03 1643.53 2360.16 1643.43 2361.49 1643.33 2362.82 1643.23 2364.16 1642.93 2360.83 1643.05 2360.84 1642.63 2358.79 1642.48 2359.94 1642.34 2361.1 1642.2 2362.25 1642.03 2361.35 1641.5 2361.44 1640.5 2347.77 1640.29 2348.83 1640.08 2349.9 1639.86 2350.97 1638.44 2344.27 1638.11 2344.4 1637.38 2338.6L1637.13 2339.38C1637.09 2338.94 1637.03 2338.37 1636.44 2333.86 1635.42 2338.09 1635.9 2341.16 1634.43 2345.39L1634.29 2344.83C1633.92 2346.24 1633.88 2346.2 1633.72 2347.68L1633.5 2346.97 1633.05 2347.96C1632.29 2345.21 1632.32 2345.23 1631.99 2342.35 1631.89 2342.81 1631.78 2343.27 1631.68 2343.73 1630.69 2337.04 1631.87 2336.96 1630.53 2327.36 1629.96 2335.41 1629.78 2335.36 1629.24 2343.42L1629.18 2342.57C1629.02 2343.83 1628.83 2343.74 1628.6 2345.01 1627.67 2330.41 1627.68 2330.43 1627.59 2329.16L1627.41 2330.14C1627.28 2328.83 1627.3 2328.88 1627.01 2327.61L1626.82 2328.61C1626.7 2327.27 1626.58 2325.92 1626.46 2324.58 1626.29 2322.56 1626.13 2320.54 1625.95 2318.52 1625.19 2321.11 1625.46 2321.14 1624.66 2323.74 1624.59 2323.15 1624.12 2319.19 1624.07 2318.8 1623.94 2320.34 1623.9 2320.3 1623.74 2321.83L1623.44 2319.99 1623.2 2321.81C1623.1 2320.69 1623.01 2319.57 1622.91 2318.46L1622.75 2319.86C1622.34 2317.93 1622.37 2317.93 1622.34 2317.76 1621.77 2320.64 1622.18 2320.68 1621.61 2323.56L1621.37 2321.92C1621.16 2323.24 1620.94 2324.57 1620.73 2325.9L1620.63 2325.3C1620.31 2328.26 1619.67 2328.06 1619.24 2332.2 1619.14 2331.43 1619.04 2330.67 1618.95 2329.91 1618.82 2330.48 1618.67 2332.06 1618.65 2332.24 1618.35 2330.32 1618.36 2330.4 1618.11 2328.48 1617.74 2330.15 1617.77 2330.09 1617.64 2330.53L1617.43 2329.59C1617.05 2330.42 1617.07 2332.08 1616.76 2339.73 1616.56 2338.05 1616.53 2338.13 1616.33 2336.41 1616.23 2337.2 1616.27 2337.15 1615.52 2346.3L1615.25 2343.49C1614.59 2352.96 1614.91 2352.95 1613.25 2362.21L1612.96 2361.75C1612.37 2366.72 1612.19 2366.64 1611.67 2371.62L1611.03 2369.73C1610.87 2370.5 1611.03 2371.32 1610.87 2372.09 1610.7 2372.9 1610.38 2373.66 1610.04 2374.4 1609.83 2373.73 1609.61 2373.06 1609.4 2372.39L1608.54 2373.71C1606.08 2364.57 1606.13 2364.61 1605.88 2363.84 1603.93 2360.71 1604.45 2360.48 1603.85 2356.62 1603.41 2357.44 1603.01 2358.59 1602.95 2358.76 1601.08 2354.96 1600.52 2355.2 1599.9 2349.81L1599.64 2351.13C1598.62 2345.12 1596.38 2344.89 1595.1 2329.81L1594.87 2330.78C1594.71 2328.91 1594.64 2328.96 1594.47 2327.08 1594.34 2329.03 1593.91 2328.9 1592.18 2351.34 1591.15 2364.76 1591.34 2373.28 1590.15 2366.66 1589.83 2364.87 1589.63 2363.05 1589.42 2361.24 1588.9 2367.12 1587.14 2366.91 1586.63 2367.53 1586.36 2367.86 1586.25 2369.26 1586.19 2368.81 1585.58 2364.77 1585.29 2360.67 1584.97 2356.58 1584.86 2357.9 1585.39 2359.07 1583.22 2370.45L1583.1 2369.58C1582.52 2370.92 1582.18 2370.16 1581.29 2369.13L1581.07 2369.86C1580.67 2369.15 1579.27 2368.87 1577.73 2363.77 1575.85 2357.54 1575.74 2353.01 1575.6 2352.4L1575.15 2353.9C1574.79 2353.24 1574.77 2352.31 1574.63 2353.09 1574.17 2355.69 1573.74 2358.3 1573.4 2360.92 1573.17 2360.43 1573.22 2360.43 1571.65 2353.34 1571.2 2351.33 1570.41 2349.41 1570.11 2347.37 1569.78 2347.83 1569.76 2347.85 1569.15 2354.85 1568.5 2348.29 1567.56 2348.54 1566.79 2341.97L1566.69 2343.05 1566.49 2341.88C1566.04 2348.39 1565.97 2348.38 1565.93 2348.95 1563.53 2336.49 1564.16 2336.36 1563.86 2335.31L1563.78 2336.62C1562.72 2318.14 1562.33 2318.21 1562.26 2316.6 1561.79 2306.02 1561.65 2295.41 1561.08 2284.83 1560.12 2305.63 1560.29 2305.62 1560.2 2307.43 1559.93 2305.22 1559.94 2299.8 1559.72 2298.22L1559.69 2299.42 1559.64 2298.22C1559.59 2299.22 1559.63 2299.19 1559.09 2310.65 1558.99 2306.2 1558.96 2306.27 1558.84 2301.81L1558.84 2302.67 1558.82 2301.72 1558.71 2302.79 1558.58 2298.55 1558.53 2300.64C1558.39 2299.47 1558.37 2299.55 1558.24 2298.31 1558.11 2301 1558.08 2300.96 1558.02 2303.66L1557.94 2301.99 1557.89 2303.15 1557.84 2302.02 1557.79 2303.48C1557.73 2302.47 1557.68 2301.47 1557.63 2300.46 1557.32 2301.55 1557.07 2307.51 1557.05 2308.12 1556.94 2305.27 1556.83 2302.42 1556.73 2299.56L1556.58 2303.59C1556.37 2298.26 1556.4 2298.31 1556.24 2292.99L1556.22 2293.74C1555.81 2282.74 1555.72 2282.82 1555.37 2271.78 1554.96 2278.59 1554.86 2287.41 1554.21 2312.97 1554.04 2311.64 1553.99 2311.71 1553.83 2310.41L1553.59 2312.74C1553.1 2300.34 1553.26 2300.38 1552.9 2287.95 1552.78 2288.63 1552.65 2289.3 1552.52 2289.98 1552.22 2283.97 1552.17 2283.99 1552.15 2283.47 1552.06 2284.65 1551.96 2285.83 1551.87 2287.01 1551.78 2285.8 1551.68 2284.6 1551.59 2283.4 1551.38 2285.01 1551.1 2288.18 1551.06 2288.59 1550.96 2287.11 1550.87 2285.63 1550.77 2284.14 1550.14 2290.85 1550.14 2290.78 1550.09 2291.36L1550.05 2291.06C1549.71 2300.99 1550.07 2301.01 1549.41 2304.95 1549.39 2304.45 1549.3 2302.14 1549.11 2298.76 1548.49 2306.85 1548.38 2309.31 1548.34 2310.23L1548.26 2308.81 1548.04 2310.2C1547.87 2308.89 1547.76 2308.01 1547.43 2293.63 1547.17 2297.45 1547.09 2297.42 1546.82 2307.04L1546.67 2305.77 1546.44 2306.47C1546.26 2304.32 1546.79 2301.9 1545.89 2300.01 1545.49 2299.17 1544.73 2301.48 1544.5 2302.4 1543.77 2300.06 1543.72 2300.11 1543.62 2297.57 1543.48 2300.98 1543.46 2300.91 1543.36 2304.37 1543.22 2302.59 1543.09 2300.8 1542.95 2299.02 1541.8 2306.22 1542.55 2306.31 1541.2 2313.49 1540.8 2310.7 1540.88 2310.7 1539.88 2294.11 1539.78 2294.63 1539.68 2295.16 1539.58 2295.68L1539.45 2294.81C1539.4 2295.36 1538.91 2300.22 1538.35 2301.64 1538.22 2300.63 1538.1 2299.62 1537.97 2298.61 1537.58 2299.88 1537.33 2309.6 1537.26 2310.8L1537.16 2308.22 1537.03 2309.7 1537 2308.86 1536.91 2310.32C1535.9 2305.87 1536.34 2293.68 1534.6 2280.39 1534.46 2290.74 1534.35 2297.23 1534.33 2298.7 1534.05 2285.83 1533.93 2278.02 1533.9 2276.22 1533.84 2276.56 1533.8 2277.58 1533.74 2277.24 1533.44 2275.62 1533.29 2273.97 1533.17 2272.31 1532.52 2282.42 1532.53 2282.37 1532.19 2292.45L1532.04 2287.2 1531.96 2288.13 1531.92 2288.13 1531.77 2286.83 1530.99 2302.82C1530.65 2299.64 1530.36 2299.73 1529.92 2292.72 1529.82 2294.5 1529.72 2296.29 1529.63 2298.07 1529.36 2296.32 1529.39 2296.37 1529.37 2296.23L1529.25 2298.29 1529.14 2297.77C1529.04 2299.35 1528.95 2300.92 1528.85 2302.5L1528.8 2301.66 1528.72 2303.07 1528.57 2302.32C1528.3 2307.9 1527.82 2307.81 1527.4 2313.38 1527.04 2312.62 1527.3 2312.6 1526.43 2302.67 1525.27 2314.73 1525.36 2314.74 1525.09 2315.28 1524.52 2314.8 1524.62 2311.5 1524.05 2304.5L1523.81 2305.84 1523.54 2304.61C1523.03 2307.05 1522.96 2307 1522.72 2309.47L1522.56 2306.36C1522.51 2306.96 1522.45 2307.55 1522.39 2308.14L1522.27 2305.42 1522.15 2307.04 1522.09 2305.87 1522.03 2306.5 1521.93 2305.71C1521.57 2309.45 1521.64 2309.39 1521.55 2313.13L1521.49 2311.85C1521.35 2312.7 1521.2 2313.56 1521.05 2314.41 1520.9 2312.92 1520.76 2311.42 1520.61 2309.93L1520.53 2310.53C1520.19 2305.88 1519.89 2305.98 1519.51 2301.34 1519.18 2307.11 1518.92 2307.03 1518.61 2312.8L1518.56 2311.79 1518.47 2313.62 1518.39 2310.4 1518.25 2311.79C1518.07 2309.89 1517.81 2307.35 1517.03 2287.96L1516.88 2289.35 1516.77 2288.31C1516.06 2296.97 1516.5 2296.99 1515.25 2305.59 1514.62 2303.17 1514.82 2302.37 1514.65 2297.89 1514.54 2298.02 1514.58 2298.6 1514.52 2298.43 1514.39 2298.06 1514.47 2296.84 1514.42 2297.24 1513.97 2300.94 1513.85 2304.7 1513.3 2308.38 1513.06 2306.15 1513.05 2306.22 1512.93 2303.99 1512.83 2306.2 1513.06 2306.19 1512.53 2308.33 1511.96 2301.75 1511.53 2301.88 1511.08 2295.32 1509 2265.07 1509.52 2265.04 1509.25 2262.42 1509.23 2262.51 1508.66 2265.42 1508.63 2263.46 1508.62 2263.07 1508.76 2262.68 1508.69 2262.3 1508.1 2270.62 1508.2 2270.59 1507.97 2278.97 1507.92 2277.9 1507.82 2277.92 1507.4 2263.17L1507.3 2266.1C1507.26 2263.65 1507.22 2261.19 1507.19 2258.74 1506.86 2269.95 1506.81 2269.91 1506.58 2272.91 1506.46 2270.44 1506.34 2267.96 1506.23 2265.49 1505.73 2273.86 1504.71 2299.18 1504.21 2305.29 1504.02 2302.95 1504 2303 1503.72 2300.63 1503.56 2301.57 1502.88 2308.88 1502.71 2309.01 1502.54 2309.15 1502.8 2308.79 1501.95 2306.05 1501.65 2307.29 1501.42 2308.85 1501.38 2309.1 1501.05 2305.57 1500.9 2305.63 1500.54 2302.09 1500.2 2310.98 1500.27 2310.91 1499.99 2319.8L1499.94 2319.02C1499.81 2320.54 1499.83 2320.49 1499.73 2321.33L1499.58 2320.54C1499.25 2321.01 1499.14 2331.42 1498.06 2342.56L1497.93 2341.27C1497.89 2341.67 1497.31 2346.92 1497.03 2346.22 1496.67 2345.33 1495.64 2335.69 1495.54 2334.77L1495.27 2338.18C1495.15 2336.73 1495.04 2335.27 1494.92 2333.81 1493.84 2338.35 1493.9 2340.58 1493.12 2338.78 1492.29 2336.83 1492.8 2333.98 1492.33 2336.08 1492.14 2336.9 1492 2337.74 1491.84 2338.56L1491.58 2337.82 1491.2 2339.88 1490.84 2337.4 1490.26 2344.02C1489.82 2342.75 1488.67 2342.49 1487.74 2336.76L1487.39 2337.43C1486.79 2333.92 1486.27 2324.86 1486.21 2323.77 1486.04 2320.78 1486.16 2317.76 1485.83 2314.79 1485.77 2314.2 1485.13 2313.84 1485.05 2313.25 1484.81 2309.82 1482.52 2277.31 1481.69 2270.41 1481.42 2274.54 1481.34 2274.46 1481.18 2278.65 1481.14 2277.76 1480.91 2272.82 1480.7 2267.53 1480.63 2269.04 1480.55 2270.55 1480.48 2272.06 1480.44 2271.5 1480.34 2269.83 1480.1 2265 1479.61 2273.18 1479.9 2273.94 1479.44 2280.19 1479.17 2270.63 1479.2 2270.67 1479.06 2269.21 1478.72 2277.45 1478.81 2277.39 1478.45 2285.66 1478.44 2285.43 1478.28 2283.55 1478.17 2282.8 1478.03 2288.86 1477.78 2297.32 1477.74 2298.58L1477.57 2296.68C1477.38 2300.41 1477.25 2300.34 1476.84 2304.04 1476.82 2303.9 1476.52 2301.45 1476.44 2302.34 1476.16 2305.47 1475.96 2308.61 1475.87 2311.76L1475.81 2310.05C1475.4 2325.38 1474.7 2325.27 1473.3 2340.5 1473.12 2337.69 1473.21 2337.71 1472.91 2335.93 1472.84 2335.99 1472.79 2336.08 1472.78 2336.17 1472.69 2336.74 1472.72 2337.34 1472.59 2337.9 1471.62 2330.5 1472.03 2339.85 1471.65 2347.29 1470.83 2342.13 1470.5 2353.32 1470.39 2355.48 1470.17 2354.47 1470.17 2353.71 1470.17 2353.66 1469.97 2357.78 1469.95 2357.72 1469.62 2361.78L1469.59 2361.01 1469.56 2362.17C1469.53 2361.52 1469.19 2355.28 1468.87 2354.05 1468.66 2355.17 1468.58 2355.62 1468.05 2368.36L1467.92 2367.77C1467.81 2368.97 1467.7 2370.17 1467.59 2371.37 1467.54 2370.8 1467.48 2370.22 1467.43 2369.64 1467.28 2371.21 1467.47 2371.29 1467.07 2371.61 1466.96 2370.79 1466.85 2369.97 1466.74 2369.15 1466.44 2372.58 1466.46 2372.52 1466.29 2376.02 1465.9 2373.76 1465.99 2373.82 1465.84 2371.56 1465.64 2374.27 1465.66 2374.2 1465.55 2376.9 1465.49 2376.78 1465.52 2376.78 1465.4 2375.23L1465.29 2376.93 1465.27 2375.77 1465.16 2378.64C1464.81 2378.22 1464.93 2378.13 1463.71 2367.87 1463.48 2370.28 1463.53 2370.22 1463.5 2370.43L1463.38 2366.35C1463.21 2367.3 1463.17 2367.53 1462.71 2378.49 1462.36 2374.42 1462.25 2371.66 1462.22 2371.07L1462.06 2373.38C1461.59 2369.21 1461.62 2369.23 1461.56 2369.16 1461.44 2371.02 1461.41 2370.97 1461.28 2372.84 1461.2 2372.36 1461.12 2370.78 1461.11 2370.6 1461.05 2371.42 1460.99 2372.24 1460.93 2373.05 1460.86 2371.97 1460.78 2370.89 1460.7 2369.81 1460.5 2372.26 1460.33 2375.34 1460.31 2375.82 1460.17 2372.31 1460.25 2372.28 1460.07 2371.96 1459.85 2374.8 1459.84 2374.74 1459.71 2377.61 1459.43 2375.47 1459.39 2375.53 1459.26 2373.37 1459.21 2374.72 1459.16 2376.08 1459.12 2377.43L1459.01 2373.62C1458.99 2374 1458.25 2387.52 1457.52 2378.01L1457.5 2378.16 1457.5 1279.5Z" stroke="#000000" stroke-width="1.14583" stroke-miterlimit="8" fill="none" fill-rule="evenodd"/></g></svg>