<svg width="442" height="332" xmlns="http://www.w3.org/2000/svg" xmlns:xlink="http://www.w3.org/1999/xlink" xml:space="preserve" overflow="hidden"><defs><clipPath id="clip0"><rect x="815" y="-33" width="442" height="332"/></clipPath></defs><g clip-path="url(#clip0)" transform="translate(-815 33)"><path d="M-0.553333 44.2667C146.987 44.2667 294.572 44.2667 442.113 44.2667 442.113 51.4594 442.113 321.653 442.113 328.846 441.018 328.707 440.348 328.01 439.07 328.293 437.923 328.546 436.636 330.139 434.643 329.399 433.889 329.119 434.12 328.546 432.983 328.293 430.278 331.846 423.141 331.304 418.32 330.229 415.376 329.573 414.006 331.721 411.68 331.059 410.494 330.722 410.147 329.215 408.913 329.676 407.337 330.083 407.279 330.979 405.04 331.059 404.83 330.8 402.748 328.919 402.55 328.846 401.12 328.321 398.919 329.393 397.847 328.569 397.423 328.245 396.75 326.81 396.463 326.356 394.616 327.46 389.345 328.962 385.95 328.016 384.689 327.665 383.998 325.794 382.077 326.356 381.8 326.633 381.523 326.909 381.247 327.186 379.218 327.186 377.189 327.186 375.16 327.186 373.857 327.567 371.347 328.521 370.18 328.846 368.797 328.662 367.413 328.477 366.03 328.293 363.795 329.034 363.936 330.993 359.943 331.059 358.728 329.394 357.69 330.27 355.24 329.676 355.108 329.644 354.697 329.076 354.41 329.123 353.707 329.237 353.285 330.287 351.92 329.953 350.561 329.62 349.695 328.053 348.6 327.739 347.24 327.35 345.306 328.387 343.897 327.463 343.187 326.997 342.486 325.61 341.683 325.249 340.761 325.157 339.839 325.065 338.917 324.973 338.548 324.604 338.179 324.235 337.81 323.866 336.644 323.548 336.469 324.501 335.873 324.696 334.49 324.696 333.107 324.696 331.723 324.696 331.052 324.902 330.437 325.768 329.233 325.526 327.863 325.25 327.379 323.971 326.467 323.589 325.083 323.682 323.7 323.774 322.317 323.866 321.955 323.777 320.908 323.094 320.657 323.036 319.276 322.721 317.076 323.841 316.23 324.143 314.939 324.143 313.648 324.143 312.357 324.143 310.484 324.697 307.885 324.744 305.993 325.249 304.333 325.342 302.673 325.434 301.013 325.526 299.865 325.974 298.062 327.146 296.863 327.463 294.325 328.133 289.085 324.96 287.18 325.249 282.448 325.969 278.772 328.399 274.453 329.123 271.923 329.547 269.637 327.624 266.707 328.569 265.16 329.068 264.665 329.907 262.28 329.953 262.235 329.892 254.352 325.001 254.257 324.973 252.831 324.548 248.917 325.6 246.787 325.249 245.822 325.091 246.141 324.126 244.85 324.419 244.573 324.696 244.297 324.973 244.02 325.249 241.807 325.249 239.593 325.249 237.38 325.249 237.103 325.618 236.827 325.987 236.55 326.356 235.088 327.254 232.747 326.773 231.293 326.356 229.818 326.356 228.342 326.356 226.867 326.356 225.291 325.857 219.301 323.749 218.013 325.803 217.363 326.648 217.505 327.694 217.183 328.293 216.857 328.515 216.718 328.507 216.077 328.569 214.859 327.395 211.706 329.559 210.543 329.123 209.729 328.817 209.687 328.076 208.053 328.016 208.053 328.2 208.053 328.385 208.053 328.569 208.261 328.866 208.22 328.831 208.33 329.399 207.763 329.596 207.037 329.674 206.117 329.676 205.8 329.273 205.563 329.067 205.287 328.569 203.26 330.169 196.212 332.652 192.007 331.336 191.11 331.055 191.075 329.867 189.517 330.229 189.332 330.414 189.148 330.598 188.963 330.783 186.658 330.69 184.352 330.598 182.047 330.506 181.214 330.843 178.966 332.429 177.067 331.889 176.79 331.613 176.513 331.336 176.237 331.059 174.853 330.967 173.47 330.875 172.087 330.783 171.81 330.506 171.533 330.229 171.257 329.953 169.77 329.374 168.389 329.944 167.107 329.399 166.198 329.014 165.656 328.028 164.617 327.739 162.311 327.647 160.005 327.555 157.7 327.463 157.174 327.306 156.669 326.503 156.317 326.356 154.749 326.356 153.181 326.356 151.613 326.356 150.759 327.442 147.975 329.249 146.633 329.676 143.867 329.584 141.1 329.492 138.333 329.399 138.149 329.676 137.964 329.953 137.78 330.229 134.541 331.696 129.778 328.407 127.82 327.463 126.414 326.785 125.795 328.318 124.5 328.016 122.652 327.586 120.4 325.986 118.137 325.803 116.122 328.612 113.396 325.939 110.667 325.526 107.957 325.115 106.076 328.165 102.92 326.909 101.464 326.329 99.3764 324.469 96.5567 325.249 94.8115 325.732 93.0862 327.527 91.3 328.016 89.687 328.458 88.0481 327.455 86.8733 327.186 83.7487 326.471 82.2071 328.651 79.68 328.016 78.5501 327.732 77.8651 326.733 76.9133 326.356 75.4824 325.789 74.3641 325.956 73.04 325.249 72.6709 324.88 72.3024 324.512 71.9333 324.143 69.72 324.143 67.5067 324.143 65.2933 324.143 64.8573 323.995 64.3466 323.183 63.91 323.036 62.644 322.611 55.1718 322.639 54.2267 323.036 53.5167 323.334 52.1677 324.43 51.1833 324.696 49.7413 325.086 49.2395 324.231 47.8633 324.143 47.3183 325.02 46.6034 325.628 45.9267 326.356 42.8601 326.385 40.0027 326.014 37.6267 325.803 37.0429 326.753 36.6921 327.134 35.1367 327.186 34.5761 326.599 34.3227 326.453 33.2 326.356 32.6544 327.144 32.3667 327.19 30.9867 327.186 29.8839 326.098 28.9709 326.904 27.1133 326.356 26.088 326.054 23.1227 323.592 21.58 324.143 21.2181 324.272 20.4634 325.172 19.92 325.249 18.5206 325.447 17.8057 323.276 16.0467 324.143 13.8953 325.203 12.3316 327.271 9.40667 327.463 5.68716 324.154 2.33119 328.039-0.553333 328.569-0.553333 321.469-0.553333 51.367-0.553333 44.2667Z" stroke="#000000" stroke-width="0.553333" fill="#FFFFFF" fill-rule="evenodd" transform="matrix(1.001 0 0 1 815 -33)"/></g></svg>